<?xml version="1.0" encoding="UTF-8"?>
<svg id="_レイヤー_2" data-name="レイヤー 2" xmlns="http://www.w3.org/2000/svg" viewBox="0 0 335.34 127.23">
  <defs>
    <style>
      .cls-1, .cls-2, .cls-3 {
        fill: #fff;
      }

      .cls-2, .cls-3, .cls-4, .cls-5 {
        stroke: #000;
      }

      .cls-2, .cls-4 {
        stroke-miterlimit: 10;
        stroke-width: 1.5px;
      }

      .cls-6 {
        fill: #4c5ca7;
      }

      .cls-3, .cls-4, .cls-5 {
        stroke-linecap: round;
      }

      .cls-3, .cls-5 {
        stroke-linejoin: round;
        stroke-width: 1.42px;
      }

      .cls-4, .cls-5 {
        fill: none;
      }

      .cls-7 {
        fill: #adadad;
      }
    </style>
  </defs>
  <g id="_レイヤー_33" data-name="レイヤー 33">
    <g>
      <g>
        <path class="cls-1" d="m264.42,108.71l29.29,1.35c8.82-2.21,25.18,15.4,37.53,3.68l-42.18-43.73-13.18,12.93-9.18-.72"/>
        <path d="m289.37,109.84c1.72.16,5.09.19,5.09.19,7.97.29,24.43,15.43,36.77,3.71l-42.18-43.73-13.18,12.93,13.44,17.02s-1.34,4.71.06,9.88Z"/>
        <path class="cls-5" d="m265.7,108.62l28.02,1.44c7.58-.88,25.18,15.4,37.53,3.68l-42.18-43.73-13.18,12.93-9.18-.72"/>
        <rect class="cls-3" x="280.41" y="88.21" width="62.5" height="4" transform="translate(460.84 378.33) rotate(-133.52)"/>
      </g>
      <path class="cls-6" d="m195.9,80.37c.39,6.07,3.81,18.44,11.49,26.12,8.09,8.09,15.92,7.08,26.55,6.77s28.34-1.9,38.2-2.76c.14-1.53,1.67-4.77.9-7.63-1.04-3.85-2.55-7.7-1.74-11.58.61-2.95,2.29-6.15,1.49-10.63-14.43-1.9-27.29-4.37-42.03-6.15,2.33-9.08,5.6-39.01,4.63-47.95-.83-7.68-6.36-15.62-13.02-18.2-7.2-2.79-15.51-5.67-21.2-.45-5.11,4.69-6.03,12.29-6.63,19.2-1.47,16.97-3.94,34.84,2.16,50.74"/>
      <path class="cls-6" d="m203.62,6.25c3.6-.4,7.28-.27,10.83.38,4.13.76,8.15,2.26,11.56,4.75,3.78,2.77,6.44,6.76,7.77,11.23.86,2.89,1.2,5.91,1.19,8.92,0,4.29-.35,8.61-.64,12.89-.62,8.92-1.64,17.83-3.54,26.58-.24,1.11-.49,2.21-.76,3.31-.12.51.23.9.72.95,11.34,1.18,22.59,3.09,33.84,4.89,2.66.43,5.32.84,7.99,1.23.4.06.8-.1.92-.52.1-.35-.12-.86-.52-.92-10.77-1.55-21.48-3.51-32.27-4.97-3.31-.45-6.63-.86-9.96-1.2l.72.95c2.16-8.91,3.38-18.02,4.11-27.15.37-4.59.62-9.18.82-13.78.14-3.28,0-6.56-.72-9.77-1.1-4.91-3.59-9.46-7.43-12.75-3.36-2.88-7.49-4.73-11.78-5.74-3.8-.89-7.77-1.19-11.66-.89-.4.03-.8.07-1.2.11-.95.11-.96,1.61,0,1.5h0Z"/>
      <path class="cls-6" d="m194.61,47.76c-.44,2.16-.63,4.39-.78,6.59-.23,3.33-.28,6.67-.21,10,.19,8.26,1.14,16.62,3.47,24.57s5.89,15.33,12.24,20.34c2.63,2.08,5.71,3.83,9.06,4.33,4.1.61,8.31.56,12.45.49,12.17-.19,24.34-1.19,36.44-2.36,1.45-.14,2.9-.29,4.36-.44.95-.1.96-1.6,0-1.5-12.08,1.25-24.21,2.27-36.35,2.68-4.66.16-9.36.27-14.02-.07-1.43-.11-2.81-.23-4.2-.6-1.56-.42-3.06-1.22-4.43-2.06-6.71-4.09-10.77-11.31-13.25-18.56-2.65-7.76-3.8-16.01-4.17-24.19-.16-3.5-.17-7.01,0-10.51.06-1.37.15-2.73.28-4.1.05-.59.12-1.19.19-1.78s.09-.72.18-1.31c.06-.39.13-.77.2-1.16.19-.94-1.26-1.35-1.45-.4h0Z"/>
      <path d="m201.39,59.96c1.63-.4,3.22-1.12,4.69-1.9,2.97-1.59,5.66-3.88,7.33-6.84,1.17-2.07,1.77-4.39,1.88-6.76.04-.96-1.46-.96-1.5,0-.17,3.76-1.85,7.13-4.63,9.64-1.92,1.73-4.29,3.06-6.63,3.92-.5.19-1.02.36-1.54.49-.94.23-.54,1.68.4,1.45h0Z"/>
      <path class="cls-1" d="m105.47,98.33c-13.71-10.36-21.15-23.37-10.02-43.94C114.42,19.31,179.46-4.5,203.62,3c4.46,8.33,3.62,13.72,2.91,23.66,2.8,11.79.03,19.52-3.72,27.84.28,8.65-1.79,15.45-6.91,25.87-17.05,12.34-72.88,31.24-90.43,17.96Z"/>
      <path d="m90.72,73.91c0-4.09.76-8.14,2.11-12s3.46-7.82,5.87-11.33c2.61-3.81,5.67-7.29,8.96-10.52,3.56-3.48,7.41-6.66,11.44-9.59s8.64-5.85,13.18-8.41,9.4-4.97,14.26-7.11,9.68-3.98,14.64-5.62,9.56-2.93,14.43-4.02c4.43-.99,8.92-1.78,13.45-2.23,3.96-.4,7.96-.56,11.93-.3.88.06,1.75.14,2.62.24.96.11.95-1.39,0-1.5-3.85-.46-7.76-.45-11.62-.19-4.5.3-8.98.95-13.4,1.82-4.86.96-9.67,2.19-14.41,3.65-5.05,1.55-10.02,3.34-14.89,5.36s-9.84,4.34-14.59,6.87-9.28,5.24-13.67,8.26c-4.2,2.88-8.25,6.02-12.02,9.45-3.55,3.23-6.85,6.73-9.77,10.55-2.67,3.5-4.99,7.28-6.73,11.33-1.67,3.9-2.79,8.02-3.16,12.25-.09,1.01-.13,2.02-.13,3.03s1.5.97,1.5,0h0Z"/>
      <g>
        <path class="cls-1" d="m217.48,113.55c-20.32,2.44-32.06,4.03-48.33,2.1-10.14-1.2-10.79-5.22-10.33-11.62h0c.46-6.4,4.13-14.79,15.98-13.39,0,0,21.08,2.55,34.92,2.24,10.44-.23,23.42-1.09,29.81,9.36,2.14,3.51-13.01,10.22-22.05,11.31Z"/>
        <rect class="cls-1" x="234.86" y="92.93" width="3.28" height="9.75" rx="1.64" ry="1.64" transform="translate(337.27 333.06) rotate(-135.66)"/>
        <rect class="cls-1" x="235.39" y="94.64" width="6" height="12.76" rx="3" ry="3" transform="translate(329.84 343.24) rotate(-133.65)"/>
        <rect class="cls-1" x="230.71" y="91.88" width="3.7" height="9.75" rx="1.85" ry="1.85" transform="translate(331.25 328.51) rotate(-135.66)"/>
        <path class="cls-1" d="m228.26,96.82c-2.24,1.15-9.41,3.65-9.41,3.65-2.87,1.01-5.03-.12-5.61-2.43-.72-2.85,1.82-4.57,2.96-4.75,4.17-.67,7.52-1.77,10.34-2.05,2.09-.2,4.64-.46,4.82.67s-.62,3.63-3.1,4.91Z"/>
        <path class="cls-1" d="m166.51,115.57l-26.13-1.92c-7.26-.53-12.78-6.12-12.31-12.47l.1-1.37c.47-6.35,6.73-11.07,14-10.54l26.13,1.92c7.26.53,12.78,6.12,12.31,12.47l-.1,1.37c-.47,6.35-6.75,10.24-14,10.54Z"/>
      </g>
      <g>
        <path d="m129.82,108.5c12.45,4.56,25.52,7.26,38.72,8.36s25.61.66,38.3-.94c6.82-.86,13.59-2.05,20.29-3.55.94-.21.54-1.66-.4-1.45-12.02,2.7-24.28,4.4-36.6,4.89s-25.79-.3-38.43-2.78c-7.3-1.43-14.49-3.42-21.48-5.98-.91-.33-1.3,1.12-.4,1.45h0Z"/>
        <path d="m153.25,90.02c3.32.35,6.65.63,9.98.9,4.88.4,9.77.76,14.65,1.1,5.47.38,10.95.72,16.43,1.01,5.03.26,10.06.49,15.1.6,3.57.08,7.16.16,10.72-.1.29-.02.57-.05.86-.08.95-.1.96-1.6,0-1.5-3.31.34-6.66.26-9.98.21-4.89-.08-9.77-.29-14.65-.53-5.48-.27-10.95-.6-16.43-.97-5.03-.34-10.07-.71-15.1-1.11-3.58-.29-7.15-.58-10.72-.94-.29-.03-.57-.06-.86-.09-.96-.1-.95,1.4,0,1.5h0Z"/>
        <path d="m227.35,112.4c3.84-1.62,7.73-3.28,11.15-5.7,1.67-1.18,3.22-2.54,4.51-4.13,1.37-1.7,2.53-3.7,1.53-5.89-.35-.77-1-1.45-1.86-1.58-1.01-.15-1.79.53-2.31,1.33l1.3.76c.81-1.34-.5-3.69-1.86-4.19-1.6-.59-3.83.72-4.44,2.21l1.45.4c.36-1.59-.87-4.34-2.87-3.46-.73.32-1.28.99-1.79,1.57-.27.31-.54.62-.84.91-.19.18-.41.36-.52.35-.96-.05-.96,1.45,0,1.5,1.24.06,2.16-1.44,2.9-2.23.24-.25.71-.85,1.04-.73.57.21.76,1.19.64,1.7-.22.96,1.09,1.27,1.45.4.27-.67,1.78-1.49,2.48-1.21.48.19,1.39,1.53,1.08,2.03-.5.83.77,1.56,1.3.76.25-.38.62-.81,1.07-.48.51.37.72,1.21.7,1.8-.02.95-.61,1.81-1.15,2.55-.49.67-1.04,1.29-1.62,1.87-2.4,2.43-5.4,4.19-8.46,5.68-1.73.84-3.5,1.6-5.27,2.35-.38.16-.64.49-.52.92.09.35.55.68.92.52h0Z"/>
        <path d="m229.98,103.66c3.67-1.99,6.4-5.54,7.39-9.6.23-.94-1.22-1.34-1.45-.4-.9,3.7-3.35,6.89-6.7,8.7-.85.46-.09,1.76.76,1.3h0Z"/>
        <path d="m234.65,105.81c3.79-2.32,6.56-6.14,7.57-10.47.22-.94-1.23-1.34-1.45-.4-.92,3.96-3.41,7.45-6.88,9.57-.82.5-.07,1.8.76,1.3h0Z"/>
        <path d="m221.19,93.43l6.08-1.29c.9-.19,4.02-1.26,3.75.65-.21,1.53-1.76,2.66-2.91,3.5-1.38,1.01-2.9,1.85-4.5,2.46-1.86.71-3.81,1.15-5.8,1.27-.96.06-.97,1.56,0,1.5,4.18-.26,8.23-1.75,11.55-4.31,1.42-1.09,2.93-2.43,3.15-4.32.1-.84-.19-1.66-.87-2.19-.8-.61-1.8-.59-2.75-.43-2.72.46-5.41,1.14-8.1,1.71-.94.2-.54,1.65.4,1.45h0Z"/>
      </g>
      <path class="cls-1" d="m148.31,116.35s-12.44-1.4-29.24-8.69c-13.44-5.83-21.26-13.25-13.16-20.88,13.9-13.1,49.47-1.11,49.47-1.11.99,8.26-.14,21.39-7.06,30.67Z"/>
      <g>
        <path d="m103.74,88.96c1.1,1.08,2.45,1.88,3.87,2.46.36.15.84-.16.92-.52.1-.44-.13-.76-.52-.92-.13-.05.05.02-.03-.01-.05-.02-.1-.04-.15-.06-.09-.04-.17-.08-.26-.12-.18-.08-.35-.17-.52-.27-.32-.17-.64-.36-.94-.57-.13-.09-.27-.18-.39-.27-.07-.05-.15-.1-.2-.15.03.03.11.09.03.03-.03-.03-.06-.05-.09-.08-.22-.18-.44-.37-.64-.57-.28-.28-.78-.3-1.06,0s-.3.77,0,1.06h0Z"/>
        <path d="m109.5,98.57c-1.27-3.46-1.75-7.28.46-10.31.87-1.19,2.2-2.18,3.61-2.91,1.64-.86,3.44-1.41,5.27-1.82,4.35-.97,8.88-1.08,13.32-.91s9.01.69,13.45,1.49c3.22.58,6.49,1.24,9.57,2.38.11.04.23.09.34.13.08.03.42.17.22.09.38.16.8.11,1.03-.27.19-.31.1-.87-.27-1.03-2.91-1.24-6.08-1.9-9.17-2.5-4.55-.88-9.16-1.47-13.79-1.73s-9.45-.19-14.07.68c-3.63.69-7.57,1.96-10.12,4.78s-2.89,6.93-1.86,10.62c.16.58.35,1.15.56,1.71.33.9,1.78.51,1.45-.4h0Z"/>
      </g>
      <path d="m100.12,92.17c1.33,3.83,4.6,6.75,7.76,9.1,4.74,3.52,10.13,6.13,15.57,8.37,6.88,2.83,14.05,4.98,21.29,6.65,8.25,1.9,16.66,3.16,25.11,3.8,8.88.67,17.83.63,26.7-.26,1.09-.11,2.18-.23,3.27-.37.95-.12.96-1.62,0-1.5-8.72,1.09-17.54,1.33-26.32.86s-16.8-1.54-25.05-3.26c-7.34-1.53-14.6-3.54-21.62-6.2-5.65-2.13-11.22-4.68-16.26-8.03-3.32-2.21-6.83-4.94-8.61-8.59-.18-.37-.26-.56-.4-.97-.31-.91-1.76-.52-1.45.4h0Z"/>
      <path class="cls-6" d="m195.43,83.19c2.98-3.91,7.7-13.31,9.41-22.44,1.81-9.61-2.7-14.79-1.23-22.62h0c1.39-7.4,4.53-10.62,4.61-18.37.09-8.17-1.94-15.51-4.61-19.02-26.98-2.24-85.2,15.95-106.47,48.65-.45.69-.28,1.62.37,2.11,1.81,1.35-.42,3.68,4.12,9.23,3.78,4.63,17.11,4.31,23.96,14.19,3.73,5.39,6.67,18.31-.79,35.06.84,3,2.56,1.74,5.39,2.48,1.81.48,1.67,1.76,3.39,2.59,1.88.91,3.25-.44,4.12.28,5.39,4.5,40.34,7.12,61.79,4.58.65-.08,1.18-.56,1.31-1.2,1.46-6.85,2.96-18.54,3.03-26.97,0-.32-.26-.58-.58-.58-6.47-.03-13.25-.6-20.11-1.43,5.2-2.25,9.47-4.51,12.28-6.55"/>
      <path class="cls-4" d="m195.43,83.19c2.98-3.91,7.7-13.31,9.41-22.44,1.81-9.61-2.7-14.79-1.23-22.62h0c1.39-7.4,4.53-10.62,4.61-18.37.09-8.17-1.94-15.51-4.61-19.02"/>
      <path d="m72.74,117.45c2.57,6.32,26.59,1.27,23.57-5.23-.34-.73,6.64-2.66,2.66-10.44-5.35-10.45-19.21-4.42-24.85-1.94-13.39,5.88-12.85,15.54-1.38,17.61Z"/>
      <g>
        <path d="m67.23,73.27c-1.94-4.84-8.39-3.87-12.12-.51-3.46,3.13-4.87,7.75-7.41,11.66-2.54,3.91-5.4,7.93-9.63,9.88-3.26,1.5-6.95,1.61-10.5,2.11-7.7,1.09-15.1,4.18-21.3,8.88-5.18,3.93-8.42,10.91-2.94,13.77,2.35,1.23,4.95.58,7.52-.07,2.57-.66,10.16-4.89,7.5,1.19-2.5,5.71,2.84,6.66,6.1,6.52,5.57-.23,12.06-4.8,16.03-8.72,1.09-1.07,2.08-2.27,3.36-3.11,1.28-.84,2.95-1.27,4.35-.65.78.35,1.4.98,2.18,1.31,1.34.57,2.94.12,4.07-.79s1.87-2.21,2.5-3.52c2.22-4.69,3.27-9.89,5.81-14.41,2.65-4.71,6.76-8.4,9.89-12.8,2.34-3.29,7.53-9.95,3.57-12.72-2.05-1.44-6.64-.86-8.93,1.97"/>
        <path d="m67.72,73.14c-.58-1.39-1.53-2.53-2.93-3.15s-2.87-.66-4.31-.41c-3.56.6-6.37,3-8.33,5.92-1.16,1.73-2.07,3.61-3.03,5.46s-2.07,3.63-3.27,5.36c-2.43,3.5-5.39,6.81-9.56,8.15-2.28.73-4.67.96-7.03,1.24-2.23.26-4.45.63-6.63,1.19-4.32,1.1-8.5,2.83-12.33,5.11-3.41,2.03-6.79,4.43-8.83,7.92-1.49,2.56-2.29,6.04.01,8.39,2.74,2.81,7.14,2.06,10.46.86,1.1-.4,2.18-.85,3.29-1.22.8-.26,1.91-.7,2.76-.46s.27,1.67.03,2.26c-.56,1.39-1.11,2.91-.58,4.4.85,2.4,3.8,3,6.05,3.06,3.78.11,7.4-1.52,10.55-3.48,1.79-1.12,3.48-2.39,5.07-3.78s2.84-2.96,4.43-4.23c.89-.71,1.98-1.26,3.14-1.29s1.97.68,2.94,1.27c1.68,1.01,3.73.6,5.2-.59,1.72-1.39,2.62-3.59,3.43-5.58.87-2.13,1.58-4.32,2.35-6.49s1.7-4.47,2.92-6.53c1.14-1.92,2.52-3.67,3.95-5.37,2.54-3.03,5.08-6.01,7.32-9.27.97-1.41,1.89-2.87,2.57-4.44.55-1.28.99-2.71.74-4.12-.57-3.18-4.34-3.65-6.92-2.98-1.63.42-3.15,1.29-4.23,2.59-.41.49.29,1.2.71.71,1.08-1.3,2.6-2.12,4.26-2.44,1.31-.26,2.93-.25,4.07.55,2.57,1.81.45,5.62-.74,7.61-1.8,3.01-3.99,5.83-6.26,8.5-2.73,3.21-5.56,6.38-7.41,10.21s-2.97,8.38-4.81,12.43c-.84,1.86-1.93,4-4.02,4.65-1.03.32-1.97.15-2.86-.44-.81-.54-1.55-1.08-2.54-1.21-1.99-.26-3.8.85-5.2,2.16s-2.69,2.74-4.16,3.99c-3.04,2.58-6.56,4.92-10.42,6.04-2.39.7-5.59.98-7.85-.34-1.02-.6-1.53-1.57-1.47-2.75.09-1.5,1.09-2.75,1.19-4.24.16-2.32-2.47-1.93-3.93-1.5-1.08.32-2.12.74-3.17,1.14-1.27.48-2.56.83-3.9,1.08-2.09.39-4.31.28-5.98-1.19-1.08-.95-1.53-2.28-1.42-3.7.25-3.34,2.9-6.39,5.42-8.36,3.39-2.64,7.24-4.75,11.25-6.3s8.25-2.42,12.57-2.92c2.19-.26,4.4-.52,6.5-1.23,1.88-.63,3.58-1.64,5.1-2.92s2.76-2.76,3.92-4.32,2.31-3.26,3.29-4.98c1.95-3.44,3.4-7.32,6.4-10.02,2.14-1.93,5.49-3.31,8.37-2.42,1.35.42,2.37,1.41,2.91,2.71.24.59,1.21.33.96-.27h0Z"/>
      </g>
      <path class="cls-2" d="m102.57,92.83c-.09-2.32-.56-4.54-1.33-6.61.73-1.14,1.16-2.48,1.16-3.94,0-4.02-3.26-7.28-7.28-7.28-.92,0-1.8.18-2.61.49-.81-.51-1.66-.96-2.54-1.36,0-.07,0-.15,0-.22-.16-3.86-2.75-6.89-5.78-6.77-2.47.1-4.48,2.27-5.05,5.16-11.34,1.02-20,10.78-19.54,22.29.48,11.86,10.49,21.09,22.36,20.61s21.09-10.49,20.61-22.36Z"/>
      <path d="m98.24,82.67c1.22,1.36,2.11,3.16,2.67,4.9.12.39.52.63.92.52.38-.1.65-.54.52-.92-.64-2.01-1.63-3.98-3.06-5.56-.27-.3-.78-.28-1.06,0-.3.3-.27.76,0,1.06h0Z"/>
      <path d="m96.15,96.54c.35-1.34.16-2.84-.93-3.79-.96-.84-2.36-1.06-3.46-.31-1.53,1.04-1.67,3.14-1.09,4.77.23.65.59,1.32,1.23,1.63.43.21.87.33,1.35.36.64.04,1.26-.17,1.76-.57.62-.5.93-1.3,1.08-2.06.08-.4-.11-.81-.52-.92-.37-.1-.84.12-.92.52-.03.16-.07.32-.12.48-.02.07-.05.14-.07.21-.07.21.06-.11-.03.07-.06.11-.11.22-.18.32-.02.03-.14.17-.01.03-.05.05-.09.11-.14.16-.04.03-.07.07-.11.1.14-.13.05-.03,0,0-.06.03-.33.15-.1.07-.07.02-.14.05-.21.07-.04.01-.08.02-.13.03-.12.04.19,0-.01,0-.08,0-.17,0-.25,0-.04,0-.08,0-.12,0-.15,0,.19.04.04,0-.16-.04-.32-.07-.48-.13-.22-.08.11.06-.04-.02-.05-.02-.09-.05-.14-.07-.05-.03-.14-.12-.01,0-.04-.04-.08-.08-.12-.12-.13-.13.07.12-.03-.04-.05-.08-.1-.15-.14-.23-.03-.06-.07-.13-.09-.19.06.13-.04-.1-.04-.1-.05-.15-.1-.31-.14-.47-.09-.37-.11-.65-.11-1.05,0-.3.02-.53.1-.8,0-.01.09-.22.03-.09.03-.06.06-.13.1-.19s.07-.12.11-.18c.05-.07.06-.08.01-.02.03-.04.06-.07.09-.1.05-.05.1-.1.15-.15.15-.14-.11.05.07-.05.06-.04.12-.08.18-.11.01,0,.22-.09.08-.04.07-.02.13-.05.2-.06.02,0,.24-.04.08-.02.05,0,.1,0,.15,0,.03,0,.31.02.18,0,.12.02.23.06.35.09.14.04-.2-.1-.01,0,.13.07.26.15.38.23s-.13-.12-.02-.02c.04.04.09.08.13.11.07.06.13.13.19.2.03.04.11.17,0,0,.04.06.08.11.11.17.03.04.05.09.08.14.02.04.11.26.04.07.05.13.09.26.12.39.01.06.03.12.03.19-.03-.18,0,.1,0,.13.02.41-.02.58-.12.97s.13.81.52.92.82-.13.92-.52h0Z"/>
      <g>
        <path d="m83.12,114.55c-.37,2.05-5.12.45-8.25-.26-3.48-.79-9.71-5.61-9.34-7.67s3.69.66,9.21,1.65c5.53.99,8.75,4.22,8.38,6.27Z"/>
        <path d="m61.4,91.68c-1.67-5.13,1.43-11.71,5.76-15,2.95-2.24,12.03-8.35,15.43-1.62,1.39,2.76-.07,6.49-3.07,7.39s-9.19-.24-11.86,4.93c-2.32,4.5-5.52,6.57-6.26,4.31Z"/>
        <path d="m67.84,109.53c-4.19.2-7.19-8.65-7.48-12.55-.26-3.51-.93-10.64,2.36-10.8,3.52-.16,6.5,3.66,7.62,10.13,1.13,6.5.79,13.06-2.5,13.22Z"/>
      </g>
      <path d="m70.63,108.43c.81-2.55.91-5.33.76-7.98-.16-2.9-.65-5.84-1.65-8.57-.49-1.34-1.1-2.66-1.97-3.8-.54-.72-1.78-.01-1.22.72,1.98,2.62,2.8,6.11,3.21,9.31.42,3.26.51,6.8-.49,9.96-.28.87,1.09,1.24,1.37.38h0Z"/>
      <path d="m67.77,88.79c.82-1.89,1.93-3.74,3.93-4.52,1.56-.61,3.22-.5,4.86-.58,1.76-.09,3.76-.26,5.15-1.46,1.7-1.46,1.91-4.41,1.34-6.42-.49-1.72-1.9-4.04-3.93-4.11-.91-.03-.91,1.39,0,1.42.5.02,1.06.52,1.43.93.61.69,1.02,1.57,1.22,2.46.4,1.74.09,4.24-1.69,5.1-1.49.72-3.33.66-4.95.71-1.53.05-2.95.17-4.36.81-2.09.95-3.35,2.91-4.23,4.94-.36.83.86,1.55,1.22.72h0Z"/>
      <path d="m143.83,78c4.23-2.17,8.4-4.44,12.63-6.6,3.51-1.79,7.09-3.62,10.88-4.74,1.21-.36,2.48-.68,3.75-.6,1.1.07,2.05.81,3.23,1.03.97.18,1.98.08,2.72-.64.6-.59.88-1.42,1.11-2.21.13-.45.24-.9.39-1.34.08-.24.13-.37.19-.49.05-.09.09-.18.15-.27.02-.03.18-.26.09-.15.27-.34.38-.41.79-.49s1.13.08,1.66.25c.92.3,1.31-1.15.4-1.45-1.02-.33-2.24-.53-3.22.04-.79.46-1.21,1.29-1.49,2.12-.14.39-.24.79-.35,1.19-.05.19-.11.38-.17.57-.03.09-.06.18-.09.28-.04.1-.08.22-.07.18-.18.4-.25.54-.53.78.08-.06-.28.14-.23.12-.26.09-.25.08-.54.08-1.14-.01-2.14-.83-3.28-1.03-1.25-.23-2.55-.03-3.77.25-3.67.86-7.16,2.6-10.51,4.27-4.88,2.42-9.64,5.05-14.48,7.53-.86.44-.1,1.73.76,1.29h0Z"/>
      <path d="m182.87,55.5c1.43.45,2.74,1.31,3.86,2.29,1.33,1.16,2.46,2.52,3.3,4.08.46.85,1.75.09,1.29-.76-.91-1.69-2.17-3.21-3.63-4.46-1.3-1.12-2.79-2.08-4.44-2.6-.92-.29-1.32,1.16-.4,1.45h0Z"/>
      <path d="m192.26,52.77c.93.94,1.76,1.93,2.4,3.09.95,1.73,1.39,3.67,1.49,5.63.05.96,1.55.97,1.5,0-.11-2.19-.6-4.34-1.64-6.29-.7-1.3-1.64-2.45-2.68-3.49-.68-.68-1.74.38-1.06,1.06h0Z"/>
      <path d="m74.87,82.92c2.82-.24,5.41,1.51,6.15,4.25.25.93,1.7.54,1.45-.4-.9-3.34-4.13-5.65-7.6-5.35-.4.03-.75.32-.75.75,0,.38.34.78.75.75h0Z"/>
      <path d="m94.1,120.3c2.64-.28,5.46-1.29,6.9-3.68,1.06-1.77.97-4-.43-5.55-.87-.96-2.13-1.5-3.38-1.72-.4-.07-.81.11-.92.52-.1.36.12.85.52.92.91.16,1.83.49,2.45,1.06.33.3.47.47.67.84.16.29.26.56.32.99-.02-.14,0,.08,0,.12,0,.1,0,.19,0,.29,0,.26-.01.35-.04.49-.09.42-.19.73-.36,1.04-.42.79-1.04,1.42-1.83,1.92-1.17.74-2.54,1.12-3.91,1.27-.4.04-.75.31-.75.75,0,.37.34.79.75.75h0Z"/>
      <path d="m66.08,106.72c-1.8.32-3.2,1.95-4,3.5s-1.33,3.62-.51,5.3c.45.92,1.35,1.5,2.33,1.71s1.34-1.25.4-1.45c-.39-.08-.59-.15-.89-.35-.09-.06,0,.01-.11-.09-.05-.05-.1-.1-.15-.15-.11-.11-.02,0-.08-.1-.05-.07-.09-.14-.13-.21-.1-.18-.07-.1-.14-.32-.05-.15-.09-.31-.11-.47-.02-.13.01.1,0-.03,0-.04,0-.08,0-.12,0-.08,0-.16,0-.24,0-.19,0-.38.03-.57.02-.23.12-.67.21-.99.11-.38.24-.7.41-1.05.35-.71.76-1.33,1.31-1.88s1.1-.93,1.85-1.06c.4-.07.62-.56.52-.92-.12-.42-.52-.59-.92-.52h0Z"/>
      <g>
        <ellipse class="cls-7" cx="85.88" cy="98.74" rx="5" ry="7.44" transform="translate(-6.58 6.13) rotate(-3.94)"/>
        <path d="m86.9,108.45c.16-.06.33-.12.48-.21s.29-.19.42-.3c.23-.19.42-.44.58-.69.05-.09.08-.18.09-.28.02-.1.02-.2-.01-.3-.02-.1-.07-.18-.13-.25-.05-.08-.12-.15-.21-.19-.17-.09-.38-.14-.58-.08s-.34.17-.45.34c-.05.08-.1.15-.15.22l.12-.15c-.1.13-.22.25-.35.35l.15-.12c-.13.1-.26.18-.41.24l.18-.08s-.07.03-.11.04c-.19.06-.35.17-.45.34-.05.09-.08.18-.09.28-.02.1-.02.2.01.3.06.18.17.36.34.45s.39.14.58.08h0Z"/>
        <path d="m85.45,107.01c-.76-.02-1.69-.76-1.33-1.91.23-.72.64-.86,1.39-.84s1.36.65,1.34,1.41-.65,1.36-1.41,1.34Z"/>
        <path d="m85.35,90.35c.14.12.26.26.37.4l-.12-.15c.15.2.28.41.38.64l-.08-.18c.03.08.06.16.08.24.05.18.18.35.34.45s.4.13.58.08.36-.17.45-.34.13-.38.08-.58c-.1-.33-.25-.65-.45-.94-.17-.24-.36-.48-.57-.68-.15-.13-.33-.22-.53-.22-.18,0-.4.08-.53.22s-.23.33-.22.53.07.4.22.53h0Z"/>
        <path d="m84.39,93.38c-.76-.02-1.32-.35-1.35-1.11-.05-1.01.65-1.66,1.41-1.64s1.36.65,1.34,1.41-.65,1.36-1.41,1.34Z"/>
        <path d="m83.29,100c1.19-.18,2.38-.36,3.57-.54.39-.06.64-.57.52-.92-.14-.42-.51-.59-.92-.52-1.19.18-2.38.36-3.57.54-.39.06-.64.57-.52.92.14.42.51.59.92.52h0Z"/>
      </g>
      <path d="m108.65,40.85c.93.69,1.66,1.57,1.93,2.71.23.99.13,2.03.11,3.03-.02,1.18.05,2.38.36,3.52.41,1.49,1.22,2.82,2.2,4.01,2.51,3.01,6.32,3.87,9.74,5.43,5.05,2.29,8.8,6.46,11.22,11.41,2.54,5.21,3.2,11.21,3,16.94-.23,6.6-1.62,13.21-4.07,19.35-.36.9,1.09,1.29,1.45.4,2.21-5.55,3.53-11.48,3.99-17.43s.05-12.26-2.15-17.9c-2.08-5.33-5.84-10.34-10.89-13.16-1.78-.99-3.69-1.69-5.58-2.44-1.62-.64-3.25-1.36-4.57-2.53-1.14-1.01-2.11-2.31-2.65-3.73-.49-1.29-.57-2.62-.54-3.98.02-1.18.1-2.39-.23-3.54-.4-1.43-1.38-2.5-2.55-3.37-.78-.57-1.53.73-.76,1.29h0Z"/>
      <path class="cls-1" d="m295.76,100.66c6.42,1.27,14.11,3.34,17.69,9.38.84,1.42,1.39,2.97,1.73,4.58.2.94,1.64.54,1.45-.4-.64-3.05-2.09-5.86-4.34-8.04-2.48-2.4-5.66-3.95-8.89-5.07-2.36-.82-4.79-1.41-7.23-1.89-.94-.19-1.35,1.26-.4,1.45h0Z"/>
      <path d="m161.17,86.97c2.84-.19,5.74.06,8.56.37,3.41.37,6.84.93,10.13,1.93.93.28,1.32-1.17.4-1.45-3.36-1.02-6.86-1.57-10.34-1.96-2.89-.32-5.84-.58-8.75-.39-.96.06-.97,1.56,0,1.5h0Z"/>
      <path d="m27.31,91.64c3.46.47,6.65,2.14,8.98,4.75.64.72,1.7-.34,1.06-1.06-2.48-2.77-5.95-4.63-9.64-5.14-.4-.05-.8.1-.92.52-.1.35.12.87.52.92h0Z"/>
      <path d="m38.36,86.11c-.24,2.3.36,4.68,1.65,6.61.22.34.66.48,1.03.27.33-.2.5-.69.27-1.03-1.16-1.73-1.66-3.78-1.44-5.85.04-.4-.37-.75-.75-.75-.44,0-.71.35-.75.75h0Z"/>
    </g>
  </g>
</svg>