<?xml version="1.0" encoding="UTF-8"?>
<svg id="_レイヤー_2" data-name="レイヤー 2" xmlns="http://www.w3.org/2000/svg" viewBox="0 0 294.44 271.43">
  <defs>
    <style>
      .cls-1, .cls-2, .cls-3, .cls-4 {
        fill: #fff;
      }

      .cls-2, .cls-3 {
        stroke-width: 1.5px;
      }

      .cls-2, .cls-3, .cls-4, .cls-5 {
        stroke: #000;
      }

      .cls-2, .cls-4, .cls-5 {
        stroke-linejoin: round;
      }

      .cls-3 {
        stroke-miterlimit: 10;
      }

      .cls-6 {
        fill: #4c5ca7;
      }

      .cls-4, .cls-5 {
        stroke-linecap: round;
        stroke-width: 1.42px;
      }

      .cls-5 {
        fill: none;
      }

      .cls-7 {
        fill: #adadad;
      }
    </style>
  </defs>
  <g id="_レイヤー_21" data-name="レイヤー 21">
    <g>
      <g>
        <path class="cls-1" d="m198.36,221.68l3.76,10.03c7.09,5.68,29.31-3.51,35.65,12.29l-56.57,22.18-11.72-29.83"/>
        <path d="m197.11,232.93c1.97-1.01,5.01-1.22,5.01-1.22,9.39,3.96,29.31-3.51,35.65,12.29l-56.57,22.18-6.75-16.35s5.12-2.61,13.34-6.84c1.03-2.91,5.48-8.09,9.31-10.06Z"/>
        <path class="cls-1" d="m194.89,244.61c3.97.71,8.05,1.02,12.07.74,3.35-.23,6.75-.99,9.31-3.28.72-.64-.34-1.7-1.06-1.06-2.35,2.1-5.6,2.7-8.65,2.87-3.77.21-7.56-.06-11.28-.72-.94-.17-1.35,1.28-.4,1.45h0Z"/>
        <path class="cls-5" d="m199.93,224.45l2.2,7.26c6.52,3.95,29.31-3.51,35.65,12.29l-56.57,22.18-11.72-28.41"/>
        <rect class="cls-4" x="178.92" y="255.23" width="62.5" height="4" transform="translate(-80.68 96.77) rotate(-21.86)"/>
      </g>
      <g>
        <path class="cls-1" d="m246.37,169.26l6.59,8.45c8.47,3.31,26.92-12.1,37.69,1.09l-47.37,38.06-20.09-24.97"/>
        <path d="m248.54,180.37c1.58-1.55,4.42-2.66,4.42-2.66,10.14.98,26.92-12.1,37.69,1.09l-47.37,38.06-11.32-13.59s4.11-4.02,10.69-10.51c.12-3.09,2.82-9.35,5.88-12.38Z"/>
        <path class="cls-1" d="m249.88,192.18c4.02-.51,8.02-1.43,11.8-2.91,3.1-1.21,6.12-2.94,7.87-5.87.5-.83-.8-1.59-1.29-.76-1.61,2.69-4.48,4.25-7.33,5.32-3.55,1.34-7.28,2.23-11.04,2.71-.94.12-.96,1.62,0,1.5h0Z"/>
        <path class="cls-5" d="m248.69,171.44l4.26,6.27c7.41,1.82,26.92-12.1,37.69,1.09l-47.37,38.06-19.66-23.61"/>
        <rect class="cls-4" x="237.01" y="197.66" width="62.5" height="4" transform="translate(-65.81 214.66) rotate(-39.23)"/>
      </g>
      <path class="cls-6" d="m74.59,166.59c1.8,11.89,9.18,26.01,17.63,32.31s17.04,7.45,27.22,4.72c10.92-2.92,30-9.04,30-9.04l19.55,47.44,34.11-17.27s-8.8-33.8-18.18-60.64c2.6-2.6,6.83-7.24,6.83-7.24,0,0,17.27,21.11,32.74,39.82,10.36-8.5,18.35-16.48,27.78-25.28-8.76-15.62-37-61.65-47.56-63.5-9.65-1.7-17.62,1.08-25.48,4.98-8.77,4.35-15.33,8.57-23.74,13.58-25.41,15.12-53.29,25.52-81,35.84"/>
      <path class="cls-6" d="m73.31,164.31c1.11,4.78,2.05,9.58,3.65,14.23,2.04,5.89,5.01,11.47,9.26,16.06,2.17,2.35,4.68,4.58,7.49,6.12s5.75,2.51,8.77,3.26,6.41,1.27,9.66,1.38,6.56-.53,9.85-1.26c8.41-1.88,16.68-4.42,24.7-7.59.99-.39,1.97-.79,2.95-1.2l-.85-.34c5.34,12.07,9.92,24.44,14.94,36.63,1.49,3.62,3.03,7.23,4.61,10.81.39.88,1.68.12,1.29-.76-5.35-12.1-9.95-24.51-14.99-36.74-1.48-3.59-2.99-7.16-4.56-10.7-.12-.27-.57-.46-.85-.34-7.77,3.25-15.79,5.9-23.97,7.93-2.06.51-4.14.98-6.22,1.41-1.46.3-2.9.57-4.39.64-3.1.15-6.23-.17-9.28-.76s-6.15-1.44-9.01-2.71-5.23-3.05-7.45-5.16c-4.5-4.27-7.73-9.66-9.92-15.43-1.77-4.68-2.85-9.55-3.92-14.42-.11-.48-.21-.96-.32-1.44-.22-.94-1.66-.54-1.45.4h0Z"/>
      <path d="m136.31,144.98l.99,5.34c.07.4.56.62.92.52.42-.11.6-.52.52-.92l-.99-5.34c-.07-.4-.56-.62-.92-.52-.42.11-.6.52-.52.92h0Z"/>
      <path d="m131.28,148.32c.27,1.3.86,2.51,1.13,3.81.08.38.55.64.92.52.41-.13.61-.51.52-.92-.27-1.3-.86-2.51-1.13-3.81-.08-.38-.55-.64-.92-.52-.41.13-.61.51-.52.92h0Z"/>
      <path class="cls-6" d="m169.37,242.66c8.82-4.54,17.86-8.65,26.77-13,2.45-1.19,4.89-2.41,7.31-3.65.86-.44.1-1.74-.76-1.29-8.82,4.54-17.86,8.65-26.77,13-2.45,1.19-4.89,2.41-7.31,3.65-.86.44-.1,1.74.76,1.29h0Z"/>
      <path class="cls-6" d="m185.45,164.64c2.38-2.14,4.7-4.41,6.75-6.87h-1.06c8.69,9.92,16.75,20.34,25.18,30.48,2.51,3.02,5.06,6.01,7.64,8.96.64.73,1.69-.34,1.06-1.06-8.71-9.95-16.81-20.4-25.25-30.57-2.48-2.99-5-5.95-7.57-8.88-.25-.29-.81-.3-1.06,0-2.05,2.46-4.37,4.73-6.75,6.87-.72.65.34,1.71,1.06,1.06h0Z"/>
      <path class="cls-6" d="m153.1,128.94c7.81-5.43,16.03-10.28,24.56-14.48,4.24-2.09,8.56-4.18,13.04-5.71s8.69-2.01,13-.45c3.67,1.33,6.78,3.89,9.45,6.68,2.84,2.97,5.25,6.3,7.66,9.61,5.46,7.48,10.77,15.07,15.88,22.79,4.74,7.15,9.34,14.42,13.54,21.9.47.83.92,1.66,1.38,2.5s1.76.09,1.29-.76c-4.09-7.53-8.64-14.81-13.33-21.98-5.16-7.88-10.53-15.62-16.05-23.25-2.51-3.47-4.98-6.99-7.8-10.21-2.62-2.99-5.61-5.8-9.17-7.64-3.86-2-8.09-2.53-12.35-1.7-4.77.94-9.29,3.15-13.67,5.19-8.76,4.08-17.21,8.84-25.25,14.21-.99.66-1.97,1.33-2.95,2.01-.79.55-.04,1.85.76,1.29h0Z"/>
      <path class="cls-6" d="m225.02,197.21c7-6.9,14.62-13.13,21.89-19.73,2-1.81,3.97-3.66,5.89-5.55.69-.68-.37-1.74-1.06-1.06-7,6.9-14.62,13.13-21.89,19.73-2,1.81-3.97,3.66-5.89,5.55-.69.68.37,1.74,1.06,1.06h0Z"/>
      <path d="m100.03,162.28c-1.24,3.29-2.8,6.45-4.74,9.39-2.5,3.77-5.59,7.11-8.96,10.12-.72.64.34,1.7,1.06,1.06,5.05-4.51,9.38-9.78,12.29-15.91.66-1.39,1.25-2.81,1.8-4.26.34-.9-1.11-1.29-1.45-.4h0Z"/>
      <path class="cls-1" d="m172.46,163.01c1.76,1.78,3.01,4.39,4.14,6.73,1.78,3.71,3.29,7.55,4.72,11.4,3.4,9.22,6.3,18.63,8.88,28.12,1.26,4.63,2.44,9.29,3.44,13.99.2.94,1.65.54,1.45-.4-1.91-9-4.41-17.89-7.13-26.67s-5.66-17.69-9.54-26.09c-1.29-2.8-2.69-5.92-4.9-8.14-.68-.69-1.74.37-1.06,1.06h0Z"/>
      <path class="cls-1" d="m204.8,122.23c2.29,1.2,4.19,3.25,5.98,5.16,2.83,3.01,5.43,6.22,7.96,9.48,6.02,7.75,11.61,15.86,16.91,24.11,2.6,4.04,5.13,8.12,7.49,12.3.48.84,1.77.09,1.29-.76-4.53-8.01-9.59-15.73-14.83-23.29s-10.71-15.17-16.94-22.01c-1.24-1.36-2.52-2.69-3.89-3.92-.99-.88-2.04-1.76-3.22-2.38-.85-.45-1.61.85-.76,1.29h0Z"/>
      <path class="cls-6" d="m121.14,156.05c9.4-2.95,19.03-5.18,28.78-6.64,4.75-.71,9.63-1.46,14.44-1.41,4.19.04,8.28,1.06,11.57,3.75,5.9,4.82,8.44,12.56,10.81,19.52,3.01,8.79,5.88,17.64,8.52,26.55,2.46,8.27,4.75,16.6,6.55,25.04.19.9.38,1.8.56,2.71s1.63.55,1.45-.4c-1.67-8.42-3.9-16.72-6.29-24.96-2.65-9.11-5.55-18.14-8.59-27.13-2.48-7.31-4.85-15.35-10.41-20.99-2.83-2.87-6.42-4.72-10.41-5.31-4.75-.7-9.63-.02-14.35.58-9.96,1.27-19.82,3.32-29.46,6.15-1.19.35-2.38.71-3.56,1.08-.92.29-.53,1.74.4,1.45h0Z"/>
      <path d="m121.14,156.05c9.77-3.07,19.84-5.56,29.99-6.99,3.9-.55,7.79-.83,11.73-.62,2.14.12,4.28.31,6.4.65,1.8.29,3.65.65,5.28,1.51,4.7,2.48,7.62,7.58,9.74,12.25.4.88,1.69.12,1.29-.76-2.02-4.45-4.69-8.96-8.75-11.84-3.37-2.4-7.7-2.82-11.71-3.16s-8.02-.27-12.05.21c-4.99.6-9.94,1.54-14.84,2.63-5.89,1.31-11.73,2.86-17.48,4.67-.92.29-.53,1.74.4,1.45h0Z"/>
      <g>
        <path d="m35.29,16.78c-4.26-3-9.15,1.31-10.44,6.16-1.2,4.51.13,9.15.13,13.82s-.22,9.59-2.71,13.53c-1.91,3.03-4.96,5.13-7.66,7.48-5.87,5.1-10.4,11.72-13.04,19.03-2.21,6.12-1.13,13.73,5.02,13.15,2.64-.25,4.47-2.2,6.27-4.15s5.87-9.63,6.94-3.08c1,6.15,6,4.04,8.66,2.15,4.54-3.22,7.51-10.59,8.71-16.03.33-1.49.51-3.04,1.13-4.43.62-1.4,1.78-2.67,3.29-2.91.84-.13,1.71.07,2.54-.08,1.43-.25,2.53-1.5,2.99-2.87.46-1.38.37-2.88.18-4.32-.68-5.14-2.64-10.08-2.96-15.26-.34-5.39,1.1-10.73,1.34-16.12.18-4.03.91-12.44-3.92-12.61-2.51-.09-6.04,2.89-6.43,6.51"/>
        <path d="m35.55,16.35c-3.14-2.14-6.77-.61-8.96,2.12-2.85,3.57-2.94,8.03-2.53,12.38.43,4.59.76,9.28-.17,13.84-.44,2.16-1.22,4.23-2.51,6.03s-2.92,3.19-4.57,4.56-3.35,2.77-4.89,4.32-2.91,3.14-4.21,4.85c-2.56,3.38-4.64,7.12-6.19,11.07-1.23,3.14-1.97,6.62-1.2,9.97.62,2.69,2.47,4.88,5.37,5,3.55.14,6.39-2.73,8.37-5.38.76-1.02,1.47-2.08,2.31-3.04.38-.43,1.34-1.68,2.04-1.41.46.18.63.96.74,1.36.22.86.3,1.74.64,2.57.47,1.18,1.31,2.19,2.56,2.57,2.25.67,4.81-.68,6.57-1.99,2.97-2.2,4.94-5.59,6.39-8.93.74-1.72,1.37-3.49,1.87-5.3.26-.94.48-1.89.67-2.85.23-1.18.43-2.4.93-3.5.41-.89,1.03-1.73,1.89-2.22,1.05-.6,2.18-.28,3.31-.41,1.94-.22,3.31-1.9,3.76-3.7.56-2.23.03-4.68-.42-6.89-.49-2.39-1.15-4.75-1.67-7.13s-.88-4.81-.85-7.26.37-5.06.7-7.56c.49-3.62.84-7.27.82-10.92-.01-2.48-.1-5.73-1.96-7.62-2.2-2.23-5.52-.66-7.32,1.27-1.2,1.29-1.99,2.88-2.21,4.64-.08.64.92.63,1,0,.22-1.79,1.23-3.41,2.58-4.58,1.02-.88,2.46-1.67,3.85-1.37,2.47.51,2.86,3.85,2.99,5.89.2,2.97,0,6.06-.3,9.01-.49,4.68-1.5,9.35-1.05,14.08s1.99,8.92,2.74,13.43c.36,2.13.74,4.76-.76,6.57-.66.8-1.52,1.19-2.56,1.19s-1.98-.07-2.93.39c-1.72.83-2.63,2.66-3.09,4.42-.5,1.9-.78,3.83-1.34,5.72-1.05,3.49-2.52,6.95-4.71,9.87-1.61,2.15-3.85,4.1-6.51,4.77-1,.25-2.13.27-2.98-.4-1.23-.97-1.29-2.6-1.65-4-.23-.9-.73-2.11-1.84-2.12-.94-.01-1.75.78-2.34,1.42-.84.9-1.55,1.91-2.27,2.9-.8,1.11-1.68,2.12-2.67,3.07-1.37,1.33-2.97,2.43-4.94,2.46-1.29.02-2.5-.41-3.38-1.37-1.93-2.11-1.89-5.61-1.42-8.23.67-3.76,2.5-7.4,4.44-10.66,2.11-3.54,4.69-6.8,7.66-9.65,2.93-2.81,6.49-5.03,8.88-8.36s3.04-7.51,3.19-11.52c.09-2.25.04-4.49-.17-6.74s-.51-4.6-.39-6.91c.2-3.67,1.93-7.91,5.59-9.39,1.58-.64,3.19-.4,4.58.55.53.36,1.03-.5.5-.86h0Z"/>
      </g>
      <ellipse cx="61.74" cy="24.25" rx="21.49" ry="20.75" transform="translate(-4.22 31.25) rotate(-27.5)"/>
      <path class="cls-3" d="m91.94,19.89c-1.11-2.67-4.64-3.75-8.05-2.58-4.74-10.62-17.11-15.57-27.9-11.07-10.79,4.5-15.97,16.78-11.76,27.62-3.24,1.6-4.94,4.87-3.83,7.53,1.17,2.8,5.01,3.87,8.58,2.38.64-.27,1.23-.6,1.75-.98,4.45,3.59,10.22,5.33,16.01,4.65l3.67,8.22,11.67-2.9-4.26-9.99c4.48-3.64,7.28-8.92,7.84-14.56.64-.11,1.29-.29,1.93-.56,3.57-1.49,5.51-4.97,4.34-7.77Z"/>
      <path d="m61.69,34.06c1.36.26,2.82.02,3.72-1.11.27-.33.5-.71.61-1.12.21-.79.05-1.68-.43-2.34-.52-.71-1.29-1.15-2.17-1.25s-1.87.06-2.72.41c-.7.3-1.3.73-1.58,1.45-.15.39-.24.82-.23,1.23,0,.64.23,1.25.67,1.72.59.64,1.46.86,2.29.97.4.05.75-.38.75-.75,0-.45-.35-.7-.75-.75.12.02-.15-.03-.13-.03-.08-.01-.15-.03-.23-.05-.14-.03-.27-.08-.4-.13.16.06-.03-.02-.05-.03-.05-.03-.1-.06-.16-.09s-.09-.06-.14-.09c.17.11-.02-.02-.05-.05-.04-.04-.19-.25-.08-.07-.05-.08-.09-.16-.14-.23-.09-.13.05.16,0,.02-.01-.04-.03-.08-.04-.12s-.02-.08-.03-.13c0-.03-.01-.06-.02-.08-.01-.08,0-.06,0,.07-.05-.03,0-.4,0-.46,0-.15-.04.19,0,.04,0-.04.01-.08.02-.12.02-.09.04-.17.06-.25.02-.07.05-.13.07-.2.04-.13-.09.17-.03.06.01-.02.03-.05.03-.07.02-.04.12-.16,0-.02.04-.04.08-.09.12-.13.02-.02.17-.14.04-.05.08-.06.15-.11.23-.15.5-.29,1.16-.45,1.78-.47.19,0,.38,0,.58.01.21.01-.12-.04.08.01.07.02.14.03.21.05.01,0,.23.09.09.03.04.02.09.04.13.06.06.03.12.07.18.11.04.03.08.05.12.08-.06-.04-.05-.04.01.02.05.05.1.1.15.15,0,0,.15.19.06.07.08.11.16.24.21.37-.06-.14.02.08.02.09.02.07.04.14.05.21-.02-.13,0,0,0,.02,0,.1,0,.2,0,.3.02-.16-.07.34-.1.32-.03-.02.1-.2.03-.07-.02.03-.03.06-.05.09-.03.07-.07.13-.11.19-.02.03-.05.07-.07.1-.11.17.08-.08-.01.02-.08.08-.14.16-.22.24-.04.03-.07.06-.11.1-.06.05-.05.04.03-.02-.03.02-.06.04-.08.06-.09.06-.18.12-.28.16-.03.02-.2.08-.03.02-.08.03-.15.06-.23.08-.06.02-.12.03-.18.05-.03,0-.3.04-.13.03-.35.03-.72,0-.98-.04-.4-.08-.81.11-.92.52-.1.37.12.85.52.92h0Z"/>
      <g>
        <ellipse class="cls-7" cx="64.64" cy="22.14" rx="7.04" ry="4.38" transform="translate(-3.68 21.1) rotate(-18.04)"/>
        <path d="m56.2,25.36c.15.24.33.47.56.65.14.11.27.21.43.3.17.09.34.16.52.22.1.03.2.04.3.01.1,0,.19-.03.28-.09.09-.05.16-.11.21-.19.07-.07.11-.16.13-.25.04-.19.03-.41-.08-.58l-.12-.15c-.09-.09-.2-.16-.33-.19-.05-.02-.1-.04-.14-.06l.18.08c-.17-.07-.33-.16-.47-.27l.15.12c-.12-.09-.23-.2-.32-.32l.12.15c-.04-.06-.08-.11-.12-.17-.1-.16-.26-.29-.45-.34-.1-.03-.2-.04-.3-.01-.1,0-.19.03-.28.09-.16.1-.3.26-.34.45s-.03.4.08.58h0Z"/>
        <path d="m71.59,20.6c-.07.12-.14.22-.22.33l.12-.15c-.16.21-.35.4-.55.56l.15-.12c-.09.07-.19.14-.3.2-.16.09-.3.27-.34.45-.03.1-.04.2-.01.3,0,.1.03.19.09.28.1.16.26.3.45.34.2.05.39.02.58-.08s.34-.22.5-.35c.11-.09.22-.19.31-.3.2-.22.39-.45.53-.71.1-.17.13-.39.08-.58-.05-.17-.18-.36-.34-.45-.17-.09-.38-.14-.58-.08s-.35.17-.45.34h0Z"/>
        <path d="m57.28,23.6c-.14-.75.38-1.82,1.58-1.71.76.07.98.44,1.12,1.18s-.34,1.47-1.09,1.61-1.47-.34-1.61-1.09Z"/>
        <path d="m68.43,20.27c-.14-.75.06-1.36.79-1.55.98-.26,1.76.29,1.91,1.03s-.34,1.47-1.09,1.61-1.47-.34-1.61-1.09Z"/>
        <path d="m63.76,21.81l1.28,3.38c.14.37.51.66.92.52.36-.12.67-.53.52-.92l-1.28-3.38c-.14-.37-.51-.66-.92-.52-.36.12-.67.53-.52.92h0Z"/>
      </g>
      <g>
        <path d="m43.47,34.24c-2.73-.17-3.07-9.7-2.2-12.86.96-3.49,3.04-8.29,5.78-8.25,2.74.03,4.34,5.52,4.27,11.13-.07,5.61-3.37,10.27-7.85,9.99Z"/>
        <path d="m60.78,4.22c3.99-3.45,13.73.29,17.14,3.16,2.77,2.33,8.75,8.34,4.86,11.65-1.59,1.36-4.37.58-6.73-.56-2.1-1.01-3.93-8.02-9.33-9.4-4.7-1.2-7.16-3.8-5.94-4.85Z"/>
        <path d="m45.86,16.6c-1.34-3.22,4.13-8.57,9.23-10.92s9.47-2.93,9.95-.23c.37,2.06-1.08,6.19-5.92,9.03s-12.21,4.65-13.26,2.13Z"/>
      </g>
      <g>
        <path class="cls-1" d="m68.94,169.8l-25.21-98.35s6.79-11.75,15.91-15.75c31.63-13.89,53.39,7.26,60.02,14.36,18.2,19.5,34.61,56.55,34.61,56.55-6.33,6.66-14.27,17.48-35.54,25.84-10.85,5.5-16.82,11.58-24.59,15.52-6.61,3.35-15.76.96-25.19,1.83Z"/>
        <path class="cls-6" d="m53.95,110.05c.78,7.94,2.24,15.81,3.96,23.6,1.82,8.24,3.97,16.41,6.41,24.49,1.21,3.98,2.49,7.94,3.89,11.86.32.9,1.77.51,1.45-.4-2.6-7.29-4.83-14.72-6.83-22.2-2.17-8.11-4.08-16.29-5.55-24.56-.76-4.24-1.4-8.5-1.82-12.79-.09-.95-1.59-.96-1.5,0h0Z"/>
        <path class="cls-6" d="m89.29,53.19c16.61,16.61,44.21,70.04,52.34,87.05,4.25-4.55,8.88-9.05,13.29-13.45-7.21-15.07-10.6-22-19.48-35.45-4.73-7.17-11.38-15.61-16.92-22.18-4.01-4.76-12.13-12.59-17.5-15.73-2.84-1.66-6-2.88-9.29-2.97-.85-.02-1.74.04-2.46.49s-1.19,1.4-.86,2.18"/>
        <path class="cls-6" d="m83.1,52.2c6.11-1.51,12.34.14,17.75,3.1,6.59,3.62,12.18,8.89,17.19,14.43,5.67,6.28,10.69,13.14,15.34,20.2,4.35,6.61,8.39,13.43,12.21,20.36,2.74,4.96,5.35,9.99,7.93,15.04.2.4.41.8.61,1.2.44.86,1.73.1,1.3-.76-2.44-4.77-4.88-9.53-7.44-14.23-3.75-6.9-7.7-13.69-11.96-20.28-4.66-7.23-9.68-14.27-15.32-20.77-5.07-5.84-10.73-11.42-17.36-15.48-5.51-3.37-11.9-5.6-18.42-4.7-.75.1-1.49.25-2.23.43-.94.23-.54,1.68.4,1.45h0Z"/>
        <g>
          <path class="cls-1" d="m38.67,191.2c-9.32-23.88-8.55-33.02-9.16-49.39-.38-10.21,3.49-11.47,9.88-12.01h0c6.4-.54,13.34,2.01,13.79,13.93,0,0,1.5,25.96,4.84,37.68,2.86,10.05,4.96,19.92-4.37,27.85-3.13,2.66-11.67-9.58-14.98-18.06Z"/>
          <rect class="cls-1" x="55.92" y="200.7" width="3.28" height="9.75" rx="1.64" ry="1.64" transform="translate(-143.31 133.28) rotate(-54.56)"/>
          <rect class="cls-1" x="51.68" y="201.56" width="6" height="12.76" rx="3" ry="3" transform="translate(-143.66 124.93) rotate(-52.56)"/>
          <rect class="cls-1" x="56.14" y="196.65" width="3.7" height="9.75" rx="1.85" ry="1.85" transform="translate(-139.83 131.92) rotate(-54.56)"/>
          <path class="cls-1" d="m57.26,197.28c-1.49-2.04-5.07-8.73-5.07-8.73-1.44-2.68-.66-4.98,1.53-5.92,2.71-1.15,4.8,1.09,5.15,2.18,1.31,4.01,2.92,7.16,3.62,9.9.52,2.03,1.18,4.51.08,4.86s-3.68-.05-5.33-2.3Z"/>
          <path class="cls-1" d="m30.13,130.45l5.75-25.56c1.6-7.11,8.66-11.57,15.76-9.97l1.54.35c7.11,1.6,8.61,9.17,7.01,16.27l-6.03,22.62c-1.6,7.11-5.42,14-12.52,12.41l-1.54-.35c-7.11-1.6-10.63-8.52-9.97-15.76Z"/>
        </g>
        <g>
          <path d="m36.47,102.03c-4.39,12.41-6.63,25.57-7.04,38.71s.96,26.27,4.57,38.84c1.9,6.6,4.44,13.04,7.76,19.06.47.85,1.76.09,1.3-.76-5.98-10.82-9.4-22.97-11.04-35.18-1.76-13.02-1.53-26.37.59-39.33,1.16-7.12,2.91-14.14,5.32-20.95.32-.91-1.13-1.3-1.45-.4h0Z"/>
          <path d="m53.93,131.77c-.87,3.01-1.02,6.23-1.05,9.34-.05,4.14.21,8.29.59,12.41.8,8.72,2.12,17.4,3.78,25.99.66,3.4,1.35,6.81,2.24,10.16.25.93,1.69.54,1.45-.4-1.8-6.82-3-13.83-4.08-20.79-1.32-8.52-2.4-17.16-2.47-25.79-.03-3.49.03-7.14,1-10.52.27-.93-1.18-1.33-1.45-.4h0Z"/>
          <path d="m41.77,198.87c2.18,3.52,4.42,7.08,7.32,10.07,1.41,1.46,2.99,2.77,4.75,3.8s4.02,1.94,5.99.68c.73-.47,1.37-1.22,1.37-2.14,0-.97-.74-1.67-1.57-2.04l-.58,1.37c1.4.57,3.46-1.13,3.77-2.46.37-1.59-1.22-3.71-2.75-4.08l-.2,1.47c1.69.11,4.13-1.73,2.8-3.51-.46-.61-1.16-1.03-1.8-1.43-.32-.2-.65-.4-.96-.63-.12-.09-.22-.2-.33-.29-.06-.05-.11-.22-.1-.06-.1-.95-1.6-.96-1.5,0,.14,1.29,1.58,1.92,2.54,2.55.28.18,1.02.59,1.03.93.02.67-1.22.98-1.68.95-.84-.06-1.02,1.28-.2,1.47.76.18,1.86,1.45,1.7,2.27-.11.57-1.32,1.62-1.92,1.38-.78-.32-1.35,1.03-.58,1.37.37.17.96.43.8.93-.19.59-1.05.96-1.59,1.06-.94.18-1.9-.25-2.72-.67-.74-.38-1.45-.82-2.13-1.3-2.82-1.99-5.05-4.73-7-7.55-1.11-1.6-2.14-3.24-3.16-4.89-.51-.82-1.81-.07-1.3.76h0Z"/>
          <path d="m50.71,199.94c2.6,3.4,6.51,5.56,10.78,5.92.96.08.96-1.42,0-1.5-3.69-.31-7.23-2.23-9.48-5.17-.25-.32-.64-.49-1.03-.27-.32.18-.51.71-.27,1.03h0Z"/>
          <path d="m49.42,205.05c2.9,3.39,7.11,5.48,11.55,5.81.96.07.96-1.43,0-1.5-4.05-.3-7.86-2.28-10.49-5.37-.63-.74-1.68.33-1.06,1.06h0Z"/>
          <path d="m59.48,189.67c.76,2,1.53,4,2.29,6,.36.95,1.83,3.87-.27,3.72-1.51-.11-2.75-1.36-3.76-2.36-1.23-1.23-2.28-2.62-3.15-4.12-.99-1.73-1.69-3.58-2.12-5.53-.21-.94-1.65-.54-1.45.4.88,3.97,2.94,7.67,5.85,10.51,1.27,1.24,2.76,2.5,4.62,2.61.81.04,1.61-.24,2.12-.88.67-.84.6-1.93.29-2.91-.4-1.27-.95-2.52-1.42-3.76l-1.55-4.07c-.34-.89-1.79-.51-1.45.4h0Z"/>
        </g>
        <path class="cls-6" d="m29.7,172.51c-.2-.07-.34-.25-.34-.46,0-15.1.44-40.3,1.75-54.69,1.22-13.47,1.24-20.38,5.15-20.97,1.71-3.28-2.39-5.98,3.05-9.68-.18-1.88-.69-4.28,1.13-8.03.81-1.66,3.54-7.69,4.84-9.19,6.53,3.67,19.32,12.93,23.5,17.11,6.99,6.27,45.39,40.97,48.75,66.48-7.12,4.14-19.04,14.84-28.89,16.12-10.2,1.33-15.09.33-19.7.61-3.93-11.07-7.11-22.23-8.79-29.87-1.75,13.24-2.13,25.18-1.28,34.59,0,.11-.06.21-.16.24-8.61,2.47-19.66.76-29.01-2.24Z"/>
        <path class="cls-6" d="m44.43,69.36c-1.73,2.73-3.08,5.66-4.27,8.66-.64,1.61-1.24,3.25-1.84,4.88-.15.4-.41.87-.43,1.3-.02.38.14.81.18,1.2.06.48.12,1.05,0,1.5-.07.24-.02.16-.22.28s-.03.02-.2.09-.36.14-.54.22c-.74.34-1.28.95-1.62,1.68-.73,1.58-.37,3.1.04,4.7.26,1.02.4,2.11-.48,2.84-.5.42-1.2.59-1.64,1.08-.19.2-.32.45-.43.7-.31.7-.5,1.45-.66,2.2-.54,2.49-.82,5.04-1.08,7.57-.79,7.67-1.17,15.38-1.5,23.08-.35,8.23-.58,16.47-.69,24.7-.04,3.13-.07,6.25-.04,9.38.01,1.87,0,3.75.16,5.62.02.27.05.53.09.8.15.95,1.59.55,1.45-.4-.03-.19.01.11,0,.05,0-.05-.01-.1-.02-.15-.01-.13-.03-.26-.04-.4-.03-.33-.04-.66-.06-.99-.04-.96-.06-1.93-.08-2.9-.04-2.88-.03-5.77,0-8.65.08-8.02.28-16.04.59-24.05s.68-15.86,1.4-23.75c.25-2.79.52-5.47.99-8.15.15-.88.32-1.76.58-2.61.05-.15.09-.31.15-.46.02-.06.05-.12.07-.18.07-.2-.08.15.02-.04.05-.1.11-.2.16-.29.13-.25-.1.1.07-.09.11-.12-.17.1-.06.04.21-.1.42-.22.62-.34.54-.32,1.08-.69,1.47-1.19.74-.94.76-2.18.53-3.3-.29-1.43-.95-2.88-.2-4.29.15-.28.41-.59.59-.71.31-.21.34-.19.68-.32.65-.27,1.16-.66,1.35-1.37.13-.45.13-.95.1-1.42-.02-.35-.07-.7-.12-1.04-.02-.17-.12-.45-.1-.61.03-.21.21-.5.28-.71,1.16-3.18,2.32-6.38,3.81-9.42.67-1.37,1.41-2.69,2.22-3.98.52-.82-.78-1.57-1.3-.76h0Z"/>
        <path d="m43.53,69.5c.25.1.13.05.42.18.21.09.42.19.63.29.44.21.88.43,1.31.66,1.02.54,2.01,1.12,2.99,1.73,2.48,1.53,4.87,3.19,7.22,4.91,6.1,4.47,11.91,9.35,17.51,14.43,6.51,5.91,12.75,12.14,18.59,18.71s11.04,13.14,15.57,20.4c3.75,6.02,7.12,12.54,8.56,19.54.15.73.28,1.46.38,2.19.05.4.31.75.75.75.36,0,.8-.35.75-.75-.93-7.06-3.98-13.71-7.53-19.81-4.29-7.38-9.51-14.22-15.06-20.69-5.83-6.79-12.09-13.21-18.64-19.3-5.81-5.4-11.86-10.57-18.2-15.35-4.26-3.22-8.7-6.5-13.55-8.78-.43-.2-.86-.39-1.29-.57-.89-.36-1.28,1.09-.4,1.45h0Z"/>
        <path d="m82.37,48.47c5.4,4.41,10.09,9.67,14.4,15.13,4.97,6.27,9.46,12.92,13.71,19.7s8.37,13.94,12.25,21.09c3.49,6.42,6.83,12.91,10.09,19.45,2.44,4.9,4.82,9.84,7.19,14.77.21.44.43.89.64,1.33.42.87,1.71.11,1.29-.76-2.25-4.66-4.49-9.33-6.78-13.98-3.18-6.44-6.45-12.85-9.85-19.18-3.84-7.15-7.84-14.22-12.09-21.13s-8.73-13.67-13.65-20.1c-4.34-5.67-9-11.16-14.38-15.87-.58-.51-1.17-1.01-1.77-1.5-.74-.61-1.81.45-1.06,1.06h0Z"/>
        <path d="m68.94,170.55c7.41-.88,14.93,1.34,22.24-.72,6.01-1.69,11.23-5.62,16.24-9.2,2.59-1.85,5.17-3.71,7.87-5.39,2.37-1.47,4.85-2.82,7.53-3.63,6.17-1.86,11.61-5.4,16.57-9.44,5.71-4.64,10.8-9.98,16.05-15.13.69-.68-.37-1.74-1.06-1.06-4.62,4.53-9.11,9.21-14.02,13.43s-10.12,8-16.14,10.16c-1.3.47-2.63.81-3.91,1.34s-2.52,1.14-3.73,1.82c-2.71,1.52-5.27,3.3-7.8,5.1-5,3.55-10.01,7.54-15.78,9.8-3.74,1.47-7.66,1.75-11.64,1.57s-8.27-.65-12.42-.16c-.95.11-.96,1.61,0,1.5h0Z"/>
        <path d="m68.58,52.04c-7.55,1.36-14.18,5.3-19.2,11.06-1.55,1.78-2.94,3.69-4.21,5.67-.52.82.78,1.57,1.3.76,4.03-6.29,9.5-11.72,16.58-14.42,1.92-.73,3.92-1.27,5.94-1.63.95-.17.55-1.62-.4-1.45h0Z"/>
        <path d="m65.35,103.68c-.86,7.46-2.32,14.9-4.07,22.2-.4,1.66-.82,3.31-1.3,4.94-.27.93,1.17,1.32,1.45.4,2.05-6.98,3.43-14.22,4.57-21.4.33-2.04.62-4.09.86-6.14.11-.96-1.39-.95-1.5,0h0Z"/>
      </g>
      <path d="m47.46,18.84c2.85-.13,5.69-.96,8.33-2.01,2.77-1.11,5.64-2.54,7.71-4.74.91-.96,1.7-2.14,1.89-3.47.13-.89-1.24-1.28-1.37-.38-.34,2.32-2.55,3.97-4.41,5.12-2.47,1.53-5.23,2.63-8.05,3.37-1.35.35-2.72.63-4.11.69-.91.04-.91,1.46,0,1.42h0Z"/>
      <path d="m64.83,9.71c2.24-.43,4.25,1.09,5.61,2.7,1.42,1.7,2.44,3.7,3.9,5.36,1.31,1.5,3.02,2.73,5.06,2.92,1.81.17,3.64-.53,4.65-2.07.5-.77-.73-1.48-1.22-.72-.93,1.42-2.89,1.67-4.39,1.15-1.96-.67-3.34-2.45-4.46-4.1-1.18-1.73-2.28-3.62-3.93-4.96s-3.53-2.05-5.59-1.66c-.9.17-.52,1.54.38,1.37h0Z"/>
      <path d="m42.98,71.45c.14,2.83.56,5.65,1.11,8.43.46,2.33.97,4.7,1.81,6.93.22.59.45,1.28.9,1.76.33.35.77.41,1.22.48,2.07.35,4.16.58,6.25.84,3.11.38,6.22.75,9.33,1.11.96.11.95-1.39,0-1.5-4.83-.57-9.68-1.07-14.49-1.79-.3-.04-.6-.09-.89-.14-.08-.01-.41-.14-.48-.1.02,0,.15.1.21.13-.01,0-.09-.07-.09-.09,0,0,.11.15.03.03-.03-.05-.07-.1-.09-.15-.15-.26-.27-.53-.37-.79-.77-1.98-1.25-4.09-1.68-6.16-.62-2.96-1.1-5.97-1.25-9-.05-.96-1.55-.97-1.5,0h0Z"/>
      <path d="m62.05,88.7c.82,1.21,1.16,2.68.91,4.12-.12.69-.36,1.34-.72,1.93-.39.64-.91,1.2-1.11,1.94-.42,1.6.93,2.63,2.08,3.43,1.51,1.05,3.05,2.03,4.62,3,6.39,3.93,12.9,7.68,19.35,11.51,3.72,2.21,7.45,4.42,11.17,6.62.83.49,1.59-.8.76-1.29-6.45-3.82-12.89-7.64-19.34-11.47-3.18-1.89-6.38-3.76-9.55-5.67-1.57-.95-3.14-1.91-4.67-2.92-.69-.46-1.38-.91-2.05-1.4-.53-.38-1.14-.87-.87-1.58.28-.75.92-1.35,1.26-2.08s.52-1.43.6-2.2c.19-1.64-.22-3.34-1.15-4.7-.54-.79-1.84-.04-1.29.76h0Z"/>
      <path d="m93.49,52.2c2.82,1.13,5.46,2.77,7.91,4.55.34.24.66.55,1.01.76.08.05.18.22.06,0,.09.16.12.38.16.55.09.35.16.71.21,1.07.21,1.57.11,3.18-.04,4.75-.09.96,1.41.95,1.5,0,.16-1.71.23-3.44-.01-5.15-.09-.65-.19-1.71-.68-2.18-.35-.33-.78-.61-1.17-.89-2.65-1.95-5.49-3.68-8.55-4.9-.9-.36-1.29,1.09-.4,1.45h0Z"/>
      <path d="m101.82,63.97c1.62,1.91,4.55,1.35,6.75,1.7.41.06.85.15,1.2.39.68.46,1.07,1.31,1.47,2,.9,1.57,1.75,3.17,2.56,4.8,3.23,6.52,5.68,13.4,7.84,20.33,1.24,3.98,2.39,7.99,3.54,12,.26.93,1.71.53,1.45-.4-2.06-7.22-4.13-14.44-6.74-21.48-1.28-3.46-2.7-6.87-4.29-10.2-.78-1.63-1.61-3.25-2.49-4.83-.72-1.29-1.45-3.01-2.86-3.69-1.17-.56-2.56-.52-3.82-.59s-2.68-.1-3.53-1.1c-.63-.74-1.68.33-1.06,1.06h0Z"/>
      <g>
        <polygon class="cls-2" points="59.63 55.7 62.82 49.48 78.1 55.09 74.49 64.34 59.63 55.7"/>
        <polygon class="cls-2" points="89.25 50.78 81.55 47.34 81.27 52.26 89.9 57.72 89.25 50.78"/>
        <path d="m77.57,55.62c1.31,1.18,2.63,2.37,3.94,3.55l.56.5c.29.26.78.31,1.06,0,.26-.29.31-.78,0-1.06-1.31-1.18-2.63-2.37-3.94-3.55l-.56-.5c-.29-.26-.78-.31-1.06,0-.26.29-.31.78,0,1.06h0Z"/>
        <path d="m80.55,52.46c.47,2.01.95,4.03,1.42,6.04l.2.85c.22.94,1.67.54,1.45-.4-.47-2.01-.95-4.03-1.42-6.04l-.2-.85c-.22-.94-1.67-.54-1.45.4h0Z"/>
      </g>
      <path d="m6.63,57.27c3.47-.46,6.97.3,9.91,2.19.81.52,1.57-.77.76-1.29-3.14-2.02-6.97-2.89-10.67-2.39-.4.05-.75.31-.75.75,0,.36.35.8.75.75h0Z"/>
      <path d="m17,49.13c.9,2.12,2.59,3.91,4.64,4.96.35.18.83.1,1.03-.27.18-.34.1-.84-.27-1.03-.48-.24-.93-.53-1.36-.84-.19-.14.11.09-.08-.06-.05-.04-.09-.08-.14-.11-.1-.09-.2-.17-.3-.26-.2-.18-.39-.37-.57-.56s-.36-.4-.52-.61c.06.08-.01-.02-.04-.05-.04-.05-.07-.1-.11-.15-.08-.12-.17-.24-.24-.36-.29-.45-.54-.92-.75-1.41-.15-.36-.72-.47-1.03-.27-.38.24-.43.64-.27,1.03h0Z"/>
      <path d="m69.38.75c.03.64.02,1.27-.04,1.91s-.13,1.08-.28,1.76c-.09.38.12.83.52.92.38.09.83-.11.92-.52.3-1.33.43-2.7.37-4.06-.02-.39-.33-.77-.75-.75-.39.02-.77.33-.75.75h0Z"/>
      <path d="m76.67,7.59c2.14-1.2,4.7-1.44,7.03-.68.92.3,1.31-1.15.4-1.45-2.7-.88-5.71-.56-8.18.83-.84.47-.09,1.77.76,1.29h0Z"/>
    </g>
  </g>
</svg>