<?xml version="1.0" encoding="UTF-8"?>
<svg id="_レイヤー_2" data-name="レイヤー 2" xmlns="http://www.w3.org/2000/svg" xmlns:xlink="http://www.w3.org/1999/xlink" viewBox="0 0 382.0199026 431.2068807">
  <defs>
    <style>
      .cls-1, .cls-2, .cls-3, .cls-4, .cls-5, .cls-6, .cls-7 {
        fill: none;
      }

      .cls-8, .cls-2, .cls-3, .cls-4, .cls-9, .cls-10 {
        stroke-miterlimit: 10;
      }

      .cls-8, .cls-7 {
        stroke: #e74268;
      }

      .cls-8, .cls-11 {
        fill: #e74268;
      }

      .cls-2 {
        stroke-width: 1.5px;
      }

      .cls-2, .cls-3 {
        stroke: #fff;
      }

      .cls-2, .cls-3, .cls-6, .cls-7, .cls-12, .cls-13 {
        stroke-linecap: round;
      }

      .cls-3, .cls-12 {
        stroke-width: 1.4173229px;
      }

      .cls-4, .cls-5, .cls-9, .cls-6, .cls-10, .cls-7, .cls-13 {
        stroke-width: 1.4995276px;
      }

      .cls-4, .cls-5, .cls-9, .cls-6, .cls-10, .cls-12, .cls-13 {
        stroke: #000;
      }

      .cls-5, .cls-6, .cls-7, .cls-12, .cls-13 {
        stroke-linejoin: round;
      }

      .cls-14, .cls-9, .cls-12, .cls-13 {
        fill: #fff;
      }

      .cls-10 {
        fill: #adadad;
      }

      .cls-15 {
        clip-path: url(#clippath);
      }
    </style>
    <clipPath id="clippath">
      <polygon class="cls-1" points="301.6574192 151.1082772 258.9318881 99.1765778 333.0646298 38.185684 378.4547427 87.9251641 301.6574192 151.1082772"/>
    </clipPath>
  </defs>
  <g id="_レイヤー_12" data-name="レイヤー 12">
    <g>
      <g>
        <path d="M184.6734182,68.0518044c2.9525895,11.5221044,11.4472707,21.4891781,22.3557425,26.2306881,6.3423616,2.7567905,19.1360345,4.7328016,23.8470158,13.3028378,2.2439883,4.0821774,2.0047756,9.7760471-1.5090423,12.834272,11.0402225,3.1708398,14.3156205,21.724728,4.1180472,33.035761-14.3463493,15.9128085-63.003234,16.1299429-67.538295-10.4509539-5.4909904,12.1903766-27.6123684,7.7440936-30.5570861-2.9069429-8.7267866-31.5647653,8.0180091-69.3293782,8.0180091-69.3293782l41.2656088-2.7162839Z"/>
        <path d="M184.1912787,68.1847242c2.7505457,10.6217573,10.0786725,19.9312494,19.7323606,25.1418444,7.8856139,4.2562738,17.9770945,4.7707221,24.389163,11.5937765,1.8907529,2.0119419,3.211634,4.5255076,3.4676003,7.3006741.2667472,2.8920518-.5502963,5.8728362-2.7668218,7.8450297-.2894088.2575067-.1226509.73499.2206336.8356929,8.6547792,2.5388901,11.0064276,13.4268937,9.4003357,21.2103266-.9351596,4.5319648-3.1718905,8.8267411-6.5235875,12.0409188-2.2745683,2.1812434-5.0125604,3.8417735-7.8624699,5.1589393-6.7501409,3.1197674-14.3527035,4.4491539-21.7515936,4.5771927-7.523754.1301996-15.3273775-.9862417-22.1828735-4.216134-6.0995095-2.8737175-11.3309485-7.6422039-13.2939717-14.2546772-.2483015-.8364073-.4420202-1.6873199-.5910281-2.5468186-.0709576-.4092935-.7396868-.5006256-.9138749-.1194398-2.8728072,6.2867326-10.3131352,7.8655839-16.5760211,6.7372514-3.1933165-.5753135-6.3508229-1.7986201-8.9325973-3.7923291-1.1474128-.88606-2.1876419-1.9446842-2.9716606-3.1680671-.9892733-1.5436623-1.3857216-3.2909069-1.7973782-5.0582507-2.2670541-9.7330245-2.2777119-19.8958997-1.1001391-29.7795418.9997547-8.3911735,2.8864094-16.6799511,5.3930588-24.7456154.8408316-2.70555,1.7545364-5.3891958,2.7540529-8.0403422.315607-.837125.6398392-1.6710546.9759156-2.5001845.2036694-.5024702.392839-.8326252.5078227-1.2207482.0164963-.0556825.0477094-.1104311.0713402-.1637743l-.4317353.2476404c4.6513263-.3061708,9.3026526-.6123415,13.9539789-.9185123,7.4092297-.4877081,14.8184594-.9754162,22.227689-1.4631243,1.694647-.1115491,3.3892939-.2230982,5.0839409-.3346473.6388593-.0420525.6435612-1.042362,0-1-4.6513263.3061708-9.3026526.6123415-13.9539789.9185123-7.4092297.4877081-14.8184594.9754162-22.227689,1.4631243-1.694647.1115491-3.3892939.2230982-5.0839409.3346473-.1631429.0107388-.3593846.0843184-.4317353.2476404-1.4662479,3.3098562-2.663082,6.7559777-3.7832361,10.194603-2.603878,7.9933288-4.5836557,16.2112643-5.7400728,24.541046-1.4040747,10.1136825-1.6230936,20.5048131.4009898,30.5523321.4087366,2.0289624.7820983,4.1926877,1.6759693,6.0761776.6453224,1.3597691,1.597582,2.5724537,2.690298,3.6012096,2.3992976,2.258859,5.4944339,3.7450647,8.6613487,4.5764888,6.2524727,1.6414893,14.1237332.912039,18.2446511-4.6577047.4942055-.6679576.9074666-1.3878368,1.2525998-2.1431122l-.9138749-.1194398c.6032656,3.4797213,2.0292068,6.7611921,4.190764,9.5559538,2.137674,2.7638823,4.9056614,4.986043,7.9386451,6.6996326,6.7516211,3.8145632,14.7069654,5.3148233,22.3908505,5.4895289,7.7714211.1766959,15.7761675-.9802562,22.9954398-3.9370426,3.1231009-1.2791237,6.1232877-2.9081037,8.7179073-5.0826627,3.4116686-2.8593305,5.8991639-6.7538708,7.2464894-10.9842532,1.4325917-4.4981043,1.6088215-9.4672711.3151798-14.0202727-1.1130136-3.9172771-3.4165225-7.6676262-7.0082521-9.7487313-.8646911-.5010158-1.7932904-.8908637-2.7517167-1.1720192l.2206336.8356929c3.9307042-3.497415,3.8654808-9.730653,1.2704581-13.9869057-2.4900301-4.084048-6.7712-6.6089968-11.0711433-8.4209561-4.0296048-1.698041-8.3034009-2.7152495-12.3376245-4.3871425-5.1110944-2.1181778-9.7113748-5.4973112-13.4342265-9.5717046-4.2706761-4.6739479-7.4044978-10.3548269-8.9925937-16.4875622-.1612045-.622522-1.1259845-.358617-.964279.2658396Z"/>
      </g>
      <path d="M193.1775756,120.2839015c-1.3648418-4.3223629-3.0567046-8.6775149-5.3138771-12.6129502-.7513546-1.310005-1.5951687-2.6053739-2.6601173-3.6845582-.6788701-.6879449-1.7391038.3724749-1.0603261,1.0603261,1.9123408,1.9379039,3.152873,4.5708933,4.2712746,7.0176753,1.0628075,2.3251561,1.9851569,4.7156484,2.8202541,7.131378.1706899.4937636.3395075.9885367.4968288,1.4867627.2895449.9169695,1.7377056.5252957,1.445963-.3986338h0Z"/>
      <path d="M227.7106917,259.8601554c-5.6840868,4.3325924-12.4701762,7.0680803-19.3124719,8.9699699-6.4037587,1.7799935-13.043075,2.8950415-19.6878607,3.1673719-2.5508842.1045456-5.2673925.1176655-7.7240292-.2754946-.9440525-.1510862-1.3504522,1.293634-.3986338,1.445963,5.3429567.8550868,10.9644219.3077488,16.2850154-.4309112,7.2250104-1.0030509,14.3935128-2.7995185,21.1173461-5.6511824,3.7022851-1.5701865,7.2735675-3.4887984,10.4774744-5.9309185.757409-.5773213.0112154-1.8802346-.7568403-1.2947981h0Z"/>
      <g>
        <path class="cls-9" d="M75.9600667,357.4098158l-6.51038,37.6829397c-6.1273329,6.7142685-29.1563095,1.1535658-32.9684071,17.7471721l57.9266648,12.8283742,16.4265889-60.0754252"/>
        <path class="cls-8" d="M69.32287,392.1509441l-.8360531,2.8945048c-6.1273329,6.7142685-28.5323514,1.1258173-32.3444491,17.7194236l59.3243781,13.1379102,5.2525982-20.6134882-20.7901672-6.3658531s1.0826183-2.8845959-.6146305-4.3373592c-1.8044841-1.5445516-9.9916764-2.4351381-9.9916764-2.4351381Z"/>
        <line class="cls-2" x1="36.4812795" y1="410.2847364" x2="96.8537005" y2="423.4985257"/>
        <line class="cls-3" x1="56.9272742" y1="398.5456679" x2="61.0983121" y2="406.9877865"/>
        <line class="cls-3" x1="61.5610474" y1="397.7358541" x2="65.9532439" y2="407.6201091"/>
        <line class="cls-3" x1="65.2204784" y1="396.9552358" x2="71.0091704" y2="408.2786098"/>
        <path class="cls-1" d="M71.856966,381.5163739l-2.4072793,13.5763816c-5.8310327,4.9163356-29.4952213,1.0785108-33.3073189,17.6721171l59.3243781,13.1379102,8.553209-36.2576835"/>
        <rect class="cls-12" x="34.2096051" y="419.5521057" width="62.5" height="4" transform="translate(96.0475996 -3.9540779) rotate(12.9382299)"/>
      </g>
      <path class="cls-14" d="M235.4920073,271.0732995l11.833368-29.1370908c7.1959249-5.5537622,29.2374967,4.0373318,35.8611497-11.647281l-56.1594703-23.1969917-22.259405,50.592375"/>
      <path class="cls-5" d="M223.0055716,218.2274579l-18.2379218,39.4568532,30.7243576,13.3889884,12.655209-33.2916547"/>
      <path class="cls-8" d="M246.2654584,244.4460604l1.059917-2.5098517c7.1959249-5.5537622,29.2374967,4.0373318,35.8611497-11.647281l-56.1594703-23.1969917-8.9087202,20.2482192,19.54768,9.0111971s-1.5650488,2.653974-.144537,4.3783062c1.5102623,1.8332786,8.7439808,3.7164019,8.7439808,3.7164019Z"/>
      <line class="cls-2" x1="282.4239121" y1="232.673117" x2="225.2453015" y2="209.2201867"/>
      <line class="cls-3" x1="260.2561959" y1="240.7003695" x2="257.6075803" y2="231.6642331"/>
      <line class="cls-3" x1="255.5521933" y1="240.6968276" x2="252.9350891" y2="230.2020359"/>
      <line class="cls-3" x1="251.8129072" y1="240.8329896" x2="248.0691563" y2="228.6793036"/>
      <rect class="cls-12" x="224.5800777" y="214.5652016" width="62.5" height="4" transform="translate(407.2552152 515.596877) rotate(-157.1055392)"/>
      <path d="M243.986909,248.3967166l-28.117689-14.8447289c-.7940541-.4192207-1.7769216-.1589593-2.2594468.5982971l-9.3885877,19.3280651c-4.7594173-24.0554752-4.1491551-48.8270448-11.7665913-71.983027-23.0947028,8.6963358-84.6340117-2.5-84.6340117-2.5l-38.1853248,200.9598159c-.3349972,1.7630064.6877846,3.5014519,2.3915581,4.0649859l29.8924933,9.887133c2.4962538.8256519,5.176269-.6011879,5.8849354-3.1331388l41.4785295-148.1960994,23.1579882,60.2578222c6.5747963,17.1075891,28.9913379,22.3558117,41.6144053,9.0685132,14.4821773-15.2442354,27.8726194-50.4007347,31.3257813-59.9099973.5010139-1.3796841-.096-2.9123412-1.3940399-3.5976411Z"/>
      <g>
        <path class="cls-14" d="M140.0211347,230.1834532c2.5663149.4086881,5.0875363,1.2774466,7.556209,2.0649937,1.6833155.5370053,3.3616749,1.0918844,5.030042,1.6738493.9130268.3184848,1.3054955-1.1296287.3986338-1.445963-1.6683674-.581965-3.3467259-1.1368438-5.030042-1.6738493-2.4686343-.7875349-4.9899269-1.6563108-7.556209-2.0649937-.9440567-.1503419-1.3505189,1.2943744-.3986338,1.445963h0Z"/>
        <path class="cls-14" d="M145.8001612,231.3345529c.8612467,4.1036445,2.1827081,8.1382315,3.4592287,12.1288472.2928832.9156017,1.7411632.5242111,1.445963-.3986338-1.2765123-3.99059-2.5979861-8.0252224-3.4592287-12.1288472-.1980944-.943875-1.643888-.544434-1.445963.3986338h0Z"/>
      </g>
      <path d="M195.0808423,198.1278227c.3647585,2.4962142.7295171,4.9924285,1.0942756,7.4886427l2.6084179,17.8506307c1.0540218,7.2131672,2.1080437,14.4263345,3.1620655,21.6395017.910835,6.2332725,1.8216701,12.4665451,2.7325051,18.6998176l.8977526,6.1437434c.1412531.9666615.2253872,1.9643561.4268105,2.920865.0089266.0423901.0126448.086534.0189156.1294487.1390554.9516214,1.5846213.5470267,1.4464186-.3987594-.3647585-2.4962142-.7295171-4.9924285-1.0942756-7.4886427-.8694726-5.9502102-1.7389453-11.9004205-2.6084179-17.8506307-1.0540218-7.2131672-2.1080437-14.4263345-3.1620655-21.6395017-.910835-6.2332725-1.8216701-12.4665451-2.7325051-18.6998176-.2992509-2.0479145-.5985017-4.0958289-.8977526-6.1437434-.1412531-.9666615-.2253872-1.9643561-.4268105-2.920865-.0089266-.0423901-.0126448-.086534-.0189156-.1294487-.1390554-.9516214-1.5846213-.5470267-1.4464186.3987594h0Z"/>
      <path class="cls-14" d="M139.7631068,102.5938893l-13.7711182-36.4938965-9.1094971-46.7353516s-.9619592-1.1477765-.7601318-1.9462891c.6439642-2.547789-6.8000723-8.6591138-8.677124-9.2553101l-9.4663086-3.0067139-9.4996338,12.1359863c-.2536621.427063-.0484619.979248.4226074,1.1369629l11.8645274,9.407255s.589416,45.7839801,1.698705,46.8899251l15.3929443,53.7799072,21.9050293-25.9124756Z"/>
      <path class="cls-6" d="M100.7664281,27.8365325s.589416,45.7839801,1.698705,46.8899251l15.3929443,53.7799072,21.9050293-25.9124756-13.7711182-36.4938965-8.3981676-43.0859476"/>
      <path class="cls-6" d="M97.9789271,5.1563282s-8.7133661,13.4881958-8.1963064,13.6613083l12.0600033,9.8722"/>
      <path class="cls-14" d="M91.1369918,10.6136051c-5.2724609.1306763-5.2587891,7.8550415.0001221,8,5.272583-.1306152,5.2589111-7.8549805-.0001221-8Z"/>
      <polygon class="cls-10" points="1.0803987 71.3465394 53.734264 24.4158953 83.7472215 50.5294093 38.0138761 110.1904956 1.0803987 71.3465394"/>
      <polygon class="cls-4" points="1.0769384 71.3431548 53.734264 24.4158953 77.8335295 45.3840557 29.485792 101.2212745 1.0769384 71.3431548"/>
      <polygon class="cls-9" points="29.1022056 112.4158432 53.4989412 46.4460133 102.1440121 59.9420794 87.4850003 128.9210565 74.7886337 127.0054848 29.1022056 112.4158432"/>
      <polygon class="cls-4" points="29.0984248 112.3839947 53.4989412 46.4460133 92.354203 57.2259993 74.7886337 127.0054848 29.0984248 112.3839947"/>
      <path d="M57.0531785,34.2361787c5.2974164-6.2342203,11.3505211-11.8411362,17.7758937-16.8944239,5.432297-4.2722751,11.2570536-8.3755475,17.5915668-11.2049671,1.8997786-.8485688,4.1015359-1.6997521,6.0774785-1.7746273.184514-.0069919.3694131-.0075157.5538736.0014381.087099.0042278.173877.0111497.2607336.0186931.1976856.017169-.0119996-.0098723.1409881.0188993.1639335.0308301.3239801.0685604.4837769.1163765.2615462.0782627.0878459-.000677.2984056.1222194.0843181.0492136.3931977.2690938.2568798.1533584.1105423.0938517.2114311.1945575.3046728.305637-.0210906-.0251254-.0431038-.0751704.0344309.0564598.0356707.060558.0710237.1211676.1062789.1819681.0220519.0380302.1206481.2829164.0484142.0936155.0305146.0799685.0577967.1608658.0817673.243034.1782744.6111025.134115,1.4478588-.0026142,2.1617007-.2898805,1.5134209-.8538687,2.9933756-1.6105104,4.3311826-1.2609066,2.2293903-2.9396326,4.2312977-4.5697742,6.1966525-1.5518198,1.8709273-3.1709669,3.6856194-4.851595,5.4417174-6.2317674,6.5116096-13.3285057,12.0949079-19.9708063,18.1669361-.9394979.8588376-1.8707443,1.7265793-2.7938935,2.6029626-.7013019.6657747.3602733,1.7249149,1.0603261,1.0603261,6.8640606-6.5163342,14.365639-12.3396365,21.0633705-19.0320938,3.558901-3.5560985,6.946445-7.3585255,9.897967-11.43777,1.2764319-1.7641332,2.3133024-3.6516383,2.9292783-5.7465534.2893784-.9841671.5158788-2.0413531.4603174-3.0730691-.0870199-1.6158674-.9679993-2.9556708-2.5939431-3.3428321-1.9002527-.4524783-3.9967201.1482537-5.7852385.7757754-2.8098788.9858774-5.4773986,2.3800902-8.0442969,3.8773562-3.2529692,1.8974496-6.3744337,4.0195929-9.3979443,6.2626067-6.8055968,5.0487825-13.2131072,10.7132447-18.8950943,17.0062049-.668406.7402784-1.3252026,1.4908473-1.9710355,2.2508903-.6214688.7313704.4342776,1.797086,1.0603261,1.0603261h0Z"/>
      <path d="M61.3530645,53.3827282c2.2273041-9.5520787,6.1897215-18.6738526,11.4462875-26.9449708,4.1456322-6.5230825,9.1769848-12.90307,15.4153683-17.5552394,2.0537689-1.5315636,4.310805-2.963916,6.7714734-3.6215598.9370391-.2504352,1.6966818-.3707653,2.7161081-.2454886-.0547245-.0067251.0227554.0002056.1445129.0262165.1012807.0216364.2026651.0413441.3030743.0669273.098798.0251727.1968773.0533288.2938373.0848621.0657815.0213935.3044497.1107354.2503541.088297.0270395.0112158.3167596.1533776.44617.2299742.0862668.0510605.1690278.1067047.2526234.1618504.2067339.1363765.0481968.021378.1844271.1408487.6374462.5590246,1.0878836,1.2559031,1.3625628,2.0118188.6114619,1.6827399.7339218,3.4422204.4833909,5.2148611-.3920573,2.7740169-1.344432,5.5319558-2.3017273,8.156911-.849231,2.328637-1.834636,4.6033386-2.9059321,6.8379187-2.1046747,4.3900691-4.5204959,8.6202719-6.7768285,12.9321544-2.4712005,4.7224981-4.7232215,9.560086-6.4811112,14.5968873-.4943464,1.4164283-.9491189,2.8460246-1.3698844,4.2859796-.2712016.9281134,1.1754217,1.3244875,1.445963.3986338,1.6186298-5.5393186,3.8209712-10.8599181,6.4099091-16.0127023,2.2711197-4.5202281,4.7973738-8.9064914,7.0729186-13.4242875,2.3422606-4.6502516,4.3577998-9.4567139,5.7230595-14.4889105.9090317-3.3505905,1.454968-7.6163853-.7568529-10.6356981-2.9631931-4.044996-8.544947-1.6720712-11.9210535.4512526-2.891219,1.8183651-5.4894773,4.1068113-7.8755947,6.5396897-2.9594765,3.0174738-5.6218757,6.3277103-8.0411874,9.790559-5.6887227,8.1424753-10.0861517,17.272215-12.7905434,26.8341507-.3448279,1.2192103-.6595707,2.4465185-.9472878,3.6804301-.2189136.9388388,1.2265629,1.3395594,1.445963.3986338h0Z"/>
      <path d="M95.5347909,18.2640908c2.352565-.1584647,4.7985842-.3363367,7.0818742.3824962,1.822683.5738231,3.3405853,1.7504109,4.314281,3.3965589.490934.8299822,1.7876976.0764648,1.2947981-.7568403-1.114828-1.8847489-2.829377-3.2486967-4.8884721-3.9780796-2.4913405-.882495-5.2117716-.7181685-7.8024812-.5436628-.9577288.064511-.9649052,1.5645219,0,1.4995276h0Z"/>
      <path class="cls-13" d="M106.0043366,7.6813999l-1.6629596-4.0300309c-1.0332126-2.3495618-4.6601329-.977193-5.3971105.2011108-1.5627088-.6189081-5.1766279,1.3430483-4.2639648,3.0704956-4.0368989.4991732-4.5484619,5.4018555-3.7382812,6.3059082l3.9015381,3.3939453s5.8363561,1.119316,6.0694541-2.4166001c2.1940346.8923912,3.7931288-1.1742778,3.2375039-3.7315566,1.7974845-.1669265,2.4010613-1.5488265,1.8538201-2.7932723Z"/>
      <g>
        <path class="cls-14" d="M89.8407939,18.9243937l-2.8215309-3.355173c-.6294854-.7485413-.5166879-1.8784912.2652055-2.6566981l2.6291371-2.6167412c.7604622-.7568767,1.9900174-.7880163,2.6127237-.0680765,1.0272375,1.1876371,2.4912581,2.9734933,3.4618161,4.5557081.9230495,1.5047659-1.167901,4.6160358-3.6339423,2.5942829-.6810789-.558374-2.3404675-2.6118746-2.3404675-2.6118746"/>
        <path d="M90.3709569,18.3942307c-.8636307-1.026971-1.7272614-2.053942-2.5908921-3.080913-.1153799-.1372019-.246178-.2682723-.3219997-.4332646-.2338037-.5087698-.0074199-1.0597838.3575495-1.4383459.4182578-.4338351.8551839-.8511519,1.2822888-1.276243.4454167-.4433166.8803052-.9011778,1.3380844-1.3317756.3132376-.2946386.769225-.4755504,1.1954492-.3279486.4871568.1687028.8627714.8320505,1.1798118,1.2151133.4919714.5944225.972206,1.1985466,1.4289055,1.8205832.3968792.5405598.9180849,1.135836,1.1752663,1.7592671.024267.0588253.0441094.1909826.0455504.3239465.0019296.1780453-.0231531.328646-.1047061.5571836-.1095586.3070181-.367422.6667261-.64049.8604676-.8741193.6201868-1.7787874-.0848433-2.4345805-.7850006-.6069639-.6480248-1.1789863-1.3314494-1.7372958-2.0216424-.2548587-.3150612-.795204-.2651222-1.0603261,0-.3114218.3114218-.2554977.7444749,0,1.0603261,1.2316403,1.5225777,2.9445622,4.0699093,5.2406947,3.3875085,1.1390486-.3385204,2.0028688-1.4049365,2.1889961-2.5663472.2435947-1.5199996-.9382185-2.7675859-1.7983034-3.8925418-.5309327-.6944383-1.0789907-1.3752942-1.6437988-2.0424703-.5080625-.6001456-.9982769-1.0872334-1.8148481-1.1958329-1.1612089-.1544345-1.9802413.4880681-2.7438707,1.2480972l-1.9456689,1.9364954c-.9008769.8966294-1.4315652,2.1187433-.8563688,3.3554527.1589017.341649.4206971.6229832.6614724.9092969l.9567849,1.1377437c.527323.6270567,1.054646,1.2541135,1.581969,1.8811702.6218673.7394824,1.6779028-.3259458,1.0603261-1.0603261h0Z"/>
      </g>
      <path class="cls-13" d="M117.0493905,24.4158953c1.8364379-4.1268192,1.9101562-8.5417135-2.2330146-13.8022903-3.2178801-4.0857368-9.9142706-9.5210516-9.9142706-9.5210516-.7801952-.6482697-1.9663986-.3390423-2.330818.6076133l-.2288812.5945666c-.4194318,1.0895615-.1624613,2.3237558.6569773,3.1553733l4.1585385,4.2203448.8036063,3.5835925"/>
      <path d="M94.2580194,6.8905218c1.7888665,2.2915271,3.577733,4.5830541,5.3665995,6.8745812.2527436.323763.5054872.647526.7582308.971289.2493876.3194641.7986824.2616437,1.0603261,0,.3153794-.3153794.2500374-.7400297,0-1.0603261-1.7888665-2.2915271-3.577733-4.5830541-5.3665995-6.8745812-.2527436-.323763-.5054872-.647526-.7582308-.971289-.2493876-.3194641-.7986824-.2616437-1.0603261,0-.3153794.3153794-.2500374.7400297,0,1.0603261h0Z"/>
      <path d="M98.3008781,4.5730686c1.4267143,2.0452251,2.8534286,4.0904502,4.2801429,6.1356753.204319.2928956.408638.5857912.612957.8786868.2313686.3316718.6564372.4850331,1.0258192.2689789.3282863-.192017.5018016-.6920629.2689789-1.0258192-1.4267143-2.0452251-2.8534286-4.0904502-4.2801429-6.1356753-.204319-.2928956-.408638-.5857912-.612957-.8786868-.2313686-.3316718-.6564372-.4850331-1.0258192-.2689789-.3282863.192017-.5018016.6920629-.2689789,1.0258192h0Z"/>
      <path class="cls-14" d="M188.3983254,108.8398431l29.4349384-25.5936042,30.1895478-36.8207445s1.3913136-.5540782,1.5924384-1.352768c.6417226-2.5483546,10.0939462-4.3969859,12.0291767-4.0313959l9.7597095,1.8437454,2.6056676,15.1899869c.0207143.4962844-.4218727.8850417-.9113814.8004159l-14.9071934,2.6531191s-22.2378332,40.0249799-23.7390005,40.4723428l-39.0627859,40.0414774-6.9911173-33.2025749Z"/>
      <path class="cls-6" d="M258.191229,61.5285978s-22.2378332,40.0249799-23.7390005,40.4723428l-39.0627859,40.0414774-6.9911173-33.2025749,29.4349384-25.5936042,27.8321492-33.9455383"/>
      <path class="cls-6" d="M271.4041363,42.8850759s1.2720401,16.0073761.7347408,15.9144884l-15.2998351,2.96969"/>
      <path class="cls-14" d="M272.0014219,51.3391235c-7.1323969-.532235-3.2945316,6.9960556,1.0711159,7.1164398,5.272583-.1306152,4.1879173-6.9714202-1.0711159-7.1164398Z"/>
      <path d="M290.2824696,81.594954c-2.5917941-1.6128238-4.7999818-3.7911449-6.7797595-6.0971562-2.3121534-2.6931569-4.3229077-5.6409351-6.1301421-8.6924433-3.4606611-5.8433125-6.3765277-12.2234292-7.9140995-18.8612456-.5260258-2.2708938-.9611789-4.8278633-.6490285-7.0843315.1094826-.7914258.3277558-1.5134695.7248134-2.1520609.0244521-.0393266.1840634-.2506198.0688364-.1059396.0528131-.0663127.1080356-.1306653.1658758-.1926465.0571867-.0612809.1177904-.1181585.1780091-.1762899.0264262-.0255102.0553112-.0488856.0831254-.0729024.1270409-.1096959-.1037016.0707279.0219078-.0184396.1363072-.0967615.278672-.1785074.4271965-.2548182.1885432-.0968721-.059318.012249.1072516-.0447357.101066-.0345754.2019463-.0669516.3056006-.0930343.077634-.0195352.1560552-.0348564.2346347-.0499506.1948105-.0374209-.1100697.010553.0146618-.0044192.0418539-.0050239.0838008-.009601.125851-.0126428.1860494-.0134582.3687923-.0153886.5548953-.0064104.2121213.0102334-.0997467-.0293739.1212531.0173584.0773856.0163638.154919.031439.2318712.0498984.2172685.0521186.4308387.1197282.6414154.1941199.9832064.3473433,2.0253271.9222465,3.001134,1.4888263,3.0927126,1.7957125,6.0131983,3.8943519,8.9130145,5.9813093,7.7496681,5.5773283,15.3110549,11.4186719,23.2285137,16.7607846.9325864.62924,1.870525,1.2504636,2.814326,1.8627562.811959.5267598,1.5644132-.7708837.7568403-1.2947981-8.2941741-5.3808598-16.1384481-11.4171125-24.1252229-17.2345164-3.1759894-2.313326-6.3645157-4.6356534-9.711135-6.6990161-1.1292167-.6962201-2.2820462-1.3732522-3.4960539-1.9124211-.8379415-.3721492-1.7377745-.7367342-2.6711893-.7211015-4.8729562.0816113-4.514179,6.4271621-3.9904885,9.7508387.4866494,3.0885903,1.414122,6.1077423,2.502928,9.0326774,1.2993091,3.4904242,2.8640205,6.8861879,4.6449654,10.156559,3.3286228,6.1123914,7.4731615,12.2837014,13.065512,16.5513203.572921.4372059,1.1639114.8488745,1.7758457,1.2296695.8216691.5113089,1.5753739-.7854403.7568403-1.2947981h0Z"/>
      <polygon class="cls-9" points="301.6574192 151.1082772 258.9318881 99.1765778 333.0646298 38.185684 378.4547427 87.9251641 301.6574192 151.1082772"/>
      <g class="cls-15">
        <rect x="270.0345698" y="84.4606722" width="10.1088485" height="52" transform="translate(-12.2364182 37.5249319) rotate(-7.6343645)"/>
        <rect x="290.2351004" y="66.4244678" width="10.5" height="92" transform="translate(-12.3165199 40.2519794) rotate(-7.6343645)"/>
        <rect x="310.5045653" y="53.8457304" width="8.9922965" height="92" transform="translate(-10.472438 42.7331482) rotate(-7.6343645)"/>
        <rect x="328.8099439" y="32.4342373" width="9.5" height="102.3170128" transform="translate(-8.1487062 45.0546922) rotate(-7.6343645)"/>
        <rect x="368.3066802" y="24.0079003" width="6.9475616" height="102.3170128" transform="translate(-6.6904748 50.0576305) rotate(-7.6343645)"/>
        <rect x="348.8132501" y="34.2709614" width="9.5" height="92" transform="translate(-7.530096 47.6827047) rotate(-7.6343645)"/>
      </g>
      <rect class="cls-4" x="270.7350462" y="64.8350128" width="84.0004189" height="67.2491534" transform="translate(8.6749133 221.1174025) rotate(-39.4448847)"/>
      <path d="M286.4338013,86.3145433c-4.210404-5.4900576-7.7539018-11.5394171-10.9869701-17.6442311-3.4037234-6.4270523-6.6405365-13.1717943-8.4343903-20.2504578-.3354584-1.3237407-.6214647-2.6778038-.7613631-4.0256436-.1127965-1.0867294-.1491987-2.4171588.0113239-3.3427032.0798208-.4602323.1919009-.9123149.3597886-1.3487745.0030598-.0079547.1178424-.2665897.2090545-.4310519.0501219-.0903736.103137-.1790459.1595385-.2656462.029231-.044882.2199615-.302036.1137902-.1688756.124795-.1565183.2625824-.3004832.4090123-.4367548.0377137-.0350974.2111269-.1771325.1537909-.1330366-.0417703.0321247.1618994-.1112282.2212658-.1483293.4255495-.265947.5704532-.3189761,1.0927237-.4423211.4524307-.1068508.8062956-.1344251,1.3673464-.1238887.4572722.0085874.8781068.0327555,1.2894097.1448909.0850341.0231832-.1680408-.0901098.0161325.0093568.0663865.0358534.1338356.0693376.1995879.1064993.1675147.0946753.3281054.2018583.4860279.3115937.4130084.2869866.6511596.4830892,1.0799309.842279,2.627044,2.2007242,5.046504,4.6604583,7.4947856,7.0541595,7.2338739,7.0726066,14.4556313,14.207672,22.3699107,20.5286031.9787745.781722,1.9692417,1.5488785,2.9713455,2.3004601.7722639.5792008,1.5205071-.7220451.7568403-1.2947981-8.4257073-6.3193124-15.9889394-13.7418926-23.5040256-21.094106-2.6941377-2.6357483-5.3548114-5.3222584-8.1786146-7.8208183-.8166419-.7225818-1.6550002-1.4760179-2.5896325-2.0451201-.8284908-.5044721-1.8014049-.568427-2.7554063-.5411911-2.0323868.0580227-3.8342857,1.0105814-4.6714856,2.9188248-.9646657,2.1987783-.7187095,4.7859637-.3343103,7.0879998.5455646,3.2672004,1.6055574,6.4472734,2.7873445,9.5331344,1.3970539,3.6479617,3.0218399,7.2089055,4.77117,10.7004186,3.3195462,6.6255299,7.0480759,13.1275094,11.3873165,19.143.3968854.5502024.8011109,1.095039,1.2139634,1.6333683.57927.7553256,1.8823599.0092971,1.2947981-.7568403h0Z"/>
      <path class="cls-13" d="M263.141361,41.3008631l3.3756998-2.7588466c2.0241412-1.5782336,4.5659713,1.3504259,4.6557854,2.7373178,1.6692819.1964786,3.9199789,3.6379968,2.297078,4.7257562,3.3169685,2.3544525,1.4415785,6.9130601.2994961,7.3245837l-5.0446212,1.1369527s-5.6688452-1.7832876-4.1966819-5.0066047c-2.3547857-.2552135-2.7821172-2.8331217-1.0798697-4.8207704-1.5031764-.9996377-1.3789732-2.5024771-.3068865-3.3383888Z"/>
      <path d="M268.8228047,55.5833466c-1.4170013-1.5381025-3.598207-2.6176716-5.5619926-3.2266134-3.1434176-.9747289-6.3572134-.4918474-8.9274207,1.6059695-.7479659.6104938.3184559,1.6658446,1.0603261,1.0603261,2.2471189-1.8341104,5.0886006-2.028851,7.7665943-1.1236704,1.6247148.549165,3.420605,1.4617729,4.6021667,2.7443144.6552868.7112896,1.7136117-.3512088,1.0603261-1.0603261h0Z"/>
      <g>
        <path class="cls-14" d="M272.0370226,58.8659487l4.0754757-1.6151534c.9092413-.3603418,1.3459678-1.4085689,1.0268159-2.4645543l-1.0731569-3.5507789c-.3104042-1.0270415-1.3780352-1.6377295-2.2677408-1.2993503-1.4676885.5582017-3.6036689,1.4358273-5.2086406,2.3682714-1.5264089.8868013-1.161623,4.6176197,1.9683614,4.0076669.8644488-.1684586,3.2993804-1.1890187,3.2993804-1.1890187"/>
        <path d="M272.2363395,59.5889302c1.3582626-.5382936,2.7230536-1.0623862,4.0754757-1.6151534,1.423771-.5819291,1.9402022-2.0670308,1.5184056-3.4929797-.2566311-.8675813-.5235415-1.732254-.7852894-2.5983053-.3067061-1.0148057-.6179846-2.0388665-1.6700042-2.5346-.7715238-.363558-1.4680279-.2569126-2.2349835.0420171-.8578245.3343469-1.7092395.6872081-2.5485745,1.0656901-.8039299.3625167-1.6312161.7324137-2.3800134,1.2013852-.4452951.2788881-.7700996.6681762-.977777,1.1490966-.4051371.9381794-.3519098,2.1005915.1848414,2.9800282,1.4959215,2.4509837,4.6514009.8915406,6.6384146.059904.3732531-.1562198.6407584-.4962158.5236646-.9222984-.0967721-.3521359-.5463951-.6809936-.9222984-.5236646-.7429805.310964-1.4934445.6083474-2.2535586.8748296-.8219982.2881777-1.7433674.5706029-2.4070943.0821028-.1799875-.13247-.3643494-.4141735-.4467573-.6867999-.1047351-.3464901-.1125079-.6580428-.0490705-.9424474.0180288-.0808273.0413979-.1597208.0654746-.2389073.0131595-.0432806.0299308-.0889531.0478515-.1308903-.0517756.121163-.0017703.0134067.0100404-.007972.0432672-.0783186.0865892-.1565271.1396094-.228864-.0849447.1158922.0906522-.0877924.1213913-.1157765.0625818-.0569729-.0167111.0092006-.0261918.0163165.0334937-.0251392.07155-.0491334.1083007-.0698592.1651603-.0931438.3293954-.1876273.4962225-.2778241.3707759-.2004639.7474351-.3899218,1.127481-.5721426.7010496-.3361326,1.413519-.6482832,2.1334079-.9417765.3093648-.1261257.6198769-.2494387.9314246-.3700717.2598706-.1006234.5247892-.2395355.8102955-.1863554.7620921.141952.9122219.9505247,1.099501,1.5701796l.7397039,2.4474752c.0742136.2455524.1677902.4966447.1840722.7534883.0174754.2756687-.0340028.5538108-.1859237.7880091-.0605095.0932803-.1299388.1792088-.2178576.2492359-.047877.0381339-.3365803.1898382-.1788334.11799-1.3228565.602515-2.7183504,1.0773105-4.0699844,1.6129771-.3762008.1490923-.6393018.5015161-.5236646.9222984.0983987.3580547.5437045.6737053.9222984.5236646h0Z"/>
      </g>
      <path class="cls-13" d="M245.4796782,50.7930448c.341022-4.504092,2.3704593-8.4255854,8.5132855-11.0911469,4.7709542-2.0702641,13.2443247-3.6784574,13.2443247-3.6784574.9943476-.200577,1.8918959.6343522,1.7636284,1.6405856l-.0805611.6319858c-.1476306,1.1581332-.9593228,2.1227186-2.0751935,2.4660843l-5.6628906,1.7425337-2.4074123,2.7734968"/>
      <path d="M273.263428,44.8112321c-2.6630256,1.1692037-5.3260513,2.3384073-7.9890769,3.507611-.3748847.1645934-.7497694.3291869-1.124654.4937803-.3708203.162809-.4566084.7050341-.2689789,1.0258192.223723.3824931.6535702.4324151,1.0258192.2689789,2.6630256-1.1692037,5.3260513-2.3384073,7.9890769-3.507611.3748847-.1645934.7497694-.3291869,1.124654-.4937803.3708203-.162809.4566084-.7050341.2689789-1.0258192-.223723-.3824931-.6535702-.4324151-1.0258192-.2689789h0Z"/>
      <path d="M270.6285779,40.9312509c-2.2324396,1.1268113-4.4648791,2.2536225-6.6973187,3.3804338-.3125481.1577569-.6250963.3155138-.9376444.4732707-.8616709.4349235-.1034053,1.7290022.7568403,1.2947981,2.2324396-1.1268113,4.4648791-2.2536225,6.6973187-3.3804338.3125481-.1577569.6250963-.3155138.9376444-.4732707.8616709-.4349235.1034053-1.7290022-.7568403-1.2947981h0Z"/>
      <path class="cls-11" d="M204.4806314,142.5128349l17.3085938-22.0296021-18.5385742-28.107666-19.8585205,9.4899902c-6.1569824-2.1781006-14.0845947-3.4710083-24.3275146-3.4710083-6.121582-2.022522-11.5345459-2.3904419-16.333374-1.4519653l-8.8221436-14.4371948-30.0603027,15.9094238,9.9422607,33.1271362c-7.8275146,23.5266113-9.8585205,52.0200195-12.2344971,62.3430176,19.7347412,13.7720337,63.8846436,17.7952881,101.5961914,7.0126343-.623291-15.8461914-1.878418-28.9614258-1.878418-28.9614258,0,0,2.3815918-15.986084,3.2062988-29.4233398Z"/>
      <g>
        <path class="cls-7" d="M116.5745935,124.0221251c-7.8275146,23.5266113-12.6420531,59.5398428-15.0180296,69.8628408"/>
        <path class="cls-7" d="M142.7312465,96.9425831l-8.8221436-14.4371948-30.0603027,15.9094849,9.9422607,33.1270752"/>
        <path class="cls-6" d="M101.5565638,193.8849659c19.7347412,13.7720337,63.8846436,17.7952881,101.5961914,7.0126343l-1.8783322-28.9614258,4.0159979-30.4540607"/>
        <path class="cls-6" d="M201.2744231,146.5934804l20.5148068-26.1102479-18.5385742-28.107666-20.0012207,9.5581665.0026855.0067749c-6.0478516-2.2198486-13.894165-3.5459595-24.1875-3.5459595-6.121582-2.022522-11.5345459-2.3904419-16.333374-1.4519653"/>
      </g>
      <path class="cls-9" d="M185.8817545,73.1889213c1.1512451-11.569458-7.1269531-22.008606-18.7297363-23.4545288-11.6026611-1.4458618-22.1896973,6.642334-23.9130859,18.140564-3.6025391-.2216187-6.7084961,1.7732544-7.0656738,4.6395264-.3754883,3.0142212,2.4299316,5.8453369,6.2662354,6.3233643.6890869.0858765,1.3636475.0870361,2.010376.0184937,2.0197754,5.1853638,6.0162354,9.4552002,11.1696777,11.789978l-.8500977,6.8215332c-3.4398193.5548706-5.8996582,2.0004883-5.8395996,3.980957.0761719,2.5057983,5.9801025,5.3110962,9.0959473,5.7935791,3.1159668.4824829,11.9022217.1724243,13.4291992-2.9865723.8721924-1.8045044-1.3137207-3.8730469-4.6833496-5.2972412l.8243408-6.6146851c5.8544922-.850769,11.052002-4.0872192,14.4168701-8.8065186.6101074.2251587,1.2642822.3895264,1.9533691.4754028,3.8364258.4780884,7.2508545-1.5778809,7.6264648-4.5921631.3571777-2.8662109-2.1641846-5.5623779-5.7109375-6.2316895Z"/>
      <g>
        <path d="M160.553571,69.9351879c-.146484,1.1951248-.292968,2.3902496-.439452,3.5853745-.0479149.390925.3791524.7666103.75.75.4472816-.0200338.6986639-.3311618.75-.75.146484-1.1951248.292968-2.3902496.439452-3.5853745.0479149-.390925-.3791524-.7666103-.75-.75-.4472816.0200338-.6986639.3311618-.75.75h0Z"/>
        <path d="M156.2931822,76.2474783c.5156756,1.6502039,1.8723492,3.0011127,3.562496,3.4272387,1.7554873.4425998,3.6974477-.1539876,4.9182342-1.4848419.6515658-.7103119-.4064177-1.77389-1.0606602-1.0606602-.8624813.9402438-2.2025252,1.4143044-3.4588147,1.0990835-1.1804289-.2961864-2.1522855-1.2193855-2.5148369-2.3795795-.2869707-.9183296-1.7354942-.5263062-1.4464186.3987594h0Z"/>
        <path d="M156.2931822,76.2474783c.5156756,1.6502039,1.8723492,3.0011127,3.562496,3.4272387,1.7554873.4425998,3.6974477-.1539876,4.9182342-1.4848419.6515658-.7103119-.4064177-1.77389-1.0606602-1.0606602-.8624813.9402438-2.2025252,1.4143044-3.4588147,1.0990835-1.1804289-.2961864-2.1522855-1.2193855-2.5148369-2.3795795-.2869707-.9183296-1.7354942-.5263062-1.4464186.3987594h0Z"/>
        <path d="M166.4664962,72.9600872c.0367277-.1420826.0766475-.283255.1225726-.4226642.0209791-.0636837.0431195-.1269798.0665192-.1898145.0099594-.0267438.0201419-.0533974.0305798-.0799583.0611519-.1556113-.0432269.0945366-.0126677.0272648.0903872-.1989749.189609-.392739.3173476-.5707369.0966842-.134725-.0961661.1142725-.0255369.0324717.0277821-.0321764.0550194-.0645311.0842011-.0954727.0275405-.0292014.0559642-.0575721.085475-.0847869.0588661-.0542862.1842835-.1193624-.036232.0204683.0589871-.0374042.1134738-.0795168.175543-.1124669.0256722-.0136283.0528333-.0244613.078424-.0380795-.2385647.1269538-.1304146.0522398-.0517899.0284541.028939-.0087547.0582215-.0163385.0878001-.0226152.0128174-.0027199.0261735-.0043655.0388448-.007493.0850281-.020986-.1570976.0170737-.1413802.0183753.0613739.0050827.1275559-.0078103.1901344-.0049681.0808024.0036699.1461059.0465093-.1067643-.0169211.0266285.0066796.0547095.0092949.0815695.0153645.0568507.0128465.1098576.034866.1655887.0505788.0725207.0204465-.2099189-.0997681-.0962589-.040001.0433428.0227914.0839466.0462287.1253001.0724575.0908254.0576066-.1555799-.1369699-.0404609-.0256587.0139212.0134607.0274634.0274395.0405221.0417514.0973281.1066687-.0465929-.0360009-.0432573-.059941-.0023665.016984.0694463.111218.0790517.1297019.0039434.0075882.0252742.0560818.0273407.0562765-.0063647-.0005997-.0711919-.1924329-.0392687-.0902657.0149162.047738.0315082.0943395.0437226.1429927.0092481.0368378.0429836.243168.0220301.0896935-.0199226-.1459235-.0041153-.018975-.0020749.0094985.0027069.0377746.0042811.0756388.0048839.1135035.0010488.0658793-.0010132.1318355-.0056793.1975516-.0019383.0272991-.0048253.0544738-.0071902.0817382-.0133914.1543857.035425-.1871049.0038242-.0316504-.0147267.0724453-.0274063.1450263-.0450966.2168752-.0381622.1549954-.090555.3041478-.1464876.4534156-.0591877.1579548.0553596-.1150869.0059928-.0155938-.0232251.0468075-.0439849.0948802-.0673025.141687-.0444077.0891421-.0923108.1762681-.142115.2625025-.1963111.3399068-.0902807.8362844.2690637,1.0261424.3579508.1891217.8165345.0938661,1.0261424-.2690637.367468-.6362599.6456271-1.3934864.6062751-2.1397142-.0347213-.6584161-.3035501-1.3368702-.9063691-1.6724961-.8037289-.4474847-1.7890281-.2296023-2.3874187.4536762-.4736466.5408382-.7436831,1.2200415-.9218172,1.909161-.0980572.3793384.1246431.8316671.5238296.922589.3911863.0890997.817537-.1174315.922589-.5238296h0Z"/>
        <path d="M154.9281164,71.0540062c-.0309852.2389698.007794-.0422086.015901-.0896704.010254-.0600311.0213713-.1199186.033506-.1795986.0277044-.1362536.0605376-.271508.1000311-.4048393.0314069-.1060308.0687801-.2094629.1079426-.3128058.0471223-.1243476-.0713172.1534988-.0295127.0701743.0121289-.0241752.0224165-.0494075.0341794-.0737851.0224124-.0464479.046152-.0922722.0714269-.1372295.0416226-.0740355.0961097-.1406492.137701-.2139964-.1121294.1977425-.0858915.1068393-.0281012.041029.0293873-.0334656.0601052-.0657405.0923435-.0964768.025045-.0238781.0518333-.0455197.0776064-.0685412.0615875-.0550123-.1788715.1273639-.0903702.0700392.0120418-.0077998.0235361-.016641.0354713-.0246006.0846073-.0564249.3019543-.1265164.0195499-.0304646.0550854-.0187357.1082049-.0393495.1651672-.0523909.0243509-.0055751.0491891-.0087502.0735351-.0141056-.2810526.0618233-.1634562.018663-.0803829.0151483.0387459-.0016393.1385838.021499.1713186.0060794-.0253328.011933-.2448704-.0439186-.1112149-.0134329.0317186.0072347.0633889.0134588.0948025.0220978.0287947.0079189.0566004.0184919.0851952.0268651.0938218.0274729-.1052362-.0364807-.102829-.0436425-.0000048.0000143.054732.0285264.0607277.0319751.0769946.0442878.1345261.1285516-.0273937-.0310458.0333792.0329004.0696797.0620129.1014027.0969208.1154539.1270453-.1070614-.1606511-.0109442-.0136605.0249436.0381459.0475291.0777697.0682035.1183766.0053632.0105338.0254907.0685997.0335861.0708122-.006097-.0016663-.071415-.1914817-.0396401-.0894382.0166546.0534856.0354276.1058994.0493338.1603035.0072035.0281816.0136071.0565312.0194928.085013.0064962.0314355.0268279.1701603.0079055.024499-.0189647-.1459874-.0027673-.0168652-.0002343.0108852.0034846.0381762.0059841.0764488.0076217.1147473.0058568.1369734-.0033248.2719363-.0139196.4083504-.0124028.1596925.0337883-.186306.0036493-.0260948-.0083468.0443694-.015256.0889622-.0241836.133245-.0154137.0764545-.0333927.1524028-.0536304.2277227-.0211436.0786918-.0448131.1567136-.0707182.2339667-.0133822.0399077-.0274464.079566-.0420122.1190548-.015382.0417016-.0917278.2288156-.0110447.0380366-.082054.1940206-.1341694.3652553-.0756063.5779191.0479075.1739693.1824216.3625001.3446699.4482233.17406.0919639.3849227.1380625.5779191.0756063.1718971-.0556283.3743983-.1701073.4482233-.3446699.3166723-.7487865.4985839-1.5208646.3666454-2.3343044-.0949861-.5856174-.4367229-1.1807493-.9880118-1.4430764-.4071246-.1937275-.8790558-.2499203-1.3163883-.1245859-.4875944.1397389-.8598556.4718902-1.1444825.8805239-.4157969.596952-.5529749,1.349445-.6444378,2.0548414-.0228542.1762601.1003109.4109711.2196699.5303301.1300817.1300817.3435047.2280378.5303301.2196699.1939678-.0086878.3951419-.0724031.5303301-.2196699.1439459-.156807.1925458-.3211388.2196699-.5303301h0Z"/>
      </g>
      <g>
        <path d="M142.7052967,67.8590912c-1.0306139-2.061138,2.5798127-9.7198264,6.3910693-13.0745399,2.4124508-2.1234679,6.3415978-4.5374515,8.0224678-3.2495725,1.68087,1.2878789-.2748041,5.9584712-3.3355525,9.9533462-3.0607484,3.994875-9.4816662,9.563264-11.0779846,6.3707661Z"/>
        <path d="M174.237293,51.1800471c10.8438959,5.0328425,13.8094034,15.422269,11.5626088,22.7554499-7.2162734,2.9281624-9.3611515-2.4547227-9.0371723-7.7881153.281131-4.6280195-3.9736431-13.2036573-11.7733328-8.5177741,0-5.4300708,7.4580874-7.2802422,9.2478962-6.4495605Z"/>
        <path d="M154.9971905,52.5047424c.8505495-3.381995,8.440468-4.3876294,13.933129-3.2217731,5.6840107,1.2064716,8.7787545,3.1171771,8.1106464,5.7737398-.7143092,2.8402697-4.5692999,4.3146986-10.1487266,3.6833953-5.6016293-.6338155-12.563157-3.5787992-11.8950489-6.2353619Z"/>
      </g>
      <path class="cls-14" d="M178.9677867,61.9366974c.7564913,2.2218745,1.0834368,4.5391145.9687664,6.8834514-.0471822.9646001,1.4524662.9621297,1.4995276,0,.120496-2.4634372-.2273888-4.9472773-1.022331-7.2820852-.3093015-.908443-1.7582048-.5184449-1.445963.3986338h0Z"/>
      <path class="cls-14" d="M182.4996976,64.5931001c.2303604,1.7339562.3550447,3.4795377.3734737,5.2286311.0042684.4051132.3415413.7497638.7497638.7497638.4032014,0,.7540484-.3431102.7497638-.7497638-.018429-1.7490941-.1431134-3.4946756-.3734737-5.2286311-.0533152-.4013113-.3064317-.7497638-.7497638-.7497638-.3636596,0-.8034739.3454802-.7497638.7497638h0Z"/>
      <path d="M338.4648307,53.2748283c.9374515,1.1311864,1.8749029,2.2623728,2.8123544,3.3935592,2.2516358,2.7169617,4.5032715,5.4339235,6.7549073,8.1508852,2.7247421,3.2878409,5.4494842,6.5756817,8.1742263,9.8635226,2.3567705,2.8438238,4.713541,5.6876476,7.0703115,8.5314713l2.3326771,2.8147512c.3663048.4420059.7115754.9264916,1.1104857,1.3399802.0178617.0185145.0332532.0401253.0496926.0599621.6163177.7436867,1.6720136-.3222265,1.0603261-1.0603261-.9374515-1.1311864-1.8749029-2.2623728-2.8123544-3.3935592-2.2516358-2.7169617-4.5032715-5.4339235-6.7549073-8.1508852-2.7247421-3.2878409-5.4494842-6.5756817-8.1742263-9.8635226-2.3567705-2.8438238-4.713541-5.6876476-7.0703115-8.5314713l-2.3326771-2.8147512c-.3663048-.4420059-.7115754-.9264916-1.1104857-1.3399802-.0178617-.0185145-.0332532-.0401253-.0496926-.0599621-.6163177-.7436867-1.6720136.3222265-1.0603261,1.0603261h0Z"/>
    </g>
  </g>
</svg>