<?xml version="1.0" encoding="UTF-8"?>
<svg id="_レイヤー_2" data-name="レイヤー 2" xmlns="http://www.w3.org/2000/svg" viewBox="0 0 196.2608684 317.7106586">
  <defs>
    <style>
      .cls-1 {
        fill: #adadad;
      }

      .cls-2, .cls-3, .cls-4, .cls-5, .cls-6, .cls-7, .cls-8, .cls-9, .cls-10, .cls-11 {
        stroke: #000;
      }

      .cls-2, .cls-3, .cls-4, .cls-5, .cls-8, .cls-10 {
        stroke-width: 1.4995276px;
      }

      .cls-2, .cls-12, .cls-5, .cls-9, .cls-10 {
        fill: #fff;
      }

      .cls-2, .cls-6, .cls-7, .cls-8, .cls-9, .cls-10, .cls-11 {
        stroke-linejoin: round;
      }

      .cls-3, .cls-4, .cls-5 {
        stroke-miterlimit: 10;
      }

      .cls-3, .cls-6, .cls-7, .cls-8 {
        fill: none;
      }

      .cls-3, .cls-6, .cls-7, .cls-8, .cls-9, .cls-10, .cls-11 {
        stroke-linecap: round;
      }

      .cls-4, .cls-13, .cls-11 {
        fill: #eb6d51;
      }

      .cls-14 {
        fill: #ea624b;
      }

      .cls-6, .cls-9, .cls-11 {
        stroke-width: 1.4173229px;
      }

      .cls-7 {
        stroke-width: 1.5px;
      }
    </style>
  </defs>
  <g id="_レイヤー_11" data-name="レイヤー 11">
    <g>
      <polygon class="cls-2" points="59.140448 310.0887669 57.140448 213.0887669 76.140448 213.0887669 69.140448 310.0887669 59.140448 310.0887669"/>
      <polygon class="cls-2" points="173.140448 310.0887669 175.140448 213.0887669 156.140448 213.0887669 163.140448 310.0887669 173.140448 310.0887669"/>
      <polygon class="cls-1" points="162.9563781 212.6757323 167.7276923 126.7511781 161.7998122 120.301746 177.7625252 116.315124 172.0866783 213.2106455 162.9563781 212.6757323"/>
      <path d="M177.0113603,129.3281203c-.5619904,5.8045435-1.1239809,11.609087-1.6859713,17.4136305-.0801106.8274254-.1602211,1.6548509-.2403317,2.4822763-.0929368.9599014,1.4072111.9534948,1.4995276,0,.5619904-5.8045435,1.1239809-11.609087,1.6859713-17.4136305.0801106-.8274254.1602211-1.6548509.2403317-2.4822763.0929368-.9599014-1.4072111-.9534948-1.4995276,0h0Z"/>
      <path class="cls-1" d="M169.7611184,106.0765595l-.0337524.3125c-.6741943-.2145386-1.3141479-.3685913-1.892334-.4493408-19.8018799-2.7662964-59.1105347-3.3414917-78.4316406-.000061-1.8432007.3187866-3.7827759.7696533-5.7908936,1.5297852l.2280884-.727356s-1.1256104.4974365-3.1277466,2.0432129c-3.7301636,1.9818115-7.6448975,5.2603149-11.5936279,10.9385376v1.4650269c-1.3154297,1.7640991-2.6948853,3.7290039-4.1316528,5.9254761-4.7860107,7.3167114-12.1419067,12.4359131-22.0793457,18.5597534-10.7183838,6.6051636-20.487793,8.1660767-19.6834106,25.8427124l21.7649536,1.0899658c2.6044922-16.5386963,11.0786743-16.5888672,15.5639038-20.2199097,2.7099609-2.1939087,6.7172241-4.0249023,10.586792-9.0792847.1737671-.2269287.6556396-.5860596,1.0512085-.8623657l3.9487915,71.3933105,8-.7497559s-1.2563477-61.6105957-1.2563477-84.2069092c0-1.3596191,3.8891602-5.5178833,5.7622681-7.4421387h.9890137v89.0523071h8.5v-89.0523071h6.2818604v89.0523071h8.5v-89.0523071h6.5v89.0523071h8.5v-89.0523071h7.0903931v89.0523071h8.5v-89.0523071h6.8828125v89.0523071h8.5l2.8726807-89.0523071h6.3386841l-.3741455,3.4641724c14.5081787,3.5840454,12.2999268,14.5784912,11.1513672,18.4036865-2.7247314,9.0745239-11.1179199,9.1275635-11.1179199,24.956604l18.855896-.7005005c.5180054-6.6911011,8.7946167-5.1020508,8.7946167-30.4971313,0-9.3009033-7.3384399-28.1602173-25.6505127-30.9899902Z"/>
      <g>
        <path class="cls-8" d="M71.4530574,142.5965467l4.6873906,70.4922202"/>
        <path class="cls-8" d="M176.3348211,129.3281203c4.0524079,5.0947501,3.9135646,10.8407839,1.8735171,16.1735762"/>
        <path class="cls-8" d="M76.140448,213.0887669l7.9999901-.0000342-1.3381832-83.1497348c-.3057549-4.0454835,6.8331173-8.4993131,6.8331173-8.4993131v89.0523071h8.5v-89.0523071h6.2818604v89.0523071h8.5v-89.0523071h6.5v89.0523071h8.5v-89.0523071h7.0903931v89.0523071h8.5v-89.0523071h6.8828125v89.0523071h8.5l2.8726807-89.0523071s6.3143249,3.5101233,6.1275462,7.0001071l-4.7151632,80.4951589"/>
        <path class="cls-8" d="M45.0971425,169.3765536c0-14.3865134,23.7660972-16.616123,29.1250202-31.9616451"/>
        <path class="cls-8" d="M186.598282,169.0696869c-.4347403-8.8706171,8.9128226-4.566161,8.9128226-29.2431613,0-20.6274872-14.496048-32.2765983-25.749939-33.75-19.7595565-2.5869954-66.6865796-2.0109252-80.3577881-.1368408-10.7419425,1.4725331-16.8311128,8.2350848-24.6843262,22-4.8132662,8.436572-13.5617659,14.2162284-27.3474386,20.3049383"/>
      </g>
      <path class="cls-12" d="M34.2792637,152.9608948c10.7324164,0,11.3776796,6.9067401,11.2134212,11.6277875l-5.3014539,152.3722125h-13.4439327l-3.6860692-152.1980101c0-4.6215386,6.1187615-11.8019899,11.2180346-11.8019899Z"/>
      <path class="cls-8" d="M45.4972983,157.3386823l-5.3060673,159.6222125h-13.4439327l-3.6682375-148.8569716c-.3427087-7.9797855,4.2902195-14.5801032,10.8133268-18.1298654"/>
      <g>
        <path class="cls-14" d="M137.6944069,57.202475c.1051025-.6550293.151001-1.333252.119751-2.0316162-.2088623-4.666748-3.4053345-8.3144531-9.034729-8.062561-5.3143921.237793-9.5230713,3.8054199-9.8023682,8.130188-1.0473633,2.8952026-.7335815,6.3168945,1.1499023,9.1936035,3.086731,4.7144775,9.1994629,6.1724243,13.6531372,3.2564087,3.458252-2.2641602,4.8878784-6.4985352,3.9143066-10.4860229Z"/>
        <path class="cls-12" d="M132.724837,57.0308918c.7262653,1.2536902,1.0192567,3.3469835.0158985,4.5619077-.4844428.5865914-1.4728911.3956683-2.1149777.2280226-.8180621-.2135921-1.5750559-.621025-2.2487966-1.1277699-1.1317655-.851242-2.0637903-1.9818108-2.9508691-3.075858-.7647544-.9431827-1.4996121-2.0743407-2.1566408-3.1561547-.5004192-.8239526-1.7981244-.0709888-1.295206.7570787,1.2828124,2.1121823,2.7818628,4.2132703,4.5996654,5.9041428,1.1676796,1.0861451,2.5889964,1.9948777,4.1862441,2.2574489.8147109.1339301,1.7297069.1768552,2.4679641-.2558814.640996-.375726,1.021463-1.0280974,1.2749187-1.7051636.627261-1.6756274.4063553-3.609643-.4829944-5.1448519-.4837149-.834996-1.7804843-.0806161-1.295206.7570787h0Z"/>
        <path class="cls-12" d="M131.5430893,53.3135645c-2.7161987.5451593-5.2405108,1.9255211-7.1944613,3.8853545-.6823874.684442.3778928,1.7454833,1.0606602,1.0606602,1.7843686-1.789741,4.0553873-3.0024108,6.5325606-3.4995961.3973295-.0797467.6257095-.551867.5238296-.922589-.1137363-.4138651-.5241113-.6038067-.922589-.5238296h0Z"/>
      </g>
      <path class="cls-5" d="M170.840947,188.1254834s6.2068341-53.4084585.1465659-75.3761445c-9.6390488-34.9403012-28.5059511-48.7404194-57.869387-43.5309225-16.8195634,2.984033-34.179805,4.6968112-31.923932,39.3168387.5075447,7.789096,10.0479857,35.4962826,10.0479857,35.4962826l-1.6068073,39.0316597c19.5557373,8.2368657,81.2055748,5.0622859,81.2055748,5.0622859Z"/>
      <ellipse class="cls-5" cx="79.145359" cy="57.1544032" rx="7" ry="5.5" transform="translate(-8.0547786 13.2596466) rotate(-9.1149906)"/>
      <path class="cls-12" d="M120.2650856,55.5489716c3.8171997-.6124268,6.5215454-3.5402222,6.0403442-6.5394287-.4631348-2.8865356-3.7093506-4.7802124-7.3554688-4.3729248-.159668-.7750854-.361145-1.5487671-.6166992-2.3174438-3.6153564-10.8746948-15.6230469-16.6727905-26.8199463-12.9503174s-17.3430176,15.5557861-13.7276611,26.430481c3.6152954,10.8746948,15.6229858,16.6727295,26.8198853,12.9502563,1.3685913-.4550171,2.6604004-1.0328369,3.8695068-1.713623l.7807007,4.4263306c.5801392,3.2890015,3.7166748,5.4850464,7.0057373,4.9049072s5.4850464-3.7166748,4.9049072-7.0057373l-2.3718872-13.447876c-.0153809-.0872803-.0396729-.1705322-.0586548-.2562256.4995728.0070801,1.0107422-.0252075,1.5292358-.1083984Z"/>
      <g>
        <path class="cls-3" d="M79.5167951,59.6306559c4.8733433,8.3440881,15.2914171,12.3760733,25.0888388,9.1189624,1.3689176-.4551337,2.6597352-1.0350064,3.8689526-1.7160349l1.04731,5.4107986"/>
        <path class="cls-3" d="M121.5745023,71.4070289l-2.779968-15.4934497c-.0154492-.0872751-.0397244-.1705136-.0587493-.256215.499591.0070943,1.010744-.0252071,1.5293572-.1083715,3.8170432-.6124265,6.5215103-3.5402365,6.0403351-6.5394805-.4634628-2.8884113-3.7136095-4.7825727-7.3625612-4.3720776-.1597014-.7753479-.353973-1.5493148-.6096221-2.3182788-3.6154551-10.8747222-15.6230345-16.6727507-26.8199719-12.9502664"/>
      </g>
      <g>
        <path class="cls-13" d="M118.5225095,44.6879022c2.5154176-2.3834221-2.0568814-9.3125767-4.6210099-11.4892323-2.8264659-2.3993504-5.8068392-4.9244363-8.0775177-4.5766874-4.9561777.7590266,4.3550403,23.9715858,12.6985276,16.0659197Z"/>
        <path class="cls-13" d="M80.5423333,35.1990203s-4.0222341,5.0159621-4.8826757,9.275797c-.697109,3.4512157-.5847052,12.2431049,2.3805145,11.8494712,3.2869997-.4363501,3.5823615-2.3613887,3.4721742-5.335014-.0808294-2.1813432-2.0198264-7.0515113-.6709277-10.8889881,1.4681876-4.1768414-.2990854-4.9012661-.2990854-4.9012661Z"/>
        <path class="cls-13" d="M107.6476167,32.1423127c.946112-5.9570757-12.1592338-5.7670431-18.0745882-3.7491542-4.0772461,1.39086-10.5249601,6.5637247-9.7169928,9.4055905.7361207,2.5891594,4.524405,2.5938707,10.7280449,1.9961188,5.5846987-.5381138,16.3223485-2.9857602,17.0635361-7.6525551Z"/>
      </g>
      <path class="cls-13" d="M119.0629316,42.8980337c-1.1181425,1.158449-2.4492002,2.2650127-4.0737406,2.5772848-1.1312744.2174556-2.2483616-.1002838-3.2039562-.7102868-2.2218353-1.4183066-3.63578-4.0733755-4.5955469-6.4482973-.5205427-1.2880713-.9463721-2.6215512-1.2205632-3.984476-.1797498-.8934842-1.546163-.5153043-1.3666947.3767806.5678203,2.8224708,1.7109374,5.6637901,3.3281421,8.0480594,1.5723596,2.3181535,3.970193,4.5367297,6.9858666,4.154274,2.0451256-.2593682,3.7560311-1.5682774,5.1486915-3.01114.633679-.6565217-.3672919-1.6599922-1.0021986-1.0021986h0Z"/>
      <path class="cls-13" d="M85.1132592,38.2228486c-1.5184531-.6579739-3.2182751-.7162748-4.3456994.6717089-1.0363537,1.2758656-1.2942198,3.0712771-1.3344207,4.6644922-.0439299,1.7410027.2393574,3.4301572.78915,5.0757076.5537488,1.6573914.7268204,3.6533848.0548237,5.3057963-.2799562.6884005-.7545125,1.3338855-1.4729902,1.5982825-1.030781.3793234-2.1861339-.0808351-3.0970653-.5606692-.8063789-.4247609-1.5235374.7981032-.71535,1.2238168,1.7101659.9008317,3.8234922,1.3772641,5.4202934-.0068128,1.3111608-1.1364892,1.7074183-3.0733552,1.6993528-4.7298467-.004817-.9893024-.1530267-1.9942392-.4380895-2.941645-.2378615-.7905323-.5074567-1.5445562-.6471417-2.3630036-.2754398-1.6138656-.3021419-3.3875917.1569931-4.9704173.1872797-.6456295.4814576-1.3532613,1.0481652-1.7549001.6444505-.456737,1.4863044-.28349,2.1666286.0113071.8283806.3589527,1.5509634-.86173.71535-1.2238168h0Z"/>
      <path class="cls-7" d="M107.1680246,67.7155592c.5255611-.1744109,2.3153457-.9526576,3.1802593-1.9870466"/>
      <g>
        <path d="M94.3943852,51.1562923c.2020156,1.1156348.4040313,2.2312697.6060469,3.3469045.0700716.3869717.561134.6408014.922589.5238296.415111-.1343356.5989074-.5079703.5238296-.922589-.2020156-1.1156348-.4040313-2.2312697-.6060469-3.3469045-.0700716-.3869717-.561134-.6408014-.922589-.5238296-.415111.1343356-.5989074.5079703-.5238296.922589h0Z"/>
        <path d="M98.4335311,50.5249785c.1909482.6399411.4561883,1.2493463.8835517,1.7665374.2750178.3328239.6755927.6150671,1.1021118.7086295.4472213.0981037.8828565.0356433,1.2912228-.1662507.5943998-.2938678.8678631-.9196444.9350104-1.5458367.0851296-.7938878-.2403941-1.6266557-.6548323-2.2866244-.2084885-.3320058-.6782087-.4933811-1.0261424-.2690637-.3325507.2143998-.4922639.6707089-.2690637,1.0261424.0846464.1347945.1637717.2727034.2337234.4157476.0147817.030227.0283907.0610144.0431794.091226.0639907.1307262-.0215092-.0416624-.0166995-.0434375.0050413-.0018606.0852587.2303098.0898872.244557.0387569.1193003.0709314.2408463.0943612.3641092.0046483.0244546.0064244.0582488.014451.0826919-.0567885-.1729356-.0160368-.1328968-.0085348-.0578558.0064684.0647025.0103197.1295859.0111107.1946071.0006763.0555941-.0007398.1112147-.0048114.1666713-.0136537.1859687.0301646-.1424498.0051567-.0247869-.0116179.0546625-.0222704.1087364-.0382982.1623764-.0061504.0205835-.01366.0407321-.0198974.0612706-.0350532.1154222.0864826-.1751071.0281013-.0633348-.0187063.0358135-.0363424.0719334-.0576177.1063756-.0104138.0168587-.0218927.0327971-.0325384.049459-.0646394.101169.1180292-.1300103.0543684-.0715862-.0314417.0288553-.0601711.0617256-.0915266.0910436-.045468.0425135-.087052.0272693.0840889-.064685-.02494.0134003-.0481082.0318712-.0729101.0458551-.02404.0135544-.0501361.0238408-.0739536.0376001-.0722671.0417484.231225-.0834448.0785397-.0342139-.0527409.0170054-.1048423.0321033-.1588971.044494-.1466561.0336172.1167492-.0122381.0982621-.0112471-.028248.0015143-.0562755.0048844-.0846049.0056066-.0254734.0006494-.050985.0003762-.0764379-.000833-.01613-.0007663-.0321832-.0025719-.0482888-.0034625-.1207169-.0066753.1994491.0364638.1214341.0164869-.0562506-.0144038-.1124902-.0238934-.1677894-.0427859-.0133139-.0045486-.0264106-.010054-.0397767-.014444-.1000374-.0328565.1820719.085643.1093943.0460714-.0329365-.0179333-.0672266-.0329539-.099812-.0517224-.0307529-.0177131-.0599079-.0374515-.089745-.0565649-.1262022-.0808442.1339444.1138295.0524684.0426506-.0686506-.0599744-.1350683-.1204876-.1961431-.1883843-.046854-.0520874-.1474156-.2004515.002055.0122148-.0311483-.0443178-.0640492-.0872512-.0941043-.1323786-.066563-.0999434-.1266829-.2041727-.1816431-.3109092-.0304546-.059145-.0593611-.1190845-.0868936-.1796437-.0090794-.0199706-.0652091-.1497426-.0128255-.0266115.0507708.1193401-.0012861-.0052568-.011788-.0321161-.064452-.1648407-.1198907-.3328455-.1704845-.5024049-.112065-.3755733-.5314359-.6504121-.922589-.5238296-.3799819.1229674-.6439803.5199174-.5238296.922589h0Z"/>
        <path d="M87.6467579,52.9219881c.2298309.6188557.5136911,1.2233672.9691045,1.7107331.302076.3232702.714828.5951772,1.1577732.6667979.4447532.071913.8806654.0080188,1.2746433-.2193795.571881-.3300816.8439642-.955214.868209-1.5943325.0301434-.7946116-.3223608-1.5969265-.7793121-2.2285582-.1176349-.1626037-.2481071-.2895621-.4482233-.3446699-.1795282-.0494383-.4185872-.0271171-.5779191.0756063-.3142551.2026044-.5149987.6861928-.2690637,1.0261424.0933036.1289711.1812091.2614202.2604578.3995428.0331791.0578279.0649034.1165157.0949638.1760255.0146156.0289341.0289053.0580616.0427588.0873717.0136059.0287682.0268182.0577161.0396369.0868436l-.039071-.0929198c-.0009111.0490817.0544955.142342.0708738.1914139.0206143.0617636.0392904.1241505.0556937.1871663.0139514.0535964.026277.107646.0367042.1620398.0046953.024493.0066789.0549132.0139167.0793014-.0616429-.2077095-.0137967-.1144849-.007727-.0445918.0095155.1095709.0068265.2173276.0008794.32691-.0032294.0595048-.036663.1137768.0143988-.0978902-.005122.0212322-.007339.0438467-.011726.0653613-.010674.0523472-.0242772.1041575-.0412941.1548073-.0096315.0286675-.0517076.1308101.0045799-.0032465.0518592-.1235099.0224599-.0488396.0060583-.0210181-.0225369.0382286-.0441269.0763459-.0678868.1138632-.0580132.0916042.1366915-.1554786.0263433-.0402025-.0131554.0137429-.0268175.027138-.0408454.0400061-.1033074.094765.0358665-.0457742.0625419-.0456125-.0310421-.0001882-.1293068.0751985-.1617088.0922744-.1162308.061254.1868183-.0699829.0937623-.0395188-.0296442.0097047-.0586941.0207519-.0887539.0292999-.0273341.0077728-.0549855.0131972-.0825143.0200257-.1459528.0362034.1644676-.0136136.095517-.0110046-.0593267.0022448-.116731.0049371-.1762075.0029347-.1424137-.0047945.2149538.0408579.088522.01329-.0307864-.0067128-.0616374-.0121477-.0921324-.0202436-.0279638-.0074239-.0552035-.0168824-.0828038-.0254457-.1412274-.043817.1868979.0934428.0537115.0236663-.0655437-.0343384-.1276589-.0710364-.1899411-.1109692-.128783-.0825703.1261157.1098413.045911.0373498-.0349667-.0316039-.0715994-.0611374-.1057545-.0937436-.0759378-.0724942-.1403604-.1532653-.2099324-.2313739.1713065.1923259.0315016.0393177-.0068708-.0167508-.0354671-.0518235-.0693757-.1047241-.1019506-.1584104-.0762908-.1257342-.1450541-.2559539-.2082381-.3887243-.0131093-.027547-.0259625-.0552082-.0385928-.082978-.0097477-.0212788-.0193152-.0426385-.0287025-.0640793-.0253231-.0586247-.0253373-.0582838-.0000425.0010224l.0189585.0447362c-.0095031-.0230471-.0188263-.0461665-.0279698-.0693581-.0221788-.0558147-.0434077-.1119686-.0643167-.1682693-.0694393-.1869763-.1674248-.3445014-.3446699-.4482233-.1607602-.0940752-.3976876-.1339317-.5779191-.0756063-.3591883.1162383-.6700654.5288261-.5238296.922589h0Z"/>
        <path d="M101.0090903,61.6483113c1.6402575-.1516132,3.3469556-.6064824,4.2829924-2.0792808.8118186-1.2773485,1.1713806-3.701559-.4536623-4.5307559-.8931463-.4557382-1.847416-.2120582-2.548896.4529469-.1159441.1099154-.2253482.2266283-.3392747.3386239-.0304226.029907-.1568171.1340706-.0556283.0605567-.057708.0419251-.1189795.0726678-.181186.1064589.1142228-.0620468.0540106-.0202609-.0267643.002718-.0697594.0198452-.1389146.0402525-.209486.0573297-.1592309.0385314-.3208651.066863-.482562.0927395-1.3946851.2231921-3.1577872.2412298-3.689382,1.8285051-.3181106.9498383-.0041758,1.993173.7085154,2.6770638.789552.7576457,1.9201211,1.0715322,2.995334.9930943.4038981-.0294648.7497638-.3235048.7497638-.7497638,0-.3829315-.3437221-.7793849-.7497638-.7497638-.628911.0458797-1.314347-.069694-1.7738148-.4121657-.2420595-.1804229-.3817349-.3336064-.499012-.6182253.0403387.0978977-.0150382-.0587751-.0205279-.0822111-.0151235-.0645642-.035323-.1278831-.0435195-.1940554.017052.1376647.0054963-.125229.0054594-.1221569.0017199-.14327-.013797.0013496.0140702-.1323103.0319327-.1531593.0689171-.2542298.1387473-.3784897.0197497-.0351438.0509439-.1207875-.0159085.016396.0133701-.027436.1682813-.1475964.0233608-.0384932.0844933-.0636106.1795265-.1134504.2743528-.1594475-.1466383.0711295.0598912-.0217295.0771193-.0277356.0690881-.0240857.1390927-.0455404.2094859-.0654654.5635664-.1595195,1.1514428-.2167566,1.7295034-.2991691.4980961-.0710122,1.0321341-.144603,1.4693753-.4130534.2562084-.1573027.4598589-.3820216.6710792-.5915704.2058411-.2042121.2713055-.2967439.5143721-.3358889.4063862-.065447.6328231.2794244.6814491.6755302.0396556.3230338-.0007064.6151471-.0794506.9187128-.078804.3037965-.127846.4449087-.2315962.6489569-.1662271.3269233-.2514537.4377634-.450823.6369248-.0331491.0331145-.067172.0655123-.1018262.0970264-.0350619.0318701-.0708469.0629065-.1073551.0931091.0583273-.0423722.0516877-.0373463-.019919.0150775-.1220941.0878909-.250614.1669079-.3830753.2381369-.5729824.3081122-1.3564229.4635424-2.0815467.5305674-.4032075.0372695-.7497638.3179178-.7497638.7497638,0,.376636.3441692.7872539.7497638.7497638Z"/>
      </g>
      <g>
        <path class="cls-4" d="M72.3001441,50.0356008c6.5739809-.767673,5.8908958-4.1388663,11.6363947-4.8097938,3.2365797-.3779498,6.6324115,3.566596,11.5621175,2.9909323,5.2295201-.6106743,6.7164949-4.8439405,10.7058916-5.3098001,4.8151711-.562289,7.0416022,4.5869904,15.0759465,3.6487843.9864786-.1151955,6.723285-2.9817409,9.1487737-7.3597038.6012111-1.0851751-.1057648-2.4292821-1.3366285-2.584313-5.7696767-.7267077-7.7456807-3.5148473-8.8088511-6.9021191-3.3552152-10.6897502-8.9531706-21.9103105-24.6535462-19.968253-14.782174,1.8284806-19.0493853,17.8875373-20.8873476,23.6242284-1.2721429,3.9706421-1.5866349,9.3642376-6.9730292,11.0955242-1.2277353.3946168-1.8425298,1.8252166-1.1159433,2.8906407,1.4236851,2.087609,3.7627718,2.9038118,5.6462218,2.6838729Z"/>
        <path d="M92.8765957,12.710186c-2.6612898,2.7028813-4.3114706,6.3796916-5.6915448,9.8565481-1.6936525,4.2668622-2.9507515,8.7276851-3.7994749,13.2378889-.4280883,2.2749057-.7532222,4.5777206-.8762476,6.8905782-.0512961.9643572,1.4483818.9615326,1.4995276,0,.2211961-4.1584499,1.070736-8.2892018,2.1644695-12.2990078,1.1205871-4.1082559,2.530616-8.1981501,4.5365445-11.9649005.8875887-1.666722,1.8957412-3.3086641,3.227052-4.6607809.6776828-.6882738-.3819052-1.7493496-1.0603261-1.0603261h0Z"/>
        <path d="M99.1407196,14.3420617c.7888018.9602727,1.4359413,2.365977,1.955505,3.5850112.7589399,1.7806745,1.3791568,3.6229954,1.9509063,5.4710688,1.2213843,3.9478967,2.217018,7.9820595,2.9461566,12.050195.2795328,1.5596176.5430723,3.1401014.5970874,4.7265941.0327648.9623435,1.5324432.9667725,1.4995276,0-.1179682-3.4648767-.9460817-6.9654878-1.7404362-10.324758-.9621126-4.0687076-2.0871904-8.1485664-3.6811145-12.0200846-.6547587-1.5903582-1.3672169-3.2091245-2.4673061-4.5483526-.6129416-.7461837-1.668436.3200244-1.0603261,1.0603261h0Z"/>
        <path d="M97.3997401,9.2461241c.0663121.1558113-.0520727-.1832232-.0672165-.242594-.0166509-.0652792-.0769492-.4003875-.061926-.2869024-.0416548-.3146595-.0446764-.6366272-.0320147-.9533025.0282063-.7054533.1529521-1.3545521.3538593-2.0644632.374552-1.3234898.9910419-2.6901409,2.0023825-3.5994483.1946708-.1750306.3887375-.3143477.6843225-.4540996.1172757-.0554477.483201-.1466438.6128772-.144864.0746895.0010251.148519-.0001088.2231941.0045086.2368359.0146443-.1344097-.0324809.1036159.0137985.1615714.0314144.3242326.0722287.4783404.1306247.0159906.0060593.1601328.074355.2605722.1391594.0300358.0193793.1279207.1247846.1294829.1265249.0246207.0274279.0968409.2037593.0290434.0294199.0211634.0544211.0387452.1112844.0510989.1683736.0082638.038189.0177098.140529.0018717-.0213391.0060816.0621545.008011.1245589.007123.186983-.0009265.0651299-.0053023.1307637-.0134942.1953894.0222405-.1754556-.0161294.0533791-.0217014.0732437-.0480826.1714193-.0946891.340949-.1626164.5061095-.2106.512059-.683841,1.2222773-1.0864955,1.7413098-1.1401828,1.4697266-2.5257323,2.7802634-3.9683346,3.9492194-.314845.2551223-.2652912.7950349,0,1.0603261.3112296.3112296.7446927.2557611,1.0603261,0,1.4687155-1.1901158,2.8575818-2.5249823,4.0213502-4.0176803.9024361-1.1575022,2.2221769-2.9652312,1.44667-4.4999246-.7407407-1.4658926-2.8996786-1.5544067-4.1633615-.8113293-1.4930368.8779432-2.3859329,2.5940787-2.9369441,4.1743714-.5758881,1.6516394-.9559177,3.6872924-.2468236,5.3534255.1586065.372672.7078427.4549657,1.0258192.2689789.3856259-.2255554.4282108-.6516777.2689789-1.0258192h0Z"/>
      </g>
      <path class="cls-5" d="M77.1601974,191.1398413l-16.2072571-61.811721,29.8882613-10.6271877,40.1279455,70.2662686c3.1317393,6.8121631-.1002995,14.987543-7.2189606,18.260222l-.0000452.0000208c-17.8695135,8.2151939-38.7285418,1.0125289-46.5899439-16.0876027Z"/>
      <path class="cls-5" d="M113.990311,190.4324514l-22.7481316-56.7472414,35.2994642-18.148532,43.239525,65.0613649c3.2726623,7.1186609-1.4416874,24.0424928-8.5603484,27.315155l-.0000452.0000208c-17.8695131,8.2151519-39.0153121.3887458-47.230464-17.4807673Z"/>
      <rect class="cls-5" x="39.5733461" y="206.2863004" width="138.187778" height="16.5" rx="5.3721194" ry="5.3721194"/>
      <g>
        <path class="cls-11" d="M134.4391031,150.7013625c10.1550926,14.2947684,8.1302228,44.9197705,8.8455512,57.464516.119,2.086909,2.2722084,3.3863281,4.1940027,2.5641013,1.7290546-.7397644,3.9787209-1.4465611,6.6539534-1.7305773,7.330487-.7782416,7.946726,3.7285528,16.4428507,2.3469246,6.2622243-1.0183544,11.3140359-4.2777407,14.6787955-2.123226,5.086883,3.2572207,4.0645504-7.6681369,3.1729405-11.3437356-13.767999-56.7575975-46.5895033-44.6979241-46.5895033-44.6979241l-7.3985905-2.4800788Z"/>
        <path d="M153.8779701,160.2725296c1.2117283,3.8491951,1.9199519,7.892198,2.4216436,11.8890747.6271579,4.9964404.9204697,10.1204138.3154861,15.1339678-.2866075,2.3751426-.8058517,4.8005103-1.8594189,6.9623651-.4210847.8640398.8716471,1.62512,1.2947981.7568403,2.0861962-4.2807457,2.4213233-9.3144661,2.3763305-14.0029824-.0484396-5.0476919-.6472607-10.1076105-1.6154452-15.0588785-.4000861-2.046029-.8610137-4.089133-1.4874312-6.0790208-.288762-.917286-1.7368951-.5255458-1.445963.3986338h0Z"/>
        <path d="M162.2318703,165.2930478c1.4524077,1.1279475,2.6286007,2.5872168,3.6753665,4.0874626,1.328534,1.9040815,2.4792159,3.9310281,3.5325252,5.9982561,2.2119445,4.3411689,4.0428833,8.9141198,5.3808451,13.6005649.5553257,1.9451252,1.0651103,3.944113,1.2299331,5.9661051.0778582.955139,1.578065.9634718,1.4995276,0-.3447072-4.2287547-1.7920226-8.4182108-3.2954676-12.3543831-1.7706341-4.6357006-3.8786876-9.2329452-6.6429757-13.3674556-1.2148949-1.8171028-2.5803952-3.640334-4.3194281-4.9908761-.7531357-.5848891-1.8218906.4688912-1.0603261,1.0603261h0Z"/>
      </g>
      <g>
        <g>
          <path class="cls-1" d="M190.6113213,121.0163643c3.3109872,5.7303031,4.8003069,11.8601784,4.8003069,16.0501955,0,25.3951092-8.276586,23.8060128-8.7946384,30.4971514l-18.8558656.7004976c0-15.8290578,8.3931745-15.8821107,11.1179168-24.9565884.7896441-2.6298294,2.0801332-8.6482485-1.90486-13.3175847"/>
          <g>
            <path class="cls-8" d="M176.3348211,129.3281203c4.0524079,5.0947501,3.9135646,10.8407839,1.8735171,16.1735762"/>
            <path class="cls-8" d="M186.598282,169.0696869c-.4347403-8.8706171,8.9128226-4.566161,8.9128226-29.2431613,0-7.7353077-2.0385067-14.2080312-5.1801071-19.35503"/>
          </g>
        </g>
        <path class="cls-12" d="M169.7611241,316.9608948l-2.0334318-152.5933913c0-4.6652589,3.7554638-10.1083153,8.5334318-10.4066087,9.3086284-.5811472,10.4522211,5.8461986,10.3937624,10.5521246l-1.8937624,152.4478754h-15Z"/>
        <path class="cls-8" d="M186.6555523,159.5142087l-1.8944282,157.4466861h-15l-2-148.6966861c-1.0396047-14.2459069,7.7748536-17.3262723,9.2222955-20.5996997"/>
      </g>
      <path class="cls-10" d="M74.2179055,103.8062348c-13.8512989,0-17.0448647,13.4613881-17.0774575,23.0318837v63.8846202s-13.088386,12.5850744-17.5671019,16.6709595c-3.4503728,3.1477386-5.4108605,7.3112183-5.2704186,9.4524536-.0010376.8237305.1241455,1.5108032.3578491,2.0471191.0008545.0024414.0050659.0155029.0050659.0155029l.0029297-.0007324c1.1637573,2.6356201,4.6392212,1.8952026,5.2171021-.9785156.5807495,2.7536621,3.5964966,2.2872314,4.7049561-.9311523,1.0192871,2.2307739,4.5254517,1.5149536,4.7196045-1.9249268l28.8269653-7.5496216c4.5644531-1.5189819,7.4730835-6.418396,5.5841064-12.0996704-1.2734375-3.8299561-6.1150321-8.7986713-6.1150321-8.7986713l13.7665213-63.4985089c1.1880493-10.2676392-6.3754925-19.3207397-17.1550903-19.3207397Z"/>
      <path class="cls-12" d="M106.6695656,104.6224579c-9.8235381-1.0220474-18.7177124,5.7928467-19.9080811,15.5974121l-6.630249,67.9056134s-16.2104838,14.1331743-21.2944946,17.7792621c-2.9934678,2.1468181-6.4783189,6.385726-6.9683228,9.2417603-.8191853,4.7747,4.2531128,6.0041504,5.4190674,2.4360352.258667,2.8526611,3.3625488,2.7409058,4.8666382-.380127.7703247,2.3949585,4.4557495,2.0710449,5.0184326-1.460083.0012817-.0081787-.0001221-.0159912.0010986-.0241699l30.9747925-4.3248901c4.8615723-1.0049438,8.4348145-5.6746216,7.1856689-11.7255249-.8421631-4.0791626-4.4133301-9.9727173-4.4133301-9.9727173h0l20.9949341-63.1975098c2.4588623-10.3793335-5.2153306-20.8314475-15.2461548-21.875061Z"/>
      <path class="cls-8" d="M121.9157204,126.497519c2.4588623-10.3793335-5.2153306-20.8314475-15.2461548-21.875061-9.8235381-1.0220474-18.7177124,5.7928467-19.9080811,15.5974121l-6.630249,67.9056134s-16.2104838,14.1331743-21.2944946,17.7792621c-2.9934678,2.1468181-6.4783189,6.385726-6.9683228,9.2417603-.8191853,4.7747,4.2531128,6.0041504,5.4190674,2.4360352.258667,2.8526611,3.3625488,2.7409058,4.8666382-.380127.7703247,2.3949585,4.4557495,2.0710449,5.0184326-1.460083.0012817-.0081787-.0001221-.0159912.0010986-.0241699l30.9747925-4.3248901c4.8615723-1.0049438,8.4348145-5.6746216,7.1856689-11.7255249-.8421631-4.0791626-4.4133301-9.9727173-4.4133301-9.9727173h0l18.4964462-51.6975098"/>
      <path class="cls-9" d="M56.0284144,104.6175503l16.2119192-9.409173,6.9614251,8.9462122s-7.1724547,11.7453694-15.2893629,12.1640164c-5.3008769.2734041-8.1717178-2.2296305-9.7128118-4.7522362-1.4643679-2.3970133-.600568-5.5388302,1.8288304-6.9488193Z"/>
      <g>
        <path class="cls-12" d="M75.6052693,109.8267994c-4.1886648,2.9860276-7.0507286-4.8627081-5.9082764-9.7846294.7188208-3.0968291,3.7289426-5.3062243,6.5102106-5.7023115,2.7812681-.3960872,5.7144407,1.3654071,6.9595694,4.235875.6729622,1.5514165.8119629,3.5808661-.1709814,4.8984814"/>
        <path class="cls-9" d="M85.9588379,97.9070375l-3.0692892-3.9874758c-.8106287-1.0531306-2.1996279-1.4767949-3.4600213-1.0553551l-7.1891939,2.3441707"/>
        <path class="cls-9" d="M90.4353679,103.4072353l-3.2654949-6.3608463c-.60053-1.1697704-1.9813175-1.8054074-3.3094416-1.523481l-9.7145606,2.1342985"/>
        <path class="cls-9" d="M89.6929151,111.028939l-.6063664-6.761581c-.1290131-1.4386226-1.9597707-3.1149973-3.4036613-3.1531992l-11.5370165-.5742305"/>
        <path class="cls-9" d="M73.4297192,110.9480813l15.7912069,2.3328774c2.0258789.2266092,4.0000342-.7388816,5.064981-2.4771064l1.0034636-1.6378709-21.1434998-5.2250905"/>
      </g>
      <g>
        <path d="M165.6363011,107.7443051c-1.6872977,1.5497592-3.3745954,3.0995185-5.0618931,4.6492777-.2983221.2740046-.2777641.782562,0,1.0603261.2970499.2970499.7612166.2747279,1.0603261,0,1.6872977-1.5497592,3.3745954-3.0995185,5.0618931-4.6492777.2983221-.2740046.2777641-.782562,0-1.0603261-.2970499-.2970499-.7612166-.2747279-1.0603261,0h0Z"/>
        <path class="cls-12" d="M163.7878517,153.7369599l-.1523438-52.2540894-26.5089722-9.2717896-1.0701294-2.7626953,4.4609985,36.7165527-15.2799683-15.3867798.005188-.0087891-.0523682-.0387573-.1306763-.1315308-.0192871.020752-19.1325684-14.1414185-18.7341919,11.2808838,16.3115234,11.9492188c2.8529663,2.0899658,6.9783325,3.644104,10.5736084,3.4381104l21.5326538,33.1393433c5.4475098,8.3839722,17.029541,10.0571899,24.6272583,3.5579224l.6848755-.5858765c1.7099609-1.4627686,2.6566162-3.4639282,2.8411255-5.5265503l.0432739.0054932Z"/>
        <g>
          <path class="cls-6" d="M143.6586612,129.3281203l-18.4212227-18.5499478.005249-.0088501-.0527344-.0388794-.1303711-.1313477-.0192871.0206909-19.1325684-14.1413574-18.7341309,11.2808838,16.3115234,11.9492188c2.8529053,2.0899658,6.9782715,3.644043,10.5734863,3.4380493l21.5327148,33.1394043c5.4475098,8.3839111,17.029541,10.0571899,24.6271973,3.5579224l.6849365-.5858765c1.7099609-1.4627686,2.6566162-3.4639282,2.8411865-5.5265503l.0432129.0054932-.1762939-49.9223016"/>
          <line class="cls-6" x1="136.7965336" y1="95.5399491" x2="140.5173458" y2="126.1649524"/>
        </g>
        <path class="cls-12" d="M101.5325332,107.6638763c-2.1107604-.0864187-4.2378018-.2799101-6.1927353-.7990457s-3.7387651-1.3913239-4.7469685-2.5870533c-1.3421108-1.5917431-1.1351449-3.6185361.2131172-5.2081277,1.3482621-1.5895916,3.7240604-2.7568471,6.3480465-3.4132682,2.0477552-.5122703,4.4728627-.7134862,6.3659061.0038611,1.5938538.6039729,2.5091461,1.7454811,3.0391802,2.8853425.8690056,1.8688344.8970338,3.9422767-.3281916,5.7266516-1.2252254,1.7843749-3.8042701,3.223792-6.8069397,3.4992122"/>
        <g>
          <path class="cls-9" d="M90.628241,98.1601245l3.7601893-4.1156831c.9931021-1.0869914,2.5659847-1.4251501,3.9180782-.8423593l7.6012179,3.2763414"/>
          <path class="cls-9" d="M86.4649344,101.7284234l2.9979421-5.424748c.5513266-.9976203,1.7262009-1.472537,2.8159132-1.1382699l8.1834526,2.5102579"/>
          <path class="cls-9" d="M83.7290495,106.25254l1.9923006-5.6952651c.4238903-1.2117487,1.6883095-1.9137622,2.940945-1.6328311l9.6056885,2.1542873"/>
          <path class="cls-9" d="M91.3082684,110.8052959c-3.5883696.5550318-6.7334361,1.077125-9.9761248,1.5786886-2.2514038.3482364-4.4535083-.7698609-5.0166477-2.9773395l-.0000014-.0000056c-.2218414-.8696073.3032766-1.7544012,1.1728839-1.9762426,3.785031-.9655813,17.945494-4.0841559,17.945494-4.0841559"/>
        </g>
      </g>
      <g>
        <path class="cls-12" d="M9.0603545,58.5339487s-.1156766-5.4713492-.1156766-9.4555008c0-11.0912055,2.076581-12.713596,3.4976094-1.4955201.7689656,6.0704726.4418008,9.7581765.4418008,9.7581765,0,0,1.598104-2.5311077,2.5629806-3.9669724,3.865637-5.7525816,6.2338453-7.5716693,1.9173536,2.673582-.5672584,1.3463954-1.5414039,3.3035515-1.5414039,3.3035515,0,0,2.7314769-.4724101,4.8706077-.7744912,8.859515-1.251112,7.6931813,1.4126037.9888954,3.0690406-2.0190718.4988548-5.067863,1.1068787-5.067863,1.1068787,0,0,1.4119761.9443699,4.474133,4.683462,6.5194887,7.9607186,4.0267252,8.6529619-3.7243692,1.8732534-2.0656742-1.8067989-3.3268393-3.6067789-3.3268393-3.6067789,0,0,.1731323,2.9961821-.0094302,7.1068285-.5547566,12.4911023-1.6021492,15.4633952-3.2576789.501614-.5312389-4.8010499-.5280171-7.0075049-.5280171-7.0075049,0,0-1.6708856,2.0932848-4.1393534,4.3882721-3.2031663,2.9780521-4.7184356,3.6647044-1.8329601-.7794185,1.8534141-2.8545728,3.7544106-5.4913884,3.7544106-5.4913884,0,0-1.2879252.2173393-3.9307132.1184557-4.0284263-.1507293-3.9847547-.6566112-.4626925-2.0048761,2.2289695-.8532619,4.197414-1.423493,4.197414-1.423493,0,0-2.2143537-1.3868737-5.2365676-3.7700152-3.13119-2.4690737-2.8251774-3.7837127,1.4445834-1.2933904,2.8788429,1.6790745,5.0237767,2.4862349,5.0237767,2.4862349Z"/>
        <path d="M9.5603545,58.5339487c-.0469532-2.2290748-.0808283-4.4585638-.1013687-6.6880321-.029513-3.2033533-.1496341-6.4964524.3992325-9.6665688.0724683-.418559.1565522-.8402873.2909689-1.2440191.0379427-.1139641.2709373-.5966583.2894004-.563273.026245.0474567-.2249663.0554835-.2036082.0359425-.017222.0157567.0078735-.0084405.0569914.0634152.1893607.2770204.3169457.5830733.4272062.8986467.4378037,1.2530258.6726422,2.5843535.8874149,3.8902177.3165561,1.924729.5432278,3.8660752.6875947,5.8112284.1536591,2.0703537.270613,4.1952706.0899016,6.269598-.0454908.5221741.6860691.6413173.9317353.2523596,1.6225883-2.5690071,3.2016396-5.2864175,5.2352285-7.5601158.2595341-.2901778.5664998-.5890849.8316657-.785277.1626038-.120308.0672579-.0027583-.018293-.0480736-.0545492-.0288941-.2009229-.1992988-.2135795-.2015851.0417283.0075379.0206994.1261706.021927.0971618-.0551053,1.3020961-.6310743,2.6179688-1.0849356,3.8207667-.7949713,2.1067883-1.6943808,4.1664273-2.6965534,6.1825648-.2039603.4103206.1300889.8095503.5646551.7344991,1.5881675-.2742826,3.1797118-.5350266,4.775508-.7609512,1.6728044-.2368271,3.6554319-.596267,5.3347548-.189746.1642473.03976.2938252.1091289.446678.1654436.1582257.0582943-.0901121-.0516696.0196854-.0819667.0209939-.005793-.0779679.1403874-.1383562.2059059-.1363476.1479306-.3080851.2613074-.4765774.368429-1.302559.8281222-2.8860071,1.2557614-4.3680291,1.6231559-1.6777535.4159165-3.3729443.7683845-5.067863,1.1068787-.4527473.0904187-.4480788.6918119-.1194398.9138749.0352174.0237966.1636211.1236687.0527936.036345.1603561.1263485.3157679.2585808.4684622.3940712.5939304.5270131,1.1493159,1.0980217,1.6892196,1.6796323,1.7932951,1.9318248,3.5474872,4.0067524,4.9234823,6.2623233.3325862.5451849.6862256,1.1269931.8197698,1.7597905.026479.1254705.0081606.1979794-.0041556.2010256.1242915-.0307415.0282909-.0875018.0589341-.0755218.1067368.0417291-.1334246-.0040936-.1360211-.0045272-.5260555-.087844-1.1015813-.4230406-1.5822251-.7096024-.9125683-.5440769-1.7735214-1.1778882-2.6080748-1.8337589-2.0281881-1.5939413-4.0776591-3.3203812-5.5751657-5.4439359-.2622955-.3719508-.9622501-.28444-.9317353.2523596.1497865,2.6349673.0789536,5.2871468-.0469327,7.9209305-.126238,2.6411422-.21607,5.3288199-.6481684,7.9423221-.0553192.3345925-.1157598.6710971-.20765.9979167-.031211.1110061-.064938.2210902-.1063589.3287645.0298831-.0776815-.0085857.0018109-.0171416.0321082-.0402405.1424959-.0429072.0095147-.0084994.0330509.0030829.0021088-.0595354-.0056132.0716691-.0327228.1090901-.0225403.1665911-.0195397.2749088.0025335.0767926.0156489.0761221.0782127.0568762.0184416-.065312-.2028372-.1671531-.3684919-.2457046-.6323554-.789452-2.6518617-.9970602-5.5391296-1.308289-8.2733334-.291124-2.5575788-.6099894-5.1571551-.6098356-7.7367188.0000238-.3984584-.5717828-.7054574-.8535534-.3535534-1.7082616,2.1334523-3.6886177,4.1445671-5.814946,5.8596334-.1931174.1557657-.3898352.3074224-.5947086.4475275-.1381161.0944523-.4164444.1908467-.5264966.3129835-.0441862.0490382-.072787.0058402-.0736259.0201998.0007767-.013295.466764.2406349.3587093.2947004-.0001548.0000774.0957063-.3319561.1305339-.4151144.6794345-1.6222984,1.8450848-3.104992,2.8264515-4.5509818.7403767-1.0909043,1.4908436-2.1757391,2.2614683-3.2455701.283914-.3941478-.1837634-.7970975-.5646551-.7344991-.1141794.0187651.0633786-.0056632-.0811403.0111541-.1767059.0205629-.3537303.0372854-.531096.0511051-.612417.0477171-1.2273164.0635874-1.8414432.0641235-.8951984.0007816-1.7937908-.027282-2.6860328-.1018554-.3122409-.026097-.6276692-.0536656-.9344036-.1205687-.0327022-.0071328-.4191309-.1346493-.417784-.1359582.0892601-.0867469.1683162.4150889.0819644.4082076.0163802.0013053.1054512-.1012401.1323277-.113485.2058123-.0937675.398159-.2355566.6033544-.3356592.789958-.3853736,1.6243315-.6862894,2.4496683-.9853714,1.0865511-.3937398,2.1844806-.7644301,3.294433-1.0873268.4205078-.1223301.4829103-.685656.1194398-.9138749-2.10959-1.3245868-4.2702913-2.8062348-6.0901017-4.5046607-.2199384-.2052681-.4355069-.4181445-.6300617-.6479116-.0893193-.1054851-.2314379-.4319331-.3390303-.4926984-.1526549-.0862154.0519102-.0256851-.0266263-.0149944-.0384969.0052404-.1286387.2519202-.1613343.1944756-.0021559-.0037878.370991.0524883.4364586.0705117,1.672124.4603397,3.1602438,1.6045849,4.6931873,2.3841105.9650001.4907176,1.9504566.9640978,2.9640216,1.3478714.6024745.2281194.8629101-.7382058.2658396-.964279-1.1253859-.4261132-2.2133346-.9724593-3.2763885-1.5324977-.9958765-.5246479-1.9495654-1.129978-2.9613478-1.6237855-.5934278-.2896266-1.2572968-.621845-1.9275403-.6729751-1.1128055-.0848914-1.1827431.917054-.6594584,1.6513546,1.02896,1.4438906,2.6973584,2.4896928,4.1045854,3.5229843,1.0124503.7434168,2.0387493,1.4776857,3.1030777,2.1459651l.1194398-.9138749c-1.5536647.4519772-3.091355.983126-4.5956905,1.5782554-.6293018.2489578-2.8987495.8821264-2.5319745,1.9656538.1511336.4464793.6852732.5789221,1.096303.6561777.9525129.1790308,1.9433992.2015449,2.9092222.225387,1.1862553.0292836,2.4084267.041916,3.5839712-.1512814l-.5646551-.7344991c-.792094,1.099636-1.5631766,2.2149365-2.3233715,3.336779-.6870844,1.0139512-1.3772535,2.0298432-2.0122381,3.077532-.3524739.581562-.7511047,1.2049012-.9436659,1.8644698-.2907275.9958117.5144102,1.3374058,1.311759.8995171,1.4119889-.7754372,2.6465674-2.093124,3.7791882-3.209512,1.1184474-1.1024177,2.2090113-2.2532805,3.19152-3.4803382l-.8535534-.3535534c-.0001442,2.4183273.2876359,4.8552281.5554012,7.2538494.213688,1.9142006.4443035,3.8280985.7398693,5.7316174.1726394,1.1118418.3422731,2.246148.6691372,3.3256305.1352672.4467257.3264436,1.1369354.8542328,1.2626402.5986238.1425757.8762311-.5089348,1.0138501-.9626329.2558199-.8433787.3410591-1.7518332.4395999-2.6236271.1651895-1.4614369.2670077-2.9301553.3548594-4.3979868.2026993-3.3867105.3609666-6.7989612.1681764-10.1904283l-.9317353.2523596c1.4979754,2.1242196,3.4883183,3.8615671,5.5090366,5.4703815.9390955.74767,1.9009309,1.4783316,2.9276986,2.1025954.5900334.358734,1.2490475.7454447,1.9369464.8749841.5175023.0974518,1.0809381-.0158346,1.2819699-.5632264.1864488-.5076837-.0432573-1.0916381-.2462396-1.5572416-1.0098501-2.3164084-2.8465863-4.3762659-4.4705244-6.2726134-1.0943852-1.2779641-2.2641762-2.7337749-3.677717-3.6889112l-.1194398.9138749c1.7247847-.3444588,3.4507352-.7015358,5.1569887-1.1291819,1.595816-.3999666,3.3716001-.8780202,4.7331515-1.845906.6939397-.4933008,1.3514627-1.4614661.3798796-2.0750647-.464106-.2931039-1.0689131-.3545152-1.6017385-.3991513-.9880634-.0827726-1.9910907-.0132399-2.9755873.0812765-2.2618425.2171478-4.5119834.615776-6.7501737,1.00232l.5646551.7344991c.9850855-1.9817624,1.8701173-4.0056663,2.6640898-6.0715974.3596087-.9357085.7093055-1.880517.9779979-2.8470438.1438205-.5173439.3096442-1.0918513.2731266-1.6350806-.0706921-1.0516044-1.0291858-.9176917-1.6441897-.4034025-1.0621191.8881836-1.8813776,2.1360134-2.6721781,3.2564784-1.1918643,1.6887221-2.2977218,3.4385784-3.4012476,5.1857657l.9317353.2523596c.1691939-1.9421214.0700286-3.9291543-.0614369-5.8688247-.1400016-2.0656128-.3781125-4.126613-.702404-6.1713507-.22829-1.4394245-.4719797-2.9186695-.9712845-4.2939621-.1986755-.5472347-.4986704-1.407758-1.1525879-1.5596573-.6878735-.159787-1.0629707.538313-1.2596686,1.0725128-.3818578,1.0370639-.4840658,2.1985351-.5863277,3.2900813-.1782761,1.9029245-.2091074,3.8174755-.2051969,5.7275229.0061398,2.9989484.0520173,5.9982525.1151728,8.9965224.0135354.6425832,1.0135824.6448181,1,0Z"/>
      </g>
      <path d="M39.3937907,85.5906214c-.1542288-.0450522-.1740922-.2547782-.0307368-.3273415.6408237-.3243706,1.6558591-1.0004445,2.0684739-1.7487554.4201923-.7620532.8827148-2.0805108,1.0342028-2.8915979.0333127-.1783607.2802874-.1984212.3406347-.0273058.3302752.936499.8776734,1.9828466,1.7734464,2.7092834.604509.4902331,1.6087435,1.0533479,2.1630719,1.2112729.1544147.0439919.1758038.2528876.033175.3266183-.558667.2887975-1.2130927,1.0236958-1.8585208,1.8333686-.4802803.6024992-.8796182,1.8438158-1.1250855,2.9278939-.0421167.1860034-.2651899.2296225-.342165.055135-.6253241-1.4174878-1.1472543-1.9727044-1.8075288-2.5820591-.5290667-.4882655-1.6137567-1.300959-2.2489679-1.4865124Z"/>
      <path d="M159.9897369,47.5631465c-.1542288-.0450522-.1740922-.2547782-.0307368-.3273415.6408237-.3243706,1.6558591-1.0004445,2.0684739-1.7487554.4201923-.7620532.8827148-2.0805108,1.0342028-2.8915979.0333127-.1783607.2802874-.1984212.3406347-.0273058.3302752.936499.8776734,1.9828466,1.7734464,2.7092834.604509.4902331,1.6087435,1.0533479,2.1630719,1.2112729.1544147.0439919.1758038.2528876.033175.3266183-.558667.2887975-1.2130927,1.0236958-1.8585208,1.8333686-.4802803.6024992-.8796182,1.8438158-1.1250855,2.9278939-.0421167.1860034-.2651899.2296225-.342165.055135-.6253241-1.4174878-1.1472543-1.9727044-1.8075288-2.5820591-.5290667-.4882655-1.6137567-1.300959-2.2489679-1.4865124Z"/>
      <g>
        <path class="cls-12" d="M46.233695,32.2539759s-.2714398-3.7011958-.5259659-6.3909679c-.7085576-7.4878715-2.2141404-8.4505147-2.4568395-.7862089-.1313325,4.1474099.3251299,6.616144.3251299,6.616144,0,0-1.2406075-1.6067018-1.9837427-2.514439-2.9772623-3.6367161-4.692294-4.7135226-1.123639,1.9274725.4689803.8727366,1.2516755,2.1318147,1.2516755,2.1318147,0,0-1.8742487-.1444331-3.3377126-.2117159-6.0611441-.2786612-5.1035608,1.4451501-.4715564,2.1351395,1.3949807.2077981,3.4921176.4235151,3.4921176.4235151,0,0-.8929196.7277646-2.721366,3.4477175-3.892856,5.7909189-2.165723,6.0990154,2.6340605,1.026737,1.279147-1.3517671,2.0155911-2.6475349,2.0155911-2.6475349,0,0,.0745252,2.0338367.4603837,4.7973447,1.1725156,8.3975265,2.069513,10.3372624,2.2313628.130533.0519356-3.2752128-.0911981-4.7646243-.0911981-4.7646243,0,0,1.2617735,1.3064701,3.0748948,2.69816,2.3527667,1.8059032,3.4196187,2.172672,1.1876713-.6432974-1.4336364-1.8087686-2.8854852-3.4674855-2.8854852-3.4674855,0,0,.883386.064451,2.6612624-.1711406,2.7100334-.3591146,2.6482319-.6978546.1842912-1.3830867-1.5593275-.4336555-2.9246887-.6928754-2.9246887-.6928754,0,0,1.4063499-1.0777665,3.2944545-2.879741,1.9561866-1.8669508,1.6656068-2.7349376-1.0578919-.7809044-1.8362913,1.3174871-3.2328094,1.9994438-3.2328094,1.9994438Z"/>
        <path d="M46.733695,32.2539759c-.1338396-1.8220854-.2785292-3.6436145-.440893-5.4633816-.1885053-2.1127608-.289472-4.4383681-1.0547439-6.443112-.1565653-.4101462-.3836005-.9515318-.8634199-1.0593828-.5424534-.1219296-.8631487.378266-1.0276026.8124167-.2826484.7461789-.3579813,1.5846234-.4370886,2.3721403-.1404766,1.3984521-.1866236,2.8100317-.1826155,4.2149835.0048644,1.7051297.0593893,3.4552927.3665484,5.1382229l.9138749-.3852794c-.7560982-.9787644-1.5130915-1.9584042-2.3042377-2.9092144-.6764462-.8129622-1.3709356-1.6653772-2.2019619-2.3279317-.4354532-.3471749-1.2476687-.7282332-1.4998767.0477564-.2442931.751637.4212749,1.8599696.7159296,2.5002108.7517403,1.633421,1.6232589,3.2114928,2.57097,4.7387463l.4317353-.7523596c-1.3735742-.1053583-2.7522383-.2122171-4.1298859-.237529-1.0610556-.0194951-2.5412987-.1256041-3.4935592.4653721-.666564.413672-.5140674,1.1395025.0502108,1.5545715.8385461.6168136,2.0162066.8397846,3.0152998,1.0214239,1.4002127.2545645,2.8257487.3969802,4.240783.5431003l-.3535534-.8535534c-.6876302.568334-1.2347895,1.3650966-1.7606735,2.0734954-1.1294249,1.5214066-2.3048026,3.1614468-3.005099,4.9366788-.2559501.6488263-.489911,1.888443.5775478,1.8929706.4363518.0018508.87102-.2623336,1.2231737-.4924368.61578-.4023609,1.1812511-.8900807,1.7233502-1.3850227,1.4799415-1.3512016,2.9503242-2.8424947,3.955275-4.592853l-.9317353-.2523596c.0777333,2.0443631.3482439,4.0814692.6464607,6.1032568.2574853,1.7456446.4472778,3.6036688,1.0212712,5.2827536.1203291.3519951.278357.834563.6825477.9495682.4587758.1305365.7379389-.2624656.8634414-.6399464.1858763-.5590706.2205531-1.1872397.2724825-1.7693768.1067777-1.1969963.1460603-2.400493.1769371-3.6014272.0525042-2.0421159.1291407-4.1230041-.0625922-6.1615748l-.8535534.3535534c.9482633.9774798,1.9983303,1.8669043,3.0748948,2.69816.5669348.4377516,1.144861.8872201,1.7697732,1.2409436.3237074.1832304.7601289.4318104,1.1381706.259313,1.1021699-.5029111-.6045431-2.3300918-.9412-2.7591432-.9517004-1.2128918-1.9427328-2.398263-2.9574509-3.5590031l-.3535534.8535534c.8817784.05881,1.7894811-.0576466,2.6612624-.1711406.6286987-.081848,2.281733-.0922641,2.5098129-.9175456.2373766-.8589205-1.2495002-1.1714624-1.7827997-1.3302794-1.0945913-.3259701-2.2125635-.5953617-3.3344908-.8102766l.1194398.9138749c.8840031-.6798028,1.7265426-1.4157782,2.5494111-2.1676387.635552-.5807081,1.2964092-1.1615801,1.8115006-1.8566848.2510873-.3388368.5665197-.8100798.391671-1.2502875-.4668641-1.1754001-2.4308076.3357626-2.9232686.6815109-1.0668049.7489851-2.157548,1.4915107-3.33028,2.0684279-.5774277.2840614-.0712512,1.1468152.5047191.8634707.7341083-.3611394,1.4374542-.7948543,2.1223314-1.2404922.6738241-.4384458,1.3102039-.9358082,1.9986697-1.3512402.2261739-.1364772.5589554-.2341519.7631649-.3935212.0357176-.0278748.1591512-.020769.1799144-.0517811-.0182705.027289-.1614609-.3842448-.2636977-.3359821-.0588833.0277969-.1840272.3374449-.2323103.4046171-.1633046.2271918-.3575854.4343481-.5515554.6351072-.5434095.5624293-1.1321455,1.0856849-1.716478,1.6048942-.4332539.3849682-.8726891.7631009-1.320274,1.1313342-.1316335.1082964-.2643354.2152119-.3972213.3219593-.0461133.0370428-.2882117.22448-.0910161.0728356-.3015861.2319212-.3518654.8235923.1194398.9138749.7150661.1369771,1.4254179.3026306,2.1308884.4820418.5513317.1402115,1.1033195.2860479,1.6434453.4653595.177629.0589695.3521013.122387.5239754.1961473.0375623.01612.1287696.0904807.1667332.089364-.0045207.000133.108305-.4767075.0694732-.494322-.1065314-.0483236-.8084708.2213428-.9521272.2465947-.5897738.1036706-1.1862505.1758456-1.7827808.2270526-.5241972.0449978-1.0610307.0878415-1.5875526.0527253-.464015-.0309473-.6170747.5521103-.3535534.8535534.6975472.7979271,1.3788887,1.6105875,2.0499561,2.4308341.539313.6592031,1.0934134,1.3159739,1.5670308,2.0250964.1014134.151841.1860809.3875115.3103006.5172164.0388315.0405462.0526137.0684614.0374411.06354.0848275-.2800973.2178193-.4011094.3989755-.3630365.0382288.0074635.0254013.0034652-.0384825-.0119949-.0756632-.0821338-.3063297-.1465223-.4023478-.2024589-.2133088-.1242658-.4189862-.2618577-.6221137-.4019812-.6252276-.4313008-1.226126-.8989825-1.8103654-1.383981-.7479898-.6209338-1.4829044-1.2693808-2.1603689-1.9677184-.2825602-.291266-.8951507-.0887239-.8535534.3535534.1229451,1.3071949.1094869,2.6356522.1004997,3.9465249-.0146514,2.1370494-.0096428,4.3180713-.2798193,6.4422608-.027881.2192071-.0594769.4397665-.1112395.6548424-.0192647.0800457-.0549744.1649999-.0683929.2458572-.0080373.0484315-.0457955.0155834.0048538.0154061.2443173-.0008549-.4199703-.2546937.3789812-.0933172.0163731.0033071.1573638.065314.1449513.0785467.0147427-.0157169-.0041425.0544196-.0309616-.0617083-.0225691-.0977252-.1231141-.3138746-.1733433-.4814081-.4563492-1.5220988-.6642845-3.1358939-.9001799-4.7026714-.3095093-2.0557084-.5868212-4.1278945-.6658979-6.2075866-.0183953-.483791-.677228-.695644-.9317353-.2523596-.732791,1.2763278-1.7385148,2.3714996-2.7731723,3.4065669-.8687084.8690525-1.8681131,1.98902-3.0233633,2.4884127-.087184.037688-.2432312.0952167-.2417927.080052-.0011101.011703.2183336.111364.1739786.1345444.036406-.0190262.2553249-.864781.3251953-1.0160986.7167593-1.5522791,1.726528-3.0000774,2.738119-4.3709848.4920974-.66689,1.0120029-1.4095435,1.6580386-1.9434991.3707573-.3064351.0291851-.8140308-.3535534-.8535534-1.298208-.1340563-2.6048026-.2643306-3.8903428-.4920097-.6714313-.1189157-1.3450332-.2680379-1.9881995-.4978627-.1107509-.039575-.9331877-.4659611-.9048399-.4807001.014477-.0075271.0039143.2254442-.0181922.2149476.0326902.0155219.4193256-.1552336.476357-.1687334.6795013-.1608436,1.4046546-.1647389,2.0986376-.1642524,1.5149913.001062,3.0337691.1258523,4.5437312.241672.3794492.0291052.6217694-.4461163.4317353-.7523596-.9059775-1.459999-1.7369192-2.9655989-2.4693325-4.5204746-.2517938-.5345454-.5134655-1.0828433-.6640841-1.6565081-.020268-.0771952-.0421571-.3163133-.0528118-.3220473.0614941.0330941-.3346765.3860048-.4025294.2826817.054131.082428.2587036.1645566.3437596.2329827.1585546.1275545.3054103.271749.4504842.4141118.4281006.4201004.8276595.8696958,1.2183651,1.3244272.505583.588434.991311,1.1933077,1.4721035,1.8020499.2589948.3279191.5165107.6570079.7732065.986729.0888779.114162.1775605.2284749.2662881.3427536.0227899.0293528.1949875.2520656.0567863.0731651.3426228.4435231,1.0204523.1986605.9138749-.3852794-.1911411-1.0472655-.248364-2.1285066-.2933701-3.189664-.0965686-2.2769061-.1056435-4.6476216.2748237-6.9013846.0256096-.1517028.3051185-1.3190564.3719638-1.2732945.1082739.0741237-.3859953.0659798-.3463296.0255342-.0111061.0113245.0175761-.0165982.0481514.0678838.0796315.2200283.2007966.4226289.2732536.6506421.614646,1.9342141.7456491,4.0336272.9231063,6.0419485.1551808,1.7562148.2947811,3.513967.4239369,5.2722871.0468618.6379737,1.0472378.6430921,1,0Z"/>
      </g>
      <g>
        <path class="cls-12" d="M185.8099714,68.0014232s-.2874286,3.6999885-.5535736,6.3886358c-.7409029,7.4847403-2.2506308,8.4408695-2.4602135.7755866-.1134121-4.1479386.3537124-6.6146775.3537124-6.6146775,0,0-1.2475378,1.6013267-1.994588,2.5058447-2.9929472,3.6238187-4.7126153,4.6932052-1.1153007-1.9323093.4727466-.8707022,1.2608745-2.1263869,1.2608745-2.1263869,0,0-1.8748553.1363339-3.3385962.1972931-6.0622915.252471-5.0972693-1.4671869-.462327-2.137157,1.3958655-.2017691,3.4939148-.4084232,3.4939148-.4084232,0,0-.889767-.7316157-2.7064445-3.4594431-3.8677996-5.8076842-2.1393516-6.1083157,2.638472-1.0153467,1.2732946,1.3572812,2.0041334,2.6562187,2.0041334,2.6562187,0,0,.0833119-2.0334957.4811067-4.7953108,1.2087868-8.3923821,2.1141566-10.3282244,2.231906-.120891.0377843,3.2754066-.1117831,4.7641858-.1117831,4.7641858,0,0,1.2674064-1.3010064,3.0865237-2.6848495,2.3605473-1.7957211,3.428974-2.157877,1.1848808.6484228-1.4414379,1.8025575-2.9004398,3.4549862-2.9004398,3.4549862,0,0,.8836562-.0606337,2.6604981.1826372,2.7084566.3708201,2.645192.70929.1783138,1.3838701-1.5611866.4269142-2.927655.6802326-2.927655.6802326,0,0,1.4016802,1.0838327,3.2819817,2.893948,1.948102,1.8753852,1.6537747,2.7421085-1.061256.7763264-1.8305819-1.3254086-3.2241405-2.0133928-3.2241405-2.0133928Z"/>
        <path d="M185.3099714,68.0014232c-.1141903,1.4677527-.2368052,2.9349308-.3677364,4.4012809-.1908452,2.1373522-.339754,4.3179216-.8833459,6.4015606-.0290404.1113147-.4455114,1.2830575-.4896269,1.2367635-.0597239-.0626731.3874602-.0270402.3444313-.007354.0247639-.0113298-.012535.0289043-.0318462-.0616541-.0467985-.2194576-.1600554-.4413751-.2112502-.6663439-.4812908-2.1149686-.4330811-4.4277734-.3772885-6.5814778.034758-1.3417286.0913077-2.7170858.3387276-4.0403105.0806117-.4311191-.496635-.9214836-.8356929-.4864732-.8386489,1.0759843-1.6790192,2.1534186-2.5688345,3.1878559-.3998239.4648074-.8085762.9241584-1.2446756,1.3555081-.1680037.1661739-.3384758.3350776-.5236601.4823742-.0820839.06529-.2711126.1410702-.3243831.2204168-.0230298.0343028.0086102-.0445146.05731-.0031283-.0993803-.0844557.4400709.2007432.3163856.2342569.0052911-.0014337-.0068596.0258881.004903.0000723.0334032-.0733114.0375402-.1821605.0586382-.2611263.1531472-.5732011.4177754-1.1202162.6717506-1.6534045.7390362-1.5515115,1.5766575-3.0538427,2.4888405-4.5097635.1923093-.3069418-.0538613-.7797022-.4317353-.7523596-1.477459.1069077-2.962988.2213398-4.4448091.2223757-.7103882.0004966-1.451551-.0039506-2.1481046-.1625547-.070118-.0159658-.4443594-.1876975-.5001068-.1671588-.1625001.0598692.1059531-.0762506.0042639.0608881-.0299425.0403806.0228346.1540688-.0089903.1375456-.0235483-.012226.7454905-.4170066.8532907-.4558921.6339197-.2286659,1.2978379-.3763815,1.9602735-.4938649,1.3134475-.2329408,2.6502179-.358393,3.9771744-.4896261.3830511-.0378829.7201579-.5478752.3535534-.8535534-.4914702-.4097924-.8968512-.9587631-1.2833238-1.4616662-1.069962-1.3923037-2.081316-2.8834018-2.8799306-4.4498563-.2136056-.4189799-.4183692-.851255-.5131464-1.3147459-.0308079-.1506605.0195648-.1097095-.0247502-.1032731.0207761-.0030176-.1604242.1366416-.1562099.1094502-.0039264.0253336-.012022-.0289159.0694591.0221935.3342274.2096456.6925195.3625389,1.0167964.6063611.5923747.4454037,1.1389191.9558146,1.6703757,1.471134,1.2133491,1.1765068,2.4108911,2.4286861,3.2516019,3.9077445.2534239.4458474.9113349.2293407.9317353-.2523596.0759538-1.7934434.3014322-3.5832184.5648516-5.357154.2567116-1.7287636.5010633-3.4826207.9455261-5.175663.0566467-.2157778.1141167-.4340029.1921395-.6432985.0361174-.0968846.0394452-.0921712.0665664-.1667356.050013-.137501.0675483-.0929048.0522938-.1021313.014541.008795-.1718172.0842128-.1447358.0788742-.1268278.0250021-.2835621-.094023-.3791346-.0928531-.0586598.000718-.0223131-.0784097-.0214854-.0280724.0028739.1747794.1083747.3998112.1386309.5771221.3201404,1.8761243.2707658,3.853851.295358,5.7491244.0215662,1.6620664.0543384,3.3512768-.1087809,5.0087711-.0435997.4430272.5694834.6438554.8535534.3535534.6550329-.6694033,1.3637514-1.2916153,2.0844924-1.8884998.6128556-.5075387,1.2438214-.9964032,1.901023-1.4455745.1879664-.1284676.3780722-.2548181.5742872-.3704442.073488-.0433052.4072021-.1565416.452993-.2290474.0434738-.068837.1607674.1276557-.1706152-.1908873-.3743326-.3598288-.1009261-.1985174-.2210741-.1348819-.1053137.0557785-.2493808.4252234-.3206064.530865-.455028.6748964-.9848541,1.3000602-1.5016732,1.9276761-.698475.8482155-1.4081786,1.6880821-2.1349686,2.5122466-.2652425.3007794-.1078151.8823225.3535534.8535534.4966405-.0309686,1.0021354.009462,1.4965705.0517999.5951867.0509652,1.1892858.1251315,1.777956.2268719.2153849.0372252.4311281.0766005.6430094.1307648.043104.0110189.3750993.1506095.4023129.1366962.0029257-.0014958-.1277687-.5607115-.0358278-.5162164-.013859-.0067071-.1342036.0802477-.1540522.0874889-.1652379.0602828-.3251545.1338048-.4928625.1899881-.5307242.1777961-1.0742773.31998-1.61665.4570988-.7420406.1875974-1.4897293.3593298-2.2422192.500108-.3460181.0647342-.5111838.610254-.2206336.8356929.6056185.4699016,1.1861107.9745932,1.7585908,1.4838113.6101646.5427382,1.2227199,1.0916729,1.7924504,1.6771712.1849365.1900548.3702747.3854591.5317657.5962465.0817552.1067116.1966428.4038245.2995793.4800982.1155819.0856437.3425361-.1526113.2626735-.3010339.0000817.0001518-.0915204-.0197574-.1256225-.0429202-.189808-.1289214-.452542-.2030268-.6557993-.3216264-.6858327-.4001798-1.3104007-.8957445-1.9704144-1.3355353-.7371959-.4912201-1.4963646-.9695664-2.2907254-1.3646184-.5744605-.285691-1.0816056.5765732-.5047191.8634707,1.1342041.564063,2.1928364,1.2831867,3.2241405,2.0133928.5226753.3700758,2.4204002,1.9052463,2.99124.8201924.2130076-.4048855-.057031-.8793785-.2890367-1.2107042-.4783568-.6831379-1.1085039-1.2508597-1.7159091-1.8151537-.8385377-.7790217-1.6961786-1.5477606-2.6011068-2.2498976l-.2206336.8356929c1.1229752-.2100898,2.2415809-.4753404,3.3379605-.7958621.5474445-.160043,2.0067328-.4584692,1.7858765-1.3240788-.2102618-.8240862-1.8935787-.8438969-2.5074157-.9263012-.8712779-.1169645-1.778295-.237648-2.6604981-.1826372l.3535534.8535534c.9941359-1.1273292,1.9647674-2.2787486,2.9004398-3.4549862.3418177-.4297005,2.1487486-2.3303476,1.0219695-2.8455691-.3636104-.1662614-.7763988.057992-1.0923971.2303369-.6434872.3509569-1.236714.8111645-1.816747,1.2554688-1.0815696.8284805-2.1372892,1.7141053-3.0913367,2.6890832l.8535534.3535534c.1631265-1.6575668.1302065-3.3466186.1087809-5.0087711-.026268-2.0378167.0657632-4.2298127-.3724777-6.2362096-.0786105-.3599024-.2073185-.8272167-.6152306-.9342931-.4373036-.1147916-.7119037.2547147-.8691095.6007031-.6505152,1.4316947-.795026,3.1929548-1.0400333,4.7252969-.3706376,2.3180679-.7137097,4.6570577-.8131592,7.00529l.9317353-.2523596c-.8655734-1.522799-2.0934246-2.8277293-3.3389672-4.0428071-.6149789-.5999372-1.2522813-1.1808794-1.9417619-1.6948229-.3822278-.2849152-.8140441-.5954847-1.284385-.715557-.9867216-.251898-1.2517396.6611229-1.0345316,1.438521.4667436,1.670498,1.6355655,3.2399442,2.6108028,4.6382396.6636269.9515084,1.3644682,2.0480431,2.2673934,2.8009105l.3535534-.8535534c-1.1835948.117055-2.3673175.2465207-3.5448255.4146383-1.1639614.1661835-2.467928.3712779-3.4999873.9768043-.5436078.3189437-1.041531.9727253-.4789338,1.5373533.6618783.6642674,2.0536389.617069,2.9003524.6365985,1.6421924.0378773,3.2932443-.098644,4.9304026-.2171073l-.4317353-.7523596c-.820098,1.3089455-1.5735101,2.6545272-2.2595474,4.0386768-.4155349.8383836-1.1110203,1.95041-1.092636,2.9298535.0140537.7487243.7272823.8433635,1.2562773.5138684.803773-.500646,1.4578072-1.3235949,2.069384-2.0292084.9244132-1.0665519,1.7933651-2.181477,2.660825-3.2944258l-.8356929-.4864732c-.2519421,1.3474098-.3268198,2.7425241-.3688547,4.109104-.0441597,1.4356569-.0207046,2.8755505.0713235,4.308962.061668.9605286.1325172,1.9525451.3723499,2.888542.1139051.4445383.296819,1.0701378.7957412,1.2210669.4829615.1461008.8390157-.2420854,1.0437435-.6270887.3483161-.6550299.5015588-1.43185.6454319-2.1516463.2491246-1.2463692.4024389-2.5130003.5289053-3.7769292.2127954-2.1267174.3877939-4.2577746.5535736-6.3886358.0499258-.641725-.950326-.6384886-1,0Z"/>
      </g>
    </g>
  </g>
</svg>