<?xml version="1.0" encoding="UTF-8"?>
<svg id="_レイヤー_2" data-name="レイヤー 2" xmlns="http://www.w3.org/2000/svg" xmlns:xlink="http://www.w3.org/1999/xlink" viewBox="0 0 294 269.67">
  <defs>
    <style>
      .cls-1, .cls-2, .cls-3, .cls-4 {
        fill: none;
      }

      .cls-5, .cls-6 {
        fill: #adadad;
      }

      .cls-7, .cls-8, .cls-2, .cls-9, .cls-3, .cls-4, .cls-10, .cls-6 {
        stroke: #000;
      }

      .cls-7, .cls-8, .cls-2, .cls-9, .cls-4, .cls-10, .cls-6 {
        stroke-width: 1.5px;
      }

      .cls-7, .cls-8, .cls-3, .cls-4 {
        stroke-linejoin: round;
      }

      .cls-7, .cls-11, .cls-9 {
        fill: #fff;
      }

      .cls-8, .cls-10, .cls-12 {
        fill: #e74268;
      }

      .cls-2, .cls-9, .cls-10, .cls-6 {
        stroke-miterlimit: 10;
      }

      .cls-13 {
        clip-path: url(#clippath-1);
      }

      .cls-3 {
        stroke-width: 1.42px;
      }

      .cls-3, .cls-4 {
        stroke-linecap: round;
      }

      .cls-14 {
        clip-path: url(#clippath);
      }
    </style>
    <clipPath id="clippath">
      <rect class="cls-1" width="294" height="249"/>
    </clipPath>
    <clipPath id="clippath-1">
      <path class="cls-1" d="M210.61,323.72c0-35.67-13.9-132.97-13.9-132.97h7.37s-2-13.82-2-13.82h-10.69l-6.57-74.99c-.17-1.92-1.78-3.4-3.71-3.4h-75.86c-1.92,0-3.52,1.45-3.71,3.36l-7.39,75.03h-10.08l-2,13.82h7.6s-9.5,80.7-7.15,130.97c37.58,18.47,101.28,13.06,128.09,2Z"/>
    </clipPath>
  </defs>
  <g id="_レイヤー_33" data-name="レイヤー 33">
    <g>
      <path d="M175.93,43.39c-2.5-.28-5.8-1.96-4.14-6.69,4-11.41-3.13-21.29-13.83-21.96-15.58-.96-21.46,10.25-18.43,18.71s6.93,15.88,15.92,17.03c-1.32,2.37-2.08,5.06-2.08,7.92,0,9.5,8.25,17.21,18.43,17.21s18.43-7.7,18.43-17.21c0-6.3-7.05-14.18-14.3-15.01Z"/>
      <g class="cls-14">
        <g>
          <g>
            <path d="M99.37,384.15c-5.53-46.73-9.69-193.39-9.69-193.39l49.28,10.3c-1.44,37.52.38,131.63,1.1,182.65l-40.69.44Z"/>
            <path class="cls-3" d="M140.05,383.71s-3.31-151.71-1.84-161.61"/>
            <path class="cls-3" d="M89.68,197.2s5.77,175.79,9.69,186.95l40.69-.44"/>
            <path class="cls-11" d="M120.89,244.81c.22,8.11.39,16.22.55,24.33.17,8.89.32,17.78.46,26.67s.29,18.33.43,27.49.29,17.87.45,26.8c.15,8.13.32,16.26.53,24.39.02.9.05,1.81.07,2.71.03.96,1.53.97,1.5,0-.21-7.99-.39-15.99-.54-23.98-.17-8.83-.32-17.66-.46-26.49s-.29-18.32-.43-27.48c-.14-8.99-.29-17.98-.46-26.96-.15-8.24-.32-16.48-.54-24.71-.02-.92-.05-1.84-.07-2.76s-1.53-.97-1.5,0h0Z"/>
          </g>
          <g>
            <path d="M190.65,384.39c5.53-46.73,9.69-193.27,9.69-193.27l-49.28,10.18c1.44,37.52-.38,131.63-1.1,182.65l40.69.44Z"/>
            <path class="cls-3" d="M149.96,383.94s3.31-151.71,1.84-161.61"/>
            <path class="cls-3" d="M200.34,196.44s-5.77,176.79-9.69,187.95l-40.69-.44"/>
            <path class="cls-11" d="M167.63,245.05c-.22,8.11-.39,16.22-.55,24.33-.17,8.89-.32,17.78-.46,26.67s-.29,18.33-.43,27.49-.29,17.87-.45,26.8c-.15,8.13-.32,16.26-.53,24.39-.02.9-.05,1.81-.07,2.71-.03.97,1.47.96,1.5,0,.21-7.99.39-15.99.54-23.98.17-8.83.32-17.66.46-26.49s.29-18.32.43-27.48c.14-8.99.29-17.98.46-26.96.15-8.24.32-16.48.54-24.71.02-.92.05-1.84.07-2.76s-1.47-.96-1.5,0h0Z"/>
          </g>
        </g>
        <path class="cls-9" d="M66.28,143.72l26.64-42.49h0s20.71,8.49,20.71,8.49h0s-23.68,40.03-23.68,40.03c0,0-24.9-4.15-23.67-6.04Z"/>
        <path class="cls-11" d="M194.68,149.37l-4.24-23.31c-1.29-7.06,3.4-13.83,10.46-15.12h0c7.06-1.29,12.12,8.28,12.12,8.28l7.24,25.49c1.29,7.06-3.4,13.83-10.46,15.12h0c-7.06,1.29-13.83-3.4-15.12-10.46Z"/>
        <path class="cls-11" d="M214.2,119.35c-9.74-29.08-38.73-46.41-70.19-44.03l-.55-.04c-27.91-3.57-57.71,18.18-69.18,49.47,2.33,4.39,9.74,6.94,15.75,8.32l-4.69,65.46c18.29,11.64,114.96,2,114.96,2l-6.13-68.06s14.37-5.73,20.04-13.12Z"/>
        <g>
          <path class="cls-4" d="M91.63,119.22l-6.3,79.31c18.29,11.64,114.96,2,114.96,2l-7.63-81.31"/>
          <path class="cls-4" d="M194.16,132.47s14.37-5.73,20.04-13.12c-9.74-29.08-38.73-46.41-70.19-44.03l-.55-.04c-27.91-3.57-57.71,18.18-69.18,49.47,2.33,4.39,9.74,6.94,15.75,8.32"/>
        </g>
        <path d="M210.83,323.72c0-35.67-13.9-132.97-13.9-132.97h7.37s-2-13.82-2-13.82h-10.69l-6.57-74.99c-.17-1.92-1.78-3.4-3.71-3.4h-75.86c-1.92,0-3.52,1.45-3.71,3.36l-7.39,75.03h-10.08l-2,13.82h7.6s-9.5,80.7-7.15,130.97c37.58,18.47,101.28,13.06,128.09,2Z"/>
        <g class="cls-13">
          <g>
            <path class="cls-11" d="M110.63,115.06c-2.45.25-5.05-.56-6.73-2.36s-2.26-4.63-1.2-6.85,3.85-3.54,6.17-2.72,4.39,2.11,3.2,4.27c1.02-1.78,1.35-1.88,3.08-2.97s4.31-1.14,5.59.47c1.63,2.05,1.38,5.64-.94,7.39,2.81-.6,5.09,1.79,5.4,4.36.34,2.86-.37,6.04-2.94,7.34s-6.04.41-7.66-1.97c1.22,2.45,2.42,7.7-5.44,7.25-2.23-.13-4.62-2.97-4.16-5.15s1.26-1.98,2.98-3.41c-1.77,2.32-5.61,3.91-7.76,1.94-2.15-1.98-2.14-7.08.02-9.04s6-1.6,7.76.74"/>
            <path d="M108.42,118.19c-1.74-1.74-1.56-3.95.09-5.59,1.65-1.65,4.79-1.83,6.49.46,1.47,1.97,1.45,4.18-.2,5.83s-4.64,1.04-6.38-.7Z"/>
            <path class="cls-11" d="M110.07,117c-1.06-1.06-1.59-2.15-.56-3.19s3.05-1.52,4.29.06.59,2.76-.44,3.79c-1.03,1.03-2.23.4-3.29-.67Z"/>
          </g>
          <g>
            <path class="cls-11" d="M145.18,105.51c-2.45.25-5.05-.56-6.73-2.36s-2.26-4.63-1.2-6.85,3.85-3.54,6.17-2.72,4.39,2.11,3.2,4.27c1.02-1.78,1.35-1.88,3.08-2.97s4.31-1.14,5.59.47c1.63,2.05,1.38,5.64-.94,7.39,2.81-.6,5.09,1.79,5.4,4.36.34,2.86-.37,6.04-2.94,7.34s-6.04.41-7.66-1.97c1.22,2.45,2.42,7.7-5.44,7.25-2.23-.13-4.62-2.97-4.16-5.15s1.26-1.98,2.98-3.41c-1.77,2.32-5.61,3.91-7.76,1.94-2.15-1.98-2.14-7.08.02-9.04s6-1.6,7.76.74"/>
            <path d="M142.97,108.65c-1.74-1.74-1.56-3.95.09-5.59,1.65-1.65,4.79-1.83,6.49.46,1.47,1.97,1.45,4.18-.2,5.83s-4.64,1.04-6.38-.7Z"/>
            <path class="cls-11" d="M144.63,107.46c-1.06-1.06-1.59-2.15-.56-3.19s3.05-1.52,4.29.06.59,2.76-.44,3.79c-1.03,1.03-2.23.4-3.29-.67Z"/>
          </g>
          <g>
            <path class="cls-11" d="M174.96,132.14c-2.45.25-5.05-.56-6.73-2.36s-2.26-4.63-1.2-6.85,3.85-3.54,6.17-2.72,4.39,2.11,3.2,4.27c1.02-1.78,1.35-1.88,3.08-2.97s4.31-1.14,5.59.47c1.63,2.05,1.38,5.64-.94,7.39,2.81-.6,5.09,1.79,5.4,4.36.34,2.86-.37,6.04-2.94,7.34s-6.04.41-7.66-1.97c1.22,2.45,2.42,7.7-5.44,7.25-2.23-.13-4.62-2.97-4.16-5.15s1.26-1.98,2.98-3.41c-1.77,2.32-5.61,3.91-7.76,1.94-2.15-1.98-2.14-7.08.02-9.04s6-1.6,7.76.74"/>
            <path d="M172.75,135.27c-1.74-1.74-1.56-3.95.09-5.59,1.65-1.65,4.79-1.83,6.49.46,1.47,1.97,1.45,4.18-.2,5.83s-4.64,1.04-6.38-.7Z"/>
            <path class="cls-11" d="M174.4,134.08c-1.06-1.06-1.59-2.15-.56-3.19s3.05-1.52,4.29.06.59,2.76-.44,3.79c-1.03,1.03-2.23.4-3.29-.67Z"/>
          </g>
          <g>
            <path class="cls-11" d="M131.13,149.5c-2.28-.93-4.2-2.87-4.82-5.25s.18-5.15,2.17-6.61,5.07-1.31,6.73.51,2.88,3.93.82,5.27c1.73-1.09,2.07-1.03,4.11-1.18s4.34,1.03,4.71,3.04c.47,2.58-1.44,5.63-4.31,6.07,2.77.79,3.65,3.97,2.72,6.39-1.04,2.68-3.17,5.15-6.05,5.1s-5.52-2.48-5.83-5.34c-.08,2.74-1.48,7.93-8.21,3.84-1.91-1.16-2.69-4.79-1.25-6.5s2.05-1.15,4.23-1.61c-2.66,1.22-6.79.82-7.76-1.94-.97-2.76,1.44-7.25,4.28-7.97s6.05,1.41,6.5,4.3"/>
            <path d="M127.7,151.23c-.72-2.35.48-4.22,2.71-4.9,2.23-.68,5.09.64,5.51,3.46.37,2.43-.69,4.37-2.92,5.05s-4.59-1.26-5.3-3.61Z"/>
            <path class="cls-11" d="M129.72,150.96c-.44-1.44-.39-2.65,1.01-3.07s3.41.09,3.76,2.07-.78,2.71-2.17,3.14c-1.39.42-2.15-.7-2.59-2.14Z"/>
          </g>
          <g>
            <path class="cls-11" d="M100.93,174.58c-2.28-.93-4.2-2.87-4.82-5.25s.18-5.15,2.17-6.61,5.07-1.31,6.73.51,2.88,3.93.82,5.27c1.73-1.09,2.07-1.03,4.11-1.18s4.34,1.03,4.71,3.04c.47,2.58-1.44,5.63-4.31,6.07,2.77.79,3.65,3.97,2.72,6.39-1.04,2.68-3.17,5.15-6.05,5.1s-5.52-2.48-5.83-5.34c-.08,2.74-1.48,7.93-8.21,3.84-1.91-1.16-2.69-4.79-1.25-6.5s2.05-1.15,4.23-1.61c-2.66,1.22-6.79.82-7.76-1.94-.97-2.76,1.44-7.25,4.28-7.97s6.05,1.41,6.5,4.3"/>
            <path d="M97.51,176.3c-.72-2.35.48-4.22,2.71-4.9,2.23-.68,5.09.64,5.51,3.46.37,2.43-.69,4.37-2.92,5.05s-4.59-1.26-5.3-3.61Z"/>
            <path class="cls-11" d="M99.53,176.03c-.44-1.44-.39-2.65,1.01-3.07s3.41.09,3.76,2.07-.78,2.71-2.17,3.14c-1.39.42-2.15-.7-2.59-2.14Z"/>
          </g>
          <g>
            <path class="cls-11" d="M124.88,204.44c-2.28-.93-4.2-2.87-4.82-5.25s.18-5.15,2.17-6.61,5.07-1.31,6.73.51,2.88,3.93.82,5.27c1.73-1.09,2.07-1.03,4.11-1.18s4.34,1.03,4.71,3.04c.47,2.58-1.44,5.63-4.31,6.07,2.77.79,3.65,3.97,2.72,6.39-1.04,2.68-3.17,5.15-6.05,5.1s-5.52-2.48-5.83-5.34c-.08,2.74-1.48,7.93-8.21,3.84-1.91-1.16-2.69-4.79-1.25-6.5s2.05-1.15,4.23-1.61c-2.66,1.22-6.79.82-7.76-1.94-.97-2.76,1.44-7.25,4.28-7.97s6.05,1.41,6.5,4.3"/>
            <path d="M121.45,206.16c-.72-2.35.48-4.22,2.71-4.9,2.23-.68,5.09.64,5.51,3.46.37,2.43-.69,4.37-2.92,5.05s-4.59-1.26-5.3-3.61Z"/>
            <path class="cls-11" d="M123.47,205.89c-.44-1.44-.39-2.65,1.01-3.07s3.41.09,3.76,2.07c.35,2-.78,2.71-2.17,3.14s-2.15-.7-2.59-2.14Z"/>
          </g>
          <g>
            <path class="cls-11" d="M182.37,204.03c-2.28-.93-4.2-2.87-4.82-5.25s.18-5.15,2.17-6.61,5.07-1.31,6.73.51,2.88,3.93.82,5.27c1.73-1.09,2.07-1.03,4.11-1.18s4.34,1.03,4.71,3.04c.47,2.58-1.44,5.63-4.31,6.07,2.77.79,3.65,3.97,2.72,6.39-1.04,2.68-3.17,5.15-6.05,5.1s-5.52-2.48-5.83-5.34c-.08,2.74-1.48,7.93-8.21,3.84-1.91-1.16-2.69-4.79-1.25-6.5s2.05-1.15,4.23-1.61c-2.66,1.22-6.79.82-7.76-1.94-.97-2.76,1.44-7.25,4.28-7.97s6.05,1.41,6.5,4.3"/>
            <path d="M178.94,205.75c-.72-2.35.48-4.22,2.71-4.9,2.23-.68,5.09.64,5.51,3.46.37,2.43-.69,4.37-2.92,5.05s-4.59-1.26-5.3-3.61Z"/>
            <path class="cls-11" d="M180.96,205.48c-.44-1.44-.39-2.65,1.01-3.07s3.41.09,3.76,2.07c.35,2-.78,2.71-2.17,3.14s-2.15-.7-2.59-2.14Z"/>
          </g>
          <g>
            <path class="cls-11" d="M195.75,164.17c-1.47-1.98-2.1-4.63-1.41-6.99.7-2.36,2.83-4.31,5.28-4.53s5.01,1.5,5.49,3.92.43,4.85-2.03,4.93c2.05-.04,2.3.2,4.13,1.13s3.18,3.13,2.45,5.04c-.93,2.45-4.15,4.07-6.83,2.96,1.96,2.11,1.07,5.29-.99,6.87-2.28,1.76-5.38,2.77-7.81,1.22-2.43-1.54-3.44-4.98-2.22-7.59-1.48,2.3-5.38,6.02-9.01-.97-1.03-1.98.19-5.49,2.3-6.2,2.11-.71,2.35.07,4.45.82-2.9-.34-6.23-2.82-5.63-5.68.6-2.86,4.99-5.46,7.79-4.6s4.44,4.34,3.33,7.05"/>
            <path d="M191.93,163.87c.61-2.38,2.6-3.36,4.85-2.78,2.26.57,4.02,3.18,2.92,5.82-.95,2.27-2.85,3.38-5.11,2.8s-3.27-3.46-2.66-5.84Z"/>
            <path class="cls-11" d="M193.79,164.68c.37-1.46,1.04-2.47,2.45-2.11s2.87,1.85,2.14,3.72c-.73,1.89-2.07,1.92-3.49,1.56s-1.48-1.71-1.11-3.17Z"/>
          </g>
        </g>
        <path class="cls-2" d="M210.83,323.72c0-35.67-13.9-132.97-13.9-132.97h7.37s-2-13.82-2-13.82h-10.69l-6.57-74.99c-.17-1.92-1.78-3.4-3.71-3.4h-75.86c-1.92,0-3.52,1.45-3.71,3.36l-7.39,75.03h-10.08l-2,13.82h7.6s-9.5,80.7-7.15,130.97c37.58,18.47,101.28,13.06,128.09,2Z"/>
        <path d="M109.53,101.58l2.64-22.09c.13-1.08.93-1.97,2-2.2l5.27-1.15c.94-.21,1.81.58,1.7,1.54l-2.81,24.92c-.27,2.43-2.47,4.18-4.9,3.91h0c-2.44-.28-4.2-2.49-3.9-4.93Z"/>
        <path d="M167.4,101.76l-2.66-25.36c-.08-.77.57-1.42,1.35-1.34l6.08.68c.9.1,1.62.82,1.71,1.73l2.39,23.36c.25,2.44-1.52,4.63-3.96,4.88h0c-2.45.26-4.64-1.52-4.89-3.96Z"/>
        <path d="M120.63,50.66c-.75-11.78,8.75-22.85,21.41-22.85,15.08,0,22.36,9.14,23.11,20.93.75,11.78-7.63,20.99-20.27,21.8-12.64.81-23.5-8.09-24.25-19.87Z"/>
        <path class="cls-9" d="M164.63,50.33c-.2-11.62-9.62-21.03-21.31-21.12-11.79-.09-21.43,9.34-21.65,21.1-2.71.74-4.67,2.75-4.69,5.14-.02,3.04,3.09,5.52,6.96,5.55.11,0,.22,0,.34-.01,2.91,5.34,8.02,9.3,14.11,10.68l.09,3.67c-1.58.75-2.56,1.79-2.56,2.94,0,2.28,3.84,4.13,8.57,4.13s8.57-1.85,8.57-4.13c0-1.13-.95-2.16-2.48-2.91l-.11-4.45c4.94-1.78,9.04-5.32,11.55-9.87.63.15,1.3.24,2,.25,3.87.03,7.02-2.41,7.04-5.45.02-2.89-2.8-5.28-6.41-5.53Z"/>
        <g>
          <path d="M121.15,50.46s-.97-6.33,3.59-12.92c2.71-3.91,9.46-6.39,9.46-6.39l-.15,2.08s-2.1,5.74-2.99,8.71c-1.44,4.82-4.48,11.81-9.92,8.52Z"/>
          <path d="M148.88,27.55c11.66,2.63,16.32,13.6,16.32,23.43-7.05,2.33-9.88-4.05-10.69-9.33-.7-4.58-6.67-12.07-13.31-5.84-1.15-5.31,5.75-8.69,7.68-8.26Z"/>
          <path d="M130.36,32.91c2.15-3.09,6.92-4.43,12.54-4.45s9.64-.45,9.55,2.29c-.1,2.93-3.56,5.18-9.14,5.74s-13.04-.85-12.94-3.58Z"/>
        </g>
        <g>
          <path d="M134.21,53.4c.02-.76.78-1.69,1.92-1.31.72.24.85.64.83,1.4s-.66,1.35-1.42,1.33-1.35-.66-1.33-1.42Z"/>
          <path d="M148.62,53.86c.02-.76.36-1.31,1.12-1.34,1.02-.04,1.65.67,1.63,1.43s-.66,1.35-1.42,1.33-1.35-.66-1.33-1.42Z"/>
          <path d="M141.86,52.66c.17,1.19.33,2.38.5,3.58.05.39.57.64.92.52.43-.14.58-.5.52-.92-.17-1.19-.33-2.38-.5-3.58-.05-.39-.57-.64-.92-.52-.43.14-.58.5-.52.92h0Z"/>
          <path d="M139.38,59.86c.94,1.49,2.66,2.46,4.44,2.39s3.44-1.13,4.26-2.7c.45-.85-.85-1.61-1.3-.76-.57,1.1-1.7,1.9-2.96,1.96s-2.47-.59-3.14-1.64c-.52-.81-1.81-.06-1.3.76h0Z"/>
          <path d="M139.38,59.86c.94,1.49,2.66,2.46,4.44,2.39s3.44-1.13,4.26-2.7c.45-.85-.85-1.61-1.3-.76-.57,1.1-1.7,1.9-2.96,1.96s-2.47-.59-3.14-1.64c-.52-.81-1.81-.06-1.3.76h0Z"/>
        </g>
        <path class="cls-11" d="M146.43,27.96c6.21.85,11.73,4.46,15,9.81.84,1.37,1.52,2.83,2.01,4.37.29.91,1.74.52,1.45-.4-1.94-6.02-6.52-11.12-12.34-13.62-1.83-.79-3.75-1.33-5.72-1.6-.4-.06-.8.1-.92.52-.1.35.12.87.52.92h0Z"/>
      </g>
      <path class="cls-12" d="M228.95,207.17c-1.4-1.37-3.28-2.14-5.24-2.14H62.33c-2.26,0-4.4,1.02-5.83,2.78l-30.23,37.84c-.48.6-.74,1.35-.74,2.12l.09,20.22c0,.93.76,1.68,1.69,1.68h239.64c.93,0,1.69-.75,1.69-1.69v-20.85c0-.7-.28-1.38-.79-1.87l-38.9-38.09Z"/>
      <line class="cls-4" x1="255.99" y1="246.03" x2="38.27" y2="246.03"/>
      <rect class="cls-9" x="100.94" y="133.71" width="17.11" height="7.44" rx="3.72" ry="3.72" transform="translate(-58.53 188.86) rotate(-68.47)"/>
      <rect class="cls-6" x="94.18" y="152.39" width="49.25" height="2.68" rx=".83" ry=".83" transform="translate(213.05 -16.17) rotate(66.71)"/>
      <path class="cls-10" d="M100.7,140.68h27.92c1.93,0,3.5,1.57,3.5,3.5v2.67c0,.46-.37.83-.83.83h-33.25c-.46,0-.83-.37-.83-.83v-2.67c0-1.93,1.57-3.5,3.5-3.5Z" transform="translate(201.77 -18.13) rotate(66.71)"/>
      <path class="cls-7" d="M125.08,153.4h0c-.25-1.29-1.19-2.26-2.35-2.64,1.05-.78,1.62-2.11,1.35-3.48-.2-1.02-.83-1.84-1.67-2.33.5-.74.71-1.67.53-2.62-.22-1.11-.94-1.98-1.88-2.45.79-.8,1.18-1.96.95-3.14-.37-1.9-2.21-3.13-4.11-2.76,0,0-3.62.04-6.47.08-2.21.03-4.37.68-6.22,1.88l-10.12,6.1-14.63-3.04c-7.61-2.52-15.6,2.68-16.37,10.66-.76,7.84,5.84,14.41,13.67,13.63l20.14-3.09c1.59.82,3.45,1.15,5.33.81l9.46-1.69c.23,0,.46-.02.69-.06l3.34-.66h0s3.12-.61,3.12-.61c2.17-.43,5.52-.77,5.22-4.59Z"/>
      <path class="cls-9" d="M135.61,165.82c2.55-.34,4.16-3.15,4.1-5.72s-1.36-4.93-2.6-7.18-2.49-4.64-2.47-7.22,1.82-5.32,4.38-5.46c1.71-.1,3.65.88,5-.17,1.18-.92.99-2.79.31-4.13s-1.74-2.52-2.01-4c-.41-2.25,1.41-4.58,3.67-4.96s4.62,1,5.63,3.05c.76,1.53.83,3.31,1.49,4.89s2.3,3.03,3.92,2.5c2.71-.88,1.69-5.38,3.8-7.29,1.34-1.21,3.56-.88,4.95.27s2.11,2.9,2.69,4.61c2.34,6.92,3.02,14.62.58,21.5s-8.38,12.75-15.61,13.86"/>
      <path d="M159.87,144.63c.37,2.48.15,5.02-.57,7.41-.28.93,1.17,1.32,1.45.4.8-2.67.98-5.46.57-8.21-.06-.4-.57-.62-.92-.52-.43.12-.58.52-.52.92h0Z"/>
      <path d="M160.03,142.2c.96,0,.97-1.5,0-1.5s-.97,1.5,0,1.5h0Z"/>
      <path class="cls-6" d="M141.56,156.12h39.94c1.77,0,3.21,1.44,3.21,3.21v48.28c0,1.77-1.44,3.21-3.21,3.21h-39.94c-15.09,0-27.35-12.25-27.35-27.35h0c0-15.09,12.25-27.35,27.35-27.35Z" transform="translate(-54.68 63.78) rotate(-20.45)"/>
      <path class="cls-11" d="M215.49,148.35l-11.2-8.76-9.26,1.69-16.81,28.83c-2-.51-4.15-.45-6.18.25l-5.08,1.75-6.76-2.26c-1.49-.5-3.2.17-3.78,1.64-.61,1.56.21,3.3,1.78,3.82l5.85,1.95-2.63,4.66-13.38-.1c-1.41-.01-2.7.93-2.98,2.31-.37,1.85,1.03,3.49,2.82,3.5l11.49.09-11.75,4.38c-1.35.5-2.26,1.88-2,3.29.34,1.83,2.21,2.83,3.88,2.21l8.45-3.15-7.37,3.17c-1.29.56-2.1,1.94-1.8,3.31.41,1.85,2.35,2.78,3.99,2.07l10.17-4.38-3.76,2.92c-1.11.86-1.54,2.4-.91,3.65.86,1.69,2.97,2.1,4.39,1l8.64-6.7v.02s.15-.14.15-.14l.88-.68c.37-.29.64-.65.83-1.05l17.06-17.27,24.72-22.7c2.34-2.26,2.27-6.58.54-9.33Z"/>
      <path class="cls-4" d="M202.53,139.09l-5.89,1.06-18.42,29.95c-2-.51-4.15-.45-6.18.25l-5.08,1.75-6.76-2.26c-1.49-.5-3.2.17-3.78,1.64-.61,1.56.21,3.3,1.78,3.82l5.85,1.95-2.63,4.66-13.38-.1c-1.41-.01-2.7.93-2.98,2.31-.37,1.85,1.03,3.49,2.82,3.5l11.49.09-11.75,4.38c-1.35.5-2.26,1.88-2,3.29.34,1.83,2.21,2.83,3.88,2.21l13.7-5.48-12.61,5.5c-1.29.56-2.1,1.94-1.8,3.31.41,1.85,2.35,2.78,3.99,2.07l13.92-6.63-7.51,5.17c-1.11.86-1.54,2.4-.91,3.65.86,1.69,2.97,2.1,4.39,1l8.64-6.7v.02s.15-.14.15-.14l.88-.68c.37-.29.64-.65.83-1.05l17.06-17.27s18.72-16.35,23.97-22.2c4.74-5.29,7.2-7.21,6.07-13.46l-6.92-24.34"/>
      <path class="cls-9" d="M51.33,229.68l3.45-38.19c.34-3.75,3.51-6.6,7.27-6.55l26.72.36c2.36.03,4.33,1.79,4.63,4.13l4.89,38.23c1.09,6.63-4.85,6.77-4.85,6.77,0,0-1,3.76-4.34,3.59l-30.79-.25c-4.2-.23-7.38-3.89-7-8.08Z"/>
      <path d="M85.9,193.96c-1.59,6.64-2.28,13.54-2.53,20.35-.12,3.37-.12,6.76.13,10.12.19,2.63.48,5.33,1.28,7.85.51,1.62,1.43,3.88,3.34,4.23.94.17,1.35-1.27.4-1.45-.52-.09-.85-.37-1.15-.77-.52-.68-.81-1.41-1.07-2.19-.77-2.33-1.07-4.82-1.27-7.26-.53-6.66-.2-13.42.55-20.05.4-3.51.94-7.01,1.76-10.45.22-.94-1.22-1.34-1.45-.4h0Z"/>
      <path class="cls-12" d="M57.94,221.15l1.05-22.65c.12-.92.9-1.61,1.83-1.6l17.8.46c1,.01,1.81.84,1.8,1.84l-.22,22.82c0,1.02-.86,1.84-1.88,1.81l-18.64-.62c-1.07-.04-1.88-.98-1.75-2.05Z"/>
      <g>
        <path class="cls-11" d="M69.08,214.21c.33.66-.18,2.04-1.35,2.62s-2.9-.51-2.9-.51c0,0,.18-2.04,1.35-2.62s2.58-.15,2.9.51Z"/>
        <path class="cls-11" d="M59.64,211.95c.02-.59.9-1.38,1.96-1.34s1.86,1.47,1.86,1.47c0,0-.9,1.38-1.96,1.34s-1.88-.88-1.86-1.47Z"/>
        <path class="cls-11" d="M67.59,211.7c.02.59-.81,1.44-1.86,1.47s-1.96-1.34-1.96-1.34c0,0,.81-1.44,1.86-1.47s1.94.75,1.96,1.34Z"/>
        <path class="cls-11" d="M59.91,208.31c.02-.51.77-1.18,1.68-1.15s1.59,1.26,1.59,1.26c0,0-.77,1.18-1.68,1.15s-1.61-.75-1.59-1.26Z"/>
        <path class="cls-11" d="M67.25,208.34c.02.51-.69,1.23-1.59,1.26s-1.68-1.15-1.68-1.15c0,0,.69-1.23,1.59-1.26s1.66.64,1.68,1.15Z"/>
        <path class="cls-11" d="M67.25,208.34c.02.51-.69,1.23-1.59,1.26s-1.68-1.15-1.68-1.15c0,0,.69-1.23,1.59-1.26s1.66.64,1.68,1.15Z"/>
        <path class="cls-11" d="M60.96,204.56c.09-.5.85-1.03,1.63-.84s1.19,1.52,1.19,1.52c0,0-.85,1.03-1.63.84s-1.28-1.02-1.19-1.52Z"/>
        <path class="cls-11" d="M67.36,205.66c-.06.5-.78,1.09-1.57.97s-1.28-1.42-1.28-1.42c0,0,.78-1.09,1.57-.97s1.34.92,1.28,1.42Z"/>
        <path class="cls-11" d="M66.63,199.75c.7.4,1.13,1.82.47,2.91-.66,1.08-2.87,1.02-2.87,1.02,0,0-1.13-1.82-.47-2.91.66-1.08,2.17-1.42,2.87-1.02Z"/>
        <path class="cls-11" d="M64.08,203.27c-.78,2.7-1.29,5.54-1.07,8.36.27,3.4,1.66,6.52,4.15,8.87.47.44,1.18-.27.71-.71-2.39-2.25-3.69-5.23-3.88-8.49-.15-2.64.33-5.25,1.06-7.77.18-.62-.79-.88-.96-.27h0Z"/>
        <path class="cls-11" d="M60.2,217.87c-.28-.68.32-2.02,1.53-2.52s2.86.71,2.86.71c0,0-.32,2.02-1.53,2.52s-2.58-.03-2.86-.71Z"/>
      </g>
      <g>
        <path class="cls-11" d="M69.34,206.31c-.4-.62-.06-2.05,1.04-2.76s2.94.18,2.94.18c0,0,.06,2.05-1.04,2.76s-2.54.44-2.94-.18Z"/>
        <path class="cls-11" d="M78.97,207.48c.05.59-.74,1.47-1.79,1.55s-2.02-1.25-2.02-1.25c0,0,.74-1.47,1.79-1.55s1.97.66,2.02,1.25Z"/>
        <path class="cls-11" d="M71.1,208.64c-.09-.59.64-1.52,1.68-1.67s2.1,1.11,2.1,1.11c0,0-.64,1.52-1.68,1.67s-2.01-.52-2.1-1.11Z"/>
        <path class="cls-11" d="M79.11,211.14c.04.51-.63,1.26-1.54,1.33s-1.73-1.07-1.73-1.07c0,0,.63-1.26,1.54-1.33s1.69.57,1.73,1.07Z"/>
        <path class="cls-11" d="M71.82,211.94c-.07-.5.55-1.3,1.44-1.43s1.8.95,1.8.95c0,0-.55,1.3-1.44,1.43s-1.72-.45-1.8-.95Z"/>
        <path class="cls-11" d="M71.82,211.94c-.07-.5.55-1.3,1.44-1.43s1.8.95,1.8.95c0,0-.55,1.3-1.44,1.43s-1.72-.45-1.8-.95Z"/>
        <path class="cls-11" d="M78.5,214.98c-.03.5-.73,1.12-1.52,1.02s-1.36-1.37-1.36-1.37c0,0,.73-1.12,1.52-1.02s1.39.87,1.36,1.37Z"/>
        <path class="cls-11" d="M72.02,214.62c0-.51.65-1.18,1.45-1.14s1.43,1.26,1.43,1.26c0,0-.65,1.18-1.45,1.14s-1.44-.76-1.43-1.26Z"/>
        <path class="cls-11" d="M73.41,220.4c-.74-.32-1.33-1.68-.8-2.84.54-1.15,2.74-1.34,2.74-1.34,0,0,1.33,1.68.8,2.84-.54,1.15-1.99,1.65-2.74,1.34Z"/>
        <path class="cls-11" d="M75.53,216.67c.47-2.8.66-5.67.13-8.48-.64-3.39-2.42-6.32-5.19-8.39-.52-.38-1.02.48-.5.86,2.61,1.94,4.2,4.77,4.76,7.94.46,2.57.28,5.23-.16,7.79-.11.63.86.9.96.27h0Z"/>
        <path class="cls-11" d="M77.74,201.66c.36.65-.08,2.05-1.23,2.68s-2.93-.38-2.93-.38c0,0,.08-2.05,1.23-2.68s2.57-.26,2.93.38Z"/>
      </g>
      <path d="M89.85,203.63c.23,3.06.46,6.11.69,9.17.36,4.88.73,9.75,1.09,14.63.08,1.12.17,2.25.25,3.37.07.96,1.57.96,1.5,0-.23-3.06-.46-6.11-.69-9.17-.36-4.88-.73-9.75-1.09-14.63-.08-1.12-.17-2.25-.25-3.37-.07-.96-1.57-.96-1.5,0h0Z"/>
      <rect class="cls-9" x="56.79" y="177.77" width="33.8" height="8.5" rx="1.78" ry="1.78"/>
      <rect class="cls-12" x="55.5" y="180.9" width="36" height="2.25" rx="1.12" ry="1.12"/>
      <g>
        <polygon class="cls-7" points="122.79 238.24 122.26 217.64 126.98 210.95 131.62 216.19 132.03 234.01 122.79 238.24"/>
        <rect class="cls-7" x="97.29" y="217.44" width="25.5" height="20.8" rx="1.19" ry="1.19"/>
        <rect class="cls-8" x="102.93" y="205.03" width="24.05" height="6.17"/>
        <polygon class="cls-8" points="97.29 217.44 103.1 210.95 126.98 210.95 122.79 217.44 97.29 217.44"/>
        <rect class="cls-5" x="100.83" y="223.01" width="18.63" height="9.5"/>
      </g>
    </g>
  </g>
</svg>