<?xml version="1.0" encoding="UTF-8"?>
<svg id="_レイヤー_2" data-name="レイヤー 2" xmlns="http://www.w3.org/2000/svg" viewBox="0 0 246.85 400.15">
  <defs>
    <style>
      .cls-1 {
        fill: #fff;
      }

      .cls-2, .cls-3, .cls-4, .cls-5, .cls-6 {
        stroke-width: 1.5px;
      }

      .cls-2, .cls-3, .cls-7, .cls-5, .cls-8, .cls-6 {
        stroke: #000;
      }

      .cls-2, .cls-4, .cls-8 {
        stroke-miterlimit: 10;
      }

      .cls-2, .cls-9 {
        fill: #adadad;
      }

      .cls-3, .cls-4, .cls-5, .cls-6 {
        stroke-linecap: round;
      }

      .cls-3, .cls-7, .cls-5, .cls-6 {
        stroke-linejoin: round;
      }

      .cls-4 {
        stroke: #fff069;
      }

      .cls-4, .cls-10, .cls-5 {
        fill: none;
      }

      .cls-11, .cls-8 {
        fill: #fff069;
      }

      .cls-12, .cls-6 {
        fill: #e74268;
      }
    </style>
  </defs>
  <g id="_レイヤー_30" data-name="レイヤー 30">
    <g>
      <g>
        <g>
          <path class="cls-11" d="m154.13,230.83c-3.52,26.79,13.66,127.77,13.66,127.77-8.9,13.41-25.63,19.51-29.91,34.8l23.68,2.49c17.74-17.11,36.3-21,36.3-21,0,0-4.43-114.32-1.16-149.54"/>
          <path d="m164.28,334.18l3.51,24.43c-14.36,17.84-30.49,23.5-29.91,34.8,0,0,25.24,3.45,25.09.61,16.57-19.28,34.89-19.13,34.89-19.13l-1.67-43.53"/>
          <path class="cls-12" d="m186.58,333.11h5.73v22h-6.02c-3.03,0-5.48-2.46-5.48-5.48v-10.75c0-3.18,2.58-5.77,5.77-5.77Z" transform="translate(-26.02 15.43) rotate(-4.43)"/>
          <path class="cls-5" d="m154.05,245.99c-1.14,23.78,13.74,112.61,13.74,112.61-8.9,13.41-31.28,23.23-29.91,34.8l23.68,2.49c17.74-17.11,36.3-21,36.3-21,0,0-5.61-79.26-2.23-128.11"/>
          <path class="cls-6" d="m137.23,397.3l.35-3.98,21.82,1.93c2.18.14,4.41-1.8,4.93-2.36,11.9-12.79,23.54-16.27,33.52-17.99l-.37,24.51-12.17-.09s3.8-10.96,1.28-14.51c-2.92-4.11-11.6,3.99-18.55,10.71-.5.48-3.37,3.93-6.35,3.74l-24.46-1.95Z"/>
        </g>
        <g>
          <path d="m161.55,318.88c2.03,1.66,4.06,3.32,6.09,4.97l9.66,7.89c.75.61,1.49,1.22,2.24,1.83s1.81-.45,1.06-1.06c-2.03-1.66-4.06-3.32-6.09-4.97l-9.66-7.89c-.75-.61-1.49-1.22-2.24-1.83s-1.81.45-1.06,1.06h0Z"/>
          <path d="m159.62,304c1.08.95,2.15,1.91,3.23,2.86,2.57,2.28,5.13,4.55,7.7,6.83,3.12,2.77,6.24,5.53,9.36,8.3,2.69,2.38,5.37,4.76,8.06,7.14,1.31,1.16,2.6,2.36,3.94,3.49.02.02.04.03.06.05.72.64,1.78-.42,1.06-1.06-1.08-.95-2.15-1.91-3.23-2.86-2.57-2.28-5.13-4.55-7.7-6.83-3.12-2.77-6.24-5.53-9.36-8.3-2.69-2.38-5.37-4.76-8.06-7.14-1.31-1.16-2.6-2.36-3.94-3.49-.02-.02-.04-.03-.06-.05-.72-.64-1.78.42-1.06,1.06h0Z"/>
          <path d="m158.06,291.58c1.24,1.09,2.48,2.18,3.73,3.27,2.98,2.61,5.97,5.23,8.95,7.84,3.63,3.18,7.25,6.36,10.88,9.54,3.12,2.74,6.24,5.47,9.37,8.21,1.52,1.33,3.01,2.69,4.56,3.99.02.02.04.04.06.06.72.63,1.79-.42,1.06-1.06-1.24-1.09-2.48-2.18-3.73-3.27-2.98-2.61-5.97-5.23-8.95-7.84-3.63-3.18-7.25-6.36-10.88-9.54-3.12-2.74-6.24-5.47-9.37-8.21-1.52-1.33-3.01-2.69-4.56-3.99-.02-.02-.04-.04-.06-.06-.72-.63-1.79.42-1.06,1.06h0Z"/>
          <path d="m156.4,277.44c1.29,1.15,2.58,2.3,3.86,3.45,3.08,2.75,6.15,5.5,9.23,8.24,3.74,3.34,7.47,6.67,11.21,10.01,3.22,2.87,6.44,5.75,9.65,8.62,1.57,1.4,3.11,2.85,4.72,4.21.02.02.04.04.07.06.72.64,1.78-.42,1.06-1.06-1.29-1.15-2.58-2.3-3.86-3.45-3.08-2.75-6.15-5.5-9.23-8.24-3.74-3.34-7.47-6.67-11.21-10.01-3.22-2.87-6.44-5.75-9.65-8.62-1.57-1.4-3.11-2.85-4.72-4.21-.02-.02-.04-.04-.07-.06-.72-.64-1.78.42-1.06,1.06h0Z"/>
          <path d="m154.97,264.01c1.32,1.12,2.63,2.25,3.95,3.37l9.48,8.1c3.84,3.28,7.68,6.56,11.53,9.84,3.3,2.81,6.59,5.63,9.89,8.44,1.62,1.38,3.21,2.79,4.85,4.14.02.02.04.04.07.06.73.62,1.8-.43,1.06-1.06-1.32-1.12-2.63-2.25-3.95-3.37l-9.48-8.1c-3.84-3.28-7.68-6.56-11.53-9.84-3.3-2.81-6.59-5.63-9.89-8.44-1.62-1.38-3.21-2.79-4.85-4.14-.02-.02-.04-.04-.07-.06-.73-.62-1.8.43-1.06,1.06h0Z"/>
          <path d="m153.97,252.91c1.36,1.16,2.72,2.31,4.08,3.47,3.26,2.77,6.53,5.55,9.79,8.32l11.84,10.06c3.4,2.89,6.79,5.78,10.19,8.66,1.66,1.41,3.3,2.85,4.98,4.23.02.02.05.04.07.06.73.62,1.8-.43,1.06-1.06-1.36-1.16-2.72-2.31-4.08-3.47-3.26-2.77-6.53-5.55-9.79-8.32l-11.84-10.06c-3.4-2.89-6.79-5.78-10.19-8.66-1.66-1.41-3.3-2.85-4.98-4.23-.02-.02-.05-.04-.07-.06-.73-.62-1.8.43-1.06,1.06h0Z"/>
          <path d="m163.46,248.53c3.54,2.95,7.09,5.89,10.63,8.84,5.63,4.68,11.25,9.35,16.88,14.03,1.29,1.07,2.58,2.14,3.87,3.21.74.61,1.8-.44,1.06-1.06-3.54-2.95-7.09-5.89-10.63-8.84-5.63-4.68-11.25-9.35-16.88-14.03-1.29-1.07-2.58-2.14-3.87-3.21-.74-.61-1.8.44-1.06,1.06h0Z"/>
          <path d="m179.32,249.99c4.54,3.61,9.08,7.22,13.62,10.83.65.52,1.31,1.04,1.96,1.56.75.59,1.82-.46,1.06-1.06-4.54-3.61-9.08-7.22-13.62-10.83-.65-.52-1.31-1.04-1.96-1.56-.75-.59-1.82.46-1.06,1.06h0Z"/>
        </g>
        <g>
          <path d="m195.11,300.75c-1.06.94-2.12,1.87-3.17,2.81-2.54,2.25-5.08,4.49-7.63,6.74-3.09,2.73-6.19,5.47-9.28,8.2-2.66,2.35-5.32,4.7-7.98,7.06-1.29,1.14-2.68,2.22-3.89,3.44-.02.02-.04.03-.06.05-.72.64.34,1.7,1.06,1.06,1.06-.94,2.12-1.87,3.17-2.81,2.54-2.25,5.08-4.49,7.63-6.74,3.09-2.73,6.19-5.47,9.28-8.2,2.66-2.35,5.32-4.7,7.98-7.06,1.29-1.14,2.68-2.22,3.89-3.44.02-.02.04-.03.06-.05.72-.64-.34-1.7-1.06-1.06h0Z"/>
          <path d="m195.18,312.83c-3.45,3.03-6.9,6.06-10.35,9.09-5.49,4.82-10.99,9.64-16.48,14.46-1.25,1.1-2.5,2.2-3.75,3.29-.73.64.34,1.7,1.06,1.06,3.45-3.03,6.9-6.06,10.35-9.09,5.49-4.82,10.99-9.64,16.48-14.46,1.25-1.1,2.5-2.2,3.75-3.29.73-.64-.34-1.7-1.06-1.06h0Z"/>
          <path d="m195.24,331.2c-3.51.25-7.01.5-10.52.76-5.54.4-11.07.8-16.61,1.2-1.28.09-2.55.18-3.83.28-.96.07-.96,1.57,0,1.5,3.51-.25,7.01-.5,10.52-.76,5.54-.4,11.07-.8,16.61-1.2,1.28-.09,2.55-.18,3.83-.28.96-.07.96-1.57,0-1.5h0Z"/>
          <path d="m195.47,324.48c-2.22,2.17-4.45,4.35-6.67,6.52-.31.3-.62.61-.94.91-.69.68.37,1.74,1.06,1.06,2.22-2.17,4.45-4.35,6.67-6.52.31-.3.62-.61.94-.91.69-.68-.37-1.74-1.06-1.06h0Z"/>
          <path d="m194.92,286.65c-1.11,1.03-2.21,2.07-3.32,3.1-2.66,2.48-5.31,4.96-7.97,7.45-3.21,3-6.43,6.01-9.64,9.01l-8.33,7.78c-1.34,1.25-2.77,2.45-4.04,3.77-.02.02-.04.04-.06.06-.71.66.36,1.72,1.06,1.06,1.11-1.03,2.21-2.07,3.32-3.1,2.66-2.48,5.31-4.96,7.97-7.45,3.21-3,6.43-6.01,9.64-9.01l8.33-7.78c1.34-1.25,2.77-2.45,4.04-3.77.02-.02.04-.04.06-.06.71-.66-.36-1.72-1.06-1.06h0Z"/>
          <path d="m194.71,275.03c-1.15,1.04-2.31,2.08-3.46,3.11-2.75,2.48-5.5,4.95-8.26,7.43-3.34,3.01-6.69,6.02-10.03,9.03-2.88,2.59-5.76,5.18-8.64,7.77-1.4,1.26-2.9,2.46-4.22,3.8-.02.02-.04.04-.06.05-.72.65.34,1.71,1.06,1.06,1.15-1.04,2.31-2.08,3.46-3.11,2.75-2.48,5.5-4.95,8.26-7.43,3.34-3.01,6.69-6.02,10.03-9.03,2.88-2.59,5.76-5.18,8.64-7.77,1.4-1.26,2.9-2.46,4.22-3.8.02-.02.04-.04.06-.05.72-.65-.34-1.71-1.06-1.06h0Z"/>
          <path d="m194.87,263.51c-1.2,1.06-2.4,2.13-3.6,3.19-2.88,2.55-5.77,5.11-8.65,7.66-3.47,3.07-6.95,6.15-10.42,9.22-3.02,2.67-6.03,5.34-9.05,8.01-1.46,1.29-3.03,2.52-4.4,3.9-.02.02-.04.04-.06.05-.72.64.34,1.7,1.06,1.06,1.2-1.06,2.4-2.13,3.6-3.19,2.88-2.55,5.77-5.11,8.65-7.66,3.47-3.07,6.95-6.15,10.42-9.22,3.02-2.67,6.03-5.34,9.05-8.01,1.46-1.29,3.03-2.52,4.4-3.9.02-.02.04-.04.06-.05.72-.64-.34-1.7-1.06-1.06h0Z"/>
          <path d="m194.95,252.03c-1.25,1.1-2.49,2.2-3.74,3.31-2.98,2.63-5.96,5.27-8.94,7.9-3.62,3.2-7.24,6.4-10.86,9.6-3.12,2.75-6.23,5.51-9.35,8.26-1.51,1.34-3.14,2.61-4.57,4.04-.02.02-.04.04-.06.06-.72.64.34,1.7,1.06,1.06,1.25-1.1,2.49-2.2,3.74-3.31,2.98-2.63,5.96-5.27,8.94-7.9,3.62-3.2,7.24-6.4,10.86-9.6,3.12-2.75,6.23-5.51,9.35-8.26,1.51-1.34,3.14-2.61,4.57-4.04.02-.02.04-.04.06-.06.72-.64-.34-1.7-1.06-1.06h0Z"/>
          <path d="m189.27,247.38c-1.09.91-2.18,1.82-3.27,2.72-2.64,2.19-5.27,4.39-7.91,6.58-3.17,2.64-6.35,5.28-9.52,7.93-2.75,2.29-5.49,4.57-8.24,6.86-1.33,1.11-2.79,2.15-4.04,3.36-.02.02-.04.03-.06.05-.74.62.32,1.67,1.06,1.06,1.09-.91,2.18-1.82,3.27-2.72,2.64-2.19,5.27-4.39,7.91-6.58,3.17-2.64,6.35-5.28,9.52-7.93,2.75-2.29,5.49-4.57,8.24-6.86,1.33-1.11,2.79-2.15,4.04-3.36.02-.02.04-.03.06-.05.74-.62-.32-1.67-1.06-1.06h0Z"/>
          <path d="m175.35,248.1c-2.26,1.97-4.51,3.95-6.77,5.92-3.62,3.16-7.23,6.33-10.85,9.49-.83.72-1.66,1.45-2.48,2.17-.73.64.34,1.69,1.06,1.06,2.26-1.97,4.51-3.95,6.77-5.92,3.62-3.16,7.23-6.33,10.85-9.49.83-.72,1.66-1.45,2.48-2.17.73-.64-.34-1.69-1.06-1.06h0Z"/>
          <path d="m160.92,247.8c-1.95,2.13-3.89,4.27-5.84,6.4-.28.31-.56.61-.84.92-.65.71.41,1.78,1.06,1.06,1.95-2.13,3.89-4.27,5.84-6.4.28-.31.56-.61.84-.92.65-.71-.41-1.78-1.06-1.06h0Z"/>
        </g>
        <path d="m153.65,247.44c1.89.78,3.95,1.16,5.96,1.49,2.9.47,5.82.75,8.75.94,6.32.41,12.71.41,19.02-.19,2.9-.27,5.85-.64,8.66-1.46,1.85-.54,1.06-3.43-.8-2.89-1.09.32-2.2.56-3.32.75-.61.11-1.23.2-1.85.29-.05,0-.29.04-.02,0-.07,0-.14.02-.21.03-.16.02-.33.04-.49.06-.36.04-.72.08-1.08.12-3,.32-6.02.47-9.04.52-3.19.06-6.39,0-9.58-.17-1.5-.08-3-.19-4.49-.33-.72-.07-1.43-.14-2.14-.22-.33-.04-.66-.08-.99-.12-.27-.03.14.02-.22-.03-.18-.03-.36-.05-.54-.08-2.29-.34-4.66-.73-6.81-1.62-.75-.31-1.65.34-1.85,1.05-.24.86.3,1.53,1.05,1.85h0Z"/>
      </g>
      <g>
        <g>
          <path class="cls-11" d="m84.03,203.47c-14.14,23.03-39.6,122.25-39.6,122.25-13.6,8.61-31.35,7.37-41.5,19.59l20.62,11.92c23.17-8.39,41.71-4.38,41.71-4.38,0,0,40.53-102.3,57.88-133.13"/>
          <path d="m51.18,301.98l-6.75,23.73c-20.38,10.43-37.42,9.04-41.5,19.59,0,0,21.64,13.43,22.66,10.79,22.99-10.85,39.66-3.25,39.66-3.25l16.21-40.44"/>
          <path class="cls-12" d="m67.49,309.13h5.73v22h-6.02c-3.03,0-5.48-2.46-5.48-5.48v-10.75c0-3.18,2.58-5.77,5.77-5.77Z" transform="translate(111.43 -4.07) rotate(19.62)"/>
          <path class="cls-5" d="m77.77,217.29c-10.73,21.25-33.35,108.43-33.35,108.43-13.6,8.61-38.03,8.47-41.5,19.59l20.62,11.92c23.17-8.39,41.71-4.38,41.71-4.38,0,0,36.88-91.26,50.18-117.9"/>
          <path class="cls-6" d="m.75,348.6l1.95-3.49,19.14,10.66c1.94,1.01,4.76.15,5.47-.15,16.08-6.83,28.13-5.26,37.95-2.77l-10.33,22.23-11.08-5.04s7.93-8.46,7.08-12.73c-.99-4.95-12.23-1.08-21.31,2.22-.65.24-4.68,2.21-7.32.83l-21.54-11.75Z"/>
        </g>
        <g>
          <path d="m54.97,287.02c1.18,2.34,2.36,4.68,3.54,7.02,1.87,3.71,3.74,7.43,5.61,11.14.43.86.87,1.72,1.3,2.58s1.73.1,1.3-.76c-1.18-2.34-2.36-4.68-3.54-7.02-1.87-3.71-3.74-7.43-5.61-11.14-.43-.86-.87-1.72-1.3-2.58s-1.73-.1-1.3.76h0Z"/>
          <path d="m59.27,272.64c.59,1.31,1.19,2.62,1.78,3.93,1.42,3.12,2.83,6.25,4.25,9.37,1.72,3.8,3.44,7.6,5.17,11.39,1.48,3.27,2.96,6.54,4.45,9.81l1.47,3.24c.23.51.43,1.06.71,1.56.01.02.02.05.03.07.4.88,1.69.12,1.3-.76-.59-1.31-1.19-2.62-1.78-3.93-1.42-3.12-2.83-6.25-4.25-9.37-1.72-3.8-3.44-7.6-5.17-11.39-1.48-3.27-2.96-6.54-4.45-9.81l-1.47-3.24c-.23-.51-.43-1.06-.71-1.56-.01-.02-.02-.05-.03-.07-.4-.88-1.69-.12-1.3.76h0Z"/>
          <path d="m62.91,260.66c.69,1.5,1.38,3,2.07,4.5,1.66,3.6,3.32,7.21,4.98,10.81,2.02,4.38,4.03,8.76,6.05,13.14,1.74,3.77,3.47,7.54,5.21,11.31.57,1.24,1.14,2.49,1.72,3.73.27.58.5,1.21.82,1.77.01.02.02.05.04.08.4.88,1.7.11,1.3-.76-.69-1.5-1.38-3-2.07-4.5-1.66-3.6-3.32-7.21-4.98-10.81-2.02-4.38-4.03-8.76-6.05-13.14-1.74-3.77-3.47-7.54-5.21-11.31-.57-1.24-1.14-2.49-1.72-3.73-.27-.58-.5-1.21-.82-1.77-.01-.02-.02-.05-.04-.08-.4-.88-1.7-.11-1.3.76h0Z"/>
          <path d="m67.16,247.07c.71,1.58,1.41,3.15,2.12,4.73,1.69,3.76,3.38,7.53,5.07,11.29,2.05,4.57,4.1,9.14,6.16,13.71,1.77,3.94,3.53,7.87,5.3,11.81l1.76,3.91c.27.61.51,1.27.83,1.86.01.03.02.05.04.08.39.88,1.69.12,1.3-.76-.71-1.58-1.41-3.15-2.12-4.73-1.69-3.76-3.38-7.53-5.07-11.29-2.05-4.57-4.1-9.14-6.16-13.71-1.77-3.94-3.53-7.87-5.3-11.81l-1.76-3.91c-.27-.61-.51-1.27-.83-1.86-.01-.03-.02-.05-.04-.08-.39-.88-1.69-.12-1.3.76h0Z"/>
          <path d="m71.33,234.23c.74,1.56,1.49,3.12,2.23,4.69,1.79,3.75,3.57,7.51,5.36,11.26,2.17,4.56,4.34,9.12,6.52,13.68,1.86,3.91,3.73,7.82,5.59,11.74l1.86,3.91c.29.61.55,1.26.88,1.85.01.03.03.05.04.08.41.87,1.71.11,1.3-.76-.74-1.56-1.49-3.12-2.23-4.69-1.79-3.75-3.57-7.51-5.36-11.26-2.17-4.56-4.34-9.12-6.52-13.68-1.86-3.91-3.73-7.82-5.59-11.74l-1.86-3.91c-.29-.61-.55-1.26-.88-1.85-.01-.03-.03-.05-.04-.08-.41-.87-1.71-.11-1.3.76h0Z"/>
          <path d="m74.94,223.68c.77,1.61,1.54,3.22,2.31,4.83,1.85,3.86,3.7,7.73,5.55,11.59,2.24,4.67,4.47,9.34,6.71,14.02,1.93,4.02,3.85,8.04,5.78,12.07l1.91,4c.3.63.57,1.29.91,1.9.01.03.03.06.04.08.42.87,1.71.11,1.3-.76-.77-1.61-1.54-3.22-2.31-4.83-1.85-3.86-3.7-7.73-5.55-11.59-2.24-4.67-4.47-9.34-6.71-14.02l-5.78-12.07-1.91-4c-.3-.63-.57-1.29-.91-1.9-.01-.03-.03-.06-.04-.08-.42-.87-1.71-.11-1.3.76h0Z"/>
          <path d="m85.38,223.55c2.04,4.13,4.07,8.27,6.11,12.4,3.23,6.56,6.46,13.13,9.7,19.69.74,1.5,1.48,3.01,2.22,4.51.43.87,1.72.11,1.3-.76-2.04-4.13-4.07-8.27-6.11-12.4-3.23-6.56-6.46-13.13-9.7-19.69-.74-1.5-1.48-3.01-2.22-4.51-.43-.87-1.72-.11-1.3.76h0Z"/>
          <path d="m99.27,231.35c2.67,5.15,5.35,10.29,8.02,15.44.38.74.77,1.48,1.15,2.22.45.86,1.74.1,1.3-.76-2.67-5.15-5.35-10.29-8.02-15.44-.38-.74-.77-1.48-1.15-2.22-.45-.86-1.74-.1-1.3.76h0Z"/>
        </g>
        <g>
          <path d="m93.02,284c-1.35.42-2.7.85-4.04,1.27-3.24,1.02-6.47,2.03-9.71,3.05l-11.82,3.71-10.17,3.19c-1.65.52-3.32.98-4.95,1.55-.02,0-.05.01-.07.02-.92.29-.53,1.74.4,1.45,1.35-.42,2.7-.85,4.04-1.27l9.71-3.05,11.82-3.71,10.17-3.19c1.65-.52,3.32-.98,4.95-1.55.02,0,.05-.01.07-.02.92-.29.53-1.74-.4-1.45h0Z"/>
          <path d="m88.16,295.06c-4.39,1.36-8.77,2.72-13.16,4.08-6.98,2.16-13.96,4.33-20.95,6.49-1.59.49-3.18.99-4.77,1.48-.92.28-.53,1.73.4,1.45,4.39-1.36,8.77-2.72,13.16-4.08,6.98-2.16,13.96-4.33,20.95-6.49,1.59-.49,3.18-.99,4.77-1.48.92-.28.53-1.73-.4-1.45h0Z"/>
          <path d="m80.55,311.84c-3.3-1.2-6.61-2.4-9.91-3.59-5.22-1.89-10.44-3.78-15.66-5.68-1.2-.44-2.41-.87-3.61-1.31-.91-.33-1.3,1.12-.4,1.45,3.3,1.2,6.61,2.4,9.91,3.59,5.22,1.89,10.44,3.78,15.66,5.68,1.2.44,2.41.87,3.61,1.31.91.33,1.3-1.12.4-1.45h0Z"/>
          <path d="m83.68,305.82c-2.91,1.07-5.81,2.15-8.72,3.22l-1.26.46c-.9.33-.51,1.78.4,1.45,2.91-1.07,5.81-2.15,8.72-3.22l1.26-.46c.9-.33.51-1.78-.4-1.45h0Z"/>
          <path d="m98.59,271.05c-1.43.49-2.86.99-4.29,1.48-3.44,1.18-6.88,2.37-10.31,3.55-4.16,1.43-8.32,2.86-12.48,4.3-3.59,1.24-7.19,2.48-10.78,3.71-1.74.6-3.5,1.16-5.23,1.8-.03,0-.05.02-.08.03-.91.31-.52,1.76.4,1.45,1.43-.49,2.86-.99,4.29-1.48,3.44-1.18,6.88-2.37,10.31-3.55,4.16-1.43,8.32-2.86,12.48-4.3,3.59-1.24,7.19-2.48,10.78-3.71,1.74-.6,3.5-1.16,5.23-1.8.03,0,.05-.02.08-.03.91-.31.52-1.76-.4-1.45h0Z"/>
          <path d="m103.14,260.35c-1.48.48-2.95.96-4.43,1.43-3.52,1.14-7.05,2.28-10.57,3.42-4.28,1.39-8.56,2.77-12.84,4.16l-11.06,3.58c-1.8.58-3.62,1.11-5.41,1.75-.03,0-.05.02-.08.02-.91.3-.52,1.74.4,1.45,1.48-.48,2.95-.96,4.43-1.43l10.57-3.42c4.28-1.39,8.56-2.77,12.84-4.16,3.69-1.19,7.37-2.39,11.06-3.58,1.8-.58,3.62-1.11,5.41-1.75.03,0,.05-.02.08-.02.91-.3.52-1.74-.4-1.45h0Z"/>
          <path d="m107.98,249.9c-1.53.48-3.06.96-4.59,1.45-3.67,1.16-7.35,2.31-11.02,3.47l-13.27,4.18c-3.84,1.21-7.69,2.42-11.53,3.63-1.87.59-3.76,1.12-5.61,1.77-.03,0-.05.02-.08.02-.92.29-.53,1.74.4,1.45,1.53-.48,3.06-.96,4.59-1.45,3.67-1.16,7.35-2.31,11.02-3.47,4.42-1.39,8.85-2.79,13.27-4.18,3.84-1.21,7.69-2.42,11.53-3.63,1.87-.59,3.76-1.12,5.61-1.77.03,0,.05-.02.08-.02.92-.29.53-1.74-.4-1.45h0Z"/>
          <path d="m112.73,239.45c-1.59.5-3.18,1-4.77,1.49-3.79,1.19-7.59,2.38-11.38,3.57-4.61,1.45-9.22,2.89-13.83,4.34-3.97,1.24-7.94,2.49-11.91,3.73-1.94.61-3.9,1.16-5.82,1.83-.03,0-.05.02-.08.03-.92.29-.53,1.74.4,1.45,1.59-.5,3.18-1,4.77-1.49l11.38-3.57c4.61-1.45,9.22-2.89,13.83-4.34,3.97-1.24,7.94-2.49,11.91-3.73,1.94-.61,3.9-1.16,5.82-1.83.03,0,.05-.02.08-.03.92-.29.53-1.74-.4-1.45h0Z"/>
          <path d="m109.44,232.89c-1.37.38-2.73.77-4.1,1.15-3.3.93-6.6,1.86-9.9,2.79-3.98,1.12-7.95,2.24-11.93,3.36-3.44.97-6.88,1.94-10.32,2.9-1.68.47-3.4.88-5.05,1.42-.02,0-.05.01-.07.02-.93.26-.53,1.71.4,1.45,1.37-.38,2.73-.77,4.1-1.15,3.3-.93,6.6-1.86,9.9-2.79l11.93-3.36,10.32-2.9c1.68-.47,3.4-.88,5.05-1.42.02,0,.05-.01.07-.02.93-.26.53-1.71-.4-1.45h0Z"/>
          <path d="m96.43,227.87c-2.87.88-5.73,1.77-8.6,2.65-4.59,1.42-9.18,2.83-13.77,4.25-1.05.32-2.1.65-3.15.97-.92.28-.53,1.73.4,1.45,2.87-.88,5.73-1.77,8.6-2.65,4.59-1.42,9.18-2.83,13.77-4.25,1.05-.32,2.1-.65,3.15-.97.92-.28.53-1.73-.4-1.45h0Z"/>
          <path d="m83.2,221.79c-2.65,1.16-5.31,2.32-7.96,3.47l-1.12.49c-.37.16-.46.71-.27,1.03.22.38.65.43,1.03.27,2.65-1.16,5.31-2.32,7.96-3.47l1.12-.49c.37-.16.46-.71.27-1.03-.22-.38-.65-.43-1.03-.27h0Z"/>
        </g>
        <path d="m76.71,218.35c1.47,1.55,3.29,2.81,5.07,3.98,2.38,1.56,4.85,2.96,7.37,4.28,5.67,2.98,11.57,5.61,17.63,7.67,2.68.91,5.43,1.74,8.25,2.13.8.11,1.61-.19,1.85-1.05.19-.7-.24-1.73-1.05-1.85-2.42-.34-4.79-1.01-7.11-1.75-2.78-.9-5.78-2.05-8.31-3.12-5.58-2.38-11.08-5.07-16.21-8.32-1.11-.7-2.2-1.43-3.24-2.22-.06-.04-.12-.09-.18-.13-.17-.13.21.16.05.04-.11-.09-.22-.17-.33-.26-.21-.17-.41-.34-.61-.51-.36-.32-.72-.65-1.05-1-1.33-1.4-3.45.72-2.12,2.12h0Z"/>
      </g>
      <g>
        <path d="m51.16,160.28c2.4,2.97,4.34,6.35,5.34,10.06.76,2.83.92,5.68.78,8.62-.23,4.76-1.51,9.92.66,14.43,1.88,3.91,5.97,6.4,10.23,6.62,4.54.24,9.01-1.77,12.58-4.42,5.49-4.07,9.61-9.76,12.76-15.76.5-.95.97-1.91,1.43-2.88.29-.61.17-1.35-.45-1.71-.54-.32-1.42-.17-1.71.45-2.92,6.21-6.69,12.22-11.97,16.69-1.79,1.52-3.9,2.9-6.14,3.87,0,0-.19.08-.07.03.13-.06-.09.04-.12.05-.11.04-.22.09-.32.13-.27.1-.53.2-.8.29-.48.16-.97.3-1.47.42s-.95.2-1.43.27c.31-.04-.05,0-.12.01-.12.01-.23.02-.35.03-.23.02-.46.03-.68.04-.46.02-.91,0-1.37-.02-.2-.01-.4-.04-.59-.06-.23-.03.22.04-.07-.01-.12-.02-.24-.04-.35-.06-.4-.08-.8-.17-1.19-.3-.18-.06-.35-.12-.53-.18-.09-.03-.18-.07-.28-.11-.13-.05.1.04.1.04-.06-.03-.13-.06-.19-.09-.77-.36-1.51-.83-2.11-1.34-.99-.83-1.7-1.61-2.28-2.61-.54-.93-.79-1.61-1.02-2.77-.03-.13-.05-.26-.07-.39-.01-.06-.06-.43-.03-.17-.03-.27-.06-.53-.08-.8-.04-.55-.05-1.1-.04-1.65.03-2.45.38-4.89.53-7.34.18-2.88.09-5.77-.5-8.6-.73-3.54-2.27-6.89-4.3-9.86-.63-.92-1.31-1.81-2.01-2.68-.42-.53-1.33-.44-1.77,0-.52.52-.43,1.24,0,1.77h0Z"/>
        <polygon class="cls-3" points="46.13 150.8 48.26 165.42 58.99 158.08 46.13 150.8"/>
      </g>
      <path class="cls-9" d="m203.33,62.29c1.21-3.76.27-8.16-4.91-9.81-1.13-.36-1.74-1.62-1.33-2.74,3-8.15,1.51-31.8-19.32-34.88-22.57-3.35-30.15,21.51-26.06,33.02.56,1.59-.41,3.27-2.07,3.59-6.2,1.21-6.22,4.74-4.7,7.58.72,1.34-.23,2.91-1.75,2.96-7.53.23-9.76,6.29-9.97,9.62-.44,7.03,15.8,10.09,32.75,11.16,9.14.58,31.23,4.7,36.39,5.02,16.65,1.05,13.08-10.86,3.84-17.27-2.64-1.83-3.86-5.2-2.87-8.26Z"/>
      <g>
        <path d="m185.09,87.74c22.2-14.77,35.83-34.06,45.76-54.02,2.93,9.39,4.62,20.23-1.57,27.88,3.72,1.02,5.34,5.86,3.99,9.47s-4.8,6.04-8.35,7.54c.93,4.2.48,8.84-1.94,12.39s-7.03,5.72-11.18,4.62c-1.62,2.4-6.19,7.32-9.01,8.03-3.93.98-12.46,1.69-16.94-16.02"/>
        <path d="m185.47,88.38c8.24-5.49,15.81-11.94,22.5-19.23,6.2-6.75,11.64-14.18,16.38-22.02,2.57-4.24,4.94-8.6,7.15-13.04l-1.37-.18c2.14,6.88,3.86,14.69,1.53,21.75-.64,1.95-1.63,3.79-2.91,5.39-.35.43-.25,1.08.33,1.25,3.19.92,4.46,4.83,3.7,7.8-.99,3.89-4.77,6.36-8.24,7.84-.31.13-.41.55-.34.85.89,4.11.47,8.75-2.13,12.19-2.28,3.02-6.32,4.86-10.07,3.9-.34-.09-.66.06-.85.34-.82,1.19-1.78,2.29-2.78,3.33-1.15,1.2-2.37,2.38-3.75,3.32-.84.57-1.67.97-2.66,1.17-.71.15-.99.19-1.72.23-1.51.08-2.92-.13-4.28-.75-1.92-.86-3.48-2.34-4.7-4.04-2.36-3.28-3.69-7.21-4.68-11.09-.24-.93-1.69-.54-1.45.4.95,3.74,2.23,7.52,4.37,10.77,1.32,2,3,3.84,5.14,4.97,1.58.83,3.34,1.26,5.12,1.24,1.59-.02,3.3-.28,4.7-1.05,1.68-.92,3.15-2.28,4.49-3.63,1.27-1.28,2.48-2.65,3.49-4.13l-.85.34c3.34.85,6.84-.16,9.51-2.26,2.89-2.28,4.46-5.74,4.89-9.34.25-2.11.09-4.26-.35-6.33l-.34.85c3.21-1.37,6.37-3.47,8.07-6.61,1.47-2.71,1.51-6.1-.09-8.77-.86-1.44-2.18-2.53-3.8-3l.33,1.25c5.02-6.27,5.05-14.53,3.49-22.05-.46-2.21-1.05-4.4-1.73-6.56-.18-.58-1.07-.78-1.37-.18-3.94,7.9-8.39,15.56-13.54,22.74-5.42,7.54-11.62,14.52-18.57,20.7-4.22,3.75-8.69,7.19-13.39,10.32-.8.53-.05,1.83.76,1.3h0Z"/>
      </g>
      <g>
        <path d="m151.31,69.8c-9.36-13.4-13.24-34.68-5.78-53.72-7.95,3.87-13.4,8.94-12.63,18.19-3.44-1.14-7.27,1.83-8.14,5.38s.53,7.25,2.5,10.28c-2.95,2.82-5.07,6.71-5.07,10.77,0,4.06,2.44,8.17,6.26,9.46,0,2.74-.03,5.84,1.9,7.76,8.37,8.37,15.9,1.91,18.13.08"/>
        <path d="m151.96,69.42c-3.85-5.54-6.48-11.87-8.01-18.44-1.68-7.18-2.06-14.7-1.02-22.01.62-4.35,1.74-8.61,3.33-12.71.26-.67-.58-1.1-1.1-.85-5.59,2.73-11.09,6.7-12.61,13.08-.45,1.88-.54,3.83-.39,5.75l.95-.72c-3.56-1.11-7.23,1.44-8.63,4.65-1.75,4.04-.1,8.64,2.14,12.12l.12-.91c-2.55,2.46-4.56,5.68-5.11,9.22-.51,3.25.25,6.57,2.31,9.17,1.13,1.42,2.62,2.49,4.33,3.09l-.55-.72c0,2.36-.05,4.95,1.18,7.06.66,1.14,1.73,2.03,2.76,2.83s2.05,1.42,3.21,1.91c3.6,1.51,7.47.92,10.79-1,1.2-.7,2.3-1.55,3.37-2.43.75-.61-.32-1.67-1.06-1.06-1.9,1.57-3.98,2.98-6.43,3.59-4.01,1-8.26-.84-10.89-3.94-1.58-1.86-1.43-4.68-1.43-6.96,0-.35-.24-.61-.55-.72-3.41-1.2-5.54-4.77-5.7-8.29-.18-4.09,1.97-7.92,4.84-10.69.23-.22.29-.63.12-.91-1.93-2.99-3.52-6.91-2.2-10.46,1.01-2.7,4.03-5.03,6.99-4.11.44.14.99-.24.95-.72-.24-3.02.16-6.05,1.63-8.73,1.38-2.53,3.53-4.53,5.9-6.12,1.5-1.01,3.1-1.89,4.73-2.68l-1.1-.85c-2.84,7.28-4.13,15.13-3.93,22.94.19,7.3,1.65,14.6,4.41,21.37,1.43,3.51,3.2,6.88,5.37,9.99.55.79,1.85.04,1.3-.76h0Z"/>
      </g>
      <path class="cls-11" d="m167.8,70.48c-8.85-3.19-16-6.46-30.6-.63-4.46,1.78-20.67,11.98-24.11,13.94-6.84-4.66-30.79-22.38-41.92-30.93l-10,11.98c4.13,5.62,32.61,42.51,48.28,47.43,5.93,1.86,17.03,2.53,44.61-18.98,4.13-3.22,8.22-6.7,10.94-11.18,2.15-3.55,3.33-7.94,2.79-11.62Z"/>
      <path class="cls-8" d="m130.39,73.01c18.76-12.19,42.82-5.88,56.95.45,20.34,9.12,31.63,19.23,30.01,31.19-.94,6.9-19.52,10.21-26.62,12.31l-69.62-15.26c-4.02-15.64,4.84-25.8,9.28-28.69Z"/>
      <g>
        <path class="cls-12" d="m132.11,71.28c-6.77,1.77-12.75,5.14-20.28,10.82-7.29-5.88-25.93-18.05-33.21-25.25-.15,1.25-2.78,3.71-4.19,4.59-1.14.71-.11,3.12-.63,3.82-1.74,2.34-2.61.49-4.8,2.67-.66.65.25,3.21-.17,4.04s-3.74.74-4.77,1.03c14.97,16.99,35.29,41.11,49.87,44.71s18.46-9.74,36.79-8.02c18.94,1.77,44.19,12.37,56.77,3.57,4.87-3.4,10.92-20.54,7.77-23.01-32.03,7.11-72.47-6.82-83.15-18.95Z"/>
        <path class="cls-12" d="m63.52,73.89c.13.06.24.15.35.23-.21-.15,0,0,.08.07.09.07.17.15.26.23.44.39.86.82,1.28,1.24,1.27,1.29,2.48,2.64,3.7,3.98,3.63,4,7.22,8.03,10.9,11.98,4.33,4.65,8.75,9.22,13.42,13.53,4.11,3.8,8.44,7.54,13.27,10.41,3.08,1.82,7.18,3.88,10.85,2.76.38-.12.76-.27,1.11-.46.86-.44.1-1.74-.76-1.3-.36.19-.42.21-.87.34-.17.05-.35.09-.53.12-.3.06-.1.03-.41.06-.39.03-.77.04-1.16.01-.5-.03-.62-.05-1.1-.15-1.98-.39-3.71-1.19-5.45-2.16-4.72-2.62-8.92-6.18-12.9-9.79-4.64-4.21-9.03-8.7-13.32-13.27-3.77-4.02-7.45-8.13-11.15-12.23-1.29-1.43-2.59-2.86-3.92-4.26-.8-.84-1.61-1.73-2.55-2.42-.11-.08-.22-.16-.34-.22-.86-.43-1.62.86-.76,1.3h0Z"/>
        <path d="m78.09,57.38c1.22,1.54,2.87,2.79,4.38,4.03,2.52,2.08,5.1,4.07,7.7,6.05,5.86,4.46,11.81,8.8,17.76,13.13,2.24,1.63,4.5,3.25,6.73,4.9.78.57,1.53-.73.76-1.3-4.68-3.46-9.42-6.84-14.11-10.29-5.73-4.21-11.48-8.43-17-12.92-1.76-1.43-3.73-2.88-5.15-4.67-.6-.75-1.66.31-1.06,1.06h0Z"/>
        <path d="m64.39,73.92c.33-.83.92-.71,1.68-.7.82,0,1.79-.09,2.54-.43.98-.45,1.36-1.42,1.27-2.45-.08-.89-.43-1.86.44-2.45.79-.54,1.81-.61,2.68-.95s1.69-.86,2.05-1.76c.18-.44.2-.9.13-1.36-.07-.52-.37-1.14-.27-1.66.13-.67,1.17-.9,1.7-1.13.8-.34,1.59-.86,1.81-1.76.09-.38.06-.77.04-1.15,0-.13-.05-.35.02-.47-.04.06.2-.05.34-.08.95-.17.55-1.62-.4-1.45s-1.43.79-1.46,1.7c-.03.72.18,1.23-.54,1.64s-1.52.57-2.16,1.08c-.83.66-.95,1.63-.74,2.63.1.46.33,1.02.13,1.48-.18.41-.66.67-1.05.83-.9.39-1.88.48-2.75.94-.92.48-1.54,1.29-1.61,2.34-.05.78.63,2.34-.36,2.71-.85.33-1.79.18-2.68.23-1.16.08-1.83.76-2.25,1.81-.36.9,1.09,1.29,1.45.4h0Z"/>
        <path class="cls-10" d="m164.23,66.97c-14.33-1.58-32.37,1.03-52.04,15.37"/>
      </g>
      <path class="cls-11" d="m195.56,39.2c1.2-11.56-7.04-22.04-18.63-23.53-11.6-1.49-22.22,6.55-23.99,18.04-3.6-.24-6.72,1.75-7.08,4.61-.39,3.01,2.41,5.86,6.24,6.35.69.09,1.36.09,2.01.03,2.04,5.31,6.16,9.68,11.47,12-.04.19-.08.39-.11.59l-1.37,10.66c-.43,3.31,1.91,6.34,5.23,6.77h0c3.31.43,6.34-1.91,6.77-5.23l1.37-10.66c.03-.2.04-.4.05-.6,5.73-.9,10.81-4.08,14.14-8.7.61.23,1.26.39,1.95.48,3.83.49,7.26-1.55,7.65-4.56.37-2.86-2.14-5.57-5.69-6.26Z"/>
      <g>
        <g>
          <path class="cls-10" d="m165.47,57.29l-1.25,9.68"/>
          <path class="cls-10" d="m165.58,56.7c-.04.19-.08.39-.11.59"/>
          <path class="cls-10" d="m154.11,44.7c2.04,5.31,6.16,9.68,11.47,12"/>
          <path class="cls-10" d="m152.1,44.67c.69.09,1.36.09,2.01.03"/>
          <path class="cls-10" d="m145.86,38.32c-.39,3.01,2.41,5.86,6.24,6.35"/>
          <path class="cls-10" d="m152.94,33.71c-3.6-.24-6.72,1.75-7.08,4.61"/>
          <path class="cls-10" d="m176.93,15.67c-11.6-1.49-22.22,6.55-23.99,18.04"/>
          <path class="cls-10" d="m195.56,39.2c1.2-11.56-7.04-22.04-18.63-23.53"/>
          <path class="cls-10" d="m201.25,45.46c.37-2.86-2.14-5.57-5.69-6.26"/>
          <path class="cls-10" d="m193.6,50.02c3.83.49,7.26-1.55,7.65-4.56"/>
          <path class="cls-10" d="m191.65,49.53c.61.23,1.26.39,1.95.48"/>
          <path class="cls-10" d="m177.51,58.23c5.73-.9,10.81-4.08,14.14-8.7"/>
          <path class="cls-10" d="m177.47,58.83c.03-.2.04-.4.05-.6"/>
          <path class="cls-10" d="m176.12,69.32l1.35-10.49"/>
        </g>
        <path class="cls-4" d="m187.35,73.46c-3.1-1.39-6.88-2.89-11.23-4.14"/>
        <path class="cls-10" d="m224.46,101.64c-10.77-12.22-16.77-19.06-37.12-28.18"/>
      </g>
      <g>
        <path class="cls-9" d="m196.8,38.09c-2.02,2.3-8.64,5.29-9.1-4.99-4.2,3.06-7.36.85-7.64-1.64-1.78,1.29-5.24,2.75-7.81-1.04-3.08,2.94-5.92,1.77-6.92-.55-.08,3.01-7.12,4.08-6.47-2.15-1.52,2.18-3.37,8.45-5.99,6.53-2.05-1.5,1.04-8.27,5.73-13.51,2.84-3.16,10.37-7.03,17.55-6.08,10.72.68,20.57,10.02,20.66,23.44Z"/>
        <g>
          <path class="cls-9" d="m158.39,27.51c-.73.42-1.26,1.04-1.59,1.81s-.44,1.52-.65,2.29-.5,1.58-1.08,2.14c-.08.08,0,.02-.09.08-.04.03-.2.11-.15.09.06-.03-.09.03-.12.04s-.06.01-.09.02c.1-.02.06,0-.01,0-.03,0-.19-.02-.11,0s-.08-.02-.1-.03c-.05-.02-.2-.08-.08-.02-.06-.03-.13-.06-.19-.1-.04-.03-.2-.13-.16-.1.04.03-.1-.08-.13-.11-.12-.11-.23-.22-.34-.34-.06-.06-.11-.13-.17-.2s0,0,.01.02c-.03-.03-.05-.07-.07-.1-.09-.13-.18-.25-.26-.39-.48-.77-1.71-.06-1.22.72.68,1.09,1.88,2.41,3.31,2.01.91-.26,1.52-1.12,1.89-1.94s.59-1.75.82-2.65c.11-.42.22-.8.41-1.14.21-.38.47-.63.87-.86.79-.45.08-1.68-.72-1.22h0Z"/>
          <path class="cls-11" d="m171.38,30.31c-.05.09-.11.17-.17.25.1-.14-.08.09-.11.12-.07.07-.14.14-.21.21-.04.03-.07.06-.11.1-.04.03-.03.02.04-.03-.03.02-.06.05-.1.07-.17.11-.34.21-.52.29-.03.01-.13.05.01,0-.06.02-.11.04-.17.06-.1.03-.19.06-.29.09s-.2.05-.3.07c-.06.01-.12.02-.18.03.03,0,.16-.02.02,0-.23.02-.45.03-.68.03-.1,0-.21-.01-.31-.02-.04,0-.08,0-.12-.01.19.02-.02,0-.05,0-.22-.04-.43-.09-.64-.16-.09-.03-.18-.06-.27-.09-.19-.07.14.07-.05-.02-.04-.02-.08-.03-.11-.05-.21-.1-.4-.22-.59-.35,0,0-.16-.12-.07-.05s-.07-.06-.07-.06c-.08-.07-.15-.14-.23-.21s-.14-.15-.21-.23c-.02-.02-.08-.11,0,0-.04-.06-.08-.12-.12-.18-.05-.08-.1-.16-.14-.25-.02-.04-.14-.32-.09-.17-.09-.23-.15-.47-.2-.71-.04-.22,0,.09,0-.05,0-.06-.01-.12-.01-.18,0-.13,0-.25,0-.38.01-.32.02-.42.1-.73.14-.62.35-1.22.47-1.84.17-.9.25-1.81.1-2.72-.07-.4-.56-.62-.92-.52-.42.12-.59.52-.52.92.23,1.38-.37,2.66-.61,3.98-.21,1.16-.1,2.4.55,3.41,1.15,1.79,3.48,2.51,5.5,2.05,1.11-.25,2.11-.91,2.69-1.9.5-.83-.8-1.59-1.3-.76h0Z"/>
          <path class="cls-11" d="m186.89,31.54c-.51.86-1.25,1.51-2.13,1.79s-1.66.23-2.51-.05c-.39-.13-.7-.28-1.09-.54-.19-.13-.21-.15-.41-.33-.07-.07-.14-.14-.21-.21-.02-.03-.2-.25-.13-.16-.12-.16-.22-.33-.31-.51-.05-.11.04.1,0-.01-.02-.04-.03-.09-.05-.13-.04-.11-.06-.22-.09-.33-.04-.17-.01.03-.02-.14,0-.09,0-.19,0-.28,0-.05,0-.09,0-.14.01-.12-.02.11,0-.02.03-.19.09-.37.14-.56.19-.71.46-1.4.62-2.11s.19-1.5.1-2.25c-.05-.4-.31-.75-.75-.75-.37,0-.8.35-.75.75.08.68.09,1.33-.08,2-.19.74-.45,1.45-.64,2.19-.27,1.04-.13,2.11.49,3.01,1.26,1.81,3.72,2.62,5.84,2.1,1.41-.35,2.54-1.31,3.27-2.54.49-.83-.8-1.59-1.3-.76h0Z"/>
          <path class="cls-11" d="m178.92,31.34c-.54.47-1.32.68-2.09.68-.81,0-1.65-.21-2.36-.58s-1.28-.86-1.62-1.58c-.12-.26-.2-.62-.19-.98s.11-.73.29-1.11c.64-1.4,1.15-2.85.8-4.41-.21-.94-1.66-.54-1.45.4.3,1.34-.38,2.53-.86,3.73-.4,1.02-.36,2.14.12,3.12.91,1.86,3.17,2.87,5.15,2.9,1.2.02,2.36-.33,3.28-1.12.31-.26.27-.79,0-1.06-.3-.3-.75-.26-1.06,0h0Z"/>
          <path class="cls-11" d="m164.89,30.68c-.63.76-1.41,1.38-2.3,1.61-.1.03-.2.05-.31.07-.02,0-.15.02-.03,0-.05,0-.1.01-.15.02-.2.02-.4.02-.59,0-.05,0-.1,0-.14-.01.13.02.01,0-.01,0-.09-.02-.18-.04-.28-.06s-.18-.05-.27-.08c-.04-.01-.09-.03-.13-.05.1.04,0,0-.04-.02-.16-.08-.31-.17-.46-.27s.01.02-.08-.06c-.08-.07-.16-.15-.23-.22-.03-.03-.18-.22-.09-.1-.05-.07-.1-.14-.14-.21-.04-.06-.07-.13-.11-.2-.01-.02-.06-.14-.03-.06.04.09-.03-.08-.03-.09-.03-.08-.05-.17-.07-.25-.01-.04-.02-.09-.03-.13.03.14,0,.03,0,0-.01-.17-.01-.46,0-.53.03-.24.17-.68.28-.99.37-1.1.31-2.17-.03-3.28-.28-.92-1.73-.53-1.45.4.17.55.28,1.07.24,1.65-.01.15,0,.05,0,.02,0,.06-.02.11-.03.17-.02.1-.04.19-.07.29-.05.18-.11.36-.17.54-.29.86-.4,1.78-.07,2.65.71,1.88,2.77,2.7,4.66,2.33,1.29-.25,2.41-1.07,3.23-2.06.26-.31.31-.75,0-1.06-.27-.27-.8-.31-1.06,0h0Z"/>
          <path class="cls-9" d="m186.62,31.28c.4,1.26.57,2.51.63,3.82.05,1.06.12,2.14.51,3.14.84,2.14,3.05,3.08,5.24,2.68,1.33-.24,2.54-1.01,3.43-2.01.61-.68-.39-1.68-1-1-1.18,1.32-3.14,2.19-4.86,1.42s-1.83-2.74-1.91-4.39c-.07-1.38-.26-2.72-.68-4.04-.28-.87-1.65-.5-1.37.38h0Z"/>
        </g>
      </g>
      <g>
        <path class="cls-11" d="m242.94,189.31c3.03-25.46,0-34.11-3.51-50.11-2.19-9.98-6.25-10.23-12.58-9.15h0c-6.33,1.08-12.52,4.8-9.97,16.46,0,0,5.16,26,4.87,38.18-.25,10.44.19,20.53,11.21,25.87,3.7,1.79,8.89-12.2,9.97-21.24Z"/>
        <rect class="cls-11" x="225.96" y="203.85" width="3.28" height="9.75" rx="1.64" ry="1.64" transform="translate(227.42 -100.09) rotate(47.44)"/>
        <rect class="cls-11" x="228.52" y="203.43" width="6" height="12.76" rx="3" ry="3" transform="translate(178.43 -98.09) rotate(38.03)"/>
        <path class="cls-11" d="m226.35,207.51l4.92-4.39c.83-.74.9-1.99.15-2.78h0c-.75-.79-1.78,0-2.61.74l-4.81,4.06c-.83.74-1.26,1.48-.51,2.27h0c.75.79,2.03.84,2.86.09Z"/>
        <path class="cls-11" d="m225.83,200.02c.93-2.35,2.72-9.72,2.72-9.72.72-2.95-.61-4.99-2.97-5.34-2.91-.44-3.87.77-3.8,1.92.22,3.43-.82,8.68-.82,11.51,0,2.1-.86,5.13.29,5.2s3.55-.97,4.58-3.56Z"/>
      </g>
      <g>
        <path class="cls-11" d="m221.39,103.22c7.3,10.82,12.72,22.88,16.39,35.39,3.62,12.37,5.58,25.31,5.25,38.21-.17,6.77-1,13.53-2.68,20.09-.24.94,1.21,1.33,1.45.4,3.11-12.12,3.4-24.89,1.91-37.27-1.58-13.22-5.16-26.18-10.51-38.37-2.94-6.7-6.43-13.15-10.52-19.21-.54-.8-1.84-.05-1.3.76h0Z"/>
        <path d="m217.03,151.25c.93,5.27,1.6,10.58,2.19,15.9.63,5.81,1.14,11.64,1.45,17.47.15,2.81.25,5.62.23,8.43,0,.97,1.5.97,1.5,0,.02-5.35-.32-10.71-.74-16.04-.47-5.9-1.1-11.79-1.88-17.65-.38-2.85-.8-5.69-1.3-8.52-.17-.95-1.61-.55-1.45.4h0Z"/>
        <path class="cls-11" d="m240.4,197.14c-1.02,3.28-2.06,6.57-3.58,9.65-.76,1.53-1.62,3.02-2.67,4.36-.99,1.27-2.24,2.74-3.72,3.44-.76.36-1.86.4-2.56-.16-.57-.46-.11-.95.34-1.31.66-.53-.23-1.69-.91-1.18-.52.39-1.95-.34-2.2-.86-.36-.75.4-2.26,1.08-2.62.74-.39.23-1.64-.58-1.37-.5.17-1.54.14-1.81-.44-.15-.32.39-.85.62-1.11.8-.9,2.11-1.89,1.92-3.23-.14-.95-1.59-.55-1.45.4-.02-.13-.03-.02-.07.05-.07.13-.16.26-.25.37-.25.33-.55.62-.83.93-.53.57-1.17,1.19-1.4,1.96-.62,2.01,2.14,3.04,3.67,2.52l-.58-1.37c-1.39.73-2.4,3.2-1.63,4.64.64,1.21,3.06,2.34,4.27,1.43l-.91-1.18c-.67.53-1.18,1.31-1.04,2.19.12.77.7,1.36,1.39,1.69,2.06.99,4.02-.03,5.57-1.43,3.06-2.77,5.01-6.52,6.51-10.31.86-2.19,1.57-4.43,2.27-6.68.29-.92-1.16-1.32-1.45-.4h0Z"/>
        <path d="m232.02,200.41c-1.44,3.42-4.4,6.16-7.89,7.38-.91.32-.52,1.77.4,1.45,4.04-1.41,7.28-4.49,8.94-8.43.16-.37-.17-.83-.52-.92-.43-.12-.76.15-.92.52h0Z"/>
        <path d="m234.7,204.68c-1.77,3.65-4.97,6.52-8.82,7.83-.91.31-.52,1.76.4,1.45,4.21-1.42,7.77-4.51,9.72-8.51.42-.86-.87-1.63-1.3-.76h0Z"/>
        <path d="m220.9,193.06c-.27,2.42-.54,4.84-.81,7.27-.1.94-.24,1.92.14,2.81.33.77,1.01,1.31,1.85,1.42,1.86.24,3.39-1.41,4.34-2.79,1.18-1.7,2.1-3.6,2.73-5.58.73-2.28,1.05-4.7.97-7.09-.03-.96-1.53-.97-1.5,0,.12,3.55-.7,7.09-2.42,10.2-.75,1.35-1.69,3.07-3.21,3.65-1.92.73-1.46-1.94-1.35-2.99.26-2.3.51-4.6.77-6.9.11-.96-1.39-.95-1.5,0h0Z"/>
      </g>
      <g>
        <rect class="cls-2" x="70.9" y="14.15" width="19.75" height="39.69" rx="2.04" ry="2.04" transform="translate(25.87 -34.31) rotate(28.38)"/>
        <rect class="cls-7" x="80.27" y="15.74" width="3.5" height="8.75" transform="translate(19.42 -36.57) rotate(28.38)"/>
        <g>
          <circle class="cls-12" cx="81.23" cy="24.14" r=".28"/>
          <circle class="cls-1" cx="81.6" cy="19.85" r="1.06"/>
          <circle class="cls-1" cx="80.41" cy="22.09" r="1.06"/>
          <circle class="cls-1" cx="83.03" cy="17.53" r="1.24"/>
        </g>
      </g>
      <g>
        <path class="cls-11" d="m63.42,65.48c-4.91-2.02-5.16-3.4-4.08-11.43.7-5.27,1.41-10.53,2.11-15.8,5.43-3.25,11.02-6.24,16.74-8.93,1.3.27,1.51,3.16,1.07,4.41-.48,1.37-5.44,2.98-8.54,4.79.14.9-.98,2.33-.06,2.36,1.02.03,12.66-4.26,13.44-3.52.66.62-.25,4-.94,4.59-2.53,2.17-4.85,2.29-9.2,3.14,4.69-.94,13.23-.04,13.32.25,1.15,3.62-.97,3.86-2.98,3.73.6.8.19,2.74-.58,3.38s-4.82,1.16-8.36,1.15c.34,1.92-1.8,6.83-3.51,9.35-3.11,4.59-7.03,3.1-8.44,2.52Z"/>
        <path d="m59.19,64.58c.81,1.47,2.02,2.75,3.14,3.99s2.29,2.43,3.47,3.6c.25.25.51.5.76.75.7.67,1.76-.39,1.06-1.06-2.01-1.93-3.97-3.93-5.75-6.07-.51-.62-.99-1.22-1.4-1.95-.47-.84-1.76-.09-1.3.76h0Z"/>
        <path d="m59.35,61.91c-.09-.43-.12-.85-.15-1.42-.04-.72-.04-1.44-.03-2.16.03-1.79.14-3.57.29-5.35.31-3.74.74-7.49,1.5-11.17.14-.65.28-1.31.46-1.95.07-.26.15-.52.24-.77.04-.11.08-.22.12-.33.07-.19-.02.01.09-.21.04-.08.08-.15.12-.22.03-.06.19-.24.02-.06.07-.07.36-.32.21-.2.36-.27.75-.51,1.14-.74,2.84-1.68,5.85-3.08,8.82-4.51,2.26-1.08,4.53-2.15,6.8-3.19l-.91-.12c.7.79,1.14,1.63.82,2.69-.25.82-.64,1.53-1.36,1.99-1.89,1.21-4.08,1.93-6.05,3.01-.85.47-2.02,1.03-2.35,2.04-.19.59-.01,1.24.52,1.58.71.47,1.62-.02,2.35-.21,1.24-.33,2.48-.63,3.73-.92,2.83-.66,5.67-1.28,8.48-2.02l-.92-.52c.32,1.14.38,2.4-.15,3.49-.56,1.18-1.63,1.8-2.84,2.17-2.29.69-4.64,1.05-6.97,1.56-.82.18-.64,1.5.2,1.47,4.31-.14,8.6-.05,12.91.11.26,0,.56,0,.78.11.11.06.11.07.14.17.08.26-.04.68-.24,1.02-.6,1.06-1.73,1.63-2.93,1.54-.57-.04-.93.67-.65,1.13.35.58.35,1.56-.28,1.94s-1.47.53-2.21.66c-1.78.32-3.62.41-5.42.35-.42-.01-.73.35-.75.75-.18,3.12-1.07,6.35-3.13,8.77-1.35,1.59-3.27,2.91-5.43,2.86-.97-.02-.97,1.48,0,1.5,2.54.06,4.89-1.43,6.49-3.3,2.33-2.74,3.36-6.29,3.57-9.83l-.75.75c2.22.07,4.56-.05,6.73-.59.86-.21,1.86-.53,2.4-1.28.67-.94.67-2.36.08-3.34l-.65,1.13c2.16.16,4.92-1.69,4.67-4.1-.13-1.32-1.26-1.7-2.42-1.75-2.02-.07-4.04-.14-6.06-.17-2.28-.03-4.57,0-6.85.07l.2,1.47c2.65-.58,5.55-.85,8.05-1.95,2.82-1.24,3.73-4.3,2.95-7.12-.11-.39-.53-.63-.92-.52-2.4.63-4.82,1.18-7.23,1.73-1.19.27-2.38.55-3.57.84-.58.14-1.16.29-1.74.45-.3.08-.61.14-.9.24-.15.05-.34,0-.08.06.29.07,0-.03.2.03-.04-.01,0-.02.03.04.06.13.02.1.03.1.01,0,.13-.19.17-.23.21-.24.5-.41.78-.57,1.09-.66,2.24-1.21,3.39-1.74,1.47-.68,3.47-1.29,4.5-2.63.63-.83,1.11-1.98,1.13-3.03.02-1.19-.62-2.2-1.38-3.06-.24-.27-.62-.25-.91-.12-5.09,2.32-10.25,4.64-15.13,7.41-.78.44-1.79.91-2.31,1.68-.58.84-.81,1.98-1.04,2.95-.87,3.66-1.3,7.44-1.66,11.18-.2,2.1-.35,4.2-.4,6.31-.04,1.47-.07,3,.22,4.45.19.95,1.64.55,1.45-.4h0Z"/>
      </g>
      <path d="m81.02,50.61l4.46-.43c.39-.04.77-.32.75-.75-.02-.37-.33-.79-.75-.75l-4.46.43c-.39.04-.77.32-.75.75.02.37.33.79.75.75h0Z"/>
      <path class="cls-11" d="m115.54,148.95c4.15-9.28,9.52-26.81,9.67-32.92.25-9.92,7.25-2.08,16.96-.06,21.99,4.57,48.28-2.45,41.1,16.3-2.66,6.94-3.5,29.87-3.69,37.52-.22,8.66-66.75-14.78-64.04-20.85Z"/>
      <path class="cls-11" d="m193.82,113.8c-2.38,2.39-4.26,5.24-5.87,8.19-1.82,3.34-3.29,6.87-4.54,10.46-2.24,6.47-3.97,13.41-4.15,20.28-.06,2.2-.09,4.93,1.14,6.87.51.81,1.81.06,1.3-.76-.39-.62-.57-1.29-.72-2.15-.17-.98-.22-2.12-.22-3.2,0-2.98.41-5.95.96-8.87,1.35-7.15,3.6-14.26,6.93-20.74,1.67-3.25,3.64-6.43,6.24-9.03.68-.69-.38-1.75-1.06-1.06h0Z"/>
      <path d="m117.6,143.67c1.72-3.17,2.87-6.64,3.77-10.12.74-2.89,1.33-5.84,1.62-8.81.59-6.05.31-12.16.72-18.23.2-2.96.52-5.95,1.28-8.83.6-2.28,1.5-4.63,3.2-6.33s3.93-3.01,6.11-3.92,4.38-1.36,6.66-1.19c5.73.44,9.73,5.15,12.19,9.94.45.88.87,1.77,1.25,2.68.17.41.66.75,1.1.45,5.63-3.79,12.5-5.92,19.29-5.9s13.75,2.61,18.19,8.14c3.02,3.77,4.62,8.47,5.41,13.19.16.95,1.6.55,1.45-.4-.74-4.45-2.21-8.86-4.83-12.58-2.16-3.06-5.02-5.57-8.38-7.22-6.51-3.21-14.19-3.24-21.1-1.38-3.81,1.03-7.5,2.65-10.77,4.86l1.1.45c-2.35-5.63-6.12-11.59-12.37-13.3-4.88-1.34-9.96.42-13.98,3.23-1.01.71-2.04,1.46-2.84,2.4s-1.43,1.98-1.93,3.09c-1.2,2.68-1.76,5.59-2.13,8.49-.81,6.37-.58,12.82-.89,19.22-.14,2.81-.48,5.58-1.05,8.33-.74,3.6-1.72,7.21-3.2,10.58-.35.81-.74,1.6-1.16,2.38-.46.85.83,1.61,1.3.76h0Z"/>
      <path d="m75.75,201c4.6-17.48,28.5-47.64,41.21-61.47,20.61,11.24,35.9,17.41,65.29,14.08,4.73,13.69,19.68,30.79,18.59,73.47-55.73,13.84-93.39-.39-125.09-26.08Z"/>
      <path d="m119.04,129.62s.38-24.28,5.02-33.33c1.53-2.98,6.45-9.66,10.65-11.13,5.18-7.93,9-15.28,13.68-18.46l3.26-1.19c.3-.11.56.26.35.5-3.81,4.26-9.76,17.15-10.25,19.33,7.6,2.87,10.45,7.84,13.4,13.34,3.85-3.02,17.08-8.36,28.17-4.56,2.21-6.27,8.3-17.6,13.03-21.12.23-.17.56-.11.73.13l1.85,2.57c.08.11.07.26-.02.36-5.11,5.59-9.35,21.3-9.35,21.3,6.87,3.3,8.44,10.69,9.57,17.19,0,0-12.76,15.92-14.64,31.05-20.41,3.22-49.25-3.75-65.44-15.98Z"/>
      <path class="cls-12" d="m245.23,178.65c2.5-14.63-.18-36.81-9.75-59.68-3.89-9.29-13.63-22.99-20.21-28.73-9.65,3.6-21.9,2.14-21.9,2.14.84,10.57,7.32,21.91,11.66,31.3,5.7,12.34,13.81,31.99,14.05,51.31,1.45-.57,5.34,2.12,6.79,1.99,2.38-.22,3.34-4.06,5.56-3.25,2.65.96,4.43,5.07,6.34,3.89,3.63-2.24,5.66-3.8,7.47,1.03Z"/>
      <g>
        <path d="m214.74,90.77c2.46,2.31,4.77,4.78,6.93,7.37,3.05,3.67,5.79,7.59,8.22,11.69,3.1,5.22,5.7,10.74,7.79,16.44,2.57,7.01,4.4,14.28,5.56,21.66,1.4,8.92,1.8,17.99,1.44,27.01-.05,1.24-.11,2.48-.19,3.72-.06.96,1.44.96,1.5,0,.58-9.33.38-18.72-.85-27.99-1.01-7.61-2.69-15.14-5.17-22.41-2.04-6-4.62-11.83-7.73-17.35-2.47-4.38-5.29-8.57-8.43-12.5-2.25-2.81-4.67-5.49-7.26-7.98-.25-.24-.49-.47-.74-.71-.7-.66-1.77.4-1.06,1.06h0Z"/>
        <path d="m132.34,72c1.82,2.8,4.97,4.75,7.77,6.41,4.53,2.67,9.4,4.79,14.33,6.62,6.01,2.24,12.2,4.03,18.47,5.38,6.69,1.44,13.51,2.4,20.35,2.67s13.4-.12,19.93-1.58c.76-.17,1.52-.36,2.28-.56.93-.25.54-1.69-.4-1.45-6.26,1.66-12.75,2.23-19.21,2.15-6.75-.09-13.48-.88-20.11-2.18-6.28-1.23-12.48-2.91-18.52-5.03-5.05-1.77-10.02-3.82-14.71-6.4-3.03-1.66-6.22-3.53-8.45-6.21-.16-.19-.06-.06-.2-.25-.08-.11-.16-.23-.24-.35-.52-.81-1.82-.06-1.3.76h0Z"/>
        <path d="m219.72,176.41c.32-.79,1.76-.39,2.31-.15,1.16.51,2.13,1.34,3.44,1.46,1.4.12,2.24-.76,3.06-1.75.63-.75,1.84-1.89,2.93-1.46.52.2.79.76,1.05,1.21.32.55.68,1.09,1.15,1.54.8.75,1.83,1.18,2.93,1.22s2.08-.27,3.01-.74c.47-.24.91-.52,1.38-.76.37-.19.91-.49,1.33-.33.5.18.7.54.9.98.25.55.62,1.04,1.12,1.39.63.45,1.71.75,2.32.11.67-.7-.39-1.76-1.06-1.06.15-.16.25,0,.03-.07-.06-.02-.22-.07-.32-.13-.45-.25-.66-.7-.85-1.15-.37-.85-1.39-1.6-2.34-1.6-1.11,0-2.1.71-3.04,1.21-.85.46-1.83.78-2.81.63-1.25-.2-1.94-1.13-2.54-2.15-.63-1.07-1.53-1.94-2.86-1.86-1.19.07-2.28.79-3.08,1.63-.42.44-.74,1-1.22,1.37-.56.43-1.22.29-1.83.05-1.26-.52-2.24-1.37-3.65-1.5-1.23-.12-2.32.35-2.8,1.52-.37.89,1.08,1.28,1.45.4h0Z"/>
      </g>
      <g>
        <path class="cls-9" d="m187.15,56.65c-1.33.67-1.69,4.78-.39,6.91,1.81,2.96-2.14,6.49-4.85,8.39-4.34,3.04-4.96,6.28-4.25,9.56.92.65,4.11,1.71,4.58,1.49.38-.18-1.74-6.87,5.73-9.72-1.92,6.19-2.22,9.54-1.31,10.2.56.4,3.21.52,3.75.65-1.5-3.04-2.13-4.15-1.41-6.67s2.45-4.6,4.03-6.69c.55-.72,1.09-1.49,1.27-2.37.28-1.39-.3-3.8-1.15-4.93s-2.45-3.7-2.73-5.09c-.76-3.78-.7-1.48-3.27-1.73Z"/>
        <path class="cls-9" d="m185.26,82.85c-.15-.49-.15-.88-.13-1.49.04-.78.19-1.55.41-2.31.64-2.21,1.89-4.19,3.5-5.82.68-.69-.38-1.75-1.06-1.06-1.78,1.82-3.17,4.03-3.88,6.48-.41,1.41-.73,3.15-.28,4.6.28.92,1.73.53,1.45-.4h0Z"/>
      </g>
      <path d="m184.96,57.89c-.49,1.23-.53,2.55-.17,3.82.3,1.04.84,1.98,1.31,2.95.39.82.39,1.29.11,2.14-.24.71-.62,1.38-1.12,1.94-.97,1.09-2.26,1.79-3.49,2.54-1.35.83-2.62,1.75-3.55,3.05-1.4,1.97-1.63,4.5-1.46,6.85.07.96,1.57.96,1.5,0-.14-2.03-.02-4.17,1.14-5.92.81-1.23,2.07-2.04,3.3-2.79s2.61-1.54,3.62-2.67,2.06-3.01,1.74-4.61c-.21-1.05-.88-1.98-1.3-2.94-.58-1.31-.71-2.6-.17-3.95.36-.9-1.09-1.29-1.45-.4h0Z"/>
      <path d="m190.34,55.1c-1.49,1.56-.72,3.84.19,5.49,1.02,1.86,2.43,3.49,2.77,5.67.65,4.18-3.72,6.71-4.95,10.29-.88,2.58.14,5.27,1.33,7.56.45.86,1.74.1,1.3-.76-.98-1.88-1.9-4.09-1.24-6.22.56-1.83,2.06-3.28,3.13-4.82s1.96-3.21,1.99-5.1c.04-2.35-1.17-4.5-2.43-6.39-.75-1.12-2.21-3.41-1.03-4.65.67-.7-.39-1.76-1.06-1.06h0Z"/>
      <g>
        <g>
          <path d="m164.66,18.46l-1.75-.84c7.21-3.71,18.97-3.45,25.49,3.31.3.31-1.66.16-1.66.16-5.34-3.74-15.21-4.89-22.08-2.63Z"/>
          <path d="m163.93,17.94c2.17-1.35,5.03-1.83,7.53-2.08,3.71-.36,7.57-.03,11.03,1.43,2.13.9,4.03,2.26,5.57,3.99.43.48,1.13-.23.71-.71-5.3-5.95-14.24-6.89-21.6-4.96-1.28.34-2.61.76-3.74,1.46-.54.34-.04,1.21.5.86h0Z"/>
          <path d="m164.31,19.08c5.67-1.65,11.72-2.03,17.36,0,2.26.82,4.35,2.01,6.27,3.46.51.39,1.01-.48.5-.86-3.28-2.48-7.11-4.14-11.19-4.73-3.17-.46-6.38-.32-9.52.27-1.24.23-2.47.54-3.68.89-.62.18-.35,1.15.27.96h0Z"/>
        </g>
        <g>
          <g>
            <path d="m194.94,27.33c4.99-.09,7.5-5.19,8.11-8.24.87-4.41-1.8-10.86-1.8-10.86,0,0-1.16,5.95-3.37,7.72s-5.78,2.75-6.28,4.11"/>
            <path d="m194.94,27.83c3.66-.11,6.35-2.78,7.75-5.99.64-1.48,1.03-3.03,1.03-4.65,0-1.95-.37-3.9-.88-5.77-.31-1.12-.66-2.24-1.1-3.32-.17-.4-.86-.54-.96,0-.43,2.16-1.08,4.46-2.25,6.34-.9,1.44-2.48,2.17-3.95,2.92-1.19.61-2.89,1.24-3.44,2.57-.25.59.72.85.96.27s1.03-.94,1.53-1.21c.77-.43,1.57-.81,2.35-1.23,1.44-.78,2.71-1.61,3.55-3.05,1.12-1.91,1.79-4.18,2.21-6.34h-.96c.97,2.34,1.67,4.91,1.89,7.43.28,3.11-.65,6.28-2.76,8.62-1.3,1.44-3,2.35-4.96,2.41-.64.02-.64,1.02,0,1h0Z"/>
          </g>
          <path class="cls-12" d="m194.47,18.44c1.49,1.96,2.98,3.91,4.48,5.87.22.28.43.57.65.85.25.32.65.49,1.03.27.32-.19.52-.7.27-1.03-1.49-1.96-2.98-3.91-4.48-5.87-.22-.28-.43-.57-.65-.85-.25-.32-.65-.49-1.03-.27-.32.19-.52.7-.27,1.03h0Z"/>
          <path class="cls-12" d="m197.35,16.48c1.26,1.24,2.53,2.48,3.79,3.72.18.17.35.35.53.52.28.27.78.3,1.06,0s.3-.77,0-1.06c-1.26-1.24-2.53-2.48-3.79-3.72-.18-.17-.35-.35-.53-.52-.28-.27-.78-.3-1.06,0s-.3.77,0,1.06h0Z"/>
          <path class="cls-12" d="m199.66,14.24c.68.34,1.36.68,2.04,1.02.1.05.19.1.29.14.35.18.83.1,1.03-.27.18-.34.11-.84-.27-1.03-.68-.34-1.36-.68-2.04-1.02-.1-.05-.19-.1-.29-.14-.35-.18-.83-.1-1.03.27-.18.34-.11.84.27,1.03h0Z"/>
          <path d="m194.94,28.08c3.75-.11,6.53-2.82,7.96-6.11.66-1.52,1.06-3.11,1.07-4.78,0-1.97-.38-3.94-.89-5.84-.31-1.12-.66-2.24-1.1-3.32-.25-.61-1.29-.81-1.45,0-.42,2.14-1.06,4.42-2.23,6.28-.88,1.39-2.44,2.11-3.86,2.83-1.27.65-2.97,1.3-3.56,2.72-.37.89,1.08,1.28,1.45.4.19-.46,1-.83,1.42-1.06.77-.43,1.57-.81,2.35-1.23,1.48-.8,2.78-1.67,3.64-3.14,1.13-1.93,1.81-4.22,2.24-6.4h-1.45c.96,2.32,1.66,4.87,1.88,7.37.27,3.04-.62,6.15-2.68,8.45-1.25,1.39-2.89,2.28-4.78,2.34-.96.03-.97,1.53,0,1.5h0Z"/>
          <g>
            <path class="cls-12" d="m195.84,26.41c2.39.85,3.66,2.26,4.22,3.79,0,0-2.03-.25-2.82-.26.6,1.26.58,4.22.15,4.28-.32.04-2.77-3.27-3.65-5.66l-2.87.3.7-5.03-4.41-2.23,2.83-.71-3.35-3.09s2.23.53,3.28.62c.33-1.46.76-3.28,2.04-4.06l.97,6.46,4.39-.45-1.74,3.58,3.46,1.15"/>
            <path d="m195.7,26.9c1.69.62,3.21,1.71,3.87,3.44l.48-.63c-.93-.11-1.88-.23-2.82-.26-.41-.01-.58.43-.43.75.36.79.41,1.77.39,2.62,0,.19,0,.39-.03.59,0,.05-.1.37-.08.41,0,.01.47.01.47-.05,0,.02,0,.03-.02-.02-.02-.07-.23-.24-.28-.29-1.27-1.43-2.37-3.25-3.04-5.03-.07-.19-.25-.39-.48-.37-.96.1-1.92.2-2.87.3l.48.63c.23-1.68.47-3.35.7-5.03.03-.21-.02-.46-.23-.56-1.47-.74-2.94-1.49-4.41-2.23l-.12.91c.94-.24,1.89-.47,2.83-.71.36-.09.5-.58.22-.84-1.12-1.03-2.24-2.06-3.35-3.09l-.49.84c1.12.27,2.27.53,3.42.63.21.02.44-.17.48-.37.3-1.31.6-2.96,1.81-3.76l-.73-.3c.32,2.15.65,4.31.97,6.46.03.2.28.39.48.37,1.46-.15,2.93-.3,4.39-.45l-.43-.75c-.58,1.19-1.16,2.39-1.74,3.58-.15.3-.02.63.3.73,1.15.38,2.31.77,3.46,1.15.61.2.87-.76.27-.96-1.15-.38-2.31-.77-3.46-1.15l.3.73c.58-1.19,1.16-2.39,1.74-3.58.15-.31-.02-.79-.43-.75-1.46.15-2.93.3-4.39.45l.48.37c-.32-2.15-.65-4.31-.97-6.46-.05-.31-.49-.46-.73-.3-1.46.96-1.9,2.75-2.27,4.36l.48-.37c-1.06-.1-2.12-.35-3.15-.6-.46-.11-.87.48-.49.84,1.12,1.03,2.24,2.06,3.35,3.09l.22-.84c-.94.24-1.89.47-2.83.71-.4.1-.51.72-.12.91,1.47.74,2.94,1.49,4.41,2.23l-.23-.56c-.23,1.68-.47,3.35-.7,5.03-.04.29.12.67.48.63.96-.1,1.92-.2,2.87-.3l-.48-.37c.5,1.32,1.21,2.56,2,3.73.33.5.68.98,1.06,1.45.21.26.45.59.75.76.92.49,1.1-.89,1.13-1.47.07-1.15-.05-2.41-.52-3.47l-.43.75c.94.03,1.88.15,2.82.26.31.04.59-.35.48-.63-.79-2.09-2.52-3.39-4.57-4.14-.61-.22-.87.74-.27.96h0Z"/>
          </g>
        </g>
        <g>
          <g>
            <path d="m155.79,21.54c-4.54-2.09-4.79-7.77-4.12-10.8.97-4.39,6.01-9.23,6.01-9.23,0,0-1.32,5.92-.02,8.42s4.19,4.84,4.1,6.29"/>
            <path d="m156.04,21.1c-3.09-1.47-4.22-4.8-4.14-8.03.08-3.43,1.9-6.33,4.03-8.9.66-.8,1.36-1.58,2.11-2.31l-.84-.49c-.49,2.19-.8,4.57-.52,6.8.2,1.64,1.02,2.89,2.02,4.17.57.74,1.19,1.44,1.75,2.19.35.47.83,1.06.82,1.68s.99.64,1,0c.03-1.39-1.33-2.68-2.14-3.68-1.03-1.26-2.16-2.56-2.43-4.21-.35-2.17,0-4.55.47-6.68.11-.48-.47-.84-.84-.49-2.06,1.99-3.97,4.38-5.23,6.96-1.42,2.91-1.65,6.51-.46,9.54.74,1.89,2.06,3.43,3.9,4.31.58.27,1.09-.59.5-.86h0Z"/>
          </g>
          <path class="cls-12" d="m158.96,12.33c-2.16,1.2-4.31,2.39-6.47,3.59-.31.17-.62.34-.92.51-.84.47-.09,1.76.76,1.3,2.16-1.2,4.31-2.39,6.47-3.59.31-.17.62-.34.92-.51.84-.47.09-1.76-.76-1.3h0Z"/>
          <path class="cls-12" d="m157.46,9.21c-1.65.63-3.31,1.25-4.96,1.88-.23.09-.47.18-.7.27-.38.14-.64.51-.52.92.1.36.54.67.92.52,1.65-.63,3.31-1.25,4.96-1.88.23-.09.47-.18.7-.27.38-.14.64-.51.52-.92-.1-.36-.54-.67-.92-.52h0Z"/>
          <path class="cls-12" d="m156.64,6.15c-.76.04-1.52.08-2.27.12l-.33.02c-.39.02-.77.33-.75.75.02.39.33.77.75.75.76-.04,1.52-.08,2.27-.12l.33-.02c.39-.02.77-.33.75-.75-.02-.39-.33-.77-.75-.75h0Z"/>
          <path d="m156.17,20.89c-3.01-1.43-4.1-4.67-4.02-7.81.08-3.36,1.87-6.21,3.96-8.73.66-.8,1.36-1.58,2.11-2.31l-1.25-.73c-.49,2.21-.81,4.61-.53,6.87.21,1.71,1.05,3.01,2.09,4.35.56.72,1.17,1.4,1.71,2.14.32.43.79,1,.78,1.56-.02.97,1.48.97,1.5,0,.03-1.47-1.35-2.8-2.21-3.85-1-1.23-2.11-2.49-2.36-4.1-.34-2.13,0-4.46.47-6.55.16-.72-.7-1.26-1.25-.73-2.08,2-4,4.42-5.27,7.01-1.44,2.96-1.7,6.64-.49,9.73.76,1.95,2.11,3.55,4.02,4.46.87.41,1.63-.88.76-1.3h0Z"/>
          <g>
            <path class="cls-12" d="m155.34,20.34c-2.53-.18-4.26.6-5.39,1.78,0,0,1.96.59,2.68.89-1.06.91-2.22,3.63-1.86,3.85.28.17,3.85-1.88,5.62-3.72l2.51,1.43,1.38-4.89,4.93-.27-2.31-1.79,4.31-1.49s-2.25-.41-3.26-.75c.28-1.47.62-3.31-.24-4.54l-3.48,5.53-3.84-2.18.16,3.98-3.63-.33"/>
            <path d="m155.34,19.84c-2.12-.13-4.22.37-5.74,1.92-.27.27-.14.73.22.84.9.27,1.81.54,2.68.89l-.22-.84c-.86.78-1.44,1.92-1.84,3-.21.57-.5,1.88.55,1.7.84-.14,1.73-.81,2.42-1.25,1.19-.75,2.35-1.6,3.33-2.6l-.61.08c.84.48,1.67.95,2.51,1.43.28.16.65.01.73-.3.46-1.63.92-3.26,1.38-4.89l-.48.37c1.64-.09,3.29-.18,4.93-.27.38-.02.72-.57.35-.85-.77-.6-1.54-1.19-2.31-1.79l-.22.84,4.31-1.49c.43-.15.52-.87,0-.96-1.09-.2-2.2-.41-3.26-.75l.35.62c.31-1.61.66-3.45-.29-4.92-.21-.32-.66-.33-.86,0-1.16,1.84-2.32,3.69-3.48,5.53l.68-.18c-1.28-.73-2.56-1.45-3.84-2.18-.32-.18-.77.04-.75.43.05,1.33.1,2.65.16,3.98l.5-.5c-1.21-.11-2.42-.22-3.63-.33-.64-.06-.64.94,0,1,1.21.11,2.42.22,3.63.33.26.02.51-.25.5-.5-.05-1.33-.1-2.65-.16-3.98l-.75.43c1.28.73,2.56,1.45,3.84,2.18.24.14.54.05.68-.18,1.16-1.84,2.32-3.69,3.48-5.53h-.86c.79,1.23.44,2.81.19,4.15-.05.28.08.52.35.62,1.05.35,2.16.55,3.26.75v-.96l-4.31,1.49c-.31.11-.54.59-.22.84.77.6,1.54,1.19,2.31,1.79l.35-.85c-1.64.09-3.29.18-4.93.27-.22.01-.42.15-.48.37-.46,1.63-.92,3.26-1.38,4.89l.73-.3c-.84-.48-1.67-.95-2.51-1.43-.19-.11-.45-.08-.61.08-1.36,1.39-3.1,2.62-4.87,3.44-.08.04-.24.07-.3.13-.01.01-.1.02-.11.03.01-.04.43.29.44.29.07-.04.23-.83.27-.94.34-.85.82-1.75,1.51-2.37.31-.28.1-.71-.22-.84-.87-.35-1.78-.62-2.68-.89l.22.84c1.34-1.37,3.17-1.75,5.03-1.63.64.04.64-.96,0-1h0Z"/>
          </g>
        </g>
      </g>
      <g>
        <path class="cls-1" d="m134.7,100.92c-1.92,9.35-2.98,18.87-3.15,28.42-.02.97,1.48.97,1.5,0,.17-9.41,1.2-18.8,3.09-28.02.19-.94-1.25-1.35-1.45-.4h0Z"/>
        <path class="cls-1" d="m174.21,114.67c-3.32,7.53-6.65,15.06-9.97,22.59-.39.88.91,1.64,1.3.76,3.32-7.53,6.65-15.06,9.97-22.59.39-.88-.91-1.64-1.3-.76h0Z"/>
        <path class="cls-1" d="m123.02,171.69c-5.58,10.66-10.55,21.63-14.89,32.85-1.23,3.18-2.41,6.38-3.53,9.59-.32.91,1.13,1.31,1.45.4,3.95-11.27,8.53-22.31,13.73-33.06,1.47-3.03,2.98-6.04,4.54-9.02.45-.85-.85-1.61-1.3-.76h0Z"/>
        <path class="cls-1" d="m160.01,180.9c2,11.82,4.41,23.55,5.03,35.56.2,3.91.24,7.83.14,11.74-.02.97,1.48.97,1.5,0,.17-6.76-.1-13.51-.83-20.23-.63-5.84-1.6-11.64-2.63-17.43-.59-3.34-1.2-6.68-1.77-10.03-.16-.95-1.61-.55-1.45.4h0Z"/>
      </g>
      <g>
        <path d="m162.64,36.6c.13-.75,1.01-1.56,2.08-1.03.68.33.76.76.62,1.51s-.84,1.25-1.59,1.12-1.25-.84-1.12-1.59Z"/>
        <path d="m176.84,39.09c.13-.75.54-1.25,1.3-1.17,1.01.11,1.54.9,1.41,1.64s-.84,1.25-1.59,1.12-1.25-.84-1.12-1.59Z"/>
        <path d="m170.31,36.85c0,1.2,0,2.41,0,3.61,0,.39.35.77.75.75s.75-.33.75-.75c0-1.2,0-2.41,0-3.61,0-.39-.35-.77-.75-.75s-.75.33-.75.75h0Z"/>
        <path d="m166.89,43.81c.72,1.61,2.32,2.71,4.06,2.9s3.56-.71,4.6-2.16c.24-.33.06-.84-.27-1.03-.38-.22-.79-.06-1.03.27-.72,1-2.03,1.57-3.26,1.42s-2.3-1.03-2.81-2.16c-.17-.37-.7-.46-1.03-.27-.38.22-.44.66-.27,1.03h0Z"/>
        <path d="m166.89,43.81c.72,1.61,2.32,2.71,4.06,2.9s3.56-.71,4.6-2.16c.24-.33.06-.84-.27-1.03-.38-.22-.79-.06-1.03.27-.72,1-2.03,1.57-3.26,1.42s-2.3-1.03-2.81-2.16c-.17-.37-.7-.46-1.03-.27-.38.22-.44.66-.27,1.03h0Z"/>
      </g>
    </g>
  </g>
</svg>