<?xml version="1.0" encoding="UTF-8"?>
<svg id="_レイヤー_2" data-name="レイヤー 2" xmlns="http://www.w3.org/2000/svg" xmlns:xlink="http://www.w3.org/1999/xlink" viewBox="0 0 195.44 383.34">
  <defs>
    <style>
      .cls-1 {
        stroke-linejoin: round;
        stroke-width: 1.42px;
      }

      .cls-1, .cls-2 {
        stroke: #000;
      }

      .cls-1, .cls-3 {
        stroke-linecap: round;
      }

      .cls-1, .cls-4 {
        fill: #fff069;
      }

      .cls-5, .cls-2 {
        fill: #fff;
      }

      .cls-2, .cls-3 {
        stroke-miterlimit: 10;
        stroke-width: 1.5px;
      }

      .cls-3 {
        stroke: #fff069;
      }

      .cls-3, .cls-6 {
        fill: none;
      }

      .cls-7 {
        fill: #0071bc;
      }

      .cls-8 {
        fill: #adadad;
      }

      .cls-9 {
        fill: #e74268;
      }

      .cls-10 {
        fill: url(#_新規パターン_3);
      }
    </style>
    <pattern id="_新規パターン_3" data-name="新規パターン 3" x="0" y="0" width="4.5" height="3" patternTransform="translate(-2300.08 -10.19)" patternUnits="userSpaceOnUse" viewBox="0 0 4.5 3">
      <g>
        <rect class="cls-6" width="4.5" height="3"/>
        <circle class="cls-8" cx="4.5" cy="3" r=".75"/>
        <circle class="cls-8" cx="0" cy="3" r=".75"/>
        <circle class="cls-8" cx="4.5" cy="0" r=".75"/>
        <circle class="cls-8" cx="2.25" cy="1.5" r=".75"/>
        <circle class="cls-8" cx="0" cy="0" r=".75"/>
      </g>
    </pattern>
  </defs>
  <g id="_レイヤー_23" data-name="レイヤー 23">
    <g>
      <path class="cls-1" d="m107,181.81c1.73-8.67-14.14-37.41-24.99-34.35-10.05,2.84-17.91,8.44-21.84,27.06-3.9,18.42,24.59,65.66,40.14,101.93,1.47,3.42,3.57,6.55,6.19,9.2,30.19,30.62,49.6,47.04,49.6,47.04-.02,7.03-20.82,25.39-11.85,34.47,1.86,1.88,4.49.91,4.83-1.65,1.43,1.59,3.84-.74,3.28-2.12.94,1.63,4.14-.04,4.55-2.95,2.84-1.12,22.9-16.76,31.49-23.07,2.46-1.81,2.97-5.33,1.14-7.92-5.02-7.13-32.16-29.92-57.26-64.12-2.43-3.31-4.33-7-5.59-10.92-7.47-23.2-11.25-43.99-19.71-72.61Z"/>
      <path class="cls-1" d="m128.88,203.31c8.59-4.73,16.44-19.97.55-30.51-34.75-23.04-42.58,15.11-47.31,21.73-12.16,16.98-44.6,159.83-44.6,159.83-5.49,4.39-32.84-.28-34.28,12.4-.3,2.62,2.11,4.07,4.32,2.73-.34,2.12,2.99,2.52,3.71,1.22-.68,1.75,2.62,3.2,5.15,1.7,2.66,1.51,27.42,7.32,37.72,10.06,2.95.78,6.01-1.03,6.89-4.08,3.99-13.9,40.39-127.66,67.86-175.06Z"/>
      <path class="cls-4" d="m103.44,63.6c-9.28-1.56-22.24-2.39-34.13,7.89-3.29,2.84-10.02,14.43-12.84,22.24-6.26-5.41-10.69-9.36-18.72-18.13,0,0-3.86-14.45-8.98-15.56-12.09-2.63-21.69,15.46-21.69,15.46,1.39,2.08,14.46,7.61,19.71,11,7.55,12.85,29.27,43.15,40.62,47.99,5.71,2.44,6.86-24.35,25.85-44.34,3.61-3.8,6.9-8.06,8.77-12.95,1.49-3.87,2.58-10.06,1.4-13.59Z"/>
      <path class="cls-4" d="m179.07,115.04c-.47-6.1-13.43-23.06-18.6-28.76-7.14-7.88-16.34-16.23-37.99-21.57-15.04-3.71-45.19-5.3-56.24,11.18-3.09,4.61-10.63,13.75-3.89,28.42l29.88,19.86,41.17-14.09c2.3-1.16,1.79-4.58,5.2-9.49,2.98,2.43,16.41,18.79,19.79,25.56,2.09,4.18,21.62,1,20.68-11.09Z"/>
      <g>
        <path class="cls-4" d="m192.57,166.09c-1.56-25.59-6.09-33.56-12.4-48.68-3.93-9.43-7.98-8.95-14.01-6.76h0c-6.03,2.2-11.46,6.96-6.87,17.97,0,0,9.72,24.66,11.61,36.7,1.62,10.32,3.85,20.16,15.65,23.45,3.96,1.1,6.57-13.59,6.02-22.68Z"/>
        <rect class="cls-4" x="179.3" y="183.06" width="3.28" height="9.75" rx="1.64" ry="1.64" transform="translate(150.28 -71.14) rotate(37.16)"/>
        <rect class="cls-4" x="182" y="181.92" width="6" height="12.76" rx="3" ry="3" transform="translate(108.97 -64.49) rotate(27.75)"/>
        <path class="cls-4" d="m179.5,186.96l4.06-5.19c.69-.88.53-2.11-.35-2.76h0c-.88-.65-1.75.32-2.44,1.19l-4.01,4.85c-.69.88-.98,1.68-.1,2.33h0c.88.65,2.15.46,2.83-.42Z"/>
        <path class="cls-4" d="m177.65,179.69c.5-2.47.94-10.05.94-10.05.18-3.03-1.49-4.8-3.87-4.73-2.94.09-3.67,1.45-3.4,2.57.83,3.34.74,8.69,1.25,11.47.38,2.06.07,5.2,1.22,5.06s3.32-1.59,3.87-4.32Z"/>
      </g>
      <g>
        <path class="cls-4" d="m108.09,63.11c11.32.08,22.42,2.97,32.33,8.43,8.16,4.5,15.38,10.56,21.58,17.5,2.44,2.74,4.73,5.61,6.85,8.61,1.92,2.71,3.58,5.6,5.14,8.52,4.84,9.08,8.75,18.69,11.8,28.52,3.53,11.37,5.96,23.28,5.78,35.23-.02,1.4-.08,2.79-.18,4.18-.07.96,1.43.96,1.5,0,.86-12.02-1.2-24.17-4.44-35.72-2.92-10.41-6.88-20.59-11.75-30.25-1.68-3.32-3.46-6.61-5.51-9.72-1.91-2.91-4.07-5.68-6.31-8.34-5.92-7.02-12.85-13.25-20.68-18.06-9.51-5.85-20.29-9.42-31.43-10.22-1.56-.11-3.12-.17-4.68-.18-.97,0-.97,1.49,0,1.5h0Z"/>
        <path d="m136.82,100.39c1.84.93,3.42,2.31,4.88,3.76,1.9,1.89,3.63,3.96,5.24,6.1,3.51,4.64,6.62,9.61,9.39,14.72,2.28,4.2,4.16,8.51,5.72,13.01,1.98,5.71,3.68,11.52,5.24,17.35,1.49,5.55,2.88,11.14,3.96,16.79.11.55.21,1.11.31,1.66.17.95,1.61.55,1.45-.4-.98-5.51-2.3-10.97-3.72-16.38-1.57-6.01-3.29-12-5.27-17.89-1.55-4.6-3.33-9.07-5.58-13.37-2.7-5.16-5.76-10.16-9.18-14.87-1.66-2.28-3.4-4.5-5.32-6.56-1.55-1.67-3.23-3.27-5.14-4.51-.39-.25-.8-.49-1.22-.7-.86-.43-1.62.86-.76,1.3h0Z"/>
        <path class="cls-4" d="m191.47,174.31c-.42,3.45-.88,6.91-1.85,10.25-.47,1.63-1.07,3.22-1.87,4.72-.74,1.39-1.68,3.04-3.02,3.95-.67.45-1.61.65-2.38.33-.69-.29-.52-.83-.11-1.3.63-.72-.4-1.77-1.06-1.06-.44.48-2.08-.12-2.31-.56-.41-.75.03-2.24.67-2.74.69-.54-.19-1.58-.91-1.18-.46.25-1.38.34-1.78-.1-.26-.29.14-.83.33-1.17.56-.94,1.8-2.27,1.4-3.46-.31-.91-1.76-.52-1.45.4.03.09.02.05,0,.15-.03.14-.09.26-.16.39-.2.39-.44.75-.67,1.11-.44.68-.97,1.43-1.04,2.26-.19,2.1,2.72,2.5,4.12,1.73l-.91-1.18c-1.22.95-1.69,3.49-.78,4.76.84,1.17,3.48,1.8,4.54.66l-1.06-1.06c-.56.64-1,1.45-.76,2.32.2.75.85,1.25,1.56,1.5,2.03.71,3.89-.48,5.12-2.02,2.64-3.3,3.98-7.39,4.8-11.48.47-2.38.78-4.79,1.07-7.19.12-.96-1.38-.95-1.5,0h0Z"/>
        <path d="m183.83,178.83c-.83,3.71-3.21,6.96-6.53,8.83-.84.48-.08,1.77.76,1.3,3.63-2.06,6.31-5.65,7.22-9.73.21-.94-1.24-1.34-1.45-.4h0Z"/>
        <path d="m187.19,182.74c-1.1,3.92-3.76,7.27-7.32,9.24-.84.47-.09,1.76.76,1.3,3.89-2.15,6.81-5.86,8.01-10.14.26-.93-1.19-1.33-1.45-.4h0Z"/>
        <path d="m171.54,173.58c.16,2.39.33,4.78.49,7.17.11,1.66.39,4.07,2.59,4.07,1.84,0,3.14-1.84,3.83-3.33.9-1.95,1.49-4.01,1.77-6.14.32-2.42.2-4.86-.32-7.25-.21-.94-1.65-.54-1.45.4.48,2.22.58,4.52.28,6.77s-.92,4.56-2.08,6.45c-.4.65-1.18,1.62-2.03,1.6-.96-.02-1-1.4-1.05-2.09-.18-2.55-.35-5.11-.52-7.66-.07-.96-1.57-.97-1.5,0h0Z"/>
      </g>
      <g>
        <path class="cls-4" d="m26.15,86.87c1.15,1.96,2.35,3.89,3.55,5.81,2.87,4.57,5.83,9.08,8.92,13.5,3.68,5.28,7.53,10.47,11.72,15.37,3.53,4.13,7.33,8.29,11.88,11.32,2.8,1.87,6.8,3.73,9.97,1.62.36-.24.7-.52,1-.82.69-.68-.37-1.74-1.06-1.06-.36.36-.43.41-.8.65-.14.09-.28.17-.43.25-.08.04-.16.08-.25.12.19-.08-.1.04-.15.05-.77.25-1.14.3-2,.24-.09,0-.17-.02-.26-.02-.17-.02.08.02-.12-.02-.21-.04-.42-.08-.63-.13-.41-.1-.81-.23-1.21-.38-.73-.28-1.65-.75-2.45-1.24-4.41-2.68-8.09-6.66-11.48-10.53-4.13-4.72-7.9-9.74-11.52-14.86-3.16-4.47-6.19-9.04-9.12-13.67-1.43-2.26-2.77-4.59-4.21-6.85-.02-.03-.04-.06-.06-.09-.49-.83-1.79-.08-1.3.76h0Z"/>
        <path class="cls-3" d="m98.58,62.44c-14.39,1.01-29.2-.48-42.1,31.29"/>
        <path d="m37.1,75.98c1.03,1.64,2.51,3.06,3.86,4.43,2.22,2.26,4.52,4.44,6.83,6.6,5.24,4.89,10.58,9.68,15.91,14.46,2.03,1.82,4.06,3.63,6.06,5.48.71.66,1.77-.4,1.06-1.06-4.18-3.88-8.47-7.63-12.7-11.45-5.15-4.65-10.32-9.31-15.24-14.22-.97-.97-1.94-1.95-2.86-2.97-.67-.74-1.17-1.29-1.63-2.02-.51-.82-1.81-.06-1.3.76h0Z"/>
      </g>
      <g>
        <path class="cls-9" d="m55.15,89.04c.27-1.99-.08-3.62,2.61-3.23-.87-3.63,2.25-11.81,6.66-11.18,2.73.39.89,7.77.89,7.77l-10.16,6.64Z"/>
        <path class="cls-9" d="m55.9,89.04c.09-.68.03-1.48.3-2.12.24-.58,1.04-.43,1.57-.36s.82-.53.72-.95c-.34-1.51.02-3.18.47-4.62.51-1.61,1.3-3.23,2.5-4.43.5-.5,1.1-.93,1.79-1.12.3-.08.62-.12.94-.08.27.03.32.04.48.2.28.29.41.91.46,1.41.07.72.04,1.45-.03,2.17-.09,1.03-.27,2.06-.52,3.06l.34-.45c-2.96,1.93-5.92,3.87-8.87,5.8l-1.29.84c-.8.53-.05,1.82.76,1.29,1.66-1.08,3.32-2.17,4.98-3.25l3.52-2.3c.55-.36,1.15-.68,1.66-1.09.6-.47.62-1.67.72-2.36.22-1.42.38-2.87.15-4.3-.21-1.33-.94-2.43-2.37-2.53-1.54-.11-2.95.74-3.97,1.83-1.32,1.41-2.19,3.22-2.75,5.05-.51,1.67-.82,3.55-.43,5.28l.72-.95c-1.06-.14-2.24-.02-2.82,1.01-.49.87-.42,2-.54,2.97s1.38.95,1.5,0Z"/>
      </g>
      <g>
        <path class="cls-9" d="m64.12,74.58c1.45.15,4.18,2.22,5.64,5.33,1.59,3.4,1.96,6.89,2.83,10.53s3.85,9.29-.02,13c-.66.64-1.47,1.11-2.34,1.43-5.23,1.89-10.72-1.54-13.03-6.27-1.76-3.59-2.53-6.01-2.06-9.56"/>
        <path d="m64.12,75.33c1.2.15,2.49,1.43,3.28,2.33,1.45,1.64,2.26,3.69,2.85,5.77.62,2.18.98,4.43,1.49,6.64.38,1.66.96,3.25,1.42,4.89s.84,3.35.5,5.01c-.39,1.94-1.77,3.49-3.62,4.17-3.52,1.29-7.31-.11-9.86-2.67-1.61-1.61-2.64-3.67-3.45-5.77s-1.12-4.34-.82-6.65c.12-.95-1.38-.95-1.5,0-.29,2.28-.05,4.51.73,6.67s1.74,4.21,3.18,5.94c2.61,3.14,6.75,5.12,10.86,4.3,2.13-.43,4.1-1.65,5.19-3.57.99-1.74,1.04-3.75.73-5.68s-.99-3.68-1.52-5.5c-.67-2.28-1-4.65-1.56-6.96-.64-2.63-1.56-5.23-3.31-7.34-1.13-1.37-2.74-2.82-4.58-3.05-.95-.12-.95,1.38,0,1.5h0Z"/>
      </g>
      <g>
        <path class="cls-9" d="m65.38,138.35c-14.91-6.83-21.31-15.96-28.41-32.12-2.37-1.86-4.33-2.39-5.99-4.19-2.02-2.21-3.81-7.28-2.77-9.28"/>
        <path class="cls-9" d="m65.76,137.7c-3.62-1.67-7.12-3.63-10.3-6.06-2.86-2.19-5.42-4.76-7.66-7.58-2.35-2.98-4.32-6.25-6.09-9.6-1.01-1.92-1.95-3.87-2.86-5.84-.23-.5-.46-1-.68-1.5-.24-.54-.42-1.19-.87-1.57-.96-.8-2.07-1.41-3.14-2.04s-2.01-1.25-2.79-2.16c-.67-.77-1.17-1.71-1.59-2.63-.46-1.02-.82-2.1-1.01-3.2-.13-.74-.25-1.68.09-2.38.42-.86-.87-1.63-1.29-.76-.78,1.6-.34,3.61.19,5.22.61,1.89,1.54,3.83,2.97,5.25.79.78,1.73,1.39,2.68,1.96.51.3,1.02.6,1.52.91.54.34,1.24.69,1.55,1.26.57,1.04.98,2.2,1.49,3.27s.98,2.06,1.49,3.08c3.47,6.94,7.77,13.51,13.81,18.48,3.56,2.93,7.55,5.27,11.74,7.19.87.4,1.63-.89.76-1.29h0Z"/>
      </g>
      <g>
        <path class="cls-9" d="m27.9,94.26c0-6.2,7.1-14.46,13-18.38,3.43-.68,5.63,3.16,6.08,5.1,11.92,5.88,31.82,35.75,32.85,46.89.74,8-6.81,13.98-14.46,10.48"/>
        <path d="m28.65,94.26c.04-4.06,2.7-7.95,5.2-10.94,1.46-1.75,3.08-3.37,4.82-4.83.4-.34.82-.67,1.24-.99.37-.28.8-.7,1.23-.88.75-.31,1.79.12,2.42.52,1.33.86,2.18,2.37,2.65,3.85.13.42.3.59.69.79.27.14.54.29.81.45.54.32,1.07.67,1.59,1.03,2.49,1.76,4.72,3.9,6.81,6.1,5.17,5.45,9.67,11.56,13.67,17.91,1.93,3.06,3.74,6.2,5.36,9.44,1.29,2.6,2.49,5.27,3.3,8.06s1.08,5.93-.38,8.77c-1.76,3.42-5.42,5.47-9.26,5.02-1.04-.12-2.08-.43-3.04-.86-.87-.39-1.64.9-.76,1.29,2.94,1.32,6.21,1.52,9.19.21,2.76-1.22,4.87-3.65,5.84-6.49,1.54-4.5-.2-9.18-1.99-13.31-2.18-5.04-4.97-9.83-7.96-14.43-3.26-5.01-6.83-9.84-10.78-14.33-3.15-3.58-6.62-7.2-10.75-9.65-.39-.23-.78-.45-1.19-.65l.34.45c-.42-1.73-1.47-3.46-2.87-4.56-.82-.65-1.77-1.07-2.82-1.15-.47-.04-1.07-.04-1.49.17-.53.26-1.04.72-1.51,1.08-3.89,2.96-7.4,6.73-9.76,11.03-1.16,2.12-2.08,4.48-2.1,6.92,0,.97,1.49.97,1.5,0h0Z"/>
      </g>
      <g>
        <path class="cls-9" d="m62.27,114.12c-.22,6.4-13.32,28.72-15.4,40-1.24,6.71,2.69,12.68,6.36,15.03-.49,6.05,1.85,8.01,6.4,9.43,6.73,2.1,11.67-.4,16.69-5.36,3.23-3.19,2.75-6.71,4.35-10.95,3.14-8.3,5.03-17.14,4.76-26.01s-2.79-17.76-7.86-25.04c-1.55-2.22-3.55-4.43-6.22-4.9-3.01-.54-5.9,1.27-8.43,2.99l-.64,4.81Z"/>
        <path d="m61.52,114.12c-.02.51-.06.75-.19,1.31-.13.61-.3,1.2-.49,1.79-.48,1.51-1.06,3-1.67,4.46-1.56,3.78-3.31,7.49-5,11.21-1.81,3.96-3.6,7.92-5.19,11.97-1.36,3.47-2.84,7.2-3.07,10.96-.32,5.34,2.42,11.04,6.94,13.98l-.37-.65c-.24,3.16.26,6.36,2.97,8.33,1.24.9,2.73,1.45,4.18,1.88,1.91.57,3.93.85,5.92.64,3.91-.4,7.25-2.54,10.11-5.13,1.58-1.44,2.89-2.95,3.66-4.96.71-1.84.97-3.81,1.5-5.7.65-2.33,1.62-4.56,2.33-6.88s1.35-4.85,1.84-7.31c.96-4.91,1.41-9.95,1.14-14.95-.25-4.64-1.1-9.27-2.61-13.67s-3.53-8.45-6.36-11.97c-1.3-1.62-2.93-3.09-4.96-3.68-2.18-.64-4.43-.06-6.41.93-1.07.53-2.09,1.18-3.07,1.86-.49.34-.54.68-.61,1.21l-.47,3.5-.12.87c-.05.4.38.75.75.75.45,0,.7-.35.75-.75.21-1.6.43-3.21.64-4.81l-.37.65c1.6-1.08,3.27-2.2,5.15-2.72s3.64-.2,5.21.88c1.46,1.01,2.58,2.48,3.57,3.93,1.09,1.61,2.06,3.3,2.91,5.05,3.5,7.2,4.86,15.32,4.52,23.28-.18,4.29-.85,8.54-1.88,12.7-.51,2.06-1.11,4.1-1.79,6.11-.63,1.86-1.38,3.66-1.85,5.57-.39,1.56-.66,3.17-1.23,4.68-.64,1.7-1.77,2.97-3.09,4.18-2.4,2.22-5.18,4.16-8.45,4.78-2.96.56-6.23-.11-8.91-1.45-.96-.48-1.87-1.11-2.47-2.01-.67-.99-.95-2.17-1.03-3.35-.06-.81-.03-1.62.03-2.43.02-.27-.16-.51-.37-.65-3.88-2.52-6.26-7.38-6.22-11.95.02-1.91.49-3.77,1.04-5.58s1.18-3.58,1.86-5.34c3-7.74,6.8-15.13,10.02-22.78.69-1.65,1.37-3.32,1.92-5.02.39-1.19.74-2.44.79-3.69.04-.96-1.46-.96-1.5,0Z"/>
      </g>
      <polygon class="cls-2" points="7.57 85.97 2.91 45.8 23.86 44.41 25.03 84.81 7.57 85.97"/>
      <polygon class="cls-9" points="9.9 83.54 6.36 52.36 21.82 51.34 22.78 82.68 9.9 83.54"/>
      <rect class="cls-2" x="13.95" y="27.65" width="2.75" height="53.5" transform="translate(4.83 -1.13) rotate(5.03)"/>
      <polygon class="cls-10" points="9.9 83.54 6.36 52.36 21.82 51.34 22.78 82.68 9.9 83.54"/>
      <rect class="cls-2" x="1.08" y="43.36" width="24.07" height="3.44" transform="translate(-2.91 .95) rotate(-3.74)"/>
      <g>
        <g>
          <path class="cls-4" d="m31.27,60.79c-.85-.07-4.47-11.73-6.44-11.21-2.4.64-2.45,5.33.69,10.74"/>
          <path d="m31.47,60.06s.29.16.19.1c-.08-.05-.02-.02.03.05-.03-.04-.06-.08-.08-.12-.12-.2-.24-.41-.34-.62-.32-.64-.6-1.31-.89-1.97-.73-1.7-1.43-3.41-2.24-5.06-.57-1.16-1.26-2.77-2.45-3.44-1.59-.89-2.98,1.18-3.22,2.5-.58,3.14.88,6.52,2.41,9.18.48.84,1.78.08,1.3-.76-1.29-2.26-2.55-5.02-2.3-7.7.06-.63.28-1.4.72-1.73.13-.1.27-.14.36-.19.22-.12-.09-.02.07-.01-.09,0-.17-.05-.07,0,.04.02.08.05.12.08-.16-.11-.02-.01.01.02.87.84,1.51,2.27,2.08,3.48.72,1.53,1.36,3.1,2.03,4.65.28.65.56,1.3.89,1.92.2.38.51.97.99,1.05.94.15,1.35-1.29.4-1.45h0Z"/>
        </g>
        <g>
          <path class="cls-4" d="m31.73,61.39c2.89,4.13,3.56,6.89,5.14,12.27"/>
          <path d="m31.08,61.76c1.21,1.74,2.25,3.58,3.02,5.56.82,2.13,1.41,4.34,2.05,6.53.27.92,1.72.53,1.45-.4-.66-2.24-1.26-4.5-2.11-6.68-.8-2.05-1.85-3.96-3.11-5.77-.55-.79-1.85-.04-1.3.76h0Z"/>
        </g>
      </g>
      <g>
        <path class="cls-4" d="m1.46,56.14c-.83.72-1.09,3.73.11,5.5.16.23.15.55.14.85,0,.29-.09.55-.16.8-.73,2.54-.3,6.2.91,7.76-.31,1.2.05,2.67.49,3.69.5,1.16,1.13,2.14,1.85,2.5.73.36,1.57.02,2.08-1.12.51-1.14.58-3.1.06-4.22.47-.41.68-1.61.61-2.65s-.36-1.96-.64-2.83c.67-1.23.76-3.42.42-5.13-.34-1.71-1.04-3.01-1.78-4.05-.82-1.16-2.65-2.56-3.74-1.42"/>
        <path d="m.93,55.61c-.83.79-.97,2.22-.92,3.3.03.72.15,1.45.41,2.12.13.34.38.66.5.99s0,.73-.1,1.07c-.4,1.47-.47,3.03-.28,4.53.16,1.31.47,2.72,1.27,3.8l-.08-.58c-.35,1.52.02,3.08.65,4.47.52,1.16,1.43,2.73,2.87,2.8s2.26-1.28,2.57-2.49c.34-1.35.31-2.83-.24-4.11l-.12.91c.67-.68.82-1.76.84-2.68.02-1.21-.31-2.39-.68-3.52l-.08.58c1.3-2.55.78-5.95-.44-8.42-.92-1.85-3.59-5.2-5.83-3.09-.7.66.36,1.72,1.06,1.06.92-.86,2.41,1.03,2.85,1.69.86,1.32,1.42,2.82,1.55,4.4.06.77.06,1.58-.08,2.34-.13.69-.59,1.35-.41,2.04.23.84.51,1.65.55,2.53.03.59.06,1.56-.39,2.02-.26.26-.25.6-.12.91.32.76.31,1.73.18,2.53-.09.55-.4,1.91-1.18,1.81s-1.3-1.38-1.56-1.96c-.42-.92-.74-2.01-.62-3.03.06-.49.13-.74-.15-1.17-.21-.31-.37-.66-.49-1.01-.29-.82-.44-1.69-.5-2.56-.06-.94-.03-1.89.16-2.82s.58-1.85.13-2.74-.74-1.67-.75-2.68c0-.61.02-1.55.49-1.99.7-.67-.36-1.73-1.06-1.06h0Z"/>
      </g>
      <path class="cls-4" d="m63.32,163.39c2.43-9.87,5.7-39.77,4.76-45.81-1.52-9.8,7.62-3.24,17.54-2.99,22.45.57,48.31-10.88,44.58,8.85-.77,4.07-2.06,12.92-1.11,21.27.75,6.63,4.91,6.99,11.27,16.76-37.73,29.8-78.63,8.36-77.05,1.91Z"/>
      <ellipse class="cls-7" cx="101.3" cy="29.96" rx="22.93" ry="21.38"/>
      <g>
        <path class="cls-7" d="m111.66,10.89C111.61,5.15,115.73.05,121.98,0c6.26-.05,11.37,4.55,11.42,10.29s-5.88,9.59-12.14,9.64-9.56-3.31-9.61-9.04Z"/>
        <g>
          <path class="cls-5" d="m119.57,12.68l9.3-1.55c.63-.11.36-1.07-.27-.96l-9.3,1.55c-.63.11-.36,1.07.27.96h0Z"/>
          <path class="cls-5" d="m125.36,4.72l-3.4,5.05c-.36.54.51,1.04.86.5l3.4-5.05c.36-.54-.51-1.04-.86-.5h0Z"/>
        </g>
      </g>
      <path class="cls-4" d="m123.19,31.62c-.41-11.62-10-20.85-21.69-20.73s-21.08,9.56-21.25,21.18c-3.61.26-6.42,2.65-6.39,5.55.03,3.04,3.19,5.47,7.06,5.43.7,0,1.36-.1,2-.25,2.76,4.98,7.43,8.74,13.02,10.3-.02.2-.03.4-.02.6l.11,10.74c.04,3.34,2.77,6.02,6.11,5.98,3.34-.04,6.02-2.77,5.98-6.11l-.11-10.74c0-.2-.02-.4-.04-.6,5.55-1.68,10.14-5.54,12.8-10.57.64.14,1.31.22,2,.21,3.87-.04,6.97-2.54,6.94-5.57-.03-2.89-2.9-5.23-6.51-5.41Z"/>
      <g>
        <path d="m90.24,33.59c.03-.76.78-1.68,1.92-1.31.72.24.85.65.83,1.4s-.66,1.35-1.42,1.33-1.35-.66-1.33-1.42Z"/>
        <path d="m104.65,34.1c.03-.76.36-1.31,1.12-1.34,1.02-.03,1.65.67,1.63,1.43s-.66,1.35-1.42,1.33-1.35-.66-1.33-1.42Z"/>
        <path d="m97.89,32.88c.16,1.19.33,2.39.49,3.58.02.17.2.37.34.45.16.09.4.13.58.08.43-.14.58-.5.52-.92-.16-1.19-.33-2.39-.49-3.58-.02-.17-.2-.37-.34-.45-.16-.09-.4-.13-.58-.08-.43.14-.58.5-.52.92h0Z"/>
        <path d="m95.39,40.07c.94,1.49,2.65,2.47,4.43,2.4s3.44-1.12,4.26-2.69c.45-.85-.85-1.61-1.3-.76-.58,1.1-1.71,1.9-2.97,1.95s-2.47-.6-3.14-1.66c-.51-.81-1.81-.06-1.3.76h0Z"/>
        <path d="m95.39,40.07c.94,1.49,2.65,2.47,4.43,2.4s3.44-1.12,4.26-2.69c.45-.85-.85-1.61-1.3-.76-.58,1.1-1.71,1.9-2.97,1.95s-2.47-.6-3.14-1.66c-.51-.81-1.81-.06-1.3.76h0Z"/>
      </g>
      <g>
        <path class="cls-7" d="m79.51,32.02c-1.89-1.31.79-9.79,2.51-12.14,1.89-2.6,5.04-5.95,6.99-5.11,1.94.84,1.19,5.85-.81,10.47s-6,8.65-8.69,6.78Z"/>
        <path class="cls-7" d="m105.52,11.3c6.02-2.43,13.87,4.53,15.74,8.63,1.52,3.32,5.48,11.82.09,13.55-2.77.89-6.12-1.48-7.22-4.61-.79-2.24-.49-8.71-6.72-11.34-4.55-1.92-3.71-5.48-1.88-6.22Z"/>
        <path class="cls-7" d="m87.18,16.22c0-3.49,7.12-6.31,12.73-6.52s9.27.88,9.27,3.62c0,2.93-3.38,5.3-8.94,6.05s-13.06-.41-13.06-3.15Z"/>
      </g>
      <path d="m136.03,103.29c-4.38,6.36-5.92,14.45-6.8,21.98-.47,4.03-.7,8.08-.78,12.13-.04,1.86-.04,3.73-.01,5.59,0,.42.01.85.02,1.27,0,.46-.05.99.06,1.43.16.65.55,1.31.85,1.9.91,1.81,1.98,3.55,3.12,5.22.89,1.3,1.84,2.76,3.1,3.74.75.59,1.82-.47,1.06-1.06-1.02-.79-1.8-1.93-2.54-2.97-1.03-1.46-1.99-2.98-2.85-4.55-.37-.67-.72-1.35-1.04-2.05s-.25-1.32-.27-2.05c-.03-1.8-.04-3.61-.02-5.42.1-7.84.67-15.81,2.68-23.42,1.02-3.86,2.44-7.67,4.72-10.98.55-.8-.75-1.55-1.3-.76h0Z"/>
      <path d="m63.82,162.84c1.04-4.22,1.7-8.56,2.36-12.85.76-4.91,1.46-9.84,1.94-14.79.16-1.62.36-3.29.27-4.92-.05-.96-1.56-.97-1.5,0,.08,1.37-.07,2.76-.19,4.12-.2,2.2-.46,4.4-.74,6.6-.65,5.07-1.41,10.13-2.31,15.16-.38,2.11-.76,4.21-1.28,6.29-.23.94,1.22,1.34,1.45.4h0Z"/>
      <path d="m76.76,194.54c-1.66-7.23-9.36-13.08-17.55-14.73-.97-7.49,1.02-16.26,4.17-22.93,15.2,8.28,33.62,22.01,72.03-2.66.29-.19.66-.08.82.23,6.87,14.2,10.24,23.96,2.13,38.67-18.97-10.12-46.85-15.76-58.81,5.92l-1.57-1.99c-.58-.74-1-1.59-1.21-2.5Z"/>
      <path d="m96.1,92.56c-2.62,6.68-2.99,14.19-1.14,21.11.53,1.99,1.25,3.91,2.13,5.77.41.87,1.71.11,1.29-.76-3.8-8.02-4.06-17.48-.84-25.73.35-.9-1.1-1.29-1.45-.4h0Z"/>
      <path d="m130.18,128.55c-16.08,4.03-43.35,5.7-61.52-2.91-.47-.22-.78-.7-.79-1.23-.09-2.38-.1-3.65-.12-6-9.74-9.18-5.62-30.82,6.74-33.38,3.83-8.66,6.97-16.41,10.39-21.18l3.15-.96c.28-.16.63.19.42.44-3.91,4.6-10.54,22.43-10.28,22.29,5.65,5.77,9.33,10.75,14.72,31.74,3.33-18.66,8.32-25.59,25.42-31.45,1.17-6.55,3.33-17.75,5.92-23.3.12-.26,2.69.67,2.64.8-2.87,7.75-4.79,22.88-4.79,22.88,6.58,7.71,11.87,20.5,11.94,32.59l-1.15,6.75c-.24,1.42-1.29,2.57-2.69,2.92Z"/>
      <path class="cls-5" d="m68.67,122.38c2.5,1.72,5.59,2.61,8.51,3.29,4.06.94,8.22,1.45,12.36,1.76,9.31.71,18.76.51,28.03-.65,4.33-.54,8.68-1.26,12.83-2.61.91-.3.52-1.74-.4-1.45-3.56,1.15-7.28,1.84-10.98,2.36-4.47.63-8.99.97-13.51,1.13-8.8.31-17.82.09-26.47-1.68-3.29-.67-6.81-1.53-9.62-3.46-.8-.55-1.55.75-.76,1.29h0Z"/>
      <path class="cls-5" d="m62.94,164.04c7.12,4.92,15.22,8.24,23.84,9.28,10.16,1.22,20.44-.82,29.89-4.52,7.06-2.76,13.75-6.4,20.11-10.51.81-.52.06-1.82-.76-1.29-10.23,6.6-21.45,12.17-33.53,14.31-8.85,1.57-17.97,1.01-26.44-2.07-4.39-1.6-8.52-3.84-12.36-6.49-.8-.55-1.55.75-.76,1.29h0Z"/>
      <g>
        <path class="cls-9" d="m101.02,183.83c-6.41-9.76,6.36-58.44,9.35-77.92,5.4-16.08,21.79-35.64,26.04-39.53,3.72,1.14,7.25,4.29,11.01,6.87,4.91-2.1,12.93,5.81,13.28,11.63,6.19,6.25,12.67,13.95,16.46,21.21,9.34,17.93,14.07,36.19,16.8,56.48.19,1.37,1.36,3.04.3,3.67-4.58,2.77-15.43,2.21-22.16,1.84-5.42-.3-4.32-1.36-4.53-2.81-3.45-23.86-11.34-40.82-25.42-56.53-2.55,23.44-2.77,37.2,2.43,47.26.54,1.05,8.04,8,4.14,19.41,4.35,2.87,3.06,11.81,1.5,13.37-6.6,5.85-39.66,5.11-49.2,3-2.68-2.48,0-7.97,0-7.97Z"/>
        <path d="m101.45,183.58c-1.23-1.89-1.48-4.37-1.62-6.56-.23-3.47-.02-6.97.3-10.43.81-8.96,2.44-17.86,4.13-26.69s3.53-17.31,5.19-25.99c.33-1.73.65-3.46.95-5.19.13-.76.26-1.53.38-2.29.17-1.11.7-2.22,1.12-3.26,2.02-5.02,4.7-9.77,7.59-14.34s5.82-8.64,9.04-12.72c2.25-2.86,4.58-5.69,7.12-8.3.36-.37.72-.73,1.1-1.07l-.49.13c3.88,1.22,7.05,4.12,10.32,6.43.33.23.6.52,1.01.43.29-.07.55-.2.85-.25.53-.09,1.09-.07,1.62.02,1.28.23,2.46.82,3.53,1.54,2.41,1.61,4.45,3.98,5.68,6.6.29.62.53,1.27.7,1.93.15.61.07,1.37.52,1.83,1.39,1.46,2.8,2.9,4.15,4.39,2.85,3.15,5.56,6.44,7.99,9.92,2.3,3.28,4.2,6.76,5.95,10.36,3.52,7.27,6.4,14.83,8.69,22.57,2.29,7.76,3.97,15.68,5.26,23.66.33,2.06.62,4.12.91,6.18.12.84.46,1.6.67,2.42.07.28.17.64-.05.87-.18.2-.53.31-.77.43-2.64,1.26-5.8,1.48-8.67,1.62-3.35.17-6.7.07-10.05-.1-1.59-.08-3.23-.08-4.8-.36-.45-.08-.97-.16-1.36-.43-.21-.15-.26-.23-.31-.46-.02-.12-.01-.45-.02-.67,0-.55-.11-1.09-.19-1.62-.29-1.92-.61-3.84-.98-5.75-.69-3.61-1.53-7.19-2.54-10.73-1.87-6.53-4.34-12.88-7.5-18.89-3.1-5.89-6.85-11.42-11.07-16.56-1.08-1.31-2.18-2.6-3.31-3.86-.32-.36-.81-.04-.85.35-.68,6.3-1.3,12.61-1.6,18.95-.22,4.84-.27,9.72.24,14.55.4,3.82,1.15,7.62,2.58,11.19.47,1.18.94,2.43,1.74,3.44s1.51,1.96,2.15,3.03c1.14,1.91,1.96,3.99,2.34,6.19.54,3.09.14,6.24-.86,9.2-.07.22.05.44.23.56,2.18,1.48,2.72,4.43,2.72,6.89,0,1.21-.13,2.43-.42,3.61-.18.71-.4,1.61-.95,2.14-1.09,1.04-2.79,1.57-4.19,1.99-2.15.65-4.38,1.05-6.6,1.37-5.52.78-11.12.99-16.69.99-5.22,0-10.46-.18-15.65-.71-1-.1-2-.22-2.99-.36-.75-.11-1.66-.15-2.38-.41-.15-.05-.32-.29-.47-.53-.17-.28-.3-.58-.38-.9-.18-.67-.18-1.37-.12-2.06.11-1.13.45-2.25.87-3.29.07-.16.14-.33.21-.49.28-.58-.58-1.08-.86-.5-.91,1.87-1.54,4.19-1.15,6.27.13.68.41,1.33.84,1.88.38.48.71.58,1.29.7.91.18,1.83.31,2.75.44,5.21.69,10.5.92,15.75.98,5.95.07,11.93-.1,17.83-.83,2.45-.3,4.91-.69,7.29-1.35,1.69-.46,3.47-1.05,4.89-2.1,1.6-1.18,1.9-3.58,2.05-5.43.22-2.63-.08-5.65-1.75-7.81-.4-.52-.87-.95-1.41-1.32l.23.56c1.61-4.78,1.5-9.87-.67-14.45-.67-1.4-1.5-2.71-2.45-3.95-.67-.88-1.11-1.43-1.59-2.46-3.6-7.7-3.8-16.62-3.52-24.96.23-7.01.92-14.01,1.68-20.98l-.85.35c7.69,8.59,14.01,18.31,18.29,29.04,2.21,5.55,3.9,11.3,5.18,17.14.7,3.21,1.28,6.45,1.76,9.7.16,1.09-.13,2.26,1.03,2.88.91.49,2.05.57,3.06.65,1.35.12,2.71.16,4.07.23,2.87.13,5.75.21,8.62.1,2.63-.1,5.33-.3,7.88-1.01.96-.27,2-.61,2.84-1.16,1.1-.72.59-2.04.25-3.05-.54-1.6-.61-3.37-.86-5.03s-.53-3.41-.82-5.12c-.59-3.42-1.25-6.83-2.02-10.22-1.5-6.67-3.37-13.25-5.69-19.68s-5-12.69-8.26-18.64-7.82-11.6-12.51-16.7c-1.16-1.26-2.34-2.49-3.54-3.71l.15.35c-.19-2.75-1.67-5.3-3.4-7.38s-4.05-4.02-6.7-4.8c-1.24-.37-2.6-.43-3.82.07l.39.05c-3.56-2.46-6.93-5.6-11.13-6.93-.17-.05-.36,0-.49.13-2.29,2.1-4.3,4.56-6.26,6.95-3.16,3.86-6.16,7.86-8.95,11.99-3.11,4.6-5.99,9.38-8.35,14.4-.55,1.16-1.06,2.34-1.54,3.53-.42,1.04-.95,2.15-1.12,3.26-.26,1.64-.55,3.27-.85,4.91-1.58,8.54-3.42,17.02-5.09,25.54-1.78,9.07-3.49,18.18-4.5,27.37-.4,3.69-.71,7.4-.64,11.11.05,2.56.2,5.3,1.18,7.7.18.45.39.88.65,1.28.35.54,1.22.04.86-.5Z"/>
      </g>
      <g>
        <path class="cls-9" d="m160.17,85.41c4.25,4.3,8.29,8.85,11.81,13.78s5.96,9.83,8.31,15.1c4.73,10.6,8.07,21.76,10.38,33.12.66,3.23,1.24,6.48,1.75,9.74.26,1.64.5,3.28.72,4.93.1.71.24,1.36.47,2.04.09.27.54,1.27.27,1.46-.78.55-.04,1.85.76,1.29,1.06-.75.84-1.9.48-2.99-.45-1.35-.59-2.72-.8-4.12-.44-3.03-.93-6.06-1.49-9.07-1.09-5.92-2.44-11.79-4.11-17.57s-3.62-11.33-5.93-16.8c-2.31-5.48-4.84-10.94-8.14-15.9-3.88-5.82-8.52-11.13-13.43-16.09-.68-.69-1.74.37-1.06,1.06h0Z"/>
        <path class="cls-9" d="m101.55,191.27c-1.59-1.53-.95-4.17-.31-6,.06-.18.13-.37.21-.55s.07-.16.1-.25c.12-.27.28-.53.19-.83-.07-.24-.26-.47-.38-.7-.15-.29-.23-.46-.3-.65-1-2.67-1.08-5.55-1.07-8.39.02-4.12.42-8.23.93-12.31.6-4.84,1.39-9.65,2.25-14.45,1.74-9.77,3.81-19.48,5.75-29.21.75-3.76,1.49-7.53,2.09-11.32.19-1.21.75-2.39,1.2-3.52.53-1.31,1.12-2.61,1.74-3.89,1.27-2.62,2.68-5.17,4.18-7.67,2.94-4.9,6.22-9.6,9.71-14.11,2.5-3.23,5.09-6.43,7.93-9.36.38-.39.76-.77,1.15-1.13.71-.65-.35-1.71-1.06-1.06-2.29,2.1-4.3,4.56-6.26,6.95-3.18,3.87-6.18,7.89-8.99,12.05-3.11,4.6-5.99,9.38-8.35,14.4-.55,1.18-1.08,2.38-1.57,3.59-.42,1.04-.95,2.15-1.12,3.26-.26,1.64-.55,3.27-.85,4.91-1.58,8.54-3.42,17.02-5.09,25.54-1.79,9.09-3.49,18.23-4.51,27.44-.4,3.69-.71,7.4-.64,11.11.05,2.58.21,5.35,1.19,7.77.19.47.4.92.68,1.34v-.76c-1.27,2.6-2.24,6.6.12,8.87.69.67,1.76-.39,1.06-1.06h0Z"/>
        <path d="m136.2,67.11c2.54.8,4.76,2.39,6.89,3.94,1.19.87,2.36,1.75,3.56,2.59.53.37.76.38,1.34.2.33-.1.67-.16,1.02-.17,1.64-.05,3.21.73,4.54,1.63,1.59,1.08,3,2.51,4.11,4.07s2.14,3.51,2.28,5.52c.07.96,1.57.96,1.5,0-.2-2.8-1.68-5.38-3.44-7.51s-4.15-4.13-6.87-4.92c-1.27-.37-2.68-.43-3.92.08l.58.08c-3.58-2.47-6.96-5.62-11.19-6.95-.92-.29-1.32,1.16-.4,1.45h0Z"/>
        <path d="m143.94,156.39c.25.49.68.91,1.02,1.34.5.64,1.16,1.59,1.64,2.4,1.5,2.54,2.41,5.4,2.49,8.35.07,2.3-.35,4.56-1.08,6.74-.11.33.08.67.34.85,1.82,1.23,2.43,3.62,2.56,5.69.12,1.9-.03,4.12-.81,5.83-.07.14-.14.28-.22.42-.11.2-.04.11-.15.21-.25.25-.3.27-.61.47-.53.35-1.18.67-1.72.9-1.63.68-3.37,1.1-5.09,1.45-4.55.92-9.21,1.25-13.84,1.43-4.99.19-10,.16-14.99-.09-4.09-.2-8.27-.43-12.27-1.31-.94-.21-1.34,1.24-.4,1.45,3.69.81,7.53,1.07,11.29,1.29,5.17.3,10.36.37,15.53.19,4.9-.16,9.84-.51,14.66-1.43,1.82-.35,3.65-.79,5.38-1.48,1.25-.5,2.82-1.16,3.53-2.38,1-1.72,1.23-4.02,1.22-5.96,0-2.39-.48-4.94-2.04-6.82-.37-.45-.81-.82-1.29-1.15l.34.85c1.25-3.71,1.53-7.7.48-11.49-.69-2.51-1.93-4.83-3.49-6.9-.28-.37-.57-.74-.86-1.1-.06-.07-.11-.14-.16-.21.1.13.01.02-.03-.04-.05-.08-.11-.16-.16-.24-.44-.86-1.74-.1-1.29.76h0Z"/>
        <path d="m193.88,165.6c-2.23,1.32-5.02,1.65-7.55,1.86-3.16.26-6.35.23-9.52.11-1.47-.05-2.94-.13-4.41-.21-1.18-.06-2.7-.06-3.72-.57-.19-.09-.13-.05-.23-.16,0,0-.06-.1-.05-.08-.02-.05-.03-.1-.04-.15-.03-.14,0,.14,0,0,0-.13,0-.26,0-.39,0-1.23-.28-2.46-.49-3.67-1.22-7.23-3.11-14.34-5.67-21.21-2.45-6.57-5.5-12.93-9.16-18.92s-7.58-11.13-12.19-16.01c-.56-.59-1.13-1.18-1.7-1.75-.68-.68-1.74.38-1.06,1.06,4.82,4.83,9.06,10.2,12.72,15.96s7.03,12.44,9.59,19.11,4.63,14.12,5.91,21.43c.23,1.3.56,2.65.56,3.98,0,.63.07,1.24.54,1.71.71.71,1.86.86,2.8.98,1.53.2,3.09.24,4.63.31,3.23.15,6.48.24,9.72.09,2.84-.14,5.83-.38,8.5-1.41.55-.21,1.09-.46,1.6-.76.83-.49.08-1.79-.76-1.29h0Z"/>
        <path d="m122.97,89.78c7.7-4.35,15.41-8.68,23.12-13.02.61-.34,1.21-.68,1.82-1.02.84-.47.09-1.77-.76-1.29-5.83,3.27-11.65,6.55-17.47,9.82-2.49,1.4-4.99,2.81-7.48,4.22-.84.47-.09,1.77.76,1.29h0Z"/>
        <path d="m119.57,94.04c10.95-3.15,22.26-5.07,33.48-6.92,2.98-.49,5.95-.97,8.93-1.44.95-.15.55-1.6-.4-1.45-11.26,1.79-22.55,3.58-33.67,6.13-2.93.67-5.85,1.4-8.75,2.23-.93.27-.53,1.71.4,1.45h0Z"/>
      </g>
    </g>
  </g>
</svg>