<?xml version="1.0" encoding="UTF-8"?>
<svg id="_レイヤー_2" data-name="レイヤー 2" xmlns="http://www.w3.org/2000/svg" viewBox="0 0 169.745663 378.5958792">
  <defs>
    <style>
      .cls-1, .cls-2, .cls-3, .cls-4, .cls-5, .cls-6, .cls-7 {
        fill: none;
      }

      .cls-2 {
        stroke: #5fbc9f;
      }

      .cls-2, .cls-3, .cls-4, .cls-5 {
        stroke-linejoin: round;
      }

      .cls-2, .cls-3, .cls-4, .cls-5, .cls-6, .cls-7 {
        stroke-linecap: round;
      }

      .cls-2, .cls-5, .cls-6, .cls-7 {
        stroke-width: 1.4995276px;
      }

      .cls-8 {
        fill: #4c5ca7;
      }

      .cls-3, .cls-4 {
        stroke-width: 1.4173229px;
      }

      .cls-3, .cls-7 {
        stroke: #eb6d51;
      }

      .cls-9 {
        fill: #fff;
      }

      .cls-10 {
        fill: #5fbc9f;
      }

      .cls-4, .cls-5 {
        stroke: #000;
      }

      .cls-6 {
        stroke: #4c5ca7;
      }

      .cls-6, .cls-7 {
        stroke-miterlimit: 10;
      }

      .cls-11 {
        fill: #eb6d51;
      }
    </style>
  </defs>
  <g id="_レイヤー_13" data-name="レイヤー 13">
    <g>
      <g>
        <path class="cls-11" d="M38.0748771,267.2724241l15.7893761,86.1861187c-4.1201172,5.6942749-31.7287598,8.4654541-29.7426758,21.0750122.4106445,2.6073608,3.1188965,3.3607178,4.8873291,1.4780273.2354736,2.1295776,3.5518799,1.6362915,3.8997803.1918335-.1850586,1.8695679,3.380127,2.3851318,5.4147949.2643433,2.9621582.7473145,28.3745117-.2403564,39.0355225-.3461914,3.0561523-.0303345,5.3664551-2.5974731,5.5533447-5.7666016.2128906-3.6080322-1.3347168-15.3682861-1.3347168-15.3682861l-6.3913592-88.2070245-37.1113958.4927685Z"/>
        <path class="cls-7" d="M38.3234816,376.4677591c2.9621582.7473145,28.3745117-.2403564,39.0355225-.3461914,3.0561523-.0303345,5.3664551-2.5974731,5.5533447-5.7666016.2128906-3.6080322-1.3347168-15.3682861-1.3347168-15.3682861l-6.3913592-88.2070245-37.1113958.4927685"/>
        <path class="cls-5" d="M38.0748771,267.2724241l15.7893761,86.1861187c-4.1201172,5.6942749-31.7287598,8.4654541-29.7426758,21.0750122.4106445,2.6073608,3.1188965,3.3607178,4.8873291,1.4780273.2354736,2.1295776,3.5518799,1.6362915,3.8997803.1918335-.1850586,1.8695679,3.380127,2.3851318,5.4147949.2643433"/>
        <g>
          <path class="cls-10" d="M89.0024212,174.9223253l37.7595215,44.1188354,38.2365723-12.4295654-53.2807617-65.213562-43.3513184,1.1959839h0c-8.2961426-1.1591187-17.939209-2.3572998-20.4238281-2.0505371,0,0-5.2219238,18.6950073-8.9016113,45.1598511-7.2727051,52.3103638-10.5385742,118.9994507-4.1625977,164.0859985,16.1462402-.5105591,46.6269531.1237183,55.8037109-2.2913208,0-15.4556885-10.8193359-100.293457-10.8193359-100.293457,0,0,.9848633-31.5314331,1.3640137-72.289917,2.6394043-.2402954,5.310791-.2522583,7.7756348.0076904Z"/>
          <path class="cls-2" d="M90.6823022,347.4980312c0-15.4557495-10.8193359-100.293457-10.8193359-100.293457,0,0,.9780273-31.3166504,1.3598633-71.8725586"/>
          <path class="cls-5" d="M47.9425561,140.5434927s-5.2219238,18.694956-8.9013672,45.1598608c-7.2617188,52.2306519-10.7568359,98.2692261-4.1914062,163.7886353,0,0,47.0161133.3261719,55.8325195-1.9939575"/>
          <path class="cls-11" d="M77.4489366,290.4178583c-2.6031467-.4369095-3.3291788-3.1524659-1.42878-4.9019081-2.127096-.2570167-1.6004448-3.5681926-.1525595-3.9015944-1.8713349.1663572-2.351007-3.404006-.2097939-5.4170604-.3891823-1.6108022-.8898526-25.6443633-.8898526-25.6443633,0,0-3.0904404-6.8881091,1.129017-11.8857593,2.9945612-3.5468469,12.1676374-2.4839248,12.1676374-2.4839248l36.3579321-20.1485226,16.3305187,20.9871781-43.4646835,18.3378498s-7.2505165,37.1710168-19.8394357,35.0581052Z"/>
          <path class="cls-3" d="M75.6578031,276.1972954c-.3891823-1.6108022-.8898526-25.6443633-.8898526-25.6443633,0,0-3.0904404-6.8881091,1.129017-11.8857593,2.9945612-3.5468469,12.1676374-2.4839248,12.1676374-2.4839248l36.3579321-20.1485226,16.3305187,20.9871781"/>
          <path class="cls-4" d="M140.7530557,237.0219034l-43.4646835,18.3378498s-7.2505165,37.1710168-19.8394357,35.0581052c-2.6031467-.4369095-3.3291788-3.1524659-1.42878-4.9019081-2.127096-.2570167-1.6004448-3.5681926-.1525595-3.9015944-1.8713349.1663572-2.351007-3.404006-.2097939-5.4170604"/>
          <path class="cls-10" d="M109.6109412,282.7696828l-13.5189812-55.7902961,47.4303113-25.2338377c8.3877049-4.2185973,18.607132-.8388677,22.8257292,7.5488374l.0000153.0000304c17.41049,28.2636498-56.7370745,73.4752661-56.7370745,73.4752661Z"/>
          <line class="cls-2" x1="88.9194886" y1="174.825309" x2="121.5182397" y2="213.4520106"/>
          <path class="cls-5" d="M127.8532762,210.0817557l-31.761306,16.8975987,13.519043,55.7902832s74.1474609-45.2116089,56.7370605-73.4752197v-.000061c-.4682617-.9307251-1.020752-1.7890625-1.6259766-2.5929565l.2763672-.0898438-54.3874512-66.5680639"/>
          <path class="cls-5" d="M78.6957789,175.3520961c3.9279134-1.7781695,10.8098616-.9750776,13.729298,0"/>
        </g>
      </g>
      <path class="cls-8" d="M57.9494711,43.0247171c5.8229028-7.2592074-3.675101-15.1284345-.1717445-26.0366848.3220644-1.0027982,1.921663-2.8646653,3.0891694-2.8646653h35.5103009c1.1450032,0,2.9093977,1.9244499,3.0660133,2.9822049,1.60562,10.8440805-4.5748835,15.2844895.9270068,24.9294317.3952446.692873.773944,2.539039-.9930661,2.7806691-10.42868,1.426072-30.5605431,1.8852406-39.9620084.7500172-1.6682567-.2014414-1.8870535-2.0156506-1.4656714-2.5409727Z"/>
      <ellipse class="cls-8" cx="78.4143205" cy="20.7256242" rx="21.7339964" ry="20.664341" transform="translate(-2.6576392 18.3393061) rotate(-13.1192468)"/>
      <g>
        <path class="cls-11" d="M46.9375045,143.9985708l-4.4474131-48.7125629s-16.5631016,3.5384113-16.5631016-14.8734663c0-11.8288011,14.9702848-23.8034175,23.464134-27.3208774,14.4368452-5.9785644,37.768064-8.1669312,60.905874-.2858862,9.9753818,3.3977474,19.9659223,8.8932684,23.4526921,27.6067637,3.5474834,19.0393449-15.113947,14.4913772-15.113947,14.4913772l-6.1191129,49.9536703"/>
        <line class="cls-1" x1="116.3476882" y1="96.284044" x2="113.9457869" y2="144.3799013"/>
        <line class="cls-1" x1="46.9375045" y1="143.9985708" x2="42.4900914" y2="95.2860078"/>
        <path class="cls-11" d="M11.1111583,113.4373054c-4.4324264-.4980298-10.0849711-6.0601647-9.0768777-10.4050681,2.5398533-10.9468192,21.9638688-38.4063137,39.3019112-45.7688667,8.0894202-3.4351505,7.9795621,1.9654738,8.4735522,8.090105.8746045,10.8435976-2.7649658,21.9816134-9.8738327,30.2164509s-17.5962608,13.4613502-28.4513712,14.1790661"/>
        <path class="cls-11" d="M140.9428916,105.1670936c-13.8617636-7.8943836-24.2234724-21.7009087-27.930588-37.2162906-.4772092-1.9972576-.832775-4.176198.0243038-6.0422586.927044-2.0183872,1.8597965-6.8205495,3.9909183-6.1947581,13.9306119,4.0906425,36.4669023,29.5466668,37.7268772,38.7799604,1.3054817,9.5667748-3.1057074,11.8040226-10.1884923,9.3143523"/>
        <path class="cls-11" d="M1.9722722,103.4106575c3.1870926-7.2398044,7.0664318-14.1823892,11.7375338-20.572468,4.1760517-5.7128488,9.001382-10.9622898,14.4021694-15.5382626,4.9764162-4.2164121,10.4582122-7.8347233,16.3000093-10.7371375,5.5718671-2.7683033,11.4728456-4.8591323,17.5387275-6.240628,5.9458958-1.354169,12.0384641-2.0106224,18.1359087-1.9857039,6.0456132.0247066,12.0789548.7185976,17.9742915,2.0568269,5.8912669,1.3373055,11.6437444,3.3010596,17.1134036,5.8669218,5.4983977,2.5793437,10.7228894,5.7482728,15.5402125,9.4475454,4.8606483,3.7325424,9.2998313,8.0265673,13.2063955,12.7475573,4.0308318,4.8711645,7.4737383,10.2287131,10.2618773,15.9024471.6896494,1.4034047,1.3415866,2.8261599,1.9482805,4.2674252.1582523.375945.494205.6365138.9222984.5236646.3528187-.0930061.6806438-.5493778.5236646-.9222984-2.5302992-6.0109922-5.7274035-11.721599-9.5910212-16.9787465-3.7141809-5.0538118-7.9890653-9.6854689-12.7438372-13.7763008-4.7115814-4.0536723-9.8677911-7.5905536-15.3495208-10.5200995-5.426237-2.8998894-11.1706718-5.2201387-17.0903922-6.8967987-5.9172247-1.6759531-12.0211426-2.7097108-18.1605658-3.0733892-6.1794126-.3660472-12.3930484-.0307097-18.4984752.9896329-6.2201914,1.0395222-12.2984088,2.8221153-18.1041041,5.2825467-6.021499,2.5518882-11.7186499,5.8451211-16.9498458,9.7691203-5.6246677,4.2191484-10.7094278,9.1228293-15.1773012,14.5502299-4.9411045,6.0022633-9.1403278,12.5903792-12.627473,19.5348501-.9168633,1.8258863-1.7838531,3.6762854-2.6070341,5.5462247-.385202.8750255.9064253,1.6390684,1.2947981.7568403h0Z"/>
        <path class="cls-10" d="M44.7509807,120.0495525s-4.5345616-12.9239132-2.4786589-23.6606639c2.2387342-11.6915706,10.0559297-45.4433181,10.0559297-45.4433181l3.2154537-.75s-1.4736836,7.7890631-2.2529494,22.992508c-.4384472,8.5540879,19.0794407,10.8058201,27.2541883,10.8058201,9.8008287,0,25.3960108-3.7125977,24.8363566-10.8239116-.9326679-11.8510582-4.3395038-24.7139341-4.3395038-24.7139341l3.7166668,1.140832s11.5623306,36.0152204,12.9372006,44.391694c1.0520025,6.4093848-2.0669433,25.4633073-2.0669433,25.4633073l-70.8777402.5976664Z"/>
        <path class="cls-2" d="M45.0941193,82.9553392c2.8862507-12.9885667,7.2341322-32.0097686,7.2341322-32.0097686l3.2154537-.75s-1.4736836,7.7890631-2.2529494,22.992508c-.4384472,8.5540879,19.0794407,10.8058201,27.2541883,10.8058201,9.8008287,0,25.3960108-3.7125977,24.8363566-10.8239116-.9326679-11.8510582-4.3395038-24.7139341-4.3395038-24.7139341l3.7166668,1.140832s5.7097604,18.1331596,9.451651,30.8156567"/>
        <path class="cls-5" d="M114.2101146,80.4125415c2.1912494,7.4268644,2.9777775,10.4824068,3.4855497,13.5760373,1.0520025,6.4093848-2.0669433,25.4633073-2.0669433,25.4633073l-70.8777402.5976664s-4.5345616-12.9239132-2.4786589-23.6606639c.8097116-4.2286397,1.1863925-6.0739786,2.8217975-13.4335494"/>
        <path class="cls-10" d="M46.0740201,144.857589l-.315895-4.7538013c-.1069208-1.609017,1.1662603-2.9744308,2.7788159-2.9801205l64.3223301-.226957c1.1185153-.0039466,2.0346564.8876313,2.0611023,2.0058409l-.3761446,5.9550378H46.0740201Z"/>
        <line class="cls-5" x1="107.0612113" y1="144.3799013" x2="49.9377987" y2="144.857589"/>
        <path class="cls-5" d="M46.8239378,144.857589l-.9466248-5.7880685c-.1660797-1.0154825.6155628-1.938641,1.6445302-1.9422717l65.815565-.2322257c.8411275-.0029679,1.5189599.6886243,1.4990912,1.5295223l-.1407125,5.9553557h-2.8934787"/>
      </g>
      <path class="cls-11" d="M100.0678509,21.9978868c-.2905273-11.6211548-9.7814941-20.9577637-21.4726562-20.9577637-11.690918,0-21.1821289,9.3366089-21.4726562,20.9577637-3.6086426.220459-6.4511719,2.5862427-6.4511719,5.4782715,0,3.0375977,3.1337891,5.5,7,5.5.6948242,0,1.3647461-.0823364,1.998291-.2304688,2.907959,5.3812866,8.0483398,9.3668213,14.1760254,10.7504883v6.1730957c0,1.6046753,1.3007812,2.9055176,2.9055176,2.9055176h6.2834473c1.6047363,0,2.9055176-1.3008423,2.9055176-2.9055176v-6.9440308c4.9707031-1.8097534,9.0944824-5.3789673,11.5808105-9.9795532.6335449.1481323,1.3034668.2304688,1.998291.2304688,3.8659668,0,7-2.4624634,7-5.5,0-2.8920898-2.8425293-5.2578125-6.451416-5.4782715Z"/>
      <path class="cls-6" d="M100.0678003,21.9979091c-.2902832-11.6210938-9.7814941-20.9578247-21.4724121-20.9578247-11.6911621,0-21.1821289,9.3366699-21.4726562,20.9578247"/>
      <g>
        <path d="M77.9085589,22.02004l-.1870867,3.3961833c-.0216162.3923988.3604116.7674497.75.75.4248364-.0190285.7268437-.3296431.75-.75l.1870867-3.3961833c.0216162-.3923988-.3604116-.7674497-.75-.75-.4248364.0190285-.7268437.3296431-.75.75h0Z"/>
        <path d="M81.8456775,28.3685926c-.4894947,1.0281328-1.4651322,1.8109728-2.6177296,1.9371113-1.1622895.1271992-2.376809-.4279164-3.0381354-1.39222-.2288054-.3336293-.6586206-.4840297-1.0261424-.2690637-.3306026.1933718-.4992502.6904991-.2690637,1.0261424.9535292,1.390375,2.6245368,2.2924796,4.3333414,2.1351413,1.6582286-.1526815,3.1913447-1.1644056,3.9129356-2.6800325.1740207-.3655125.1011553-.8096018-.2690637-1.0261424-.3269864-.1912539-.8512633-.0982517-1.0261424.2690637h0Z"/>
        <path d="M81.9839536,22.3431725c.0374115.6714261.1441012,1.3369478.4453772,1.9438424.1951269.3930663.5221945.7671466.9250767.9548901.4112741.1916542.8552031.2443757,1.2980185.1308766.6376891-.1634477,1.0618424-.7027622,1.2612635-1.3045035.2471174-.7456622.1368057-1.6080762-.1105254-2.3370196-.1257954-.3707488-.5214948-.6536292-.922589-.5238296-.3682101.1191579-.6588018.5247936-.5238296.922589.0516393.1521934.0968844.3062317.131888.4631486.0132076.0592083.0250802.1187216.035472.1784891.0107197.0616533.0043128.1960933-.0008196-.0253568.0009774.0421725.009785.0853015.0133939.1273465.0103845.1209842.0141119.2425669.010016.3639408-.0021386.063373-.0079194.1260853-.0132122.1892242-.0048147.0574355-.0353133.119369.0126915-.0907136-.0078682.0344334-.011566.0701107-.0185992.1048093-.0212283.1047313-.0564986.2027676-.0874417.3044797-.0266053.0874535.0887878-.1897993.0330269-.0781321-.009089.0182017-.0174637.0367143-.02678.0548063-.0270975.0526224-.0585361.1015533-.0905262.1512462-.0592244.0919981.1356445-.1593141.0306286-.0415877-.030166.0338172-.0657419.0619874-.0963103.0949772-.0712807.076927.0934791-.0848203.0895681-.0679187-.0026623.0115054-.0552163.037276-.0654209.0434248-.0860821.0518684-.1802707.0462496.0391451-.0072173-.0648383.0157997-.1272986.0371855-.1930734.0508486-.1182459.0245627.2373787-.0202852.1041408-.0146011-.0323257.0013791-.0642939.0041943-.0967103.0042342-.0266907.0000329-.0532002-.0017162-.0798406-.0027249-.1623364-.0061466.1795305.0329352.0924377.0138027-.0604806-.0132863-.1188388-.0276849-.1777492-.0470921-.1308992-.043123.1991039.0977857.073906.0309215-.0230914-.0123324-.0465312-.0238729-.0691695-.0370757-.029227-.0170453-.0561902-.0373713-.0849847-.0549127-.0714049-.0434991.105861.0863685.1017382.0795972-.0107753-.0176972-.0415571-.0344209-.0573559-.0486331-.0501781-.0451388-.0945994-.1218198-.1491244-.1580092-.0066844-.0044366.1258364.1728227.0725033.0935912-.0117531-.0174603-.0245292-.034263-.0363318-.0517095-.0272297-.040251-.0527166-.081645-.0766711-.1239251-.023245-.0410279-.044958-.082933-.0653688-.1254386-.011395-.02373-.0208883-.0608507-.0370793-.0812592.0266903.0336426.0772728.1918598.0288418.0636338-.0445922-.1180623-.0809794-.2391682-.1112899-.3616429-.0334114-.1350047-.0571162-.2714172-.0795034-.4085743-.0168778-.1034038.0239981.2048665.0066787.048875-.0049953-.0449917-.0101585-.0899203-.0144763-.134986-.0091425-.0954217-.0156971-.1910271-.0210297-.2867319-.0217884-.3910371-.3293595-.7688405-.75-.75-.3876541.0173631-.7733763.3304643-.75.75h0Z"/>
        <path d="M70.9353886,22.1718721c.1385193,1.1368342.4864096,2.4470681,1.6708997,2.8948453.3500178.1323185.7721598.132292,1.1283592.0223862.6252988-.1929369,1.05042-.7157478,1.2196392-1.3356185.2101694-.7698761.0685171-1.620959-.2317534-2.3463323-.0780847-.1886318-.1612059-.3408621-.3446699-.4482233-.1607602-.0940752-.3976876-.1339317-.5779191-.0756063-.1814773.0587285-.3565661.1711902-.4482233.3446699-.0875181.1656455-.1508393.3961761-.0756063.5779191.1162896.2809246.2081841.5716492.2590964.8718224.0038709.0228223.025033.1697915.0056172.0292972-.0191677-.1386994-.0014391.0028351.0006425.0267556.0053157.0610835.0088051.1222999.0102518.1835986.0013858.058722.0009844.1174827-.0016037.1761684-.001113.0252389-.0025996.0504951-.0045063.0756906-.0023043.0304488-.0227087.200238-.0026732.0463925.0198589-.1524894-.0098963.0365872-.018462.0733076-.0114126.048925-.0248104.0973748-.0403847.1451391-.0260317.0798361-.1047789.1917954.0122563-.0158537-.0272874.0484145-.0488794.0989611-.0784152.1463935-.0474185.0761507-.1365678.136447.0246789-.0232165-.0296592.029368-.055302.0622272-.0860449.0908544-.1316903.1226279.1215299-.0736989.0348494-.0244173-.0344211.0195699-.2006192.100899-.0524572.038658.1403069-.0589411.0178788-.0097996-.0197854.0011551-.0280159.0081485-.0563624.0152782-.0849.0213519-.0229738.0048896-.0464418.0076322-.069341.0126525.2834569-.0621444.1672475-.0193263.0845266-.0152948-.0332169.0016189-.1456692-.020454-.1711652-.0050354-.0042868.0025924.2174881.035504.1448615.0193545-.0119663-.0026609-.0243471-.0041938-.0363972-.0066001-.0368564-.00736-.0733276-.0167166-.1091773-.0280004-.0244906-.0077085-.0481308-.0180134-.0725344-.0257872.2595035.082665.1414063.0628892.071211.0256715-.0272903-.0144693-.053928-.0301242-.079942-.0467743-.0148479-.0095034-.029053-.0200662-.0439354-.029476-.0863575-.0546017.163055.1367834.0823728.0645544-.0522736-.0467968-.1040917-.0922466-.1513864-.1443376-.0251817-.0277355-.1175748-.1445801-.0219071-.0206756.0999456.129445-.0140421-.0241846-.0341899-.0554655-.0565406-.0877833-.1060046-.1800074-.1500832-.2746196-.0056097-.012041-.0374915-.0638071-.0331574-.0739709-.0085503.0200512.0810332.2017838.0248899.0534981-.0212302-.0560733-.0408638-.1127489-.0591542-.1698469-.0447771-.139783-.0812995-.2821649-.1118014-.4257117-.0153891-.0724238-.0291838-.1451849-.0416483-.2181677-.006545-.038323-.0126555-.0767129-.0184702-.1151527-.0292564-.1934083.0169069.1409698-.0024572-.0179523-.0251028-.2060196-.0670463-.3777064-.2196699-.5303301-.1300817-.1300817-.3435047-.2280378-.5303301-.2196699-.1939678.0086878-.3951419.0724031-.5303301.2196699-.1250683.1362427-.2431327.33777-.2196699.5303301h0Z"/>
      </g>
      <path class="cls-8" d="M65.043085,18.3057304c-.8743207,2.1835178-5.1395468,4.86164-7.3718395,3.6704528-.2601116-5.5746621,1.9706091-11.0314212,4.418222-13.8694231,0,0,8.5675179-8.265404,14.6812344-6.0665126-5.5046647,2.2617249-8.7323164,8.7850568-11.7276168,16.265483Z"/>
      <path class="cls-8" d="M91.110735,15.6556379c1.702756,4.4867105,5.8488211,6.7612666,8.1324945,6.6140222.9144662-.5800994.4801921-4.3963974.1137923-5.4154723C95.8656097,7.1434564,89.1812722.1288741,78.5953881,1.0400844c8.5556445,3.7594882,9.7600339,7.3553876,12.5153468,14.6155536Z"/>
      <path class="cls-8" d="M78.0328019,3.0792959c2.505426.015431,4.9807852.6876604,6.8627395,2.4062748,1.3548234,1.2372347,2.3063613,2.8526239,3.006066,4.5200536.715092,1.7040983,1.3398412,3.4278577,2.1513707,5.0941008,1.1385366,2.3376582,2.5098706,4.8378915,4.552978,6.5115616.9647265.7902835,2.0912321,1.3888993,3.3620059,1.4299906,1.4598371.0472048,2.7526524-.710071,3.8051188-1.6550625.7195719-.6460912-.3437343-1.7037416-1.0603261-1.0603261-.8168167.7334057-1.8435485,1.3437385-2.9836648,1.2002292-1.0035222-.1263159-1.8772715-.7590895-2.5861097-1.442015-1.862459-1.7943738-3.1018119-4.2224257-4.175526-6.5425139-1.478931-3.1956834-2.3432926-6.7091551-5.0577695-9.1585556-2.1741822-1.9618671-4.9853365-2.7854559-7.8768828-2.8032651-.9650939-.005944-.966179,1.4935768,0,1.4995276h0Z"/>
      <path class="cls-8" d="M77.282941,1.5797683c-4.3345682.51697-6.9944954,4.2426623-8.8615131,7.8439561-1.8250531,3.5203482-3.0049031,7.7608143-5.9765908,10.539113-.8253398.771629-1.8040745,1.3575751-2.9103654,1.6153256-1.3675934.3186304-2.7614857.0594935-4.0661919-.3941636-.9133648-.3175845-1.3059077,1.1304963-.3986338,1.445963,2.2686571.7888309,4.7212867.8333106,6.8410604-.4024929,1.9505191-1.1371301,3.3358156-3.0582955,4.4187972-4.9933599,1.9707322-3.5212916,3.1358687-7.4797875,5.6421928-10.699852,1.3241974-1.7012967,3.0991523-3.1911326,5.3112446-3.4549617.9464533-.1128804.9578244-1.6137642,0-1.4995276h0Z"/>
      <path class="cls-8" d="M74.520938,3.0795321c.1856972,2.4648277-.2310604,5.0102338-.8740608,7.3836807-.3264693,1.2050654-.7278034,2.4030765-1.3146653,3.5084857-.4256522.8017558-.9506563,1.6387498-1.7782423,2.0716244-.8554293.4474381-.0982246,1.7420456.7568403,1.2947981,2.1302711-1.1142529,3.0847123-4.0199127,3.6956079-6.1650356.7346427-2.5796534,1.2166501-5.404338,1.0140478-8.0935532-.0720476-.9563144-1.572165-.9641437-1.4995276,0h0Z"/>
      <path class="cls-8" d="M76.8854028,2.4186676c1.9919975,4.4221215,3.1137543,9.6957729,0,13.8936342-.5753093.7756131.7256354,1.5241667,1.2947981.7568403,3.4445112-4.6437769,2.1978893-10.528125,0-15.4073147-.3957023-.8784366-1.6883606-.1168463-1.2947981.7568403h0Z"/>
      <path class="cls-8" d="M80.2429288,2.8596952c1.3809271,1.6158488,2.1553998,3.8866893,2.7026339,5.9028437.6736603,2.4819417,1.0370244,5.2332386.2376791,7.7288662-.2950501.9211728,1.1522686,1.315574,1.445963.3986338.8782319-2.7419186.5029483-5.7974679-.2376791-8.5261338-.6201166-2.2846727-1.5294268-4.7405032-3.0882708-6.5645359-.627925-.7347469-1.6843437.3301514-1.0603261,1.0603261h0Z"/>
      <path class="cls-8" d="M56.8419696,34.0500316c-.0335474-.0329335-.0617143-.0704918-.0934859-.1049674-.0478249-.051895.1086543.1742219-.0011411-.0038995-.0405894-.0658482-.0869955-.1282103-.1273983-.1943622-.0497066-.081385-.0944987-.1651907-.1390549-.2494411-.0215113-.0406754-.0402587-.0827317-.060662-.1239492-.0886717-.1791295.0196266.0611402-.0240009-.0504244-.1013846-.2592614-.1822562-.5249537-.240025-.797388-.0742144-.3499906-.0877835-.4881516-.0943856-.9133969-.0062054-.3996897.0228492-.8025795.0898495-1.1878586.2022188-1.1628405.6425743-2.2692941,1.1934267-3.3083313,1.0034526-1.8927476,2.3390448-3.5828248,3.7726982-5.1655446.6465351-.7137596-.4107879-1.7774012-1.0603261-1.0603261-2.2640088,2.4994128-4.5699683,5.4461336-5.2911597,8.8245512-.3288786,1.5406304-.3011768,3.2238352.4701398,4.6348224.1465722.2681279.3263979.5460445.5451993.7608419.6892244.6766117,1.7503882-.3828921,1.0603261-1.0603261h0Z"/>
      <path class="cls-8" d="M100.7725895,35.1103577c.5866335-.5758982.9286443-1.4658598,1.08489-2.2519135.440922-2.2182272-.2936772-4.4774337-1.3172591-6.4300865-1.0634321-2.0286736-2.5111569-3.8465981-4.0434514-5.5382155-.649259-.7167667-1.7071376.3462613-1.0603261,1.0603261,2.0766622,2.2925866,4.1854914,4.969638,4.8821882,8.0566715.0954553.4229585.154383.8284509.170036,1.2622891.0070569.1955894.0059467.3915924-.0046375.5870386-.0095003.1754315-.0313564.3692146-.0360456.3988299-.0464013.2930515-.1166929.5828119-.2137973.8632606-.0209139.0604019-.0437686.1200122-.0664681.1797463-.0629566.1656712.0396691-.0811095-.0135657.0315027-.0448735.0949247-.0902922.1893478-.141184.28125-.0480233.0867221-.1015654.1692474-.1535538.2535061-.0428355.0694245-.2231226.2877069-.0275586.0481825-.0383165.0469295-.0762741.0947598-.119593.137286-.6897661.6771435.3708063,1.7372279,1.0603261,1.0603261h0Z"/>
      <path class="cls-11" d="M79.120097,67.2050401c1.7233887-3.7270508-1.8955078-6.6804199-4.8300781-3.7460327-3.1513672.6201782-5.4387207,3.9000854-6.4624023,6.5036621-1.4182129,3.6077271-2.9753418,10.4321899-4.3413086,17.3695068l-50.878418,5.2792358c-18.5270996,2.2282104-15.3859863,37.8636475,11.3046875,28.9295654l35.8369141-12.6832886h0l14.7561035-5.0527344c3.2272949-.7980957,5.550293-4.0309448,5.6088867-7.8063354l.28125-25.5817261c0-1.4729614.375-3.0776978-1.2756348-3.211853Z"/>
      <path class="cls-5" d="M9.6078393,94.2462001c-14.3665155,2.059549-12.3859863,36.2288208,14.3049316,27.2947998l35.8374023-12.6835327,14.7553711-5.0524902c3.2275391-.7980957,5.550293-4.0309448,5.6088867-7.8063354l.28125-25.5817871c0-1.4729004-.4303393-2.7344143-1.2756233-3.2117796,1.685592-4.1203365-1.8955193-6.6804323-4.8298455-3.7461061-3.1516113.6201782-5.4389648,3.9000854-6.4624023,6.5036621-1.4189453,3.6091309-2.9765625,10.4372559-4.3430176,17.3771973l-47.8478388,6.1334944"/>
      <path d="M73.297633,78.0227984c.492485-2.3416131.9569459-4.7151196,1.8226099-6.9541071.3545314-.9169741.7974744-1.8855582,1.4853988-2.6036974.5621038-.5867924,1.1445342-.8221483,1.8908203-.6191663.9323978.2536025,1.3302317-1.192578.3986338-1.445963-2.4609112-.6693424-4.0530891,1.5348016-4.9117244,3.5184744-1.0630031,2.455816-1.5835432,5.0995035-2.1317014,7.7058256-.1980092.9414723,1.2471478,1.3439384,1.445963.3986338h0Z"/>
      <path d="M69.0893431,76.3874061c.5979331-2.6792776,1.4974787-5.3238939,2.685092-7.7993307.9572066-1.9951818,2.2379575-4.5702316,4.3869261-5.5086465.8822299-.3852535.1197538-1.6775906-.7568403-1.2947981-2.3271661,1.0162306-3.7941303,3.7233602-4.8485119,5.8885803-1.2840066,2.6367654-2.2737629,5.4528673-2.9126289,8.3155612-.2098018.9401005,1.2355259,1.3415814,1.445963.3986338h0Z"/>
      <path class="cls-11" d="M151.1835735,94.2461778l-53.8769531-6.9063721c-1.3662109-6.9398804-2.9238281-13.7680664-4.3427734-17.3771362-1.0236816-2.6035767-3.3110352-5.8834839-6.4624023-6.5037231-2.9345703-2.9343262-6.6291504-.1694946-4.9057617,3.5575562-1.6506348.1340942-1.1999512,1.9274292-1.1999512,3.4003906l.2810059,25.5817261c.0588379,3.7753906,2.3818359,7.0082397,5.6091309,7.8063354l14.7553711,5.0524902,35.8374023,12.6835327c26.690918,8.934021,28.5808105-24.3930664,14.3049316-27.2947998Z"/>
      <path class="cls-5" d="M151.1835993,94.2461894c13.1233014,1.3560637,12.3859863,36.2288208-14.3049316,27.2947998l-35.8374023-12.6835327-14.7553711-5.0524902c-3.2275391-.7980957-5.550293-4.0309448-5.6088867-7.8063354l-.28125-25.5817871c0-1.4729004.0409197-2.4602213.7496874-3.4003621-1.3408037-4.4015842,2.4214551-6.4918498,5.3557813-3.5575237,3.1516113.6201782,5.4389648,3.9000854,6.4624023,6.5036621,1.4189453,3.6091309,2.9765625,10.4372559,4.3430176,17.3771973l46.4351463,5.9524043"/>
      <path d="M88.9397686,77.6241538c-.5582864-2.642542-1.2178862-5.3172873-2.3940928-7.7616326-.9515443-1.9774613-2.6550216-4.2461235-5.1493331-3.5690104-.930245.252527-.5354292,1.6995265.3986338,1.445963.7526139-.2043068,1.3882935.0529227,1.982105.6385813.7570029.7466093,1.2611498,1.7406683,1.6865761,2.7026218.9738647,2.2020562,1.5341536,4.5944164,2.0301479,6.9421107.1993602.9436335,1.6451754.5443001,1.445963-.3986338h0Z"/>
      <path d="M93.1480584,75.9887616c-.6388545-2.8626425-1.6286465-5.6788453-2.9126289-8.3155612-1.0545786-2.1656247-2.5210965-4.8722409-4.8485119-5.8885803-.8757507-.3824242-1.6400236.9091282-.7568403,1.2947981,2.1487352.9383131,3.4299045,3.5138502,4.3869261,5.5086465,1.1876336,2.4754791,2.0871486,5.1200069,2.685092,7.7993307.2101013.9414429,1.656112.5430226,1.445963-.3986338h0Z"/>
      <path class="cls-9" d="M65.6776666,55.2528251c3.1507953.2439581,6.2842719.647465,9.3937183,1.2117535.9435055.1712232,1.3482145-1.2736373.3986338-1.445963-3.2401295-.5880042-6.5091173-1.0111055-9.7923521-1.2653181-.9623242-.0745103-.9575017,1.4253907,0,1.4995276h0Z"/>
    </g>
  </g>
</svg>