<?xml version="1.0" encoding="UTF-8"?>
<svg id="_レイヤー_2" data-name="レイヤー 2" xmlns="http://www.w3.org/2000/svg" xmlns:xlink="http://www.w3.org/1999/xlink" viewBox="0 0 294.4221052 391.3237166">
  <defs>
    <style>
      .cls-1, .cls-2, .cls-3, .cls-4, .cls-5, .cls-6, .cls-7, .cls-8, .cls-9, .cls-10 {
        fill: none;
      }

      .cls-11 {
        stroke: #eb6d51;
      }

      .cls-11, .cls-3, .cls-4, .cls-12, .cls-5, .cls-6, .cls-7, .cls-8, .cls-13, .cls-14, .cls-15, .cls-9 {
        stroke-miterlimit: 10;
      }

      .cls-11, .cls-16 {
        fill: #eb6d51;
      }

      .cls-2, .cls-17, .cls-12, .cls-5, .cls-6, .cls-8, .cls-18, .cls-13, .cls-15, .cls-10, .cls-19, .cls-20, .cls-21 {
        stroke-width: 1.4995276px;
      }

      .cls-2, .cls-17, .cls-22, .cls-18, .cls-10, .cls-19, .cls-23, .cls-24, .cls-20, .cls-21 {
        stroke-linejoin: round;
      }

      .cls-2, .cls-21 {
        stroke: #9d9d9d;
      }

      .cls-25, .cls-19 {
        fill: #adadad;
      }

      .cls-26, .cls-18 {
        fill: #00a99d;
      }

      .cls-17, .cls-12, .cls-27, .cls-13, .cls-14, .cls-23 {
        fill: #fff;
      }

      .cls-17, .cls-5, .cls-7, .cls-8, .cls-22, .cls-13, .cls-14, .cls-10, .cls-19, .cls-23, .cls-24, .cls-20 {
        stroke: #000;
      }

      .cls-3, .cls-4, .cls-12 {
        stroke: #fff;
      }

      .cls-3, .cls-4, .cls-7, .cls-8, .cls-22, .cls-10, .cls-23 {
        stroke-linecap: round;
      }

      .cls-3, .cls-7, .cls-22 {
        stroke-width: 1.5px;
      }

      .cls-4, .cls-23 {
        stroke-width: 1.4173229px;
      }

      .cls-28, .cls-21 {
        fill: #9d9d9d;
      }

      .cls-6, .cls-18 {
        stroke: #00a99d;
      }

      .cls-14 {
        stroke-width: 1.4910238px;
      }

      .cls-15 {
        fill: #f4c544;
        stroke: #f4c544;
      }

      .cls-9 {
        stroke: #adadad;
      }

      .cls-29 {
        clip-path: url(#clippath);
      }

      .cls-30 {
        fill: #fff069;
      }
    </style>
    <clipPath id="clippath">
      <path class="cls-1" d="M240.9552298,208.4038827l-40.6996384-19.2794559-6.1433205,18.063561c-8.2471847-25.4616832-17.3651628-52.4135717-22.289593-63.0696094-23.0947028,8.6963358-48.1667541,5.6037641-67.7663957-2.5062196-5.7887104,15.5071718-50.7064084,172.8205175-57.2881031,195.8971355-.4460329,1.5638724.456321,3.1875501,2.0174634,3.6430466l54.4530349,15.8878304c1.6600901.4843666,3.3797705-.5529027,3.7257093-2.247257l31.054087-152.0980589,23.1579882,60.2578222c6.5747963,17.1075891,28.9913379,22.3558117,41.6144053,9.0685132,18.9119692-19.9071248,38.1643626-63.6173082,38.1643626-63.6173082Z"/>
    </clipPath>
  </defs>
  <g id="_レイヤー_19" data-name="レイヤー 19">
    <g>
      <path class="cls-16" d="M155.5148572,18.8502203c-4.1612647-2.5402233-25.9372705,3.6749325-20.2797538,23.0652256-17.0711004-.6187224-16.9479099,21.900222,1.7330656,30.1962198-19.0804276,11.1288364,29.6184144,42.3472055,30.184417,14.1610728,18.3167083,36.6186541,53.718049,13.679334,33.6172905-10.5840312,15.3221765-7.9054901,1.9785021-39.5986197-12.8563697-35.0879815,10.7374004-10.7374004.7506103-27.0288401-7.4055394-22.5357188,3.7927567-24.3536647-30.1787514-24.0756832-24.9931103.7852132Z"/>
      <g>
        <path class="cls-27" d="M64.6957664,317.5266518l-6.51038,37.6829397c-6.1273329,6.7142685-29.4952213,1.0785108-33.3073189,17.6721171l59.3243781,13.1379102,15.3677874-60.3099062"/>
        <path class="cls-21" d="M87.9881058,369.9719263l11.5821272-44.2622138-34.8744666-8.1830608-6.51038,37.6829397"/>
        <line class="cls-4" x1="63.6959723" y1="345.8117356" x2="61.1651392" y2="357.85269"/>
        <line class="cls-4" x1="69.4039508" y1="346.7888807" x2="66.8731176" y2="358.8298352"/>
        <line class="cls-4" x1="74.7551168" y1="348.4766617" x2="72.2242837" y2="360.5176161"/>
        <line class="cls-4" x1="80.1432263" y1="349.6091637" x2="77.6123932" y2="361.6501182"/>
        <line class="cls-4" x1="85.2406415" y1="351.4196496" x2="82.7098083" y2="363.460604"/>
        <line class="cls-4" x1="89.4550439" y1="354.4971389" x2="86.9242107" y2="366.5380933"/>
        <path class="cls-11" d="M58.0585697,352.26778l-.8360531,2.8945048c-6.1273329,6.7142685-28.5323514,1.1258173-32.3444491,17.7194236l59.3243781,13.1379102,5.2525982-20.6134882-20.7901672-6.3658531s1.0826183-2.8845959-.6146305-4.3373592c-1.8044841-1.5445516-9.9916764-2.4351381-9.9916764-2.4351381Z"/>
        <line class="cls-3" x1="25.2169793" y1="370.4015723" x2="85.5894003" y2="383.6153616"/>
        <line class="cls-4" x1="45.6629739" y1="358.6625038" x2="49.8340118" y2="367.1046225"/>
        <line class="cls-4" x1="50.2967472" y1="357.85269" x2="54.6889437" y2="367.736945"/>
        <line class="cls-4" x1="53.9561782" y1="357.0720717" x2="59.7448702" y2="368.3954457"/>
        <path class="cls-1" d="M60.5926657,341.6332098l-2.4072793,13.5763816c-5.8310327,4.9163356-29.4952213,1.0785108-33.3073189,17.6721171l59.3243781,13.1379102,8.553209-36.2576835"/>
        <rect class="cls-23" x="22.9453049" y="379.6689417" width="62.5" height="4" transform="translate(86.8317628 -2.444549) rotate(12.9382299)"/>
      </g>
      <g>
        <path class="cls-28" d="M226.2492511,231.7215374l10.0656631-29.7939773c6.8501038-5.975089,29.4269211,2.2776254,35.0985553-13.7757986l-57.4488897-19.7891788-19.1869604,51.8356062"/>
        <path class="cls-2" d="M210.6177718,179.7191249l-15.8401524,40.479064,31.4716317,11.5233485,10.6370088-33.9903315"/>
        <line class="cls-4" x1="210.1547063" y1="198.8262663" x2="213.4900701" y2="190.3809918"/>
        <line class="cls-4" x1="216.1352482" y1="200.6949558" x2="219.470612" y2="192.2496814"/>
        <line class="cls-4" x1="222.5984025" y1="203.0489035" x2="225.9337662" y2="194.603629"/>
        <path class="cls-11" d="M235.4073393,204.496429l.9075749-2.5688689c6.8501038-5.975089,29.4269211,2.2776254,35.0985553-13.7757986l-57.4488897-19.7891788-7.679058,20.7457886,20.0526512,7.8233398s-1.4031601,2.7430088.1181513,4.3790976c1.6174307,1.7394599,8.9510149,3.1856202,8.9510149,3.1856202Z"/>
        <line class="cls-3" x1="270.7951321" y1="190.5773739" x2="212.3135939" y2="170.5938023"/>
        <line class="cls-4" x1="249.148412" y1="199.9188907" x2="245.9629472" y2="191.0577542"/>
        <line class="cls-4" x1="244.4526545" y1="200.1973053" x2="241.211215" y2="189.8782474"/>
        <line class="cls-4" x1="240.7282527" y1="200.5573492" x2="236.2627607" y2="188.6499089"/>
        <rect class="cls-23" x="212.0336292" y="174.0924101" width="62.5" height="4" transform="translate(414.0123779 423.1696359) rotate(-160.5418139)"/>
      </g>
      <path class="cls-16" d="M163.5414631,230.8858569c12.1805646-24.5486847-17.4929425-132.2730384-17.4929425-132.2730384,0,0-.0406859-13.7660485-3.0787285-38.3647901-.007877-.0637792-.071478-.1100908-.135639-.0985074-27.8893209,5.0350092-39.1771213,17.9281829-40.6237048,34.4028421l-16.5787163,48.3418885s-20.012947,20.2822079-31.0299022,45.2920038c-2.9453477,6.6862888-1.1167995,14.6090549,4.6668643,19.2577284,14.7195268,11.8309566,70.5712678,38.3356859,104.2727692,23.4418732Z"/>
      <path class="cls-26" d="M239.4748964,207.7026474l-37.525391-17.775812c-.9024426-.4274879-1.9759006.0267331-2.2974243.9721278l-5.5398102,16.2890247c-8.2471847-25.4616832-17.3651628-52.4135717-22.289593-63.0696094-23.0947028,8.6963358-48.1667541,5.6037641-67.7663957-2.5062196-5.7887104,15.5071718-50.7064084,172.8205175-57.2881031,195.8971355-.4460329,1.5638724.456321,3.1875501,2.0174634,3.6430466l54.4530349,15.8878304c1.6600901.4843666,3.3797705-.5529027,3.7257093-2.247257l31.054087-152.0980589,23.1579882,60.2578222c6.5747963,17.1075891,28.9913379,22.3558117,41.6144053,9.0685132,16.8291437-17.7147002,33.9278571-54.2781829,37.4899866-62.1169848.3777592-.8312947.0192409-1.8106615-.8059574-2.2015587Z"/>
      <g class="cls-29">
        <g>
          <path class="cls-27" d="M110.4319873,155.5431389c-1.1891637,3.5309748-2.3438462,7.0736157-3.4942175,10.6173786-1.6955264,5.2231341-3.3726258,10.4522495-5.0410307,15.684104-2.0754754,6.5083637-4.1362642,13.0214105-6.186036,19.5379134-2.3240456,7.3884567-4.6336637,14.7814534-6.9292334,22.1788068-2.4255099,7.816079-4.8353161,15.6370374-7.2268652,23.4635757-2.4247137,7.9350723-4.8308101,15.8758506-7.2117624,23.8241675-2.2775677,7.6031887-4.5325653,15.2131865-6.7519423,22.8335759-1.9997334,6.8662272-3.9717925,13.7406731-5.8903144,20.6300682-1.5939035,5.7236933-3.1550234,11.4572218-4.6268787,17.2136446-1.0647531,4.1642468-2.1024871,8.3411413-2.9556433,12.5547157-.1496491.7390879-.2922637,1.4796144-.4236407,2.2221787-.1114127.6297222.8527143.9000218.9648864.2660071.6717466-3.7968193,1.5780771-7.5538619,2.5031277-11.295429,1.3414064-5.4256083,2.7863036-10.8255731,4.2646127-16.2152874,1.8252387-6.6545721,3.7102611-13.292698,5.6242899-19.9222299,2.1601421-7.4819832,4.3593019-14.9526801,6.5821592-22.4162564,2.3405231-7.8586567,4.7079434-15.7092942,7.0946167-23.554053,2.4121956-7.9286479,4.8442513-15.8512512,7.2927464-23.7687626,2.334342-7.5483833,4.6836458-15.0921416,7.0475982-22.631304,2.1209788-6.7642664,4.2536036-13.5248882,6.4006421-20.2809294,1.7721284-5.5763195,3.5535068-11.149723,5.3518782-16.7176388,1.2840802-3.9756249,2.5741317-7.9494711,3.8921818-11.9139863.226681-.6818256.4543842-1.3633118.6837117-2.0442521.2059888-.611641-.7601018-.8740725-.9648864-.2660071h0Z"/>
          <path class="cls-27" d="M123.1767519,155.5431389c-1.310411,3.6384819-2.527347,7.3110278-3.736285,10.9841836-1.786189,5.4270364-3.5292827,10.8682512-5.2568939,16.3141825-2.1382476,6.7403763-4.2493042,13.4893713-6.3446689,20.2431928-2.3671846,7.6299568-4.7135626,15.266367-7.0438107,22.9076828-2.465181,8.0837857-4.912124,16.1731359-7.3412174,24.2678385-2.4382083,8.1250771-4.8584951,16.2555426-7.2571499,24.3923864-2.2649938,7.6834319-4.5110389,15.3724791-6.7287939,23.0696856-1.9678137,6.8297304-3.9144224,13.6656695-5.8198408,20.5130907-1.5416253,5.5400731-3.0601693,11.0870514-4.5091526,16.6521615-.9926701,3.8125481-1.9748389,7.633176-2.7967292,11.4868982-.1314161.6161905-.2575037,1.2335477-.373546,1.8528298-.1179382.6294003.8462464.8991527.9648864.2660071.6327106-3.3765828,1.4797014-6.716037,2.3231971-10.044693,1.3197963-5.2082642,2.721845-10.3956932,4.1466927-15.5760659,1.810028-6.5807869,3.6659633-13.1489232,5.5437142-19.7106786,2.1559405-7.5338822,4.34251-15.0589889,6.5484834-22.5783647,2.3626673-8.0534894,4.7481087-16.1002946,7.1515176-24.1417167,2.4395066-8.1621996,4.897639-16.3188351,7.3738498-24.4699743,2.3661615-7.7888811,4.7487252-15.5727897,7.1512273-23.3505402,2.1637742-7.0049038,4.3432631-14.0049846,6.5479016-20.9971415,1.8246743-5.7870753,3.6649744-11.5693503,5.5428409-17.3394085,1.3461577-4.1362944,2.7039346-8.269855,4.136045-12.3773414.244256-.7005592.4912209-1.4001774.7426187-2.0982075.2185802-.606909-.7479673-.8683039-.9648864-.2660071h0Z"/>
          <path class="cls-27" d="M130.2434504,159.69601c-1.1031381,3.7515954-2.1382018,7.5233479-3.1640915,11.2966573-1.4680597,5.3996478-2.9020885,10.8085423-4.3224412,16.2209141-1.7443412,6.6469567-3.4656965,13.299941-5.1728093,19.9565505-1.9225647,7.496729-3.8265004,14.9982347-5.7151958,22.5035664-2.0005086,7.9496574-3.9837869,15.9036539-5.9496007,23.8619618-1.9775793,8.0059389-3.9375462,16.0162383-5.8760239,24.0317368-1.8538567,7.6655954-3.6883525,15.3359002-5.4944656,23.0128912-1.6300276,6.9285293-3.2377948,13.8623805-4.8049256,20.8054252-1.307884,5.7944731-2.5902794,11.5950551-3.807404,17.4093387-.8922976,4.2625635-1.7624097,8.5324918-2.5019008,12.8246317-.1317786.7648666-.2584636,1.5306164-.3772363,2.2976152-.0975528.6299673.8664886.9014312.9648864.2660071.5979209-3.8611971,1.3586686-7.6978949,2.136766-11.5261022,1.1136729-5.4792252,2.3025639-10.9431283,3.5173867-16.4007166,1.492289-6.7041046,3.0296125-13.3981591,4.5900257-20.0867105,1.7577525-7.5344265,3.5462314-15.0616737,5.3546831-22.584084,1.9159156-7.9694156,3.8546767-15.9333354,5.811359-23.892837,1.968789-8.0087499,3.9558298-16.0130142,5.9600532-24.0129695,1.9171275-7.6523081,3.8499061-15.3007022,5.8007658-22.9444815,1.7610559-6.9000977,3.5365128-13.7965405,5.3334968-20.687373,1.5000757-5.7522886,3.0140234-11.5010349,4.5582461-17.2416441,1.1323321-4.2094159,2.2759132-8.4163271,3.4750139-12.6072947.2135635-.746424.429281-1.4922327.6482984-2.2370756.1820277-.6190471-.7833278-.8834588-.9648864-.2660071h0Z"/>
          <path class="cls-27" d="M138.9181487,160.0481669c-.3317733,3.7541218-.8895698,7.4887558-1.4781967,11.2098004-.8323719,5.2618953-1.7734806,10.5064974-2.7539594,15.742602-1.2012847,6.4152862-2.4695575,12.8179678-3.772804,19.2132636-1.4736854,7.231674-2.9941175,14.453795-4.5450538,21.6692766-1.6573744,7.7106681-3.3502316,15.4136997-5.070675,23.1105338-1.760904,7.8778448-3.5509004,15.7491878-5.3675355,23.614366-1.7622945,7.6299091-3.5496329,15.2540453-5.3642436,22.8716834-1.7017656,7.1439205-3.4272296,14.2822284-5.1843007,21.4127548-1.539267,6.2466364-3.1019428,12.4875994-4.7051087,18.7181627-1.2960401,5.0369458-2.6156782,10.0682171-3.9968575,15.0825603-.2771297,1.0061137-.5570651,2.0114535-.8404901,3.0158125-.1751849.6207941.7899917.885773.9648864.2660071,1.3214834-4.6828755,2.5727764-9.3855158,3.8003145-14.0937832,1.5617752-5.9902461,3.0792362-11.9920238,4.5730643-17.9995477,1.7229032-6.9287639,3.4128525-13.8657127,5.079399-20.8082385,1.8174063-7.5709797,3.6065449-15.1487446,5.3708749-22.7322659,1.8201728-7.8235473,3.6138539-15.6532668,5.379727-23.4892498,1.7547278-7.786526,3.4821335-15.5792345,5.1757059-23.3792959,1.6027768-7.3818851,3.175705-14.7703172,4.7047734-22.167837,1.3672966-6.61488,2.700755-13.2369489,3.9731156-19.8707871,1.0614211-5.5340411,2.0842191-11.0762595,3.011244-16.6345451.6916261-4.1468739,1.3455887-8.3052878,1.816922-12.4837733.0851572-.7549394.1629462-1.5107138.2298277-2.2674997.0566754-.6413005-.9442917-.6374845-1.0006299,0h0Z"/>
          <path class="cls-27" d="M146.7754655,158.9540938c-.2480668,7.3107721.0289655,14.6338838.6219737,21.9222693.6501039,7.9901208,1.6846593,15.9483982,2.9918223,23.8566701,1.3716519,8.2984267,3.0503107,16.5460469,4.9939517,24.7291252,1.9187705,8.0783692,4.0965067,16.0963384,6.5469,24.0297875,2.3053521,7.4638602,4.8502242,14.8571253,7.7078199,22.1282208.3356563.8540708.6760413,1.706264,1.0204713,2.5568331.2385844.5891835,1.2069089.3316667.9648864-.2660071-2.8860165-7.1270102-5.4591443-14.3789984-7.7932802-21.7046097-2.5087091-7.8735037-4.7414995-15.8350969-6.7191203-23.85828-1.9997629-8.1130132-3.738898-16.2915897-5.1840759-24.5217233-1.4054165-8.0036968-2.5347843-16.0588682-3.2850362-24.1511878-.6821918-7.3582144-1.060477-14.7548303-.9321908-22.1458485.0149027-.8585972.0373868-1.7170197.066508-2.5752497.021854-.6440574-.9788037-.6432387-1.0006299,0h0Z"/>
          <path class="cls-27" d="M157.4747816,155.6761425c.8079083,6.8678109,1.6170754,13.7353671,2.4918232,20.5950667,1.1491912,9.0118615,2.3950149,18.01196,3.7947161,26.9884985,1.5244258,9.7764202,3.2243257,19.528593,5.2329517,29.2178704,1.893156,9.1322692,4.0406322,18.2294295,6.7786637,27.1486431,2.2080925,7.1929227,4.752055,14.4261564,8.4622245,20.9994019.3777326.6692225.770258,1.3298896,1.1783272,1.9810597.3411693.5444156,1.2072944.0427463.8640146-.5050371-3.8452058-6.1359274-6.4187414-13.0505541-8.6455123-19.9084659-2.8276535-8.7084838-5.0205209-17.6195058-6.9504805-26.5654098-2.076238-9.6239451-3.8227903-19.3177371-5.3857905-29.0373726-1.4634089-9.1003197-2.7600412-18.2270146-3.948395-27.3671265-.9300748-7.1535836-1.7878712-14.316069-2.6291294-21.4805555-.0808866-.6888624-.1617498-1.3777276-.2427834-2.0665728-.0743289-.6318504-1.0758413-.6393518-1.0006299,0h0Z"/>
          <path class="cls-27" d="M167.0718209,155.809146c2.0665103,6.3528249,3.4465249,12.9361445,4.766189,19.4766333,1.7550947,8.6985604,3.2712933,17.4446116,4.7517074,26.1934155,1.6275797,9.6185089,3.1921843,19.2475457,4.8178079,28.8663835,1.534802,9.0814456,3.1101554,18.1585826,4.9087317,27.192069,1.4320228,7.1924438,2.9516096,14.401982,5.0661431,21.4298442.2032491.6755186.4136227,1.3488531.6318733,2.019676.1983788.6097441,1.1649188.3488197.9648864-.2660071-2.1792475-6.6982129-3.6853771-13.6192697-5.1034952-20.5112925-1.8256197-8.8724717-3.4001335-17.7957681-4.9247309-26.7241509-1.6437712-9.6262909-3.2116235-19.2653164-4.8275546-28.8962807-1.496957-8.921878-3.0207305-17.8416468-4.7551437-26.7209505-1.3406073-6.8632198-2.7448232-13.7529534-4.7494864-20.4585258-.1867082-.6245364-.3804014-1.2469431-.5820415-1.8668212-.1983479-.6097572-1.1648868-.3488302-.9648864.2660071h0Z"/>
          <path class="cls-27" d="M175.4771106,149.3551892c3.2503226,6.0178101,5.2314098,12.7244177,6.9675428,19.3077594,2.2889448,8.6795802,4.0107587,17.5060808,5.5385953,26.3477676,1.6784177,9.7131089,3.0926345,19.4707845,4.4021998,29.2398095,1.24557,9.2916355,2.3876862,18.5965633,3.5466291,27.8992733.9319085,7.4803297,1.8478898,14.9668742,2.9888972,22.418875.1118005.730177.2265002,1.4599042.3445436,2.1890982.1026384.6340321,1.0670307.364973.9648864-.2660071-1.1672225-7.2103289-2.0613759-14.4649765-2.9691633-21.7114682-1.1497041-9.1776122-2.2674027-18.3592555-3.4763486-27.529346-1.2873214-9.7645841-2.6639346-19.5193464-4.2819482-29.2351737-1.5012227-9.0145229-3.1873485-18.0127441-5.3933269-26.8841754-1.7269136-6.9448533-3.7052251-13.9627357-6.8233399-20.4294915-.3010675-.6243934-.6157286-1.2420458-.9451528-1.8519583-.3061327-.5667893-1.170362-.0621499-.8640146.5050371h0Z"/>
          <path class="cls-27" d="M92.7502465,170.7551688c11.2533626,5.5498431,23.5485571,8.8324483,35.9044267,10.7884901,12.6125383,1.9966747,25.4597613,2.6446153,38.2121032,2.0177709,6.4016525-.3146747,12.7928608-.9602866,19.1117224-2.0422157.6334278-.1084569.3648638-1.0729055-.2660071-.9648864-11.6793771,1.9997681-23.6221009,2.5438759-35.4519524,2.0856782-12.7434207-.4935824-25.5073798-2.1940843-37.8147578-5.586857-6.5902136-1.8167231-13.0549443-4.1361114-19.1904981-7.1619946-.5755574-.2838488-1.0831882.5788866-.5050371.8640146h0Z"/>
          <path class="cls-27" d="M95.067252,159.0913882c11.0770306,5.4466089,23.3373194,8.15489,35.5470916,9.4961919,12.6836055,1.3933547,25.5265729,1.2978924,38.2300639.2137669,6.4022985-.546377,12.7838272-1.3548866,19.1171359-2.4408338.6334107-.1086084.3648595-1.0730586-.2660071-.9648864-11.7020441,2.0065029-23.5816768,3.0875907-35.4542243,3.2053099-12.6289256.125219-25.3728081-.8220427-37.6858203-3.7386783-6.5330589-1.5475134-12.9511369-3.6689001-18.9832026-6.6348848-.5758149-.2831299-1.083505.5795802-.5050371.8640146h0Z"/>
          <path class="cls-27" d="M88.4449654,185.5294109c6.3574782,3.5727867,13.1506019,6.3504596,20.1107552,8.5075503,7.5613254,2.343406,15.3432222,3.9512442,23.1970502,4.922395,8.1627769,1.0093533,16.4185394,1.3124139,24.6321394.8677857,8.1323872-.4402319,16.2430751-1.6104703,24.1307689-3.6530801,3.8926548-1.0080481,7.7312592-2.2306056,11.4782044-3.6910203,1.8161773-.7078758,3.6119068-1.4698019,5.3807446-2.288906,1.3577305-.6287307,3.1368856-.9231855,4.2252544-2.0113856.4765773-.4765035.6964206-1.0988113.6309841-1.7681307-.0620886-.6350753-1.063348-.6415144-1.0006299,0,.1510951,1.5454816-2.0330171,1.9641966-3.1325172,2.3861911-1.7357516.6661916-3.4018154,1.5223793-5.1261515,2.2225788-3.6291134,1.4736706-7.3494831,2.7198847-11.1255143,3.7594511-7.6976344,2.1192096-15.6196119,3.3845168-23.5815287,3.9285724-8.0198914.5480171-16.0894833.3737197-24.082404-.4738248-7.7315014-.8198244-15.4041215-2.280113-22.8786365-4.425072-6.9503299-1.9945338-13.7496277-4.5844227-20.1552611-7.9509705-.7384815-.3881167-1.4709471-.7874345-2.1982208-1.196149-.5620552-.3158648-1.0670612.5481673-.5050371.8640146h0Z"/>
          <path class="cls-27" d="M85.8531062,201.3883057c5.8170195,3.2223271,11.830186,6.0963389,18.0490559,8.4583574,6.0953744,2.3151131,12.3819963,4.1231919,18.7886318,5.3410614,6.5810179,1.2510187,13.273075,1.8864416,19.9703241,1.9579525,7.34008.0783748,14.674542-.5143097,21.9340192-1.57983,8.3686644-1.2283228,16.6366098-3.0917364,24.7842918-5.3515532,1.0854267-.3010507,2.1686887-.6097716,3.2502908-.9242744.6171099-.1794401.3545784-1.1453372-.2660071-.9648864-8.170725,2.3758428-16.4567317,4.3817064-24.8535821,5.7778097-7.3284913,1.2184724-14.7439791,1.9601303-22.1755657,2.0416083-6.7234331.073714-13.4559695-.3983624-20.0888828-1.5120342-6.3510544-1.0663475-12.5989623-2.709039-18.6665895-4.8646811-6.20283-2.2036755-12.206102-4.9376558-18.009585-8.0393034-.7402649-.3956315-1.477139-.7975182-2.2113645-1.204241-.5637648-.3122965-1.0690624.5515738-.5050371.8640146h0Z"/>
          <path class="cls-27" d="M59.850965,288.5326012c2.118842,1.3109803,4.5354068,2.1968182,6.8586855,3.0653151,3.6045873,1.3474806,7.2765133,2.5166453,10.9692501,3.5966157,8.8230952,2.5803848,17.8375113,4.7063841,26.9535914,5.9382908,4.3732144.5909768,8.8219221,1.0122548,13.2374233.7468341.6398779-.0384638.6442697-1.0393577,0-1.0006299-3.8491988.2313796-7.7245892-.0685327-11.5460796-.5297415-4.5289304-.5465885-9.024581-1.3699637-13.4824251-2.3319985-8.3224075-1.7960353-16.5986838-4.0382435-24.6126631-6.9246455-2.6619744-.9587657-5.453557-1.9272427-7.8727455-3.4240549-.5491492-.3397723-1.0522093.5254655-.5050371.8640146h0Z"/>
          <path class="cls-27" d="M53.4099138,307.6188818c2.28945,1.415758,4.9899141,2.277486,7.51735,3.151088,4.1883695,1.4476996,8.4464658,2.6962548,12.7218905,3.8585755,10.1041558,2.7469248,20.3854629,5.0701072,30.7679758,6.4750359,4.6340661.6270671,9.3660713,1.1443103,14.0479044.8623563.6398663-.0385347.6442642-1.0394294,0-1.0006299-4.109294.2474739-8.2573502-.1371063-12.3333855-.6399139-5.0683968-.6252224-10.102536-1.5314145-15.1023938-2.564673-9.5841452-1.9806363-19.135302-4.3839956-28.4249064-7.4771545-1.7926278-.5968911-3.5775164-1.2234693-5.3301972-1.9300696-1.1455589-.4618367-2.3058883-.9472786-3.3592006-1.5986296-.5492307-.3396352-1.052302.525595-.5050371.8640146h0Z"/>
          <path class="cls-27" d="M203.1975895,260.8391853c1.9053152-1.9156322,3.4283813-4.2760887,4.9268214-6.5085331,2.4318986-3.6231534,4.7071471-7.3523323,6.9026828-11.1226057,5.1702379-8.8785674,9.9831828-18.0389453,13.870626-27.5576896,1.7652398-4.322344,3.4310258-8.7974826,4.2168629-13.4173073.1071401-.6298613-.8569552-.9005195-.9648864-.2660071-.6809102,4.0029745-2.04209,7.8884204-3.5146264,11.6599131-1.8225745,4.6680181-3.93243,9.2230035-6.1654535,13.707419-4.3122124,8.6598961-9.0704661,17.1478677-14.3786476,25.2391832-1.6958379,2.5849831-3.408002,5.3532716-5.6009313,7.5580753-.4546404.4571022.2526123,1.1649555.7075522.7075522h0Z"/>
          <path class="cls-27" d="M202.3778899,241.0652624c1.7333731-4.8139923,3.9157445-9.4752527,5.9914705-14.1474368,2.8289475-6.3675857,5.663104-12.7338764,8.3207463-19.1754691,1.5191208-3.6820447,2.9810884-7.3884879,4.3286243-11.1370344.2182241-.6070511-.7483098-.8684753-.9648864-.2660071-2.4221765,6.7379587-5.1998045,13.3439761-8.0582332,19.9066078-2.5567341,5.8699746-5.2143051,11.6958728-7.7493436,17.5752686-.9935296,2.3042465-1.9828644,4.6163001-2.8332641,6.9780639-.2185359.6069267.7480099.8683252.9648864.2660071h0Z"/>
          <path class="cls-27" d="M235.5218557,223.4555055c-4.1279649-2.8538766-8.4981141-5.3664591-12.880392-7.8044509-5.7311443-3.1884065-11.5636596-6.1968674-17.4672405-9.0528223-3.5265183-1.7060116-7.0814026-3.3534225-10.6676152-4.9301935-.5839765-.2567604-1.0938434.6051307-.5050371.8640146,11.8274641,5.2002501,23.4548338,11.0403204,34.5475158,17.6734687,2.1926954,1.3111774,4.3657697,2.6608024,6.4677319,4.113998.5309515.3670744,1.031807-.4998312.5050371-.8640146h0Z"/>
          <path class="cls-27" d="M228.0431407,239.3326849c-2.9214665-3.101198-6.3733388-5.7040614-9.8828692-8.0988299-4.1723927-2.8470803-8.5509078-5.3984908-13.0473558-7.6975188-2.5006852-1.2785971-5.0433101-2.4749357-7.6300446-3.5693492-.5861536-.2479939-1.0967468.61367-.5050371.8640146,4.5811706,1.9382331,9.0315769,4.1885215,13.3399031,6.6733422,4.1600474,2.3993012,8.2266202,5.0140977,11.9926691,8.0001935,1.76877,1.4024557,3.4761675,2.891388,5.0251824,4.5356997.4424884.4697107,1.1491075-.2388319.7075522-.7075522h0Z"/>
          <path class="cls-27" d="M221.9928059,250.7024309c-1.9096276-2.4479524-4.3048365-4.4851303-6.8134298-6.2952359-2.7385868-1.9760602-5.672258-3.6865733-8.7060711-5.166856-1.5513939-.7569687-3.1339951-1.4503434-4.7449958-2.070591-.601396-.2315421-.8617267.7355298-.2660071.9648864,3.7676221,1.4505633,7.392638,3.3146681,10.7910535,5.4920702,3.3407465,2.140453,6.5768597,4.6361637,9.0318981,7.7832784.3956643.5072022,1.0992465-.2054391.7075522-.7075522h0Z"/>
          <path class="cls-27" d="M214.0710371,260.2328907c-1.4268261-2.0360578-3.4756666-3.6575338-5.4634112-5.114041-2.1118744-1.5474626-4.3985604-3.0237111-6.8793168-3.9043338-.6079951-.215827-.8696164.7506163-.2660071.9648864,2.3390323.8303133,4.5022006,2.250038,6.4986819,3.7001181,1.8890104,1.372022,3.8928025,2.9273615,5.2460385,4.8584074.3668388.523473,1.2347385.02398.8640146-.5050371h0Z"/>
          <path class="cls-27" d="M198.4024426,220.404128c2.5142089-7.0182639,4.6803906-14.1546662,7.5178973-21.0553944.9422891-2.291618,1.953499-4.5541148,3.0316211-6.7850309.2789727-.5772673-.5835944-1.0852997-.8640146-.5050371-3.4800736,7.2011809-6.1027226,14.7313599-8.655108,22.2980378-.6516233,1.9317708-1.307706,3.8620897-1.9952822,5.7814175-.2175629.6073137.7489459.8687922.9648864.2660071h0Z"/>
          <path class="cls-27" d="M46.1769582,324.6188818c2.3752207,1.4704965,5.1158762,2.4452208,7.7106164,3.4424223,4.3432385,1.6691782,8.7550743,3.1620675,13.1894786,4.5691217,5.2726479,1.6730322,10.5889882,3.2124213,15.9448366,4.5965953,5.2518583,1.3572986,10.5469978,2.5765023,15.8940341,3.4976296,4.3009281.7409155,8.694557,1.3674178,13.0696021,1.2918805.4381803-.0075654.8760449-.024353,1.3135033-.0505936.6398912-.0383833.644276-1.0392762,0-1.0006299-4.1538326.249164-8.3580622-.2805412-12.4532815-.9300647-5.2348563-.830276-10.4185308-1.9789316-15.5587782-3.264708-5.3804274-1.3458547-10.719846-2.8573351-16.0168703-4.5004328-4.5655383-1.4161961-9.1058282-2.9246632-13.5853725-4.5943801-2.8526305-1.0632969-5.7824145-2.1244399-8.4543347-3.601062-.1852543-.1023798-.3684241-.2083719-.5483969-.3197929-.5490598-.3399223-1.0521078.5253237-.5050371.8640146h0Z"/>
          <path class="cls-27" d="M78.5782593,217.0843739c7.9366335,3.5600673,16.0477211,6.746395,24.3539307,9.338505,7.5354123,2.351568,15.229037,4.2137301,23.0327018,5.4193171,7.3652555,1.1378573,14.8180702,1.6963484,22.2713491,1.5911643,7.377683-.1041172,14.7411221-.8555427,21.9975989-2.185927,7.5395859-1.3822889,14.9562229-3.3915938,22.2064738-5.872751.955192-.3268827,1.9073503-.6624674,2.8571363-1.0047263.6012705-.21667.3418971-1.1839469-.2660071-.9648864-7.2048373,2.5962897-14.5713759,4.7516126-22.074934,6.2958969-7.2235165,1.4866498-14.561732,2.3977634-21.9330207,2.6621232-7.3384655.2631827-14.6948998-.1125561-21.9733752-1.079595-7.7020603-1.0233176-15.3109074-2.7124401-22.76574-4.8925212-8.2281017-2.4062149-16.2762881-5.410047-24.1393781-8.8192359-1.0235167-.4437647-2.0438349-.8948039-3.0616985-1.3513782-.5827219-.2613866-1.092206.6006333-.5050371.8640146h0Z"/>
          <path class="cls-27" d="M74.1907603,232.9033085c7.0896232,4.1040183,14.6336306,7.3994388,22.4162314,9.9466268,7.9300231,2.5954382,16.1066655,4.4183893,24.3699436,5.5587088,8.3490908,1.1521615,16.7867736,1.6235581,25.2126003,1.4498666,8.4298356-.1737741,16.8475471-.9863294,25.1564196-2.4193357,8.1017632-1.3972868,16.1054014-3.3923494,23.8942225-6.0275535.9408962-.3183349,1.8783396-.6466437,2.8128254-.9833171.6012902-.2166308.3419134-1.183906-.2660071-.9648864-7.6399971,2.7525127-15.4995123,4.8809709-23.472139,6.419797-8.2089929,1.584448-16.5376008,2.5428808-24.8912874,2.8766952-8.3796179.3348507-16.7877565.043122-25.1186445-.9275782-8.2590403-.9623285-16.4483743-2.6059116-24.4131265-4.9999828-7.8103106-2.3476486-15.4055151-5.425523-22.574536-9.321081-.8806144-.4785151-1.7540931-.9698727-2.6214651-1.4719742-.5583585-.3232208-1.0627645.5411591-.5050371.8640146h0Z"/>
          <path class="cls-27" d="M68.3032508,251.4882143c9.8181162,4.3359243,20.0766435,7.6214624,30.5600261,9.9113217,9.8963675,2.1616391,19.981914,3.4560442,30.0973229,3.9606639,9.2010944.459008,18.4379979.2675667,27.611305-.5838491,7.8112038-.7249929,15.5953599-1.9122406,23.2315855-3.720613,5.7367984-1.3585596,11.45672-3.0391638,16.8404493-5.4673676.5135196-.2316109,1.0231165-.4717141,1.5285783-.7204155.577773-.2842806.0712811-1.1475794-.5050371-.8640146-4.9888015,2.4546308-10.3699587,4.1206823-15.742627,5.498436-7.3468074,1.883997-14.8516701,3.1538403-22.3887282,3.9744973-8.9268265.9719791-17.9247091,1.3079836-26.8996036,1.0310223-9.9422331-.306813-19.8646994-1.3719866-29.6299488-3.2726781-10.382708-2.0208727-20.5909421-4.9848055-30.3852241-8.9883109-1.2787494-.5227009-2.5493659-1.0646277-3.8130613-1.622707-.5837065-.2577793-1.093489.6041396-.5050371.8640146h0Z"/>
          <path class="cls-27" d="M63.3989236,271.5040556c9.9832283,2.9516375,19.9166717,6.0600563,30.1075984,8.2373425,12.371814,2.6432316,25.0248254,3.9758534,37.6791535,3.4249634,1.6627585-.0723861,3.3541986-.1144804,5.0074061-.3130228.2476768-.0297448.4841859-.0976231.7234753-.1664639,1.0017531-.2881931,1.9923948-.6175298,2.9834033-.9401619,3.324413-1.082294,6.6384525-2.1963961,9.9573506-3.2954214,3.1645436-1.0479121,6.3277496-2.1071701,9.5183081-3.0739188.7852863-.2379441,1.6124392-.5565384,2.4308443-.6613888.1098348-.0140715-.1296451-.0047375.0131333-.0010476.0614505.0015881.0920401.005272.1635594.0165618.8612789.135958,1.7323702.2305402,2.6004848.3091043,1.6042558.1451847,3.2157313.2070824,4.8264052.1885973,10.7478584-.1233488,20.8710798-3.8370058,30.3951637-8.5351622.7816343-.3855741,1.5612254-.7752713,2.3427555-1.1610553.5774284-.285034.0710003-1.1483619-.5050371-.8640146-3.849167,1.900051-7.6934733,3.7960692-11.7080055,5.3294145-5.3619763,2.0479997-10.9706957,3.5342762-16.6995046,4.0386182-3.1748294.2794996-6.3765045.2629691-9.5451705-.0868531-.7190382-.0793821-1.4691189-.3208918-2.1917335-.191633-.3222167.057637-.6398537.1482815-.9550747.2351028-2.8066437.7730337-5.5702212,1.7201-8.3347957,2.6288881-3.4817104,1.1445294-6.9566947,2.3093682-10.4370804,3.4578997-1.2891972.4254366-2.578605.8507563-3.8731844,1.2595994-.4078104.1287912-.8159296.2573399-1.2268536.3759219-.1246478.0359701-.2500114.0689899-.374975.1037481-.0774003.0215286-.3290219.0659214-.1149109.0341752-1.7097841.2535093-3.5055982.2498496-5.2311234.3219114-1.7025268.0711013-3.4064162.1094865-5.1104147.1155136-3.2886878.0116322-6.577623-.097563-9.8586444-.3216454-6.1540114-.4202977-12.2739027-1.2503747-18.3316179-2.4078936-10.4075465-1.9886924-20.5560494-4.9954449-30.6923928-8.0400874-1.0969123-.3294784-2.1941871-.6577475-3.2925152-.9824788-.6187984-.1829537-.8831334.7824271-.2660071.9648864h0Z"/>
        </g>
      </g>
      <path d="M193.2778556,197.7796582c.151721,1.6512296.3034419,3.3024592.4551629,4.9536888.3623162,3.9432079.7246325,7.8864158,1.0869487,11.8296236.4381069,4.7680627.8762138,9.5361255,1.3143207,14.3041882.3803997,4.1400158.7607993,8.2800316,1.141199,12.4200474.1840874,2.0034846.3411909,4.0116118.5524475,6.0124695.0030281.0286797.0052797.0574612.0079186.0861811.0875935.953309,1.5884367.9624862,1.5,0-.151721-1.6512296-.3034419-3.3024592-.4551629-4.9536888l-1.0869487-11.8296236c-.4381069-4.7680627-.8762138-9.5361255-1.3143207-14.3041882-.3803997-4.1400158-.7607993-8.2800316-1.141199-12.4200474-.1840874-2.0034846-.3411909-4.0116118-.5524475-6.0124695-.0030281-.0286797-.0052797-.0574612-.0079186-.0861811-.0875935-.953309-1.5884367-.9624862-1.5,0h0Z"/>
      <g>
        <path d="M128.7568345,190.3002891c2.5663149.4086881,5.0875363,1.2774466,7.556209,2.0649937,1.6833155.5370053,3.3616749,1.0918844,5.030042,1.6738493.9130268.3184848,1.3054955-1.1296287.3986338-1.445963-1.6683674-.581965-3.3467259-1.1368438-5.030042-1.6738493-2.4686343-.7875349-4.9899269-1.6563108-7.556209-2.0649937-.9440567-.1503419-1.3505189,1.2943744-.3986338,1.445963h0Z"/>
        <path d="M134.535861,191.4513888c.8612467,4.1036445,2.1827081,8.1382315,3.4592287,12.1288472.2928832.9156017,1.7411632.5242111,1.445963-.3986338-1.2765123-3.99059-2.5979861-8.0252224-3.4592287-12.1288472-.1980944-.943875-1.643888-.544434-1.445963.3986338h0Z"/>
      </g>
      <g>
        <g>
          <path class="cls-1" d="M144.6448817,50.5519016l-1.2069596,9.6862298"/>
          <path class="cls-1" d="M144.7489706,49.9613691c-.0436891.1931337-.0790353.3899395-.1040889.5905325"/>
          <path class="cls-1" d="M133.2290494,38.0084675c2.0659145,5.3035108,6.1953843,9.6561669,11.5199212,11.9529015"/>
          <path class="cls-1" d="M131.2185878,37.9899412c.6892503.0858905,1.3636931.0870815,2.0104615.0185264"/>
          <path class="cls-1" d="M124.9523246,31.6665084c-.3756323,3.0142861,2.4298642,5.845381,6.2662632,6.3234327"/>
          <path class="cls-1" d="M132.0179335,27.0269705c-3.6023347-.2215573-6.7082581,1.7732963-7.0656089,4.6395379"/>
          <path class="cls-1" d="M155.9312855,8.8864763c-11.6029043-1.445926-22.1897325,6.64234-23.913352,18.1404943"/>
          <path class="cls-1" d="M174.6608929,32.3409646c1.1511432-11.5694443-7.1269468-22.0085767-18.7296074-23.4544883"/>
          <path class="cls-1" d="M180.3717807,38.5727177c.357107-2.866256-2.1643484-5.562389-5.7108878-6.2317531"/>
          <path class="cls-1" d="M172.745245,43.1648814c3.836399.4780517,7.250907-1.5779386,7.6265357-4.5921638"/>
          <path class="cls-1" d="M170.7918533,42.6893911c.6103421.2252185,1.2643851.3896142,1.9533917.4754903"/>
          <path class="cls-1" d="M156.6907925,51.4495669c5.7253163-.9197286,10.7966912-4.1257631,14.1010608-8.7601758"/>
          <path class="cls-1" d="M156.6466712,52.0475542c.0250535-.200593.0387882-.4000203.0441213-.5979873"/>
          <path class="cls-1" d="M155.3389298,62.5416254l1.3077413-10.4940712"/>
        </g>
        <path class="cls-1" d="M166.585761,66.6333922c-3.1041945-1.3762038-6.8876446-2.8625924-11.2468312-4.0917668"/>
      </g>
      <path class="cls-30" d="M107.7798327,75.4328145c-13.6599509,8.3386689-62.5457038,67.8027582-69.6943212,75.8767542-5.2342966.2589017-10.1191895.2637895-17.1822472.1843334-9.1557309-.1029977-12.9678459-6.5076458-12.8793319.5757098-5.8700086-1.0231391-8.7529013,1.1400536-5.9471083,3.4829123-4.4054831,1.0257308-.5414246,6.6516284,8.4404086,7.7041502-2.9658241,1.3558602-4.2791518,4.6294232,4.300583,6.2480874,9.2919874,1.7530387,13.1557339,1.6160463,17.2718379.2139534-5.2188233,3.0670075-7.536602,4.3852453-7.3689502,6.320016.2878764,3.3222122,8.2550606,2.0082547,11.4350206,1.0043515s8.2102865-2.748768,11.0678595-4.4675593c5.9066953-3.5527967,32.519164-25.3882482,45.4350081-44.5334973,9.1535331-13.5683467,17.1662447-31.0750875,15.1212411-52.6092116Z"/>
      <g>
        <path class="cls-7" d="M148.1360929,72.6373719c-15.5663124-5.1601308-28.7717863-4.91739-38.2832091.7390285-16.815,9.9998371-53.4547385,59.6205345-71.7673723,77.9331682"/>
        <path class="cls-30" d="M37.8861318,150.5863594c-2.466943.3508767-4.9767939.4605226-7.4655829.5100729-2.8238524.0562213-5.6572823.002443-8.4715835-.2474287-1.2177443-.1081192-2.4334442-.2539346-3.633064-.4929591-1.1315149-.2254546-2.1806041-.6087937-3.2718375-.9747514-1.4113742-.4733206-2.8668242-.8764227-4.3549055-1.0065328-.8514811-.0744491-1.775768-.0450499-2.5557966.3435133-1.7250007.8592912-1.259782,2.8840436-.4914728,4.2454215l.8469827-1.1017486c-1.1611399-.1882796-2.3312882-.3641923-3.5071435-.4251547-.8929713-.0462963-1.8672071-.0514389-2.7211582.2507647-.7014955.2482513-1.3004168.7224878-1.4983437,1.4670338-.254186.9561768.2114832,1.9614763.6669946,2.7764733l.2690637-1.0261424c-.942431.5892119-1.7313627,1.4830921-1.6967208,2.6575925.0338781,1.1486065.8026713,2.1520908,1.6282184,2.8835563,2.6619468,2.3585841,6.4652494,3.3304398,9.9158115,3.6899295l-.1993797-1.4732093c-1.7097744.2478211-3.1632078,1.6676493-3.1633984,3.4488438-.0002151,2.0098603,1.7947978,3.1992136,3.6099794,3.4541973,2.385503.3350983,4.8136815.4908683,7.2127284.7027272,2.799061.2471839,5.6019489.4606256,8.4090018.5927384,2.8726076.135198,5.7633056.2094126,8.6338808-.0062353.9566554-.0718674.9644696-1.5724544,0-1.5-4.7783026.3589632-9.6192339.0110368-14.3858673-.3640633-2.3444114-.1844885-4.6859813-.4028641-7.0262834-.6332264-.9649033-.094978-1.9792998-.1160208-2.928108-.3198702-.7172733-.1541046-1.4916991-.4800385-1.8427178-1.1702771-.6896511-1.3561207.5659811-2.5680231,1.879544-2.7584158.9007943-.1305645.5692729-1.3931288-.1993797-1.4732093-2.9257406-.3048122-6.1097981-1.1251653-8.4859324-2.9444126-.6378825-.488384-1.3806002-1.1672974-1.5400226-1.9844125-.0424126-.2173845-.0182112-.4635599.0845266-.6755861.177622-.3665692.514334-.6208522.851198-.831461.3482509-.217728.4719885-.6630711.2690637-1.0261424-.2505774-.4483309-.7256207-1.2410259-.4767276-1.7494421.1019722-.2082995.6089611-.3718532.9586919-.4339934,1.5805301-.280829,3.3235741.0648368,4.883721.3178157.6245167.1012658,1.1921138-.490206.8469827-1.1017486-.3122945-.553359-.5508419-1.1220513-.5114449-1.6437885.015895-.2104989-.0137912.1019359.0049727-.0235323.0072456-.0484488.020471-.1057864.0402452-.1504214-.0233022.0525986.1108409-.1801918.041764-.0944639.0319929-.0397048.2487398-.2236055.1334132-.1408006.1766257-.1268177.2003017-.1286323.3544376-.1773278.7788262-.2460511,1.6883745-.1352495,2.4986421.0096946,1.4994738.2682321,2.9320486.7696508,4.3646869,1.2734866,2.0394666.7172475,4.2691415.9400991,6.4108065,1.1174581,2.6498853.2194465,5.3148965.270773,7.9726788.222799,2.6845651-.0484573,5.3774991-.1885932,8.0375938-.5669421.9518413-.1353817.5469339-1.5809258-.3987594-1.4464186h0Z"/>
        <g>
          <path class="cls-30" d="M36.8222558,167.0644286c-2.6805817,1.5856901-7.4853272,4.1114126-11.8941039,7.8656158-1.4296881,1.2174216.861191,4.3471758,5.9621056,3.2352055,6.6314621-1.445621,12.3051411-3.6678784,16.6971355-5.8857552"/>
          <path d="M36.4437165,166.4168256c-2.388693,1.4093485-4.8111294,2.752614-7.1211137,4.2919176-1.4487455.9654001-2.8571564,1.9927971-4.2067713,3.0929041-.7515583.6126152-1.4442756,1.1717503-1.3401128,2.2295614.20433,2.0750466,2.7072354,2.9611304,4.4644302,3.0968117,1.5992152.123483,3.1784883-.2941979,4.71785-.6730541,1.7768743-.437311,3.5371178-.9423011,5.2755512-1.5135938,3.3360868-1.0963216,6.595401-2.4356245,9.7323824-4.0142748.8624435-.4340149.1038504-1.7284588-.7570787-1.295206-2.5058231,1.261027-5.0878296,2.3612739-7.7309865,3.300986-2.9820204,1.0601871-6.0845175,2.0381142-9.2055414,2.5921402-1.5494827.2750552-4.2095042.1843144-4.945014-1.3937601-.098865-.21212-.0981534-.3203631-.0394604-.4676797-.0590677.1482572.1457984-.2015035.0600829-.0974571.223667-.2715002.5576125-.4830775.8285574-.7038136,1.2233793-.996675,2.5032404-1.9222328,3.8146259-2.7993446,2.3369536-1.5630563,4.7904157-2.9235469,7.2096776-4.3509313.8308291-.490196.0769986-1.7873185-.7570787-1.295206h0Z"/>
        </g>
        <path d="M2.7371308,156.0979103c2.8489703.4368741,5.7059442.8312078,8.5711341,1.1458769,2.6592055.2920469,5.4323549.6560514,8.1094909.4057474.9529598-.0890988.9622676-1.5899691,0-1.5-2.6196323.2449276-5.3308111-.1041676-7.9334283-.3865268-2.7911769-.3028161-5.5734892-.6859929-8.3484372-1.1115161-.9443487-.1448107-1.3514081,1.3003351-.3987594,1.4464186h0Z"/>
        <path d="M8.5901124,152.7827779c1.5668817.3128324,3.1317566.635654,4.706839.9054347,1.6276517.2787848,3.2868769.5515177,4.9423103.5598684.9653636.0048697.9665419-1.4951243,0-1.5-3.1065768-.0156709-6.2192485-.8065457-9.2503898-1.4117216-.9426916-.1882111-1.3461093,1.2572775-.3987594,1.4464186h0Z"/>
        <path d="M11.1771331,163.6359994c3.6026925-.0806554,7.2563185-.0805531,10.8405384-.4760501.4058099-.0447787.7454396-.3127263.75-.75.0038719-.3712586-.3476974-.7943917-.75-.75-3.5842373.3954989-7.2378207.3953942-10.8405384.4760501-.9637644.0215763-.9672267,1.5216538,0,1.5h0Z"/>
        <path d="M47.9659324,172.9270978c2.725379-1.6980617,5.2654755-3.7171706,7.7741744-5.713924,3.9797944-3.1676452,7.8468709-6.4775702,11.6410207-9.8646554,4.7418155-4.2330781,9.3657572-8.5992251,13.8614119-13.0928902,4.8711424-4.8689866,9.594302-9.8897131,14.1002736-15.0992559,4.4688352-5.1666079,8.7374533-10.5216637,12.623002-16.142803.461006-.6669274.915856-1.3380545,1.3654552-2.0127208.5368239-.8055552-.7618384-1.5574475-1.295206-.7570787-3.7271862,5.5929973-7.8551014,10.9094484-12.1985892,16.0353762-4.4461669,5.2471037-9.1215203,10.2988288-13.9486204,15.1968119-4.4938447,4.5598341-9.1220461,8.9878336-13.8685691,13.2839295-3.9021516,3.5318521-7.8825076,6.9808413-11.9726079,10.293808-2.6426968,2.140575-5.3212976,4.2740297-8.1644546,6.1457988-.2230494.1468428-.4477158.2911798-.6743694.4323975-.8175892.5094032-.065387,1.8076476.7570787,1.295206h0Z"/>
      </g>
      <path class="cls-14" d="M52.1656066,169.4660665l-16.3555936-20.6695993c-.6527083-.8248688-.4660688-2.0306589.4054766-2.6195946l13.352628-9.022867c.7494577-.5064364,1.757867-.3809994,2.3604127.293614l16.1677247,18.101469c.6684282.7483757.5994551,1.8979469-.1536594,2.5610315l-13.164759,11.5909972c-.7773151.6843921-1.9695761.5771114-2.6122299-.2350509Z"/>
      <path class="cls-16" d="M46.173197,138.9246838c-.4338612-.6716859-.3923422-1.5407012.1087924-2.1638077,6.361719-7.9101086,47.556028-58.5778578,69.3977747-71.7139349,7.1577714-4.3048314,23.0625381-3.3556469,26.4812929,1.586451,3.4187508,4.942092,4.2441136,14.9669114-2.3304932,21.6671701l-74.1737881,75.2829584c-1.1413727,1.1584404-3.0731614.9077525-3.8810469-.5036429l-15.6025317-24.155194Z"/>
      <path class="cls-12" d="M176.8890157,91.4590612c1.8795661,17.2257797,5.3254885,30.1918274,6.8575855,52.7991122.3484992,5.1423767-2.9468438,9.8436663-7.901786,11.2628345-23.6108796,6.7625026-54.2147922,2.7457952-71.172935-3.5110238-4.6313402-1.7087636-7.5128513-6.3151359-7.1009605-11.2344378,0,0,12.383496-48.2484349,15.9963729-56.8708413"/>
      <path class="cls-13" d="M110.1002736,86.8492848c-9.9494908-16.7911649,18.5147709-29.8408738,33.990273-30.4571921,38.8306225-1.5464456,52.5211336,28.5310458,32.7984691,35.0669685"/>
      <path class="cls-30" d="M174.6174997,33.3057662c1.151123-11.569458-7.1269531-22.008606-18.7297363-23.4545288-11.6027832-1.4458618-22.1896973,6.642334-23.9130859,18.140564-3.6025391-.2215576-6.7084961,1.7732544-7.0656738,4.6395264-.3756104,3.0142212,2.4299316,5.8453369,6.2661133,6.3233643.689209.0858765,1.3636475.0870361,2.010498.0184937,2.0197754,5.1853638,6.0161133,9.4552612,11.1695557,11.789978l-.8500977,6.8215332c-3.4396973.5548706-5.8996582,2.0004883-5.8394775,3.980957.0760498,2.5057983,5.9799805,5.3110962,9.0959473,5.7935791s11.9022217.1724243,13.4291992-2.9865723c.8720703-1.8045044-1.3138428-3.8731079-4.6833496-5.2972412l.8243408-6.6146851c5.8544922-.850769,11.0518799-4.0872192,14.416748-8.8065186.6102295.2251587,1.2642822.3895264,1.9534912.4754028,3.8364258.4780884,7.2507324-1.5778809,7.6264648-4.5921631.3571777-2.8662109-2.1643066-5.5623779-5.7109375-6.2316895Z"/>
      <g>
        <path class="cls-16" d="M175.3498847,33.1952333c-2.0078436,2.3047003-8.1194507,4.3273947-8.6156718-5.9543396-4.1878563,3.0737331-7.3548946.8770018-7.6515426-1.6066763-1.7698237,1.2989858-5.228801,2.7738564-7.8151265-1.0109114-3.0652112,2.9482356-5.9118948,1.7918247-6.9262146-.525949-.0657838,3.014829-7.0986709,4.1106994-6.4831079-2.1280938-1.5086439,2.1888961-3.3390173,8.4618708-5.964096,6.5582829-2.0538543-1.4893619,1.0034181-8.274532,5.6774462-13.5298482,2.8245429-3.1758187,10.3433057-7.0696536,17.5227126-6.1566154,10.7181446.6330108,21.9745509,11.0707335,20.2556004,24.3541507Z"/>
        <g>
          <path class="cls-16" d="M137.4030394,21.7692125c-.7552978.4336442-1.2774597,1.0759804-1.6063709,1.8752818-.2920969.7098374-.4158426,1.4716521-.6134411,2.2099834-.202598.7570115-.4798856,1.607528-1.0627069,2.1617979-.1060513.100856-.1210982.1140033-.2890208.1978936-.0986968.0493066.097951-.0302338-.0037851-.0009199-.0257035.0074061-.0628113.0129046-.0863345.0251748-.0105584.0055075-.1146126.024264-.0204878.0086719.0915104-.015159-.0288522.0017631-.0485255.0010452-.0688081-.0025107-.2047419-.019466-.0655048.0073954-.056247-.0108511-.1110907-.0244306-.1664969-.0388341-.0369664-.0096099-.0736499-.0240544-.1095011-.0366452.0082704.0029045.1080865.0497296.0343835.0142792-.0630064-.0303054-.1247596-.0625813-.1848949-.0983086-.0704301-.0418436-.1383346-.0878667-.2045579-.136049.109093.0793731-.0747855-.0648253-.1006079-.0879146-.1190458-.1064457-.2309949-.2207946-.3371958-.3399972-.0491981-.0552213-.0964437-.1119641-.1439046-.1686654-.0161637-.0193107-.0840534-.1058805-.004791-.0031461-.0247996-.0321435-.0492305-.0647411-.072889-.0977344-.0888669-.1239308-.1742817-.2497702-.2551367-.3790992-.4824581-.7717011-1.7092156-.0610548-1.2238168.71535.6848151,1.0953751,1.8972416,2.4059855,3.3382371,1.9905731.8997507-.2593815,1.4964717-1.127481,1.8659142-1.9348337.3916226-.8558236.5810047-1.755994.8111172-2.662467.2204319-.8683385.4742999-1.5446617,1.2656677-1.9990151.7908499-.454056.0777959-1.6791909-.71535-1.2238168h0Z"/>
          <path class="cls-30" d="M150.4047184,24.5100858c-.0511672.0866489-.1056532.170446-.163355.2528505-.11357.1621904.1014992-.1120414-.0290825.0353714-.026119.0294856-.0514778.0595219-.0780994.0885576-.0662119.072216-.1359511.1411911-.2087221.2067883-.0435904.0392932-.0884325.0770237-.1339229.1140866.0988168-.0805102.0213228-.0154661-.0361421.0232323-.1638611.1103483-.3332705.2076796-.5112284.2934981-.0038039.0018344-.1826236.0776428-.0740231.0338258.1092768-.0440898-.0743285.0261829-.0775455.0272877-.1141729.0392114-.2282982.0765104-.3450958.1073763-.0979618.0258882-.1968847.0482121-.2964149.0671776-.0400472.007631-.080246.0141619-.1203983.0212159-.2029196.0356496.1617561-.0136652-.0439536.0059785-.2162004.0206454-.4318673.031223-.6490953.0249245-.1038241-.0030103-.2074666-.0093405-.3108886-.0189499-.0517946-.0048125-.1035008-.0103456-.1551188-.0168033.1683197.0210574.0251303.0029926-.0168573-.0052613-.2151112-.0422863-.4274567-.0874979-.6368902-.1535037-.0991012-.0312331-.1965188-.066594-.2936366-.1034084-.1935549-.0733707.1374387.066759-.0496663-.0210943-.0374297-.0175747-.0749419-.0347773-.1120831-.0529923-.2043001-.1001943-.3948923-.2192861-.5831273-.3464829-.163717-.1106291.0747433.0636774-.0199265-.0124941-.0399205-.03212-.0794309-.0646591-.1181426-.0982389-.0774002-.0671395-.1520692-.1375076-.2235691-.2108969-.0717685-.073665-.1397181-.1506624-.2053917-.2297932-.0895073-.1078482-.012577-.0173066.0034772.0048821-.0487586-.0673902-.0958012-.1358579-.139946-.2063758-.0557979-.0891329-.1074677-.1808536-.1547617-.274776-.0191483-.0380272-.0373462-.0765067-.0552768-.1151205-.0889908-.1916429.0472743.1416437-.022981-.059981-.0741964-.2129353-.1331018-.4270423-.1715368-.649497-.0388599-.2249141.0094489.1507947-.0095442-.0809559-.0039488-.0481823-.0080486-.0962817-.0108109-.1445454-.0071279-.1245402-.008459-.2494051-.0046891-.3740853.0102009-.3373776.0274005-.4464468.1010262-.7721075.1371763-.6067576.3406006-1.1904889.4530751-1.8048297.1651128-.9018532.2475161-1.8071408.0905325-2.7156103-.0690198-.39942-.5594136-.6236355-.922589-.5238296-.4222221.1160329-.5930496.5220101-.5238296.922589.2318792,1.3418926-.3289386,2.6057405-.5792316,3.8920234-.228633,1.1749699-.1318411,2.4238706.5154107,3.4578045,1.1310976,1.8068394,3.4654752,2.5272346,5.4885857,2.0841891,1.1234185-.2460199,2.1418214-.9177609,2.7306721-1.9149475.4919446-.8330813-.8041769-1.5886097-1.295206-.7570787h0Z"/>
          <path class="cls-30" d="M165.9195744,25.6751411c-.5030494.8592253-1.2401402,1.5208187-2.121041,1.7973991-.8405989.2639266-1.6592096.2336699-2.5074342-.0360255-.3891633-.1237356-.7029228-.2724471-1.0937848-.5348254-.1917666-.1287293-.2144622-.1450245-.409503-.3282591-.071611-.0672762-.1407653-.1369451-.2072081-.209335-.0234446-.0255431-.2063473-.2497143-.1358676-.1548942-.2905051-.3908317-.3549373-.5735757-.4573018-.9866991-.0411229-.165964-.0142446.0281015-.0204411-.1437486-.0033935-.0941136-.0080458-.1866743-.004416-.2809515.001831-.0475555.0049583-.0949568.0094083-.1423392.0115474-.1229527-.0193507.1073437.0023465-.0161657.033013-.1879239.0856808-.3723885.1350348-.5564536.1899009-.7082332.4492873-1.3998858.6106148-2.1154364.1687331-.7483974.1834676-1.4955747.0886721-2.2547303-.0501803-.4018614-.3087843-.75-.75-.75-.366327,0-.8005361.3452894-.75.75.084927.6801254.0951732,1.3380761-.0689974,1.9990299-.183461.7386174-.4474265,1.4550659-.634706,2.1931347-.2648635,1.0438277-.1230562,2.1106114.5028097,3.0034538,1.2664951,1.8067459,3.731835,2.6120662,5.8478643,2.0789469,1.4049913-.3539781,2.5356852-1.3193089,3.2591564-2.555022.4887465-.8347954-.8072148-1.5905842-1.295206-.7570787h0Z"/>
          <path class="cls-30" d="M157.942753,25.5100548c-.5291204.4583942-1.3189237.6810766-2.0635281.6908361-.8286861.0108616-1.6632097-.1893309-2.3856544-.5689819-.7337492-.3855916-1.2938855-.8675333-1.6393824-1.5908212-.0451678-.0945575-.0173992-.0122266-.0673174-.1739825-.0263848-.0854977-.0524229-.1703919-.0729719-.2575997-.0456421-.1937007-.0567827-.2647695-.0505272-.5391268.0077583-.3402666.1120056-.7269992.2814252-1.1043093.6304529-1.4040652,1.1364383-2.8552425.7854294-4.4100873-.212485-.9412334-1.6589963-.5428846-1.4464186.3987594.3031587,1.3428858-.3716741,2.5306578-.8422887,3.7351447-.3970563,1.0162223-.3548202,2.1269931.1174631,3.1082801.8980356,1.8658946,3.1710823,2.8657288,5.1534069,2.9022476,1.2032018.0221657,2.3761225-.33709,3.2910243-1.1296991.7308918-.6331953-.333898-1.6902779-1.0606602-1.0606602h0Z"/>
          <path class="cls-30" d="M143.9106238,24.9078368c-.326484.3994207-.6944944.7831875-1.1143471,1.0679075-.4036643.273742-.7214567.4304095-1.1585664.5508103-.1007481.0277508-.2026666.0517472-.3052499.0716811-.0503013.0097745-.1009891.0190281-.1516623.0264656.0336239-.0049351.1263805-.012503-.0264844.0014738-.2079578.0190141-.4167421.0228138-.6251133.0081806-.0477725-.0033549-.0954093-.0077267-.1430233-.0128435-.122708-.0131866.108734.019219-.0116092-.0026276-.0920006-.0167014-.1832019-.0347569-.273904-.0576457-.078037-.0196927-.1554456-.0418914-.2319285-.0669757-.0433106-.0142047-.0860379-.0296482-.1288808-.0451356-.2051548-.0741621.1250781.064597-.0700128-.0289618-.1607561-.077093-.3100168-.167297-.4597477-.2634903-.0226693-.0145637-.1153126-.0839946-.0057851.0008235-.0339969-.0263273-.068176-.0541308-.1001466-.0827045-.0723324-.0646471-.1431676-.1300117-.2099701-.2004496-.0514705-.0542715-.1013299-.110341-.1481029-.1687482.0938146.1171499-.043809-.0683666-.0689044-.1080857-.0457185-.07236-.0857921-.1473638-.1261761-.2227432-.0200155-.0373601-.03795-.0771466-.055083-.1160406.0675733.1534003-.011931-.0420989-.0177923-.0617537-.0249793-.0837626-.0508482-.1666286-.0700325-.2520148-.0111573-.0496595-.0392369-.284265-.0260454-.1300168-.0158941-.18585-.0160434-.3707266.0012463-.556536-.0120173.1291474.0189276-.1080059.029066-.1563075.0184854-.0880689.040332-.1753947.064136-.2621657.050582-.1843831.1133166-.3650146.1728083-.5466203.3624897-1.1065457.3016774-2.167016-.0374835-3.2772626-.2812205-.9205782-1.7295477-.5280669-1.4464186.3987594.1738456.5690853.2780801,1.0642002.2451373,1.647759-.0130756.2316242.0176289-.0822593-.0028897.049399-.007009.0449732-.0151659.0897064-.0240146.1343509-.019107.0964008-.042626.1917779-.0687109.286509-.0501998.1823078-.112574.3608806-.171385.5404977-.2813958.8594226-.3936349,1.7783207-.067978,2.6443031.706593,1.8789626,2.7703968,2.6933666,4.6556504,2.3270265,1.2903104-.2507315,2.42087-1.0739547,3.2400642-2.0761573.2561431-.3133656.30658-.7540802,0-1.0606602-.2644044-.2644044-.8030314-.3151832-1.0606602,0h0Z"/>
          <path class="cls-16" d="M165.8754181,25.9001344c.4328812,1.3394459.5893182,2.6651652.66326,4.0624618.060141,1.1365.167329,2.3568435.7299731,3.3723541,1.1134203,2.0096012,3.7899244,2.086977,5.7243445,1.434948,1.3279598-.4476113,2.5499977-1.2199842,3.4798536-2.2729858.601761-.6814554-.3969894-1.6875589-1.0021986-1.0021986-1.2516157,1.4173738-3.3063828,2.4781345-5.2425173,2.2004301-.7451034-.106872-1.4397781-.4669587-1.7815868-1.1621981-.4115017-.836995-.4528821-1.8293997-.4993243-2.7423229-.0741647-1.4578689-.2543939-2.8726394-.7051093-4.2672692-.2793425-.8643577-1.6483187-.4946366-1.3666947.3767806h0Z"/>
        </g>
      </g>
      <g>
        <path d="M149.2892708,30.0520239c-.146484,1.1951248-.292968,2.3902496-.439452,3.5853745-.0479149.390925.3791524.7666103.75.75.4472816-.0200338.6986639-.3311618.75-.75.146484-1.1951248.292968-2.3902496.439452-3.5853745.0479149-.390925-.3791524-.7666103-.75-.75-.4472816.0200338-.6986639.3311618-.75.75h0Z"/>
        <path d="M145.0288819,36.3643142c.5156756,1.6502039,1.8723492,3.0011127,3.562496,3.4272387,1.7554873.4425998,3.6974477-.1539876,4.9182342-1.4848419.6515658-.7103119-.4064177-1.77389-1.0606602-1.0606602-.8624813.9402438-2.2025252,1.4143044-3.4588147,1.0990835-1.1804289-.2961864-2.1522855-1.2193855-2.5148369-2.3795795-.2869707-.9183296-1.7354942-.5263062-1.4464186.3987594h0Z"/>
        <path d="M145.0288819,36.3643142c.5156756,1.6502039,1.8723492,3.0011127,3.562496,3.4272387,1.7554873.4425998,3.6974477-.1539876,4.9182342-1.4848419.6515658-.7103119-.4064177-1.77389-1.0606602-1.0606602-.8624813.9402438-2.2025252,1.4143044-3.4588147,1.0990835-1.1804289-.2961864-2.1522855-1.2193855-2.5148369-2.3795795-.2869707-.9183296-1.7354942-.5263062-1.4464186.3987594h0Z"/>
        <path d="M155.202196,33.0769232c.0367277-.1420826.0766475-.283255.1225726-.4226642.0209791-.0636837.0431195-.1269798.0665192-.1898145.0099594-.0267438.0201419-.0533974.0305798-.0799583.0611519-.1556113-.0432269.0945366-.0126677.0272648.0903872-.1989749.189609-.392739.3173476-.5707369.0966842-.134725-.0961661.1142725-.0255369.0324717.0277821-.0321764.0550194-.0645311.0842011-.0954727.0275405-.0292014.0559642-.0575721.085475-.0847869.0588661-.0542862.1842835-.1193624-.036232.0204683.0589871-.0374042.1134738-.0795168.175543-.1124669.0256722-.0136283.0528333-.0244613.078424-.0380795-.2385647.1269538-.1304146.0522398-.0517899.0284541.028939-.0087547.0582215-.0163385.0878001-.0226152.0128174-.0027199.0261735-.0043655.0388448-.007493.0850281-.020986-.1570976.0170737-.1413802.0183753.0613739.0050827.1275559-.0078103.1901344-.0049681.0808024.0036699.1461059.0465093-.1067643-.0169211.0266285.0066796.0547095.0092949.0815695.0153645.0568507.0128465.1098576.034866.1655887.0505788.0725207.0204465-.2099189-.0997681-.0962589-.040001.0433428.0227914.0839466.0462287.1253001.0724575.0908254.0576066-.1555799-.1369699-.0404609-.0256587.0139212.0134607.0274634.0274395.0405221.0417514.0973281.1066687-.0465929-.0360009-.0432573-.059941-.0023665.016984.0694463.111218.0790517.1297019.0039434.0075882.0252742.0560818.0273407.0562765-.0063647-.0005997-.0711919-.1924329-.0392687-.0902657.0149162.047738.0315082.0943395.0437226.1429927.0092481.0368378.0429836.243168.0220301.0896935-.0199226-.1459235-.0041153-.018975-.0020749.0094985.0027069.0377746.0042811.0756388.0048839.1135035.0010488.0658793-.0010132.1318355-.0056793.1975516-.0019383.0272991-.0048253.0544738-.0071902.0817382-.0133914.1543857.035425-.1871049.0038242-.0316504-.0147267.0724453-.0274063.1450263-.0450966.2168752-.0381622.1549954-.090555.3041478-.1464876.4534156-.0591877.1579548.0553596-.1150869.0059928-.0155938-.0232251.0468075-.0439849.0948802-.0673025.141687-.0444077.0891421-.0923108.1762681-.142115.2625025-.1963111.3399068-.0902807.8362844.2690637,1.0261424.3579508.1891217.8165345.0938661,1.0261424-.2690637.367468-.6362599.6456271-1.3934864.6062751-2.1397142-.0347213-.6584161-.3035501-1.3368702-.9063691-1.6724961-.8037289-.4474847-1.7890281-.2296023-2.3874187.4536762-.4736466.5408382-.7436831,1.2200415-.9218172,1.909161-.0980572.3793384.1246431.8316671.5238296.922589.3911863.0890997.817537-.1174315.922589-.5238296h0Z"/>
        <path d="M143.6638162,31.1708421c-.0309852.2389698.007794-.0422086.015901-.0896704.010254-.0600311.0213713-.1199186.033506-.1795986.0277044-.1362536.0605376-.271508.1000311-.4048393.0314069-.1060308.0687801-.2094629.1079426-.3128058.0471223-.1243476-.0713172.1534988-.0295127.0701743.0121289-.0241752.0224165-.0494075.0341794-.0737851.0224124-.0464479.046152-.0922722.0714269-.1372295.0416226-.0740355.0961097-.1406492.137701-.2139964-.1121294.1977425-.0858915.1068393-.0281012.041029.0293873-.0334656.0601052-.0657405.0923435-.0964768.025045-.0238781.0518333-.0455197.0776064-.0685412.0615875-.0550123-.1788715.1273639-.0903702.0700392.0120418-.0077998.0235361-.016641.0354713-.0246006.0846073-.0564249.3019543-.1265164.0195499-.0304646.0550854-.0187357.1082049-.0393495.1651672-.0523909.0243509-.0055751.0491891-.0087502.0735351-.0141056-.2810526.0618233-.1634562.018663-.0803829.0151483.0387459-.0016393.1385838.021499.1713186.0060794-.0253328.011933-.2448704-.0439186-.1112149-.0134329.0317186.0072347.0633889.0134588.0948025.0220978.0287947.0079189.0566004.0184919.0851952.0268651.0938218.0274729-.1052362-.0364807-.102829-.0436425-.0000048.0000143.054732.0285264.0607277.0319751.0769946.0442878.1345261.1285516-.0273937-.0310458.0333792.0329004.0696797.0620129.1014027.0969208.1154539.1270453-.1070614-.1606511-.0109442-.0136605.0249436.0381459.0475291.0777697.0682035.1183766.0053632.0105338.0254907.0685997.0335861.0708122-.006097-.0016663-.071415-.1914817-.0396401-.0894382.0166546.0534856.0354276.1058994.0493338.1603035.0072035.0281816.0136071.0565312.0194928.085013.0064962.0314355.0268279.1701603.0079055.024499-.0189647-.1459874-.0027673-.0168652-.0002343.0108852.0034846.0381762.0059841.0764488.0076217.1147473.0058568.1369734-.0033248.2719363-.0139196.4083504-.0124028.1596925.0337883-.186306.0036493-.0260948-.0083468.0443694-.015256.0889622-.0241836.133245-.0154137.0764545-.0333927.1524028-.0536304.2277227-.0211436.0786918-.0448131.1567136-.0707182.2339667-.0133822.0399077-.0274464.079566-.0420122.1190548-.015382.0417016-.0917278.2288156-.0110447.0380366-.082054.1940206-.1341694.3652553-.0756063.5779191.0479075.1739693.1824216.3625001.3446699.4482233.17406.0919639.3849227.1380625.5779191.0756063.1718971-.0556283.3743983-.1701073.4482233-.3446699.3166723-.7487865.4985839-1.5208646.3666454-2.3343044-.0949861-.5856174-.4367229-1.1807493-.9880118-1.4430764-.4071246-.1937275-.8790558-.2499203-1.3163883-.1245859-.4875944.1397389-.8598556.4718902-1.1444825.8805239-.4157969.596952-.5529749,1.349445-.6444378,2.0548414-.0228542.1762601.1003109.4109711.2196699.5303301.1300817.1300817.3435047.2280378.5303301.2196699.1939678-.0086878.3951419-.0724031.5303301-.2196699.1439459-.156807.1925458-.3211388.2196699-.5303301h0Z"/>
      </g>
      <path class="cls-30" d="M242.5956312,159.0330953c2.1532421,6.0328082,5.3808521,15.4760287,7.0269843,19.0807749,1.6461322,3.6047463,1.7273107,7.1342291.9931088,11.0284421-.6633817,3.5185834-2.6122121,3.2745202-4.9783102,5.9619137-2.374769,2.6972418-5.2385435,4.7234333-8.7743874,4.449888s-11.0366985-5.324548-13.3552092-8.0081141c-1.5024406-1.7390037-.7459595-5.3241169-.5036066-9.4625987.242353-4.1384818.6738-8.5574761,1.9390398-12.505252.8384098-2.6159884-1.7221965-7.7155355-1.2649727-9.5299824.4966683-1.970979,4.8887174-3.5647396,7.60771-4.3466917,2.5850351-.7434276,4.6085868-8.9663698,5.5323426-7.7220041l5.7773005,11.0536242Z"/>
      <g>
        <path d="M239.4446942,154.3082286c.7510466,1.9074702,1.5020933,3.8149404,2.2531399,5.7224106l4.5029663,11.4364056c1.0924912,2.7746538,2.1849824,5.5493076,3.2774736,8.3239614.6794142,1.7255418,1.1284003,3.4820063,1.0188956,5.3598003-.0824564,1.4139684-.4370293,2.8565304-.8779645,4.1987644-.4126096,1.2560092-.9793222,2.527992-1.8641954,3.5264513-.4293926.4845113-.9176788.8943383-1.49427,1.1928253-.4364446.2259366-.9323802.2787937-1.3117666.6042239-.7085861.6078112-1.2530633,1.3795321-2.0014341,1.9517893-.4606401.352238-.9831084.6587656-1.5533799.7864303-.2681929.0600394-.5389276.0719483-.8128017.0457346-.5238512-.0501402-.7144452.0603706-1.0765383.4415116-.7756673.8164712-1.8211849,1.6295752-3.0149021,1.5259241-.1459143-.0126698.0679068.0220824-.0921402-.0169555-.046825-.0114213-.0947783-.0273877-.1420353-.0361128-.1505621-.0277985-.1438136-.0585596.0253906.0202712-.8696101-.4051437-1.6322553.8874689-.7570787,1.295206,1.9299858.8991635,4.0532122-.6281806,5.2856509-1.9939061l-.7297098.1928792c2.4818732.4285632,4.1253763-1.3396589,5.708266-2.9407973.1139542-.1152679.2229808-.2020221.1657266-.1651022-.2417076.1558635.0112412.0113527.1078192-.0188425.1228995-.0384246.2431294-.0832069.3628631-.1305182.6419104-.2536432,1.2147305-.6099302,1.7411788-1.0554469.9611117-.8133587,1.6760315-1.9191858,2.2015774-3.05306,1.1980285-2.5847664,1.9093126-5.6937787,1.5470544-8.5339991-.1686987-1.3226523-.5782754-2.5506929-1.0619168-3.7790208-2.4776938-6.2927212-4.9553876-12.5854423-7.4330814-18.8781635-.8427897-2.1404745-1.6855794-4.2809491-2.5283691-6.4214236-.3496241-.8879575-1.8007862-.5012457-1.4464186.3987594h0Z"/>
        <path d="M230.3798798,182.8177788c2.2203271.9784363,4.4406542,1.9568727,6.6609812,2.935309l.9376928.4132151c.3703753.1632141.8054201.1083048,1.0261424-.2690637.1863992-.3186863.1035104-.8619594-.2690637-1.0261424-2.2203271-.9784363-4.4406542-1.9568727-6.6609812-2.935309l-.9376928-.4132151c-.3703753-.1632141-.8054201-.1083048-1.0261424.2690637-.1863992.3186863-.1035104.8619594.2690637,1.0261424h0Z"/>
        <path d="M235.637914,185.4462218c-.7143987,2.2738536-1.4287974,4.5477073-2.1431961,6.8215609-.1024974.3262383-.2049949.6524765-.3074923.9787148-.2900098.9230697,1.1576058,1.3180192,1.4464186.3987594.7143987-2.2738536,1.4287974-4.5477073,2.1431961-6.8215609.1024974-.3262383.2049949-.6524765.3074923-.9787148.2900098-.9230697-1.1576058-1.3180192-1.4464186-.3987594h0Z"/>
        <path class="cls-30" d="M222.7305917,158.9897831c.3635014,2.0345623.7270029,4.0691246,1.0905043,6.1036869l.5775131,3.2324118c.0207763.1162877.0346311.2371223.062876.3519245.005919.0240581.0030906.0558738.0139277.0779551-.1073879-.2188109.0394191-.3832872-.0807576-.0792581-.2635116.6666449-.3515436,1.4640871-.4896011,2.1645886-.7814326,3.9649763-1.268345,7.9934379-1.7416268,12.004682-.113.9577183-.2221756,1.9158876-.3280377,2.8744208-.1053305.95372-.2626448,1.915446-.166401,2.8759225.1963207,1.9592066,1.1670799,3.7599809,2.7129831,4.9829501,1.7755672,1.4046571,3.5682058,2.7882104,5.3521661,4.1822041.7517619.5874298,1.8203052-.4664754,1.0603261-1.0603261-1.6632015-1.2996323-3.326403-2.5992647-4.9896045-3.898897-1.1736782-.9171169-2.1120458-1.9796746-2.4930704-3.4624249-.2530347-.9846799-.1590108-1.9507049-.0506552-2.9464778.1007139-.9255469.2044653-1.8507644.3116042-2.7755898.4596665-3.9678543.9416691-7.9460318,1.6810749-11.8731285.1408092-.7478591.292271-1.4944291.4747114-2.233366.1060662-.4295992.2476634-.8175096.1738032-1.26055-.1496363-.8975737-.3201954-1.7921729-.4802356-2.687938-.415179-2.323808-.830358-4.647616-1.245537-6.971424-.1694464-.9484123-1.6148299-.546535-1.445963.3986338h0Z"/>
        <path d="M241.1030054,190.4665286c-.5632884,2.537444-1.0947131,5.0818211-1.6580835,7.6192571-.2087541.9402343,1.2365574,1.3418027,1.445963.3986338.5633703-2.5374359,1.0947951-5.0818131,1.6580835-7.6192571.2087239-.9402381-1.2365871-1.341809-1.445963-.3986338h0Z"/>
        <path d="M245.4174661,189.9077254c-.3705609,1.7044873-.7411219,3.4089747-1.1116828,5.113462l-.158387.7285404c-.0859487.3953423.1182486.8109017.5236646.9222984.3745785.1029234.8358899-.1262072.9222984-.5236646.3705609-1.7044873.7411219-3.4089747,1.1116828-5.113462l.158387-.7285404c.0859487-.3953423-.1182486-.8109017-.5236646-.9222984-.3745785-.1029234-.8358899.1262072-.9222984.5236646h0Z"/>
      </g>
      <path class="cls-14" d="M221.672404,173.4645622c-.7069491.1380592-1.3908539-.3267672-1.5226711-1.0349068l-3.211458-17.2523926c-.3042089-.9393795.0212133-1.8902186.7617252-2.2256566l19.869682-9.0005928c.8214796-.3721148,1.8538585.1423594,2.2999487,1.1461533l8.4795109,21.5990745c.2957794.7534116-.1636758,1.5906185-.9580609,1.745753l-25.7186768,5.022568Z"/>
      <g>
        <rect class="cls-17" x="232.9243348" y="189.1571354" width="4.4991531" height="90.9378376" transform="translate(-13.3454512 14.1849502) rotate(-3.3595874)"/>
        <rect class="cls-22" x="229.8666607" y="186.7357358" width="5.7631246" height="17.7154089" transform="translate(-11.0639638 13.9780589) rotate(-3.3601374)"/>
        <circle class="cls-20" cx="232.2635348" cy="187.8174175" r="3.8239185"/>
        <g>
          <circle cx="287.6712441" cy="381.4512816" r="6.75"/>
          <circle class="cls-9" cx="287.6712441" cy="381.4512816" r="3.6730832"/>
          <circle cx="240.0120344" cy="382.7160883" r="6.75"/>
          <circle class="cls-9" cx="240.0120344" cy="382.7160883" r="3.6730832"/>
          <rect class="cls-15" x="232.7023046" y="258.1137652" width="59.2966584" height="121.8249176" rx="15.5616733" ry="15.5616733" transform="translate(-6.0669844 5.087426) rotate(-1.0983291)"/>
          <rect class="cls-19" x="256.852167" y="256.7821371" width="12.4149522" height="124.9544129" transform="translate(-6.0788363 5.1074963) rotate(-1.0996995)"/>
          <line class="cls-5" x1="261.7289196" y1="256.823474" x2="263.909174" y2="381.7633407"/>
          <rect class="cls-24" x="249.1490941" y="314.7980272" width="4.9999649" height="25" transform="translate(-2.8793984 2.2341692) rotate(-.5057816)"/>
          <rect class="cls-24" x="249.2502958" y="301.0025415" width="3.7552077" height="7.9910148" transform="translate(-2.6823007 2.2284765) rotate(-.5057312)"/>
          <g>
            <path class="cls-20" d="M241.1520188,259.4470415s-3.551841,1.1063028-6.9061728,4.5205962c-1.4194781,1.4448525-2.2171233,4.1754881-2.4392453,6.902597-.2303622,2.8282779-.0924301,7.6786182-.0924301,7.6786182,0,0,5.0350439,1.5238383,5.4485656-2.212623l.4898835-7.1177005,4.2693866-3.9447714c2.5396416-2.7746334-.7699876-5.8267166-.7699876-5.8267166Z"/>
            <circle class="cls-25" cx="234.4076711" cy="276.168626" r=".875"/>
            <circle class="cls-25" cx="239.7838389" cy="263.3001833" r=".875"/>
          </g>
          <g>
            <path class="cls-20" d="M244.1589984,380.402769s-3.6218916-.8493417-7.2119116-4.0148903c-1.5192161-1.3395893-2.5101876-4.0061571-2.9268586-6.7103846-.4321284-2.8045477-.6415803-7.6523262-.6415803-7.6523262,0,0,4.9131129-1.8801786,5.59291,1.8171204l.9978828,7.0644091,4.5406841,3.629197c2.7316515,2.5858171-.3511264,5.8668746-.3511264,5.8668746Z"/>
            <circle class="cls-25" cx="236.2355451" cy="364.206581" r=".875"/>
            <circle class="cls-25" cx="242.5186417" cy="376.6573921" r=".875"/>
          </g>
          <g>
            <path class="cls-20" d="M281.2703777,379.0761103s3.6694935-.6117987,7.4579404-3.5369673c1.6031859-1.2378659,2.7656179-3.8342789,3.3574183-6.5056518.6137547-2.7704743,1.1382951-7.5943404,1.1382951-7.5943404,0,0-4.7803176-2.1959768-5.6993232,1.4492355l-1.4555756,6.9844789-4.7672732,3.325957c-2.8941649,2.402536-.0314818,5.8772882-.0314818,5.8772882Z"/>
            <circle class="cls-25" cx="290.2312082" cy="363.4299884" r=".875"/>
            <circle class="cls-25" cx="283.1510355" cy="375.4454432" r=".875"/>
          </g>
          <g>
            <path class="cls-20" d="M279.9542505,257.8713912s3.6480151.7290174,7.340826,3.7740278c1.562715,1.2885802,2.6413883,3.9208934,3.1473219,6.6098508.5247025,2.7887111.894467,7.626903.894467,7.626903,0,0-4.8482012,2.0417382-5.6499805-1.6310392l-1.2311184-7.0275169-4.6582979-3.4769446c-2.8157276-2.4940024.1567819-5.875281.1567819-5.875281Z"/>
            <circle class="cls-25" cx="288.4093436" cy="273.7964977" r=".875"/>
            <circle class="cls-25" cx="281.7176544" cy="261.5604323" r=".875"/>
          </g>
        </g>
        <path class="cls-27" d="M278.7487922,294.8073334c.2838075,13.7135225.567615,27.4270449.8514225,41.1405674.0808421,3.9062761.1616843,7.8125522.2425264,11.7188283.0199422.9636014,1.5195385.966922,1.4995276,0-.2838075-13.7135225-.567615-27.4270449-.8514225-41.1405674-.0808421-3.9062761-.1616843-7.8125522-.2425264-11.7188283-.0199422-.9636014-1.5195385-.966922-1.4995276,0h0Z"/>
        <path class="cls-27" d="M283.2273119,295.2464734c.2838075,13.7135225.567615,27.4270449.8514225,41.1405674.0808421,3.9062761.1616843,7.8125522.2425264,11.7188283.0199422.9636014,1.5195385.966922,1.4995276,0-.2838075-13.7135225-.567615-27.4270449-.8514225-41.1405674-.0808421-3.9062761-.1616843-7.8125522-.2425264-11.7188283-.0199422-.9636014-1.5195385-.966922-1.4995276,0h0Z"/>
        <path class="cls-27" d="M287.4279724,295.658368c.2838075,13.7135225.567615,27.4270449.8514225,41.1405674.0808421,3.9062761.1616843,7.8125522.2425264,11.7188283.0199422.9636014,1.5195385.966922,1.4995276,0-.2838075-13.7135225-.567615-27.4270449-.8514225-41.1405674-.0808421-3.9062761-.1616843-7.8125522-.2425264-11.7188283-.0199422-.9636014-1.5195385-.966922-1.4995276,0h0Z"/>
        <path class="cls-27" d="M236.3280335,299.5301244c.2838075,13.7135225.567615,27.4270449.8514225,41.1405674.0808421,3.9062761.1616843,7.8125522.2425264,11.7188283.0199422.9636014,1.5195385.966922,1.4995276,0-.2838075-13.7135225-.567615-27.4270449-.8514225-41.1405674-.0808421-3.9062761-.1616843-7.8125522-.2425264-11.7188283-.0199422-.9636014-1.5195385-.966922-1.4995276,0h0Z"/>
      </g>
      <path class="cls-16" d="M160.3083279,223.498223c-15.9382572-41.3553056-2.1052793-121.0635195-3.2867145-118.0842027-.127557.3216704,13.0545298-43.4523227,13.0545298-43.4523227.2227848-1.0441715,3.0149525-1.3154187,3.9705909-.9653781,22.4708213,8.2308346,30.6186932,21.3754675,28.535295,37.3873296-.0053211.040895,12.992099,10.4359203,12.9925026,10.4772017,0,0-19.0510474,41.5155362-19.0295142,41.5871039.5342133,1.7755061,8.8516977,36.9250139,8.8516977,36.9250139,0,0,19.5320527,19.9003688,8.6048761,33.6157535-7.1489364,8.9730785-27.4343674,10.435182-38.0924733,11.4825792-9.2985631.9137917-14.1874717-5.3059137-15.60079-8.9730783Z"/>
      <path class="cls-16" d="M175.3539633,62.307784c22.9945888,5.7398053,64.014619,61.3186222,73.0855037,93.0303111-5.6575696,1.5412945-32.2672931,7.0817938-32.2672931,7.0817938-11.067702-18.8375472-16.6163053-29.5371092-30.3266786-45.1726057"/>
      <path d="M213.4714282,220.458559c-2.5002801,2.1597133-5.4615341,3.7624723-8.4680465,5.0980495-3.4432138,1.5295722-7.051206,2.6945391-10.6930315,3.6474953-6.6558536,1.7416367-13.628592,2.9278859-20.5262515,2.9013093-2.2315123-.008598-4.5501688-.0058169-6.519121-1.1436065-2.1074572-1.217827-3.5863443-3.30183-4.731369-5.398185-2.7441632-5.0241187-4.0387918-10.8287799-5.0571257-16.4164159-.3773807-2.0707018-.6870967-4.1516734-1.0158168-6.2303395-.2447903-1.5479348-.6908228-3.0412577-1.0086353-4.5750109-1.0848178-5.2352954-1.4897798-10.6089498-1.7351294-15.9408049-.3018085-6.5588004-.2850016-13.1311375-.1266955-19.6936486.1649178-6.8365959.4956973-13.6688278.928774-20.4934216.3902301-6.1494007.8656108-12.2933575,1.4091599-18.4310623.4050082-4.5733134.8474466-9.143402,1.3317493-13.7090091.216237-2.0385043.4686819-4.0736162.6799828-6.1124921.0254398-.2454731-.0871866.3015453.0300778-.0516435.1293443-.3895724.2278747-.7924328.3415519-1.1867906.500712-1.7370214,1.0039474-3.4733161,1.509058-5.2090633,1.6236053-5.5793096,3.2650393-11.1535518,4.9420363-16.7170648,1.5637924-5.1879516,3.1206734-10.3858015,4.8794345-15.5118503.2688394-.7835538.5428864-1.5658469.8405124-2.3390112.0527039-.1369126.1060956-.273568.1609626-.40963.0278183-.0689851.0553628-.138152.0844252-.2066285.0176185-.0415126.0618085-.1274675-.0218448.0512361.0436224-.093188.0850361-.1865991.1356681-.2763359.5057146-.8962964,1.4281377-.9488315,2.3047503-.6505232,2.5768857.8769055,5.0379179,2.0643784,7.3996312,3.4121086,5.631814,3.2138388,10.7253275,7.3219442,15.4751987,11.7143903,5.4807574,5.0683336,10.536975,10.5900622,15.2967721,16.3362009,5.008486,6.0463618,9.6864162,12.3654547,14.0707851,18.8776251,4.1945779,6.2302709,8.1268,12.643178,11.7135392,19.242979,3.0495732,5.6113855,5.8853075,11.3661858,8.1953819,17.3247819.9125556,2.3538421,1.7415378,4.7424586,2.4186732,7.1752148l.5236646-.9222984c-4.6577752,1.4067795-9.4353522,2.4537424-14.174913,3.5411959-4.9166196,1.1280782-9.8432648,2.2126993-14.7748071,3.2735195-1.0389215.2234816-2.0779821.4463823-3.117735.6659707l.846716.3445614c-1.3158268-2.669741-2.7642229-5.2794293-4.2349076-7.8659017-3.4305014-6.0331745-7.135289-11.9191569-11.1753365-17.5636324-2.6530969-3.7067239-5.4546819-7.3111216-8.4572874-10.7419578-.6367502-.7275633-1.6937512.3365621-1.0603261,1.0603261,5.156109,5.8914716,9.7175428,12.2874907,13.9163544,18.8887102,2.9647461,4.6610663,5.7571015,9.4368195,8.3433241,14.3184444.4671564.8817812.9321836,1.7656858,1.373381,2.6608513.1520068.3084135.536964.4099788.846716.3445614,2.8907859-.6105133,5.7781323-1.2376996,8.6639029-1.8714314,5.4441136-1.1955587,10.8847203-2.4135663,16.2997246-3.7355497,2.3779069-.5805265,4.759955-1.1657893,7.1038275-1.8737049.3868852-.1168502.634741-.5232323.5236646-.9222984-1.5450698-5.5509992-3.8186944-10.9000044-6.2900177-16.09473-3.0901243-6.4954463-6.5966798-12.792508-10.3524926-18.9249545-4.1264839-6.7376738-8.5715991-13.2829801-13.3164337-19.6005125-4.704745-6.264155-9.6998333-12.3210882-15.0830596-18.0156447-4.8939137-5.1769452-10.1173894-10.0802687-15.8419211-14.3329484-2.4892114-1.8492026-5.0810187-3.5697331-7.8016543-5.0606855-1.2433361-.6813683-2.5137135-1.3143176-3.8132789-1.8815304-.6435752-.2808971-1.2928606-.5493327-1.9493662-.7986036-.672241-.2552454-1.3781708-.5678743-2.0962188-.6492449-1.0105749-.1145204-2.0473873.2881196-2.7117748,1.0616824-.3589351.417917-.5573464.9138776-.7574793,1.4182558-.2924292.7369849-.5572769,1.4850252-.8172473,2.2339509-.7838529,2.2581319-1.5089305,4.5368487-2.2257016,6.8169824-1.8554275,5.9023342-3.6243296,11.8319949-5.3757643,17.7658828-1.3021717,4.4117781-2.5904039,8.8277017-3.8644996,13.2476709-.1542348.5350562-.3554,1.0731951-.4240367,1.6273398-.0800632.6463974-.1509505,1.2940712-.2240677,1.9412753-.3917431,3.4675522-.7520061,6.9387024-1.0918444,10.4117049-.5467673,5.5877287-1.0369931,11.1810895-1.4656023,16.7791316-.5149676,6.7259636-.9420097,13.4592421-1.2419229,20.1983525-.3056605,6.8682539-.4857043,13.7450886-.4240014,20.6205215.05472,6.0973465.2727473,12.2136246.9840256,18.2734426.2921406,2.4889255.6619631,4.9742387,1.212836,7.4201787.3328059,1.477697.698924,2.9038954.9301157,4.4021391.8002825,5.18625,1.6833756,10.3752211,3.2656567,15.3902735.8785611,2.7846065,1.9583755,5.5617434,3.5027962,8.0506429,1.3011193,2.0968089,3.0223249,4.1263551,5.3089515,5.1745728,2.1870757,1.0025823,4.7598589,1.0083412,7.1235777.9898371,3.3036489-.0258622,6.6032201-.3595814,9.8706994-.8307103,7.5444321-1.0878109,15.1175588-2.9709143,22.0678375-6.147094,2.9527513-1.3493658,5.8066402-2.9782175,8.271195-5.1070717.7315502-.6319047-.3329997-1.6885823-1.0603261-1.0603261h0Z"/>
      <path d="M164.1888621,100.4993067c2.0266152-2.6352025,3.9132695-5.3726414,6.0329186-7.9367436,2.3323133-2.8213583,4.9200338-5.6148634,8.0939808-7.4994725,1.4629417-.8686576,3.4185802-1.283061,3.7232195-3.2436466.1195009-.7690792-.1338454-1.4590547-.3723579-2.1708962-.7881445-2.3522208-1.6735126-4.673428-2.6565152-6.9510826-1.292758-2.9953695-2.7477731-6.240129-5.0708269-8.5942361-.6788701-.6879449-1.7391038.3724749-1.0603261,1.0603261,1.9646805,1.9909433,3.2292078,4.7131112,4.3679989,7.230301,1.0511721,2.3235161,1.9663908,4.7101718,2.793522,7.1220527.146038.4258409.2918746.8522324.4263483,1.2819159.2452548.7836624-.0100434,1.510557-.7596597,1.8972264-.7399444.3816805-1.5025175.6852609-2.2206396,1.1162353-3.0681969,1.8413503-5.6216197,4.4798741-7.912303,7.1965665-2.3662931,2.8063637-4.4445482,5.8276563-6.6801577,8.7346135-.2487345.3234288-.0470956.8364745.2689789,1.0258192.3840538.2300678.7802546.0503281,1.0258192-.2689789h0Z"/>
      <path class="cls-16" d="M130.8132184,59.2903918c-6.4343617,25.8731327-17.9811644,50.4642879-33.7797161,71.9404554,0-8.2776016-1.6023044-19.748179,0-29.7756373,1.4986432-9.3787313,5.0705329-15.9248616,9.3492274-24.3434249,4.2786945-8.4185634,13.6855058-16.7104551,24.4304887-20.1402746"/>
      <path d="M126.1475854,61.6979331c-2.6942063,1.3997791-5.4934807,2.5788702-8.1990034,3.9536073-.8365408.4250653-1.7588207.8663709-2.4585617,1.5055763-.748161.6834365-.6818872,1.8761779-.8451298,2.8172859-.831039,4.7910133-.8726911,9.7699801-.9258373,14.6176659-.0405057,3.6946933.0148763,7.3905015.165965,11.0823116.0393523.9615626,1.5390844.9665613,1.4995276,0-.2457335-6.0044315-.2647296-12.0293073.0380523-18.0321543.1069893-2.121132.2391627-4.2513333.5272556-6.356826.1117899-.8170028.3133556-1.6225273.3864468-2.4432897.044197-.4963011.2211535-.6491876.6216922-.9126153.4202664-.2764023.8614992-.5206163,1.3061639-.7551522,2.8299352-1.4926333,5.8000827-2.705988,8.6402692-4.1816114.8566447-.4450711.0992394-1.7395756-.7568403-1.2947981h0Z"/>
      <path d="M101.4223544,91.4590612c-.4841093,3.6208716-1.3308145,7.1893288-2.1619274,10.7426976-.9974479,4.2645231-2.0045421,8.52681-2.826701,12.829541-.5477477,2.8666125-1.0135071,5.7469962-1.3986494,8.6399152-.0538941.4048149.3832504.7459413.7497638.7497638.4492392.0046852.6965373-.3499637.7497638-.7497638.6528508-4.9037584,1.5901639-9.7629528,2.6705509-14.5891271.8743912-3.9059749,1.8534814-7.7888766,2.6781225-11.7059267.4128112-1.9608558.7730177-3.9306577,1.0386043-5.9171001.0541197-.4047859-.3834121-.745943-.7497638-.7497638-.4494178-.0046871-.6963143.349991-.7497638.7497638h0Z"/>
      <path d="M92.2797835,104.6487007c.3909184,1.9950345,1.3659163,3.9074211,2.2860312,5.7028709.5724361,1.117013,1.1738261,2.2229531,1.8202884,3.2991663.4963751.826352,1.7934463.0732959,1.2947981-.7568403-.6280205-1.0455117-1.2129243-2.1193549-1.7711111-3.2034376-.8837876-1.7164486-1.809832-3.5306208-2.1840437-5.4403932-.1853854-.946106-1.6309785-.5455843-1.445963.3986338h0Z"/>
      <path d="M130.0902369,58.1636601c-1.9446501,10.4070175-5.4461507,20.5067785-9.6379214,30.2084614-4.4079935,10.2021218-9.6317177,20.0565819-15.4601596,29.5163467-3.0979449,5.0280729-6.3770895,9.9452363-9.8547145,14.7188948-.5689269.7809533.7315365,1.5300169,1.2947981.7568403,6.3689959-8.7425792,12.0967011-17.9593246,17.2040137-27.492439,5.2440151-9.7882783,9.8694059-19.9557101,13.4223227-30.4841635,1.8568072-5.5023264,3.4104919-11.114427,4.477624-16.8253069.1762529-.9432377-1.2686537-1.347525-1.445963-.3986338h0Z"/>
      <path class="cls-26" d="M138.8300241,53.9483443l-10.4179688-4.8505859c-.9908447-.2932129-2.0526123-.0484009-2.7716064.6391602l-17.5386963,13.1464844c-1.4804688.2598877-3.314209,2.022522-3.303833,4.0464478l-6.3444824,4.7940063c-.7159424.5410156-.8577881,1.5601196-.3167725,2.276123.5411377.7160034,1.5601807.8578491,2.2762451.3168335l5.8914795-4.4517822c.0003662.0003662.0007324.0007935.0010986.0011597.2871094.2514038.7370605.5958252,1.2984619,1.0028076l-4.7249756,5.4515381c-.5876465.6781616-.5144043,1.7044678.1638184,2.2922363.6782227.5878296,1.7043457.5145264,2.2922363-.1636353l4.9558105-5.7179565c.7224121.4862671,1.4959717.9997559,2.2960205,1.5252686l-5.5784912,6.9202271c-.5632324.6987305-.4533691,1.7217407.2453613,2.2849731s1.7216797.4533691,2.2849121-.2453003l5.786377-7.1781616c.6939697.447937,1.3798828.8883057,2.0426025,1.3121338l-5.0126953,8.6453247c-.4501953.7764282-.1856689,1.770752.5906982,2.2208862.7763672.4501953,1.770752.18573,2.2209473-.5906982l4.9455566-8.529541c.7841797.4963989,1.4602051.9224854,1.9796143,1.2489014l-3.7835693,7.9636841c-.3852539.8106079-.0402832,1.7799683.7703857,2.1651001s1.7799072.0402222,2.1651611-.7703857l3.9199219-8.2508545c.800415-.1102295,1.5386963-.539917,1.9743652-1.2628784l13.390625-22.2214355c.9123535-1.5142212.0754395-3.4951782-1.6986084-4.0200806Z"/>
      <path class="cls-18" d="M124.9186019,62.307784l2.428763-12.6321162c.1299364-3.0817608,3.705996-5.3166222,8.4838375-3.2779829,4.8430268,2.066453,23.2455713,4.5245622,23.2455713,4.5245622,0,0,7.6023635-2.0275342,12.2977827-2.7889555,2.2352607-.3624757,3.9329444,2.4631134,3.7227858,5.097896l-1.0476884,13.1349895c-.2101586,2.6347827-5.835997,6.4406368-7.2673136,6.7962231-10.4639337,2.5995861-27.1785417,1.9884863-38.7062272-3.4894743-1.3474243-.6402965-5.6412341-4.2512712-3.1575111-7.365142Z"/>
      <path class="cls-10" d="M152.7322391,51.6722471s13.9468981-2.7775342,18.6423173-3.5389555c2.2352607-.3624757,4.1601106,1.8400989,3.9794069,4.1056017l1.3049094,6.8772839"/>
      <path class="cls-10" d="M124.6686019,69.4486904c-1.3641928-.8934847-1.4759318-3.2948819.25-5.3909065l2.1975525-5.6948069-.7293685-5.9290932"/>
      <path d="M162.0510751,62.6207898c3.4198213.2444571,6.8005642.820156,10.1118859,1.7084266.9331218.2503123,1.3312289-1.195792.3986338-1.445963-3.438619-.9224184-6.9595453-1.5081589-10.5105198-1.7619912-.9629259-.0688323-.9585918,1.4310051,0,1.4995276h0Z"/>
      <path class="cls-26" d="M192.3225779,67.2559615l-6.4765625-4.5759277c-.3112793-.2199707-.5656738-.5110474-.7419434-.8490601l-4.1567383-7.9711304c-.2075195-.3978882-.5200195-.7347412-.9055176-.9645996-1.6627197-.9916992-3.8937988-.8626709-4.892334.4081421l-14.7731934,22.9628906c-.7108154.9047852-.5543213,2.109436.2512207,3.0733032l-5.4606934,6.1903687c-.6199951.7029419-.4892578,1.7250977.2919922,2.28302s1.9172363.4403687,2.5373535-.2625732l5.5600586-6.3029785,2.1094971,1.137207-5.2357178,7.0515137c-.5540771.7462769-.3309326,1.7553711.4985352,2.2539062.8293457.4985352,1.9509277.2977295,2.5050049-.4485474l5.3345947-7.1845093,2.3358154,1.2591553-4.6818848,7.3058472c-.4981689.7774658-.2015381,1.7711182.6624756,2.2194214.8641357.4483032,1.9685059.1813965,2.4667969-.5960693l4.6516113-7.258667,1.953125,1.0528564-3.3747559,7.1756592c-.3886719.8265381.0410156,1.7800903.9595947,2.1298218s1.9783936-.0368042,2.3670654-.8632812l3.177002-6.7554932,2.0759277,1.1190186-1.7524414,8.1110229c-.1928711.8927612.4400635,1.7252808,1.4138184,1.8594971.9737549.1341553,1.9194336-.4807129,2.1123047-1.3734741l1.6308594-7.5476685c1.2084961-.0778198,2.246582-.6640015,2.5952148-1.6651611l5.9453125-20.1037598c.3289795-.9447632-.0477295-2.0441284-.9833984-2.869751Z"/>
      <path class="cls-6" d="M181.2509431,54.4421446l4.1212898,7.9031876,6.9504193,4.9106441c.9356015.8256314,1.3123168,1.9249596.9833944,2.8697352l-5.9453951,20.1037567c-.5786512,1.6620805-3.0471981,2.2074687-5.0659338,1.1192416l-20.4598331-11.0291533c-1.782825-.9610562-2.444135-2.7988259-1.4585427-4.0532662l14.7732303-22.9628724c.682689-.8689117,1.9416359-1.204053,3.2011756-1.0121031,1.2520559.1908094,2.3145859,1.0278365,2.9001953,2.1508298Z"/>
      <path class="cls-8" d="M162.3763418,72.0760597l12.7732303-18.7726418c.5956241-1.0008947,2.3551506-1.2568207,3.2011756-1.0121031"/>
      <g>
        <path class="cls-27" d="M131.3194927,63.0878201c.3935471,1.1136388,1.145318,2.0615574,2.157607,2.6763216.3298984.2003476.8245888.0834337,1.0083667-.2644027.1892729-.358237.0877528-.7945022-.2644027-1.0083667-.1400175-.0850328-.2747003-.1773912-.4046019-.2771986l.1491613.1152414c-.285921-.2234794-.5416553-.4800755-.7649033-.7661455l.1152414.1491613c-.2206475-.2875122-.4046784-.5990333-.5484062-.9317867l.0742965.1760561c-.0362685-.0859526-.0699121-.1727715-.1009964-.260732-.0646466-.1829336-.1671508-.3400705-.3386992-.4404588-.1579754-.0924455-.3907985-.1316116-.5679079-.0742965-.3579155.1158264-.6522889.517422-.5147553.9066071h0Z"/>
        <path class="cls-27" d="M132.5289466,57.4409715c.3935471,1.1136388,1.145318,2.0615574,2.157607,2.6763216.3298984.2003476.8245888.0834337,1.0083667-.2644027.1892729-.358237.0877528-.7945022-.2644027-1.0083667-.1400175-.0850328-.2747003-.1773912-.4046019-.2771986l.1491613.1152414c-.285921-.2234794-.5416553-.4800755-.7649033-.7661455l.1152414.1491613c-.2206475-.2875122-.4046784-.5990333-.5484062-.9317867l.0742965.1760561c-.0362685-.0859526-.0699121-.1727715-.1009964-.260732-.0646466-.1829336-.1671508-.3400705-.3386992-.4404588-.1579754-.0924455-.3907985-.1316116-.5679079-.0742965-.3579155.1158264-.6522889.517422-.5147553.9066071h0Z"/>
        <path class="cls-27" d="M136.5698903,66.203041c-.2224763.2342522-.457351.4560228-.7063653.6619393-.0361236.0298716-.0733312.0584851-.1092627.0885644-.0805029.0673913.1003062-.0746708.01653-.0120298-.0594791.0444736-.1188417.0890131-.1792721.1322-.1342531.0959446-.2716765.187417-.4121615.2739846-.2587979.1594728-.5277162.2932984-.8021607.4229589-.0923385.0436251.1270134-.050368.032551-.0132709-.0320208.0125751-.0637756.0258261-.0958352.0383165-.0714364.0278316-.1434021.0543137-.2159105.0792252-.1420672.0488096-.2860987.09107-.4316321.1282118-.3736351.0953562-.6357273.5327914-.5147553.9066071.1248801.3858923.5062174.6169396.9066071.5147553,1.3613994-.3474456,2.5934094-1.1677888,3.5539537-2.1791759.2656546-.2797161.2984864-.7682815,0-1.0422865-.2879631-.2643448-.7586785-.2986197-1.0422865,0h0Z"/>
        <path class="cls-27" d="M139.1088113,54.6913291c-.0236211.040727-.0498694.0791754-.0759583.1183135-.0687334.1031123.0309473-.0456663.0528823-.0663655-.0194805.018383-.0350066.0432595-.0524816.0638362-.0793354.0934161-.1648792.1815242-.2533669.2662606-.0997868.0955565-.2037458.1867439-.3103155.2746482-.0279832.023082-.056163.0459269-.0845152.0685541-.0191245.0152602-.0383279.0304203-.0576104.0454803l.0906278-.0700044c-.0612025.0521974-.1303461.0979333-.1956909.1446474-.2422004.1731457-.4941898.3333826-.7560928.4751061-.1206955.0653119-.2445039.1223093-.3682531.1812925-.0736471.0351028.1963581-.0773903.0588896-.0251893-.0284942.0108201-.0567577.0221987-.0853982.0326491-.0581843.0212303-.1169474.0403204-.1764422.0575297-.370072.107046-.6384292.5244421-.5147553.9066071.1216843.3760171.5098861.6295098.9066071.5147553.6151135-.1779261,1.1938825-.5191649,1.709986-.8919532.5119723-.3698043,1.0619419-.7957848,1.3846572-1.3522037.1935314-.3336828.088278-.8220293-.2644027-1.0083667-.3522889-.1861303-.8017317-.0918729-1.0083667.2644027h0Z"/>
        <path class="cls-27" d="M133.6638534,51.2630699c.1278778,1.4431461.8981965,2.7467426,2.1281104,3.5242651.3264137.206351.8268663.0791231,1.0083667-.2644027.1920689-.3635289.0839854-.788124-.2644027-1.0083667-.0618677-.0391113-.1229385-.0793232-.1825698-.1217817-.0236323-.0168266-.0463262-.0362808-.0708364-.0517408.1611867.1016697.0686545.0535535.0283535.0206467-.1074933-.087771-.2100595-.1815531-.3071554-.2807064-.0459913-.0469659-.0907097-.0951651-.134213-.1444413-.0241704-.0273779-.0479944-.0550582-.071376-.0831138-.0173875-.0208632-.0985048-.125559-.0246231-.0279887.076623.1011905-.0121768-.0175638-.021495-.0304282-.0171392-.0236618-.0340064-.047532-.0506185-.0715668-.041528-.060084-.08133-.1213987-.1193889-.183738-.0684952-.1121931-.1313375-.2278848-.1881266-.3464345-.0157771-.0329353-.0302355-.0664595-.0458545-.0994523-.0391753-.0827524.0616497.1571272.0147563.0348063-.0235215-.0613555-.0469083-.1226615-.0680137-.1849092-.0445156-.1312929-.0818276-.2649916-.111557-.4004052-.0156674-.071363-.0281705-.1431364-.0404343-.2151305-.0173734-.1019899.0075508.0387103.0083167.0657411-.0012141-.0428503-.0094329-.0880796-.0132231-.1308525-.0176354-.1990218-.0703626-.3756413-.2158646-.5211433-.1278283-.1278283-.3375542-.2240876-.5211433-.2158646-.3701475.016579-.7734497.3257491-.7370079.7370079h0Z"/>
        <path class="cls-27" d="M129.3740439,49.4350108c-.1086418,1.3525343.4610963,2.7575441,1.4671069,3.6648216.2862511.2581575.7635443.3036468,1.0422865,0,.2586082-.2817139.305761-.7665339,0-1.0422865-.1041084-.0938908-.2036579-.1922988-.2969373-.2970096-.0438554-.0492299-.0849361-.1005553-.127392-.1509397-.0620986-.0736952.1049734.1470103.0104159.0117916-.0188642-.0269761-.038346-.0535032-.0569999-.0806326-.0792691-.1152855-.1520947-.2349869-.2183101-.3582258-.0311693-.0580117-.0608459-.1167936-.089025-.1763151-.0140852-.0297515-.0269646-.0600987-.0411266-.0897982-.0417128-.0874772.0655211.171911.0077765.0165387-.0949067-.2553636-.1709019-.514729-.2147936-.7840441-.0097833-.0600293.0075376-.1507069.0023721.024964.0009345-.0317823-.0072616-.0663663-.0101098-.0981243-.0058736-.0654927-.0100206-.1311718-.0123949-.1968847-.0053536-.1481748-.0007203-.2961148.0111469-.4438552.0309458-.3852596-.3610899-.7538453-.7370079-.7370079-.4257623.0190699-.7038585.3243153-.7370079.7370079h0Z"/>
        <path class="cls-27" d="M128.8021231,56.9190368c.1278778,1.4431461.8981965,2.7467426,2.1281104,3.5242651.3264137.206351.8268663.0791231,1.0083667-.2644027.1920689-.3635289.0839854-.788124-.2644027-1.0083667-.0618677-.0391113-.1229385-.0793232-.1825698-.1217817-.0236323-.0168266-.0463262-.0362808-.0708364-.0517408.1611867.1016697.0686545.0535535.0283535.0206467-.1074933-.087771-.2100595-.1815531-.3071554-.2807064-.0459913-.0469659-.0907097-.0951651-.134213-.1444413-.0241704-.0273779-.0479944-.0550582-.071376-.0831138-.0173875-.0208632-.0985048-.125559-.0246231-.0279887.076623.1011905-.0121768-.0175638-.021495-.0304282-.0171392-.0236618-.0340064-.047532-.0506185-.0715668-.041528-.060084-.08133-.1213987-.1193889-.183738-.0684952-.1121931-.1313375-.2278848-.1881266-.3464345-.0157771-.0329353-.0302355-.0664595-.0458545-.0994523-.0391753-.0827524.0616497.1571272.0147563.0348063-.0235215-.0613555-.0469083-.1226615-.0680137-.1849092-.0445156-.1312929-.0818276-.2649916-.111557-.4004052-.0156674-.071363-.0281705-.1431364-.0404343-.2151305-.0173734-.1019899.0075508.0387103.0083167.0657411-.0012141-.0428503-.0094329-.0880796-.0132231-.1308525-.0176354-.1990218-.0703626-.3756413-.2158646-.5211433-.1278283-.1278283-.3375542-.2240876-.5211433-.2158646-.3701475.016579-.7734497.3257491-.7370079.7370079h0Z"/>
        <path class="cls-27" d="M137.9089255,60.4796511c-.0395095.0616445-.0801159.1224844-.122957.1818729-.017079.0236757-.0358236.0464459-.0522213.0705767.1105848-.162736.0509979-.0665309.0197927-.0287812-.0886065.1071894-.1831927.2094158-.2830967.3061639-.0473635.0458673-.0959509.0904575-.1456044.1338317-.0275985.0241083-.0554968.0478695-.0837666.0711883-.0207936.0171519-.125143.0997765-.028778.024423.0995787-.0778664-.0181997.0119749-.031222.0213177-.0238411.0171047-.0478885.0339374-.0720985.0505155-.0605414.0414564-.1223012.0811878-.1850735.1191817-.1130339.0684154-.2295296.1311878-.3488489.187936-.033166.0157737-.0668615.0303081-.1001225.0458439-.0830064.0387711.1566057-.061363.03387-.0147412-.0617859.0234697-.123464.0469484-.186107.0680873-.1321441.0445921-.2666701.0820188-.4028987.1119095-.0717947.0157529-.1439995.0283261-.2164155.0407292-.1018984.0174527.0373941-.0071715.0649816-.0081033-.0431983.001459-.0884851.0095831-.1316022.0134639-.1991704.0179265-.3754531.0701744-.5211433.2158646-.1278283.1278283-.2240876.3375542-.2158646.5211433.0165585.3696911.3257996.7740191.7370079.7370079,1.4478579-.1303159,2.756905-.8959412,3.5449381-2.1254673.2084164-.3251811.0776302-.8276551-.2644027-1.0083667-.3653616-.1930372-.7859269-.0826582-1.0083667.2644027h0Z"/>
      </g>
      <path class="cls-27" d="M157.0016038,10.7801022c6.1782377,1.1580345,11.4980992,5.0673909,14.5003142,10.5865092.7641506,1.4047753,1.3538614,2.8862176,1.7685399,4.4304784.2500075.9310267,1.6969382.5359969,1.445963-.3986338-1.6414966-6.1129262-6.0152422-11.4445939-11.7117535-14.2150455-1.7788339-.8651213-3.6607382-1.4849503-5.6044298-1.8492713-.9432059-.1767923-1.347448,1.2681195-.3986338,1.445963h0Z"/>
      <path class="cls-27" d="M159.0189235,125.8302432l.505767-2.4913176c.138616-.6827973.8788634-1.0566788,1.510672-.7630047l7.9194108,3.6810607c1.1240416.5224713.6223065,2.2180682-.605051,2.0447496l-8.4251778-1.1897431c-.6146198-.0867922-1.0291149-.6734361-.905621-1.2817449Z"/>
      <path class="cls-27" d="M158.3212187,150.0621463l.505767-2.4913176c.138616-.6827973.8788634-1.0566788,1.510672-.7630047l7.9194108,3.6810607c1.1240416.5224713.6223065,2.2180682-.605051,2.0447496l-8.4251778-1.1897431c-.6146198-.0867922-1.0291149-.6734361-.905621-1.2817449Z"/>
      <path class="cls-27" d="M159.7945265,171.37091l.1206222-2.5392743c.033059-.6959408.7077636-1.1781518,1.3769142-.9840799l8.3874757,2.4325968c1.1904763.3452706.9527075,2.0974843-.2867295,2.1130248l-8.5080979.1066775c-.6206689.0077822-1.1196372-.5089264-1.0901847-1.1289449Z"/>
      <path class="cls-27" d="M163.1246761,194.4891757l-.3813745-2.5133677c-.1045236-.6888406.4621091-1.2943825,1.1563649-1.2357695l8.7021557.7346854c1.2351404.1042776,1.346793,1.8690213.1346437,2.128135l-8.3207812,1.7786823c-.607004.1297555-1.1978878-.2786727-1.2910086-.8923655Z"/>
    </g>
  </g>
</svg>